<?xml version="1.0" encoding="utf-8" standalone="no"?>
<!DOCTYPE svg PUBLIC "-//W3C//DTD SVG 1.1//EN"
  "http://www.w3.org/Graphics/SVG/1.1/DTD/svg11.dtd">
<svg xmlns:xlink="http://www.w3.org/1999/xlink" width="56.692913pt" height="226.771654pt" viewBox="0 0 56.692913 226.771654" xmlns="http://www.w3.org/2000/svg" version="1.1">
 <metadata>
  <rdf:RDF xmlns:dc="http://purl.org/dc/elements/1.1/" xmlns:cc="http://creativecommons.org/ns#" xmlns:rdf="http://www.w3.org/1999/02/22-rdf-syntax-ns#">
   <cc:Work>
    <dc:type rdf:resource="http://purl.org/dc/dcmitype/StillImage"/>
    <dc:date>1980-01-01T00:00:00+00:00</dc:date>
    <dc:format>image/svg+xml</dc:format>
    <dc:creator>
     <cc:Agent>
      <dc:title>Matplotlib v3.10.1, https://matplotlib.org/</dc:title>
     </cc:Agent>
    </dc:creator>
   </cc:Work>
  </rdf:RDF>
 </metadata>
 <defs>
  <style type="text/css">*{stroke-linejoin: round; stroke-linecap: butt}</style>
 </defs>
 <g id="figure_1">
  <g id="patch_1">
   <path d="M 0 226.771654 
L 56.692913 226.771654 
L 56.692913 0 
L 0 0 
z
" style="fill: #ffffff"/>
  </g>
  <g id="axes_1">
   <g id="patch_2">
    <path d="M 7.086614 201.826772 
L 51.023622 201.826772 
L 51.023622 27.212598 
L 7.086614 27.212598 
z
" style="fill: #ffffff"/>
   </g>
   <g id="matplotlib.axis_1">
    <g id="text_1">
     <!-- $p(s^{CTX}_x|s_j)$ -->
     <g transform="translate(2.115118 216.746772) scale(0.12 -0.12)">
      <defs>
       <path id="DejaVuSans-Oblique-70" d="M 3175 2156 
Q 3175 2616 2975 2859 
Q 2775 3103 2400 3103 
Q 2144 3103 1911 2972 
Q 1678 2841 1497 2591 
Q 1319 2344 1212 1994 
Q 1106 1644 1106 1300 
Q 1106 863 1306 627 
Q 1506 391 1875 391 
Q 2147 391 2380 519 
Q 2613 647 2778 891 
Q 2956 1147 3065 1494 
Q 3175 1841 3175 2156 
z
M 1394 2969 
Q 1625 3272 1939 3428 
Q 2253 3584 2638 3584 
Q 3175 3584 3472 3232 
Q 3769 2881 3769 2247 
Q 3769 1728 3584 1258 
Q 3400 788 3053 416 
Q 2822 169 2531 39 
Q 2241 -91 1919 -91 
Q 1547 -91 1294 64 
Q 1041 219 916 525 
L 556 -1331 
L -19 -1331 
L 922 3500 
L 1497 3500 
L 1394 2969 
z
" transform="scale(0.015625)"/>
       <path id="DejaVuSans-28" d="M 1984 4856 
Q 1566 4138 1362 3434 
Q 1159 2731 1159 2009 
Q 1159 1288 1364 580 
Q 1569 -128 1984 -844 
L 1484 -844 
Q 1016 -109 783 600 
Q 550 1309 550 2009 
Q 550 2706 781 3412 
Q 1013 4119 1484 4856 
L 1984 4856 
z
" transform="scale(0.015625)"/>
       <path id="DejaVuSans-Oblique-73" d="M 3200 3397 
L 3091 2853 
Q 2863 2978 2609 3040 
Q 2356 3103 2088 3103 
Q 1634 3103 1373 2948 
Q 1113 2794 1113 2528 
Q 1113 2219 1719 2053 
Q 1766 2041 1788 2034 
L 1972 1978 
Q 2547 1819 2739 1644 
Q 2931 1469 2931 1166 
Q 2931 609 2489 259 
Q 2047 -91 1331 -91 
Q 1053 -91 747 -37 
Q 441 16 72 128 
L 184 722 
Q 500 559 806 475 
Q 1113 391 1394 391 
Q 1816 391 2080 572 
Q 2344 753 2344 1031 
Q 2344 1331 1650 1516 
L 1591 1531 
L 1394 1581 
Q 956 1697 753 1886 
Q 550 2075 550 2369 
Q 550 2928 970 3256 
Q 1391 3584 2113 3584 
Q 2397 3584 2667 3537 
Q 2938 3491 3200 3397 
z
" transform="scale(0.015625)"/>
       <path id="DejaVuSans-Oblique-43" d="M 4447 4306 
L 4319 3641 
Q 4019 3944 3683 4091 
Q 3347 4238 2956 4238 
Q 2422 4238 2017 3981 
Q 1613 3725 1319 3200 
Q 1131 2863 1032 2486 
Q 934 2109 934 1728 
Q 934 1091 1264 756 
Q 1594 422 2222 422 
Q 2656 422 3056 561 
Q 3456 700 3834 978 
L 3688 231 
Q 3316 72 2936 -9 
Q 2556 -91 2175 -91 
Q 1278 -91 773 396 
Q 269 884 269 1753 
Q 269 2309 461 2846 
Q 653 3384 1013 3828 
Q 1394 4300 1883 4525 
Q 2372 4750 3022 4750 
Q 3422 4750 3780 4639 
Q 4138 4528 4447 4306 
z
" transform="scale(0.015625)"/>
       <path id="DejaVuSans-Oblique-54" d="M 378 4666 
L 4325 4666 
L 4225 4134 
L 2559 4134 
L 1759 0 
L 1125 0 
L 1925 4134 
L 275 4134 
L 378 4666 
z
" transform="scale(0.015625)"/>
       <path id="DejaVuSans-Oblique-58" d="M 878 4666 
L 1516 4666 
L 2316 2981 
L 3763 4666 
L 4500 4666 
L 2578 2438 
L 3738 0 
L 3103 0 
L 2163 1966 
L 459 0 
L -275 0 
L 1906 2509 
L 878 4666 
z
" transform="scale(0.015625)"/>
       <path id="DejaVuSans-Oblique-78" d="M 3841 3500 
L 2234 1784 
L 3219 0 
L 2559 0 
L 1819 1388 
L 531 0 
L -166 0 
L 1556 1844 
L 641 3500 
L 1300 3500 
L 1972 2234 
L 3144 3500 
L 3841 3500 
z
" transform="scale(0.015625)"/>
       <path id="DejaVuSans-7c" d="M 1344 4891 
L 1344 -1509 
L 813 -1509 
L 813 4891 
L 1344 4891 
z
" transform="scale(0.015625)"/>
       <path id="DejaVuSans-Oblique-6a" d="M 928 3500 
L 1503 3500 
L 813 -63 
L 809 -78 
Q 694 -675 544 -897 
Q 403 -1106 132 -1218 
Q -138 -1331 -506 -1331 
L -722 -1331 
L -628 -844 
L -481 -844 
Q -144 -844 -1 -703 
Q 141 -563 238 -63 
L 928 3500 
z
M 1197 4863 
L 1772 4863 
L 1631 4134 
L 1056 4134 
L 1197 4863 
z
" transform="scale(0.015625)"/>
       <path id="DejaVuSans-29" d="M 513 4856 
L 1013 4856 
Q 1481 4119 1714 3412 
Q 1947 2706 1947 2009 
Q 1947 1309 1714 600 
Q 1481 -109 1013 -844 
L 513 -844 
Q 928 -128 1133 580 
Q 1338 1288 1338 2009 
Q 1338 2731 1133 3434 
Q 928 4138 513 4856 
z
" transform="scale(0.015625)"/>
      </defs>
      <use xlink:href="#DejaVuSans-Oblique-70" transform="translate(0 0.765625)"/>
      <use xlink:href="#DejaVuSans-28" transform="translate(63.476562 0.765625)"/>
      <use xlink:href="#DejaVuSans-Oblique-73" transform="translate(102.490234 0.765625)"/>
      <use xlink:href="#DejaVuSans-Oblique-43" transform="translate(159.23974 39.046875) scale(0.7)"/>
      <use xlink:href="#DejaVuSans-Oblique-54" transform="translate(208.116693 39.046875) scale(0.7)"/>
      <use xlink:href="#DejaVuSans-Oblique-58" transform="translate(250.875482 39.046875) scale(0.7)"/>
      <use xlink:href="#DejaVuSans-Oblique-78" transform="translate(154.589844 -26.578125) scale(0.7)"/>
      <use xlink:href="#DejaVuSans-7c" transform="translate(301.563958 0.765625)"/>
      <use xlink:href="#DejaVuSans-Oblique-73" transform="translate(335.255365 0.765625)"/>
      <use xlink:href="#DejaVuSans-Oblique-6a" transform="translate(387.354974 -15.640625) scale(0.7)"/>
      <use xlink:href="#DejaVuSans-29" transform="translate(409.537591 0.765625)"/>
     </g>
    </g>
   </g>
   <g id="matplotlib.axis_2">
    <g id="text_2">
     <!-- $s_x$ -->
     <g transform="translate(55.203622 122.89531) scale(0.12 -0.12)">
      <use xlink:href="#DejaVuSans-Oblique-73"/>
      <use xlink:href="#DejaVuSans-Oblique-78" transform="translate(52.099609 -16.40625) scale(0.7)"/>
     </g>
    </g>
   </g>
   <g id="line2d_1">
    <path d="M 44.089796 201.826772 
L 44.082458 200.062992 
L 44.074649 198.299213 
L 44.066327 196.535433 
L 44.057448 194.771654 
L 44.047959 193.007874 
L 44.037804 191.244094 
L 44.026919 189.480315 
L 44.015235 187.716535 
L 44.002669 185.952756 
L 43.989133 184.188976 
L 43.974525 182.425197 
L 43.958727 180.661417 
L 43.94161 178.897638 
L 43.923022 177.133858 
L 43.902792 175.370079 
L 43.880721 173.606299 
L 43.856583 171.84252 
L 43.830112 170.07874 
L 43.801001 168.314961 
L 43.768892 166.551181 
L 43.733361 164.787402 
L 43.693913 163.023622 
L 43.649956 161.259843 
L 43.600787 159.496063 
L 43.545562 157.732283 
L 43.483262 155.968504 
L 43.412649 154.204724 
L 43.332207 152.440945 
L 43.24007 150.677165 
L 43.133918 148.913386 
L 43.010845 147.149606 
L 42.86718 145.385827 
L 42.698246 143.622047 
L 42.498025 141.858268 
L 42.258707 140.094488 
L 41.970067 138.330709 
L 41.618608 136.566929 
L 41.186416 134.80315 
L 40.649656 133.03937 
L 39.976779 131.275591 
L 39.126782 129.511811 
L 38.048766 127.748031 
L 36.686093 125.984252 
L 34.992767 124.220472 
L 32.975893 122.456693 
L 30.77735 120.692913 
L 28.768828 118.929134 
L 27.529083 117.165354 
L 27.542875 115.401575 
L 28.804249 113.637795 
L 30.822026 111.874016 
L 33.019685 110.110236 
L 35.030741 108.346457 
L 36.7171 106.582677 
L 38.07342 104.818898 
L 39.14622 103.055118 
L 39.992125 101.291339 
L 40.661849 99.527559 
L 41.196189 97.76378 
L 41.626518 96 
L 41.976533 94.23622 
L 42.264045 92.472441 
L 42.502471 90.708661 
L 42.701983 88.944882 
L 42.870347 87.181102 
L 43.013548 85.417323 
L 43.136242 83.653543 
L 43.242082 81.889764 
L 43.333959 80.125984 
L 43.414182 78.362205 
L 43.484612 76.598425 
L 43.546756 74.834646 
L 43.601848 73.070866 
L 43.650902 71.307087 
L 43.694761 69.543307 
L 43.734124 67.779528 
L 43.76958 66.015748 
L 43.801624 64.251969 
L 43.830678 62.488189 
L 43.857098 60.724409 
L 43.881192 58.96063 
L 43.903222 57.19685 
L 43.923417 55.433071 
L 43.941973 53.669291 
L 43.959062 51.905512 
L 43.974834 50.141732 
L 43.98942 48.377953 
L 44.002935 46.614173 
L 44.015482 44.850394 
L 44.027149 43.086614 
L 44.038018 41.322835 
L 44.048159 39.559055 
L 44.057635 37.795276 
L 44.066503 36.031496 
L 44.074813 34.267717 
L 44.082612 32.503937 
L 44.089941 30.740157 
L 44.096835 28.976378 
L 44.10333 27.212598 
" clip-path="url(#pf8d722c88d)" style="fill: none; stroke: #000000; stroke-width: 1.5; stroke-linecap: square"/>
   </g>
   <g id="patch_3">
    <path d="M 51.023622 198.148756 
Q 51.023622 114.518756 51.023622 30.888756 
" style="fill: none; stroke: #000000; stroke-width: 1.5; stroke-linecap: round"/>
    <path d="M 53.823622 192.548756 
L 51.023622 198.148756 
L 48.223622 192.548756 
" style="fill: none; stroke: #000000; stroke-width: 1.5; stroke-linecap: round"/>
    <path d="M 48.223622 36.488756 
L 51.023622 30.888756 
L 53.823622 36.488756 
" style="fill: none; stroke: #000000; stroke-width: 1.5; stroke-linecap: round"/>
   </g>
   <g id="text_3">
    <!-- stimulus -->
    <g transform="translate(15.874016 21.212598) scale(0.15 -0.15)">
     <defs>
      <path id="LibertinusSerif-Regular-73" d="M 307 883 
C 333 570 352 269 352 0 
C 416 13 480 19 512 19 
C 557 19 595 19 640 6 
C 813 -38 986 -64 1222 -64 
C 1581 -64 2240 109 2240 742 
C 2240 1178 1926 1434 1491 1594 
C 1107 1741 851 1837 851 2189 
C 851 2451 1082 2598 1299 2598 
C 1440 2598 1811 2547 1894 2003 
C 1933 1965 2061 1971 2099 2010 
C 2118 2240 2131 2477 2138 2688 
C 1939 2720 1632 2810 1299 2810 
C 826 2810 397 2502 397 2093 
C 397 1626 608 1427 1101 1222 
C 1632 1005 1754 870 1754 595 
C 1754 282 1446 147 1210 147 
C 960 147 819 230 755 301 
C 614 448 544 730 506 890 
C 467 928 346 922 307 883 
z
" transform="scale(0.015625)"/>
      <path id="LibertinusSerif-Regular-74" d="M 275 2746 
C 186 2746 160 2669 160 2618 
L 160 2534 
C 160 2502 166 2496 192 2496 
L 570 2496 
L 570 570 
C 570 115 768 -64 1062 -64 
C 1357 -64 1677 77 1926 358 
C 1914 422 1875 461 1811 467 
C 1645 339 1453 288 1286 288 
C 1114 288 1075 480 1075 877 
L 1075 2496 
L 1741 2496 
C 1805 2496 1894 2522 1894 2579 
L 1894 2707 
C 1894 2733 1875 2746 1843 2746 
L 1075 2746 
L 1075 2995 
C 1075 3411 1101 3667 1101 3667 
C 1101 3706 1082 3725 1050 3725 
C 1024 3725 966 3699 909 3667 
C 838 3629 774 3597 691 3578 
C 614 3552 550 3533 550 3488 
C 550 3411 570 3456 570 2746 
L 275 2746 
z
" transform="scale(0.015625)"/>
      <path id="LibertinusSerif-Regular-69" d="M 1158 781 
L 1158 2054 
C 1158 2374 1184 2784 1184 2784 
C 1184 2810 1152 2829 1101 2829 
C 922 2758 666 2701 224 2643 
C 211 2605 224 2502 237 2464 
C 589 2432 653 2394 653 2029 
L 653 781 
C 653 250 582 230 192 198 
C 154 160 154 26 192 -13 
C 403 -6 653 0 909 0 
C 1165 0 1408 -6 1619 -13 
C 1658 26 1658 160 1619 198 
C 1229 224 1158 250 1158 781 
z
M 576 3834 
C 576 3667 730 3501 883 3501 
C 1062 3501 1216 3674 1216 3808 
C 1216 3962 1082 4141 909 4141 
C 755 4141 576 3987 576 3834 
z
" transform="scale(0.015625)"/>
      <path id="LibertinusSerif-Regular-6d" d="M 1088 2291 
C 1082 2483 1069 2714 1037 2778 
C 1024 2810 1011 2829 960 2829 
C 781 2758 614 2701 173 2643 
C 160 2605 173 2502 186 2464 
C 531 2432 602 2400 602 2029 
L 602 781 
C 602 256 518 224 166 198 
C 128 160 128 26 166 -13 
C 358 -6 602 0 858 0 
C 1114 0 1312 -6 1504 -13 
C 1542 26 1542 160 1504 198 
C 1178 230 1107 256 1107 781 
L 1107 1830 
C 1107 1965 1165 2042 1216 2099 
C 1472 2349 1709 2477 1907 2477 
C 2150 2477 2330 2323 2330 1894 
L 2330 781 
C 2330 256 2278 224 1933 198 
C 1901 160 1901 26 1933 -13 
C 2093 -6 2330 0 2586 0 
C 2842 0 3053 -6 3213 -13 
C 3245 26 3245 160 3213 198 
C 2893 224 2835 256 2835 781 
L 2835 1798 
C 2835 1888 2835 1978 2829 2054 
C 3136 2394 3424 2477 3674 2477 
C 3917 2477 4058 2336 4058 1907 
L 4058 781 
C 4058 256 3994 224 3661 198 
C 3629 160 3629 26 3661 -13 
C 3821 -6 4058 0 4314 0 
C 4570 0 4794 -6 4973 -13 
C 5005 26 5005 160 4973 198 
C 4621 224 4563 256 4563 781 
L 4563 1792 
C 4563 2362 4467 2810 3904 2810 
C 3578 2810 3181 2688 2848 2336 
C 2829 2317 2790 2285 2778 2342 
C 2720 2605 2470 2810 2138 2810 
C 1766 2810 1434 2592 1165 2291 
C 1133 2259 1094 2214 1088 2291 
z
" transform="scale(0.015625)"/>
      <path id="LibertinusSerif-Regular-75" d="M 1389 -64 
C 1638 -64 1939 64 2253 320 
C 2285 346 2342 358 2349 314 
C 2368 154 2419 -64 2419 -64 
C 2470 -83 2502 -77 2541 -64 
C 2682 51 2906 147 3296 192 
C 3334 230 3334 326 3296 365 
C 2886 397 2829 518 2829 832 
L 2829 2061 
C 2829 2253 2854 2720 2854 2720 
C 2854 2739 2835 2758 2803 2758 
C 2771 2752 2675 2746 2579 2746 
C 2374 2746 2144 2752 1926 2758 
C 1888 2720 1888 2586 1926 2547 
C 2240 2528 2323 2451 2323 2029 
L 2323 794 
C 2323 672 2310 621 2221 544 
C 1984 339 1741 237 1581 237 
C 1389 237 1069 326 1069 896 
L 1069 2061 
C 1069 2253 1094 2720 1094 2720 
C 1094 2739 1075 2758 1043 2758 
C 1011 2752 915 2746 819 2746 
C 614 2746 384 2752 166 2758 
C 128 2720 128 2586 166 2547 
C 474 2522 563 2451 563 2035 
L 563 806 
C 563 365 755 -64 1389 -64 
z
" transform="scale(0.015625)"/>
      <path id="LibertinusSerif-Regular-6c" d="M 608 781 
C 608 250 538 218 147 198 
C 109 160 109 26 147 -13 
C 371 -6 608 0 864 0 
C 1120 0 1363 -6 1574 -13 
C 1613 26 1613 160 1574 198 
C 1184 218 1114 250 1114 781 
L 1114 3731 
C 1114 4147 1139 4403 1139 4403 
C 1139 4448 1114 4467 1056 4467 
C 896 4403 416 4314 160 4294 
C 147 4243 160 4141 198 4102 
C 570 4077 608 4058 608 3578 
L 608 781 
z
" transform="scale(0.015625)"/>
     </defs>
     <use xlink:href="#LibertinusSerif-Regular-73"/>
     <use xlink:href="#LibertinusSerif-Regular-74" transform="translate(38.999985 0)"/>
     <use xlink:href="#LibertinusSerif-Regular-69" transform="translate(70.599976 0)"/>
     <use xlink:href="#LibertinusSerif-Regular-6d" transform="translate(97.699966 0)"/>
     <use xlink:href="#LibertinusSerif-Regular-75" transform="translate(176.699951 0)"/>
     <use xlink:href="#LibertinusSerif-Regular-6c" transform="translate(229.799942 0)"/>
     <use xlink:href="#LibertinusSerif-Regular-75" transform="translate(256.199936 0)"/>
     <use xlink:href="#LibertinusSerif-Regular-73" transform="translate(309.299927 0)"/>
    </g>
   </g>
  </g>
  <g id="text_4">
   <!-- A -->
   <g transform="translate(-5.838 16.261308) scale(0.168 -0.168)">
    <defs>
     <path id="LibertinusSerif-Regular-41" d="M 992 506 
L 1344 1434 
C 1376 1517 1414 1542 1568 1542 
L 2918 1542 
L 3290 461 
C 3366 243 3123 218 2816 198 
C 2778 160 2778 26 2816 -13 
C 3053 -6 3405 0 3654 0 
C 3917 0 4160 -6 4384 -13 
C 4422 26 4422 160 4384 198 
C 4134 224 3917 243 3808 550 
L 2490 4211 
C 2394 4154 2221 4083 2138 4083 
L 685 653 
C 518 256 326 218 45 198 
C 6 160 6 26 45 -13 
C 211 -6 422 0 614 0 
C 877 0 1197 -6 1434 -13 
C 1472 26 1472 160 1434 198 
C 1190 218 890 243 992 506 
z
M 1683 1811 
C 1542 1811 1498 1830 1523 1894 
L 2176 3552 
L 2214 3552 
L 2816 1811 
L 1683 1811 
z
" transform="scale(0.015625)"/>
    </defs>
    <use xlink:href="#LibertinusSerif-Regular-41"/>
   </g>
  </g>
 </g>
 <defs>
  <clipPath id="pf8d722c88d">
   <rect x="7.086614" y="27.212598" width="43.937008" height="174.614173"/>
  </clipPath>
 </defs>
</svg>
