<?xml version="1.0" encoding="utf-8" standalone="no"?>
<!DOCTYPE svg PUBLIC "-//W3C//DTD SVG 1.1//EN"
  "http://www.w3.org/Graphics/SVG/1.1/DTD/svg11.dtd">
<svg xmlns:xlink="http://www.w3.org/1999/xlink" width="226.771654pt" height="226.771654pt" viewBox="0 0 226.771654 226.771654" xmlns="http://www.w3.org/2000/svg" version="1.1">
 <metadata>
  <rdf:RDF xmlns:dc="http://purl.org/dc/elements/1.1/" xmlns:cc="http://creativecommons.org/ns#" xmlns:rdf="http://www.w3.org/1999/02/22-rdf-syntax-ns#">
   <cc:Work>
    <dc:type rdf:resource="http://purl.org/dc/dcmitype/StillImage"/>
    <dc:date>1980-01-01T00:00:00+00:00</dc:date>
    <dc:format>image/svg+xml</dc:format>
    <dc:creator>
     <cc:Agent>
      <dc:title>Matplotlib v3.10.1, https://matplotlib.org/</dc:title>
     </cc:Agent>
    </dc:creator>
   </cc:Work>
  </rdf:RDF>
 </metadata>
 <defs>
  <style type="text/css">*{stroke-linejoin: round; stroke-linecap: butt}</style>
 </defs>
 <g id="figure_1">
  <g id="patch_1">
   <path d="M 0 226.771654 
L 226.771654 226.771654 
L 226.771654 0 
L 0 0 
z
" style="fill: #ffffff"/>
  </g>
  <g id="axes_1">
   <g id="patch_2">
    <path d="M 28.346457 43.685634 
L 204.094488 43.685634 
L 204.094488 27.212598 
L 28.346457 27.212598 
z
" style="fill: #ffffff"/>
   </g>
   <g id="matplotlib.axis_1"/>
   <g id="matplotlib.axis_2"/>
   <g id="line2d_1">
    <path d="M 28.346457 42.587431 
L 33.654114 42.501636 
L 33.972661 34.326716 
L 34.005614 34.261561 
L 34.056142 34.438242 
L 34.187955 36.043171 
L 34.662481 41.954475 
L 34.89535 42.494336 
L 35.167762 42.582013 
L 37.043896 42.587431 
L 39.500006 42.501636 
L 39.818553 34.326716 
L 39.851506 34.261561 
L 39.902034 34.438242 
L 40.033847 36.043171 
L 40.508372 41.954475 
L 40.741242 42.494336 
L 41.013654 42.582013 
L 41.176223 42.586698 
L 41.17842 42.500923 
L 41.499164 34.31759 
L 41.529921 34.261557 
L 41.580449 34.43824 
L 41.712262 36.043171 
L 42.186787 41.954475 
L 42.419656 42.494336 
L 42.692069 42.582013 
L 44.568203 42.587431 
L 60.297848 42.501636 
L 60.616396 34.326716 
L 60.649349 34.261561 
L 60.699877 34.438242 
L 60.83169 36.043171 
L 61.306215 41.954475 
L 61.539084 42.494336 
L 61.811497 42.582013 
L 62.362913 42.587429 
L 62.683658 34.326716 
L 62.716611 34.261561 
L 62.767139 34.438242 
L 62.898952 36.043171 
L 63.373477 41.954475 
L 63.606346 42.494336 
L 63.878759 42.582013 
L 65.754893 42.587431 
L 74.579751 42.501636 
L 74.997158 30.539515 
L 75.128971 28.880761 
L 75.166318 29.0049 
L 75.269571 30.42304 
L 75.970375 42.192844 
L 76.196653 42.535166 
L 76.539366 42.586359 
L 77.688333 42.501636 
L 78.006881 34.326716 
L 78.039834 34.261561 
L 78.090362 34.438242 
L 78.222175 36.043171 
L 78.6967 41.954475 
L 78.929569 42.494336 
L 79.201982 42.582013 
L 79.540301 42.587366 
L 79.542498 42.501572 
L 79.861046 34.326715 
L 79.893999 34.261561 
L 79.944527 34.438242 
L 80.07634 36.043171 
L 80.550865 41.954475 
L 80.783734 42.494336 
L 81.056147 42.582013 
L 82.932281 42.587431 
L 86.045257 42.501636 
L 86.363804 34.326716 
L 86.396757 34.261561 
L 86.447285 34.438242 
L 86.579098 36.043171 
L 87.053624 41.954475 
L 87.286493 42.494336 
L 87.558906 42.582013 
L 89.435039 42.587431 
L 112.42976 42.501636 
L 112.748307 34.326716 
L 112.78126 34.261561 
L 112.831788 34.438242 
L 112.963601 36.043171 
L 113.438127 41.954475 
L 113.670996 42.494336 
L 113.943409 42.582013 
L 115.819542 42.587431 
L 117.834079 42.501636 
L 118.152627 34.326716 
L 118.18558 34.261561 
L 118.236108 34.438242 
L 118.367921 36.043171 
L 118.842446 41.954475 
L 119.075315 42.494336 
L 119.347728 42.582013 
L 121.223862 42.587431 
L 125.769202 42.501636 
L 126.087749 34.326716 
L 126.120702 34.261561 
L 126.171231 34.438242 
L 126.303043 36.043171 
L 126.777569 41.954475 
L 127.010438 42.494336 
L 127.282851 42.582013 
L 129.158985 42.587431 
L 167.525259 42.501636 
L 167.843807 34.326716 
L 167.87676 34.261561 
L 167.927288 34.438242 
L 168.059101 36.043171 
L 168.533626 41.954475 
L 168.766495 42.494336 
L 169.038908 42.582013 
L 170.915042 42.587431 
L 189.397375 42.501636 
L 189.79501 26.219533 
L 189.89387 27.333865 
L 190.13992 34.955088 
L 190.44968 41.243457 
L 190.682549 42.381811 
L 190.90663 42.565738 
L 191.482212 42.587422 
L 194.999414 42.501636 
L 195.317961 34.326716 
L 195.350914 34.261561 
L 195.401443 34.438242 
L 195.533255 36.043171 
L 196.007781 41.954475 
L 196.24065 42.494336 
L 196.513063 42.582013 
L 198.017924 42.587431 
L 198.338668 34.326716 
L 198.371621 34.261561 
L 198.42215 34.438242 
L 198.553962 36.043171 
L 199.028488 41.954475 
L 199.261357 42.494336 
L 199.53377 42.582013 
L 200.592665 42.587431 
L 200.913409 34.326716 
L 200.946362 34.261561 
L 200.99689 34.438242 
L 201.128703 36.043171 
L 201.603229 41.954475 
L 201.836098 42.494336 
L 202.108511 42.582013 
L 203.984644 42.587431 
L 204.094488 42.587431 
L 204.094488 42.587431 
" clip-path="url(#p6228d6cdda)" style="fill: none; stroke: #000000; stroke-width: 0.5; stroke-linecap: square"/>
   </g>
   <g id="patch_3">
    <path d="M 28.346457 43.685634 
L 28.346457 27.212598 
" style="fill: none; stroke: #000000; stroke-width: 0.8; stroke-linejoin: miter; stroke-linecap: square"/>
   </g>
   <g id="patch_4">
    <path d="M 204.094488 43.685634 
L 204.094488 27.212598 
" style="fill: none; stroke: #000000; stroke-width: 0.8; stroke-linejoin: miter; stroke-linecap: square"/>
   </g>
   <g id="patch_5">
    <path d="M 28.346457 43.685634 
L 204.094488 43.685634 
" style="fill: none; stroke: #000000; stroke-width: 0.8; stroke-linejoin: miter; stroke-linecap: square"/>
   </g>
   <g id="patch_6">
    <path d="M 28.346457 27.212598 
L 204.094488 27.212598 
" style="fill: none; stroke: #000000; stroke-width: 0.8; stroke-linejoin: miter; stroke-linecap: square"/>
   </g>
   <g id="text_1">
    <!-- CTX synaptic ouput -->
    <g transform="translate(54.40641 21.212598) scale(0.15 -0.15)">
     <defs>
      <path id="LibertinusSerif-Regular-43" d="M 2285 -64 
C 2906 -64 3475 230 3910 800 
C 3878 858 3834 896 3763 896 
C 3309 397 2874 198 2278 198 
C 1414 198 819 1171 819 2106 
C 819 2656 966 3117 1197 3405 
C 1517 3795 1888 3974 2221 3974 
C 3104 3974 3456 3450 3622 2899 
C 3699 2874 3763 2893 3834 2931 
C 3802 3264 3757 3571 3693 3923 
C 3366 3955 3078 4211 2291 4211 
C 1747 4211 1293 4013 915 3667 
C 493 3277 237 2650 237 1984 
C 237 870 909 -64 2285 -64 
z
" transform="scale(0.015625)"/>
      <path id="LibertinusSerif-Regular-54" d="M 2240 781 
L 2240 3226 
C 2240 3635 2304 3878 2534 3878 
L 2675 3878 
C 3155 3878 3456 3712 3565 3219 
C 3635 3219 3725 3226 3782 3251 
C 3738 3546 3706 3872 3699 4160 
C 3699 4166 3686 4179 3680 4179 
C 3462 4160 2752 4128 2246 4128 
L 1696 4128 
C 1203 4128 448 4160 205 4179 
C 192 4179 179 4166 179 4160 
C 154 3872 90 3539 19 3232 
C 83 3206 160 3200 237 3200 
C 365 3712 659 3878 1082 3878 
L 1395 3878 
C 1632 3878 1696 3635 1696 3245 
L 1696 781 
C 1696 250 1587 218 1075 198 
C 1037 160 1037 26 1075 -13 
C 1389 -6 1715 0 1971 0 
C 2214 0 2541 -6 2861 -13 
C 2899 26 2899 160 2861 198 
C 2349 218 2240 250 2240 781 
z
" transform="scale(0.015625)"/>
      <path id="LibertinusSerif-Regular-58" d="M 3443 653 
L 2464 1997 
C 2400 2080 2362 2144 2362 2208 
C 2362 2266 2368 2323 2426 2400 
L 3302 3533 
C 3526 3821 3725 3904 4013 3930 
C 4051 3968 4051 4102 4013 4141 
C 3821 4134 3584 4128 3437 4128 
C 3290 4128 3021 4134 2765 4141 
C 2726 4102 2726 3968 2765 3930 
C 3046 3910 3168 3872 3014 3661 
L 2227 2541 
C 2189 2490 2150 2464 2125 2464 
C 2106 2464 2080 2490 2048 2534 
L 1344 3584 
C 1158 3840 1133 3910 1491 3930 
C 1530 3968 1530 4102 1491 4141 
C 1254 4134 1018 4128 762 4128 
C 512 4128 301 4134 109 4141 
C 70 4102 77 3968 115 3930 
C 384 3910 506 3878 768 3501 
L 1677 2202 
C 1728 2125 1766 2074 1766 2010 
C 1766 1971 1741 1914 1702 1862 
L 755 595 
C 538 301 333 224 45 198 
C 6 160 6 26 45 -13 
C 237 -6 474 0 621 0 
C 768 0 1037 -6 1293 -13 
C 1331 26 1331 160 1293 198 
C 1011 218 890 250 1043 467 
L 1888 1651 
C 1926 1702 1965 1741 1984 1741 
C 2010 1741 2035 1722 2074 1670 
L 2867 544 
C 3046 288 3072 218 2714 198 
C 2675 160 2675 26 2714 -13 
C 2950 -6 3187 0 3443 0 
C 3693 0 3904 -6 4096 -13 
C 4134 26 4128 160 4090 198 
C 3821 218 3712 282 3443 653 
z
" transform="scale(0.015625)"/>
      <path id="LibertinusSerif-Regular-20" transform="scale(0.015625)"/>
      <path id="LibertinusSerif-Regular-73" d="M 307 883 
C 333 570 352 269 352 0 
C 416 13 480 19 512 19 
C 557 19 595 19 640 6 
C 813 -38 986 -64 1222 -64 
C 1581 -64 2240 109 2240 742 
C 2240 1178 1926 1434 1491 1594 
C 1107 1741 851 1837 851 2189 
C 851 2451 1082 2598 1299 2598 
C 1440 2598 1811 2547 1894 2003 
C 1933 1965 2061 1971 2099 2010 
C 2118 2240 2131 2477 2138 2688 
C 1939 2720 1632 2810 1299 2810 
C 826 2810 397 2502 397 2093 
C 397 1626 608 1427 1101 1222 
C 1632 1005 1754 870 1754 595 
C 1754 282 1446 147 1210 147 
C 960 147 819 230 755 301 
C 614 448 544 730 506 890 
C 467 928 346 922 307 883 
z
" transform="scale(0.015625)"/>
      <path id="LibertinusSerif-Regular-79" d="M 1306 -1024 
C 1408 -845 1491 -666 1568 -474 
C 2080 762 2368 1421 2701 2138 
C 2829 2406 2918 2509 3219 2547 
C 3258 2586 3258 2720 3219 2758 
C 3091 2752 2944 2746 2765 2746 
C 2573 2746 2374 2752 2182 2758 
C 2144 2720 2144 2586 2182 2547 
C 2387 2528 2592 2490 2490 2259 
L 1856 794 
C 1811 691 1754 672 1702 800 
L 1133 2131 
C 1018 2400 986 2522 1344 2547 
C 1382 2586 1382 2720 1344 2758 
C 1107 2752 851 2746 621 2746 
C 403 2746 230 2752 102 2758 
C 64 2720 64 2586 102 2547 
C 358 2515 442 2458 608 2067 
L 1331 384 
C 1389 256 1485 -38 1421 -218 
C 1344 -429 1267 -608 1171 -806 
C 1101 -934 1011 -992 851 -992 
C 762 -992 736 -973 666 -973 
C 480 -973 384 -1165 384 -1248 
C 384 -1382 512 -1485 685 -1485 
C 819 -1485 1075 -1434 1306 -1024 
z
" transform="scale(0.015625)"/>
      <path id="LibertinusSerif-Regular-6e" d="M 1178 2291 
C 1139 2246 1101 2234 1101 2291 
C 1094 2464 1082 2714 1050 2778 
C 1037 2810 1024 2829 973 2829 
C 794 2758 627 2701 186 2643 
C 173 2605 186 2502 198 2464 
C 544 2432 614 2400 614 2029 
L 614 781 
C 614 256 550 230 166 198 
C 128 160 128 26 166 -13 
C 358 -6 614 0 870 0 
C 1126 0 1318 -6 1510 -13 
C 1549 26 1549 160 1510 198 
C 1184 230 1120 256 1120 781 
L 1120 1830 
C 1120 1965 1178 2042 1229 2099 
C 1472 2336 1760 2477 2010 2477 
C 2138 2477 2272 2394 2349 2246 
C 2413 2118 2426 1946 2426 1754 
L 2426 781 
C 2426 256 2362 230 2029 198 
C 1997 160 1997 26 2029 -13 
C 2221 -6 2426 0 2682 0 
C 2938 0 3168 -6 3360 -13 
C 3392 26 3392 160 3360 198 
C 3002 230 2931 256 2931 781 
L 2931 1734 
C 2931 2086 2906 2394 2758 2592 
C 2650 2733 2451 2810 2227 2810 
C 1914 2810 1555 2726 1178 2291 
z
" transform="scale(0.015625)"/>
      <path id="LibertinusSerif-Regular-61" d="M 1875 307 
C 1914 109 1984 -64 2304 -64 
C 2547 -64 2778 45 2912 173 
C 2899 250 2874 307 2803 346 
C 2758 307 2650 243 2566 243 
C 2381 243 2374 493 2374 787 
L 2374 1728 
C 2374 2637 1875 2810 1408 2810 
C 883 2810 352 2464 352 2099 
C 352 1946 429 1869 576 1869 
C 762 1869 877 2003 877 2086 
C 877 2131 870 2176 858 2202 
C 851 2221 845 2259 845 2330 
C 845 2528 1114 2598 1357 2598 
C 1574 2598 1875 2490 1875 1766 
C 1875 1722 1856 1696 1837 1690 
L 1286 1555 
C 672 1402 230 1062 230 627 
C 230 102 589 -64 1037 -64 
C 1261 -64 1453 -13 1734 205 
L 1862 307 
L 1875 307 
z
M 1875 1491 
L 1875 646 
C 1875 563 1837 518 1786 480 
C 1619 346 1402 198 1222 198 
C 902 198 762 454 762 653 
C 762 941 896 1235 1370 1357 
L 1875 1491 
z
" transform="scale(0.015625)"/>
      <path id="LibertinusSerif-Regular-70" d="M 998 2355 
C 992 2547 979 2714 947 2778 
C 934 2810 922 2829 870 2829 
C 691 2758 525 2701 83 2643 
C 70 2605 83 2502 96 2464 
C 442 2432 512 2400 512 2029 
L 512 -704 
C 512 -1235 442 -1267 51 -1286 
C 13 -1325 13 -1459 51 -1498 
C 275 -1491 512 -1485 768 -1485 
C 1024 -1485 1331 -1491 1542 -1498 
C 1581 -1459 1581 -1325 1542 -1286 
C 1088 -1261 1018 -1235 1018 -704 
L 1018 -13 
C 1018 70 1043 64 1107 38 
C 1267 -26 1459 -64 1664 -64 
C 2022 -64 2342 45 2605 294 
C 2906 589 3078 986 3078 1504 
C 3078 2182 2598 2810 1946 2810 
C 1651 2810 1325 2618 1069 2330 
C 1030 2291 1005 2291 998 2355 
z
M 1120 2118 
C 1286 2323 1581 2515 1766 2515 
C 2176 2515 2528 2054 2528 1331 
C 2528 806 2342 154 1626 154 
C 1510 154 1286 186 1171 288 
C 1043 403 1018 442 1018 672 
L 1018 1837 
C 1018 1971 1043 2029 1120 2118 
z
" transform="scale(0.015625)"/>
      <path id="LibertinusSerif-Regular-74" d="M 275 2746 
C 186 2746 160 2669 160 2618 
L 160 2534 
C 160 2502 166 2496 192 2496 
L 570 2496 
L 570 570 
C 570 115 768 -64 1062 -64 
C 1357 -64 1677 77 1926 358 
C 1914 422 1875 461 1811 467 
C 1645 339 1453 288 1286 288 
C 1114 288 1075 480 1075 877 
L 1075 2496 
L 1741 2496 
C 1805 2496 1894 2522 1894 2579 
L 1894 2707 
C 1894 2733 1875 2746 1843 2746 
L 1075 2746 
L 1075 2995 
C 1075 3411 1101 3667 1101 3667 
C 1101 3706 1082 3725 1050 3725 
C 1024 3725 966 3699 909 3667 
C 838 3629 774 3597 691 3578 
C 614 3552 550 3533 550 3488 
C 550 3411 570 3456 570 2746 
L 275 2746 
z
" transform="scale(0.015625)"/>
      <path id="LibertinusSerif-Regular-69" d="M 1158 781 
L 1158 2054 
C 1158 2374 1184 2784 1184 2784 
C 1184 2810 1152 2829 1101 2829 
C 922 2758 666 2701 224 2643 
C 211 2605 224 2502 237 2464 
C 589 2432 653 2394 653 2029 
L 653 781 
C 653 250 582 230 192 198 
C 154 160 154 26 192 -13 
C 403 -6 653 0 909 0 
C 1165 0 1408 -6 1619 -13 
C 1658 26 1658 160 1619 198 
C 1229 224 1158 250 1158 781 
z
M 576 3834 
C 576 3667 730 3501 883 3501 
C 1062 3501 1216 3674 1216 3808 
C 1216 3962 1082 4141 909 4141 
C 755 4141 576 3987 576 3834 
z
" transform="scale(0.015625)"/>
      <path id="LibertinusSerif-Regular-63" d="M 2547 582 
C 2522 640 2470 666 2413 672 
C 2195 390 1920 250 1645 250 
C 1178 250 787 723 787 1472 
C 787 2176 1094 2598 1517 2598 
C 1894 2598 1946 2374 1971 2150 
C 1990 1978 2080 1920 2214 1920 
C 2349 1920 2528 2003 2528 2202 
C 2528 2554 2163 2810 1549 2810 
C 915 2810 237 2240 237 1331 
C 237 506 698 -64 1504 -64 
C 1888 -64 2227 58 2547 582 
z
" transform="scale(0.015625)"/>
      <path id="LibertinusSerif-Regular-6f" d="M 262 1312 
C 262 659 698 -64 1606 -64 
C 2016 -64 2330 83 2547 294 
C 2835 576 2963 979 2963 1370 
C 2963 2035 2598 2810 1619 2810 
C 1197 2810 851 2637 614 2362 
C 384 2086 262 1715 262 1312 
z
M 1523 2586 
C 2074 2586 2413 2086 2413 1165 
C 2413 358 1997 160 1696 160 
C 1030 160 813 966 813 1459 
C 813 2016 947 2586 1523 2586 
z
" transform="scale(0.015625)"/>
      <path id="LibertinusSerif-Regular-75" d="M 1389 -64 
C 1638 -64 1939 64 2253 320 
C 2285 346 2342 358 2349 314 
C 2368 154 2419 -64 2419 -64 
C 2470 -83 2502 -77 2541 -64 
C 2682 51 2906 147 3296 192 
C 3334 230 3334 326 3296 365 
C 2886 397 2829 518 2829 832 
L 2829 2061 
C 2829 2253 2854 2720 2854 2720 
C 2854 2739 2835 2758 2803 2758 
C 2771 2752 2675 2746 2579 2746 
C 2374 2746 2144 2752 1926 2758 
C 1888 2720 1888 2586 1926 2547 
C 2240 2528 2323 2451 2323 2029 
L 2323 794 
C 2323 672 2310 621 2221 544 
C 1984 339 1741 237 1581 237 
C 1389 237 1069 326 1069 896 
L 1069 2061 
C 1069 2253 1094 2720 1094 2720 
C 1094 2739 1075 2758 1043 2758 
C 1011 2752 915 2746 819 2746 
C 614 2746 384 2752 166 2758 
C 128 2720 128 2586 166 2547 
C 474 2522 563 2451 563 2035 
L 563 806 
C 563 365 755 -64 1389 -64 
z
" transform="scale(0.015625)"/>
     </defs>
     <use xlink:href="#LibertinusSerif-Regular-43"/>
     <use xlink:href="#LibertinusSerif-Regular-54" transform="translate(64.599991 0)"/>
     <use xlink:href="#LibertinusSerif-Regular-58" transform="translate(124.299988 0)"/>
     <use xlink:href="#LibertinusSerif-Regular-20" transform="translate(190.299973 0)"/>
     <use xlink:href="#LibertinusSerif-Regular-73" transform="translate(215.299957 0)"/>
     <use xlink:href="#LibertinusSerif-Regular-79" transform="translate(254.299942 0)"/>
     <use xlink:href="#LibertinusSerif-Regular-6e" transform="translate(305.799927 0)"/>
     <use xlink:href="#LibertinusSerif-Regular-61" transform="translate(359.999924 0)"/>
     <use xlink:href="#LibertinusSerif-Regular-70" transform="translate(405.699921 0)"/>
     <use xlink:href="#LibertinusSerif-Regular-74" transform="translate(457.599915 0)"/>
     <use xlink:href="#LibertinusSerif-Regular-69" transform="translate(489.199905 0)"/>
     <use xlink:href="#LibertinusSerif-Regular-63" transform="translate(516.299896 0)"/>
     <use xlink:href="#LibertinusSerif-Regular-20" transform="translate(559.099884 0)"/>
     <use xlink:href="#LibertinusSerif-Regular-6f" transform="translate(584.099869 0)"/>
     <use xlink:href="#LibertinusSerif-Regular-75" transform="translate(634.499863 0)"/>
     <use xlink:href="#LibertinusSerif-Regular-70" transform="translate(687.599854 0)"/>
     <use xlink:href="#LibertinusSerif-Regular-75" transform="translate(739.499847 0)"/>
     <use xlink:href="#LibertinusSerif-Regular-74" transform="translate(792.599838 0)"/>
    </g>
   </g>
  </g>
  <g id="axes_2">
   <g id="patch_7">
    <path d="M 28.346457 102.98856 
L 204.094488 102.98856 
L 204.094488 86.515525 
L 28.346457 86.515525 
z
" style="fill: #ffffff"/>
   </g>
   <g id="matplotlib.axis_3"/>
   <g id="matplotlib.axis_4"/>
   <g id="line2d_2">
    <path d="M 28.346457 101.890358 
L 31.463826 101.804562 
L 31.949336 86.902732 
L 31.955927 86.90891 
L 32.004258 87.224359 
L 32.138268 89.982614 
L 32.641353 100.771226 
L 32.874222 101.71442 
L 33.107091 101.872863 
L 33.799108 101.890357 
L 38.513607 101.804562 
L 38.996921 87.207651 
L 39.014496 87.183169 
L 39.056236 87.375961 
L 39.170474 89.348401 
L 39.768025 101.165002 
L 39.9965 101.78371 
L 40.253535 101.883064 
L 40.468829 101.889854 
L 40.471026 101.804073 
L 40.79177 93.620519 
L 40.822526 93.564485 
L 40.873054 93.741168 
L 41.004867 95.346097 
L 41.479393 101.257401 
L 41.712262 101.797262 
L 41.984674 101.884939 
L 43.860808 101.890358 
L 46.176317 101.804562 
L 46.494865 93.629643 
L 46.527818 93.564488 
L 46.578346 93.741169 
L 46.710159 95.346097 
L 47.184684 101.257401 
L 47.237409 101.462513 
L 47.248394 101.068499 
L 47.566941 93.576147 
L 47.582319 93.291769 
L 47.810794 88.628727 
L 47.848141 88.738623 
L 47.949198 90.01828 
L 48.300698 98.08759 
L 48.388573 96.163291 
L 48.625836 93.116946 
L 48.636821 93.125465 
L 48.698333 93.423335 
L 48.858705 95.643672 
L 49.282703 101.115498 
L 49.517769 101.771865 
L 49.772606 101.881408 
L 50.985283 101.890358 
L 52.558248 101.804562 
L 52.876795 93.629643 
L 52.909748 93.564488 
L 52.960276 93.741169 
L 53.054742 94.771432 
L 53.092089 93.895752 
L 53.27443 87.420312 
L 53.434802 84.310134 
L 53.463361 84.408305 
L 53.551236 85.769188 
L 53.852209 95.424106 
L 54.144393 100.729223 
L 54.375066 101.714974 
L 54.603541 101.873141 
L 54.895726 101.889891 
L 55.21647 93.629639 
L 55.249423 93.564486 
L 55.299951 93.741168 
L 55.431764 95.346097 
L 55.774477 100.382489 
L 55.800839 99.579729 
L 56.110599 93.459479 
L 56.128174 93.461479 
L 56.15893 93.557515 
L 56.268774 94.682402 
L 56.84875 101.497261 
L 57.077225 101.837424 
L 57.419938 101.889238 
L 59.638785 101.890358 
L 59.959529 93.629643 
L 59.992482 93.564488 
L 60.04301 93.741169 
L 60.174823 95.346097 
L 60.649349 101.257401 
L 60.882218 101.797262 
L 61.154631 101.884939 
L 61.9499 101.890358 
L 62.270645 93.629643 
L 62.303598 93.564488 
L 62.354126 93.741169 
L 62.485939 95.346097 
L 62.960464 101.257401 
L 63.193333 101.797262 
L 63.465746 101.884939 
L 64.3423 101.890358 
L 64.663045 93.629643 
L 64.695998 93.564488 
L 64.746526 93.741169 
L 64.878339 95.346097 
L 65.352864 101.257401 
L 65.585733 101.797262 
L 66.075637 86.963027 
L 66.084424 86.971565 
L 66.134953 87.321785 
L 66.167906 87.796073 
L 66.211843 86.969603 
L 66.317294 86.165172 
L 66.363428 86.32087 
L 66.475469 87.812592 
L 67.297101 101.628384 
L 67.525576 101.859296 
L 67.989118 101.890252 
L 68.18464 101.804557 
L 68.503187 93.629643 
L 68.53614 93.564488 
L 68.586668 93.741169 
L 68.718481 95.346097 
L 69.193007 101.257401 
L 69.425876 101.797262 
L 69.698289 101.884939 
L 69.994867 101.890239 
L 69.997064 101.804447 
L 70.315611 93.629642 
L 70.348564 93.564488 
L 70.399093 93.741169 
L 70.530905 95.346097 
L 70.845059 100.108812 
L 70.875815 99.205611 
L 71.181181 93.424576 
L 71.200953 93.434701 
L 71.227316 93.522927 
L 71.337159 94.641685 
L 71.921529 101.50391 
L 72.051145 101.759597 
L 72.055538 101.593059 
L 72.376283 93.607573 
L 72.404842 93.561261 
L 72.453173 93.725363 
L 72.582789 95.275007 
L 72.916715 100.260273 
L 72.945274 99.404684 
L 73.358287 86.053977 
L 73.459343 87.162713 
L 73.582369 90.504204 
L 73.703197 89.885521 
L 73.747134 89.84401 
L 73.795466 89.947597 
L 73.903113 90.814653 
L 73.916294 90.981561 
L 73.953641 90.069757 
L 74.454529 79.344371 
L 74.516042 79.821775 
L 74.652248 83.617696 
L 75.208058 100.43002 
L 75.440927 101.658836 
L 75.665009 101.864651 
L 75.717734 101.875929 
L 75.719931 101.790484 
L 76.040675 93.620269 
L 76.071431 93.564322 
L 76.121959 93.741088 
L 76.253772 95.346086 
L 76.657998 100.864486 
L 76.673376 100.363741 
L 77.086389 85.88407 
L 77.189642 87.030613 
L 77.448874 94.807521 
L 77.756437 100.638757 
L 77.989306 101.697684 
L 78.055212 101.786086 
L 78.059606 101.618818 
L 78.38035 93.609148 
L 78.408909 93.562418 
L 78.457241 93.726036 
L 78.584659 95.240036 
L 79.074563 101.296362 
L 79.305235 101.80279 
L 79.584239 101.885712 
L 79.77317 101.889922 
L 79.775367 101.804139 
L 80.096111 93.62052 
L 80.126868 93.564486 
L 80.177396 93.741168 
L 80.300421 95.205322 
L 80.348752 94.13871 
L 80.566243 91.66108 
L 80.577228 91.667522 
L 80.636543 91.929194 
L 80.781537 93.883612 
L 81.297804 101.19014 
L 81.530673 101.785001 
L 81.794298 101.883374 
L 83.294766 101.890358 
L 93.18511 101.804562 
L 93.503657 93.629643 
L 93.53661 93.564488 
L 93.587138 93.741169 
L 93.718951 95.346097 
L 94.193477 101.257401 
L 94.426346 101.797262 
L 94.698759 101.884939 
L 96.574892 101.890358 
L 122.818795 101.804562 
L 123.137342 93.629643 
L 123.170296 93.564488 
L 123.220824 93.741169 
L 123.352636 95.346097 
L 123.827162 101.257401 
L 124.060031 101.797262 
L 124.332444 101.884939 
L 124.635613 101.890249 
L 124.63781 101.804457 
L 124.956357 93.629642 
L 124.98931 93.564488 
L 125.039839 93.741169 
L 125.171651 95.346097 
L 125.646177 101.257401 
L 125.879046 101.797262 
L 126.151459 101.884939 
L 128.027592 101.890358 
L 130.582561 101.804562 
L 130.901109 93.629643 
L 130.934062 93.564488 
L 130.98459 93.741169 
L 131.116403 95.346097 
L 131.590928 101.257401 
L 131.823797 101.797262 
L 132.09621 101.884939 
L 133.972344 101.890358 
L 150.336887 101.804562 
L 150.655434 93.629643 
L 150.688388 93.564488 
L 150.738916 93.741169 
L 150.870728 95.346097 
L 151.345254 101.257401 
L 151.578123 101.797262 
L 151.850536 101.884939 
L 153.72667 101.890358 
L 158.164363 101.804562 
L 158.48291 93.629643 
L 158.515863 93.564488 
L 158.566392 93.741169 
L 158.698204 95.346097 
L 159.17273 101.257401 
L 159.405599 101.797262 
L 159.678012 101.884939 
L 161.090604 101.890358 
L 161.411348 93.629643 
L 161.444302 93.564488 
L 161.49483 93.741169 
L 161.626642 95.346097 
L 161.848527 98.995112 
L 161.892465 97.866577 
L 162.180256 93.242506 
L 162.224193 93.358421 
L 162.338431 94.557261 
L 162.91621 101.47662 
L 163.144685 101.833909 
L 163.47861 101.888997 
L 164.148658 101.804562 
L 164.467205 93.629643 
L 164.500159 93.564488 
L 164.550687 93.741169 
L 164.682499 95.346097 
L 165.157025 101.257401 
L 165.3855 101.793405 
L 165.710638 93.60904 
L 165.739198 93.562324 
L 165.787529 93.725969 
L 165.914948 95.240017 
L 166.396064 101.257401 
L 166.855212 89.238944 
L 166.954071 88.32804 
L 167.002402 88.522226 
L 167.017781 88.661522 
L 167.041946 88.006816 
L 167.195728 86.035546 
L 167.226484 86.109379 
L 167.314359 87.093173 
L 167.542834 92.912673 
L 167.91191 100.366794 
L 168.153566 101.637151 
L 168.379845 101.860262 
L 168.465523 101.878355 
L 168.46772 101.792848 
L 168.788464 93.620308 
L 168.81922 93.564347 
L 168.869749 93.7411 
L 169.001561 95.346088 
L 169.476087 101.257401 
L 169.708956 101.797262 
L 169.886903 101.874741 
L 170.346051 86.396863 
L 170.389988 86.606326 
L 170.504226 88.772209 
L 170.809592 97.497881 
L 170.886483 96.058003 
L 171.130336 93.079048 
L 171.147911 93.097172 
L 171.218211 93.503986 
L 171.402749 96.265271 
L 171.782809 101.067136 
L 172.017875 101.762125 
L 172.268319 101.879987 
L 172.299075 101.883021 
L 172.301272 101.797407 
L 172.622016 93.620404 
L 172.676938 93.009703 
L 172.896626 89.047976 
L 172.898823 89.048658 
L 172.940563 89.200263 
L 173.052604 90.708408 
L 173.722652 101.440006 
L 173.94893 101.827841 
L 173.966505 101.837705 
L 173.968702 101.753037 
L 174.289446 93.619116 
L 174.320203 93.563536 
L 174.370731 93.740676 
L 174.502543 95.346018 
L 174.557465 96.27419 
L 174.605797 95.24443 
L 174.847453 92.343727 
L 174.856241 92.348441 
L 174.911163 92.567793 
L 175.049566 94.310372 
L 175.54606 101.148181 
L 175.550454 100.999165 
L 175.879986 93.541729 
L 175.899758 93.52875 
L 175.939302 93.652752 
L 176.055736 94.926917 
L 176.593971 101.409493 
L 176.822447 101.822069 
L 177.127813 101.887883 
L 177.27061 101.889959 
L 177.272806 101.804175 
L 177.593551 93.62052 
L 177.624307 93.564486 
L 177.674835 93.741168 
L 177.806648 95.346097 
L 177.817632 95.525903 
L 177.863767 94.526087 
L 178.092242 91.897658 
L 178.101029 91.90311 
L 178.158148 92.142147 
L 178.298748 93.969588 
L 178.823802 101.233653 
L 179.056671 101.793232 
L 179.32469 101.884356 
L 180.886671 101.890358 
L 181.207415 93.629643 
L 181.240368 93.564488 
L 181.290896 93.741169 
L 181.312865 93.909765 
L 181.332637 93.33147 
L 181.550128 90.148249 
L 181.556718 90.150623 
L 181.60505 90.337277 
L 181.730272 91.986853 
L 182.23775 100.724397 
L 182.26631 99.814033 
L 182.659551 85.760086 
L 182.769395 87.101466 
L 183.522924 101.624534 
L 183.744809 101.859465 
L 183.823896 101.877385 
L 183.826093 101.791908 
L 184.146837 93.620305 
L 184.177594 93.564347 
L 184.228122 93.7411 
L 184.359934 95.346088 
L 184.480763 97.415103 
L 184.529094 96.339686 
L 184.790522 92.825285 
L 184.797113 92.8273 
L 184.847641 93.004587 
L 184.977257 94.532937 
L 185.508902 101.332641 
L 185.60117 101.618022 
L 185.609958 101.293915 
L 185.928505 93.592658 
L 185.954868 93.555755 
L 186.003199 93.722134 
L 186.132815 95.274311 
L 186.554615 100.950051 
L 186.567797 100.515435 
L 186.888541 93.523855 
L 186.906116 93.512356 
L 186.94566 93.630345 
L 187.059897 94.85756 
L 187.36746 99.700118 
L 187.411398 98.47219 
L 187.569573 90.875331 
L 187.769489 85.475684 
L 187.78267 85.494694 
L 187.841986 86.078185 
L 188.006752 90.558812 
L 188.219849 97.110941 
L 188.281361 96.093092 
L 188.57794 88.833978 
L 188.709753 86.958842 
L 188.749296 87.110994 
L 188.854747 88.793787 
L 189.511613 101.358485 
L 189.735695 101.815204 
L 190.025682 101.887166 
L 190.188251 101.889958 
L 190.190448 101.804174 
L 190.673761 86.872572 
L 190.682549 86.881685 
L 190.735274 87.265188 
L 190.880268 90.437748 
L 190.917615 91.526801 
L 191.003293 90.823574 
L 191.113137 90.429989 
L 191.159271 90.52163 
L 191.214193 90.862565 
L 191.229571 90.403535 
L 191.42729 87.288327 
L 191.444866 87.31138 
L 191.510772 87.824425 
L 191.677735 91.353131 
L 191.83591 95.611076 
L 191.90621 94.560394 
L 192.125898 92.471065 
L 192.150063 92.502125 
L 192.229151 93.014641 
L 192.332404 94.445946 
L 192.380735 93.425083 
L 192.585045 91.222954 
L 192.60262 91.239989 
L 192.670723 91.622391 
L 192.835489 94.149359 
L 193.294637 100.993509 
L 193.404481 101.487619 
L 193.415465 101.092008 
L 193.859234 86.290525 
L 193.922944 86.751112 
L 194.074528 90.393215 
L 194.513904 100.491058 
L 194.57322 100.969302 
L 194.595188 100.251246 
L 194.909342 93.531559 
L 194.926917 93.523751 
L 194.964264 93.63772 
L 195.078501 94.860176 
L 195.627721 101.432856 
L 195.856196 101.826246 
L 196.049521 101.881839 
L 196.453747 85.549906 
L 196.55041 86.654132 
L 196.66245 89.800134 
L 196.789869 89.383943 
L 196.849185 89.493705 
L 196.961226 90.363228 
L 197.180914 94.288444 
L 197.593927 100.788536 
L 197.833386 101.711506 
L 198.070649 101.872336 
L 198.283746 101.888838 
L 198.285943 101.803083 
L 198.606687 93.620506 
L 198.637444 93.564477 
L 198.687972 93.741164 
L 198.819784 95.346097 
L 199.263554 101.104144 
L 199.270144 100.881947 
L 199.597479 93.537794 
L 199.617251 93.525461 
L 199.656795 93.650483 
L 199.773229 94.926218 
L 200.311465 101.409492 
L 200.53994 101.822069 
L 200.845306 101.887883 
L 202.778558 101.890358 
L 203.099303 93.629643 
L 203.132256 93.564488 
L 203.182784 93.741169 
L 203.314597 95.346097 
L 203.789122 101.257401 
L 204.021991 101.797262 
L 204.094488 101.84386 
L 204.094488 101.84386 
" clip-path="url(#p199532a7bb)" style="fill: none; stroke: #000000; stroke-width: 0.5; stroke-linecap: square"/>
   </g>
   <g id="patch_8">
    <path d="M 28.346457 102.98856 
L 28.346457 86.515525 
" style="fill: none; stroke: #000000; stroke-width: 0.8; stroke-linejoin: miter; stroke-linecap: square"/>
   </g>
   <g id="patch_9">
    <path d="M 204.094488 102.98856 
L 204.094488 86.515525 
" style="fill: none; stroke: #000000; stroke-width: 0.8; stroke-linejoin: miter; stroke-linecap: square"/>
   </g>
   <g id="patch_10">
    <path d="M 28.346457 102.98856 
L 204.094488 102.98856 
" style="fill: none; stroke: #000000; stroke-width: 0.8; stroke-linejoin: miter; stroke-linecap: square"/>
   </g>
   <g id="patch_11">
    <path d="M 28.346457 86.515525 
L 204.094488 86.515525 
" style="fill: none; stroke: #000000; stroke-width: 0.8; stroke-linejoin: miter; stroke-linecap: square"/>
   </g>
  </g>
  <g id="axes_3">
   <g id="patch_12">
    <path d="M 28.346457 122.756203 
L 204.094488 122.756203 
L 204.094488 106.283167 
L 28.346457 106.283167 
z
" style="fill: #ffffff"/>
   </g>
   <g id="matplotlib.axis_5"/>
   <g id="matplotlib.axis_6"/>
   <g id="line2d_3">
    <path d="M 28.346457 121.658 
L 38.44111 121.572205 
L 38.759658 113.397285 
L 38.792611 113.33213 
L 38.843139 113.508811 
L 38.974952 115.11374 
L 39.449477 121.025044 
L 39.682346 121.564905 
L 39.954759 121.652582 
L 41.830893 121.658 
L 42.402081 121.572205 
L 42.720628 113.397285 
L 42.753582 113.33213 
L 42.80411 113.508811 
L 42.935923 115.11374 
L 43.410448 121.025044 
L 43.643317 121.564905 
L 43.91573 121.652582 
L 45.339307 121.658 
L 45.660051 113.397285 
L 45.693004 113.33213 
L 45.743532 113.508811 
L 45.875345 115.11374 
L 46.349871 121.025044 
L 46.556377 121.539526 
L 46.558574 121.456059 
L 46.881515 113.375765 
L 46.923256 112.830671 
L 47.14514 108.662818 
L 47.147337 108.66338 
L 47.189078 108.816111 
L 47.301119 110.350588 
L 47.966773 121.190498 
L 48.193051 121.592635 
L 48.502811 121.655819 
L 49.691322 121.658 
L 50.012066 113.397285 
L 50.045019 113.33213 
L 50.095547 113.508811 
L 50.22736 115.11374 
L 50.671129 120.871786 
L 50.67772 120.649589 
L 51.005055 113.305436 
L 51.024827 113.293104 
L 51.064371 113.418125 
L 51.086339 113.566086 
L 51.103914 113.034862 
L 51.323602 109.728291 
L 51.327996 109.730221 
L 51.376327 109.917981 
L 51.387312 110.001229 
L 51.407084 109.415246 
L 51.589424 106.730558 
L 51.611393 106.77028 
L 51.688284 107.482516 
L 51.881609 111.948095 
L 52.094706 117.353455 
L 52.147431 116.313566 
L 52.61976 107.415623 
L 52.676879 107.713613 
L 52.810888 110.192048 
L 53.342533 120.682133 
L 53.393061 120.979717 
L 53.408439 120.453426 
L 53.90054 107.322177 
L 53.913721 107.309773 
L 53.951068 107.456055 
L 54.056518 109.068402 
L 54.271812 114.801567 
L 54.368475 113.496961 
L 54.553013 112.057556 
L 54.583769 112.109012 
L 54.673841 112.786298 
L 54.915497 116.864923 
L 55.247226 120.845082 
L 55.482292 121.532172 
L 55.732736 121.647877 
L 55.787658 121.652581 
L 55.789855 121.566922 
L 56.110599 113.388084 
L 56.141355 113.332078 
L 56.191884 113.508786 
L 56.323696 115.113736 
L 56.752087 120.78459 
L 56.760875 120.492236 
L 57.086013 113.297703 
L 57.103588 113.285307 
L 57.145328 113.413644 
L 57.26396 114.725859 
L 57.402363 117.068819 
L 57.452891 115.953519 
L 57.885676 106.558409 
L 57.964764 107.14964 
L 58.13612 111.241059 
L 58.55133 120.211038 
L 58.79079 121.425058 
L 58.977525 121.61798 
L 59.300466 113.387211 
L 59.331222 113.331491 
L 59.38175 113.508486 
L 59.513563 115.113689 
L 59.676132 117.87239 
L 59.724463 116.737532 
L 59.904607 109.912748 
L 60.095735 105.369878 
L 60.111114 105.400702 
L 60.17702 106.114163 
L 60.361558 111.271542 
L 60.537308 116.574116 
L 60.601017 115.562428 
L 60.851461 112.735388 
L 60.875627 112.76986 
L 60.956912 113.329156 
L 60.983274 113.637937 
L 61.016227 112.811245 
L 61.222734 110.22228 
L 61.235915 110.232882 
L 61.297428 110.55471 
L 61.449012 112.863356 
L 61.807103 119.521424 
L 61.842253 118.546462 
L 62.143226 113.150525 
L 62.176179 113.204059 
L 62.187163 113.25079 
L 62.297007 114.366513 
L 62.699036 120.265006 
L 62.734186 119.174376 
L 63.032961 113.243551 
L 63.050536 113.238707 
L 63.085686 113.345224 
L 63.197727 114.517391 
L 63.764521 121.237295 
L 63.992997 121.600337 
L 64.322528 121.656522 
L 64.801448 121.572203 
L 65.119995 113.397285 
L 65.152948 113.33213 
L 65.203476 113.508811 
L 65.335289 115.11374 
L 65.809815 121.025044 
L 66.042684 121.564905 
L 66.315097 121.652582 
L 66.409562 121.656258 
L 66.411759 121.570509 
L 66.732503 113.388145 
L 66.76326 113.332118 
L 66.813788 113.508805 
L 66.945601 115.113739 
L 67.420126 121.025044 
L 67.652995 121.564905 
L 67.795792 121.635292 
L 67.797989 121.550015 
L 68.118733 113.387676 
L 68.14949 113.331806 
L 68.200018 113.508649 
L 68.252743 113.992109 
L 68.279105 113.297076 
L 68.496596 110.420815 
L 68.503187 110.423458 
L 68.553715 110.615902 
L 68.681134 112.247631 
L 68.755828 113.703446 
L 68.815144 112.673382 
L 69.004075 110.986704 
L 69.028241 111.019693 
L 69.109525 111.56916 
L 69.305047 114.858935 
L 69.67632 120.477173 
L 69.68291 120.268981 
L 70.014639 113.262759 
L 70.032214 113.264623 
L 70.06297 113.361269 
L 70.172814 114.491048 
L 70.748396 121.258157 
L 70.976871 121.603919 
L 71.317388 121.656816 
L 73.632897 121.658 
L 73.953641 113.397285 
L 73.986594 113.33213 
L 74.037122 113.508811 
L 74.168935 115.11374 
L 74.643461 121.025044 
L 74.87633 121.564905 
L 75.148743 121.652582 
L 75.884697 121.658 
L 76.205441 113.397285 
L 76.238394 113.33213 
L 76.288922 113.508811 
L 76.420735 115.11374 
L 76.794204 120.408779 
L 76.813976 119.785297 
L 77.130326 113.256748 
L 77.147901 113.254742 
L 77.180855 113.35565 
L 77.290698 114.489028 
L 77.864084 121.251303 
L 77.899234 121.349718 
L 77.908021 121.027761 
L 78.358381 106.135743 
L 78.413303 106.480248 
L 78.527541 108.857626 
L 78.65496 108.07742 
L 78.681322 108.090623 
L 78.707685 108.165893 
L 78.810938 109.054273 
L 79.032823 113.40907 
L 79.193195 116.970696 
L 79.248117 115.871909 
L 79.505151 112.624729 
L 79.516136 112.632727 
L 79.575451 112.904625 
L 79.727036 114.938331 
L 80.18179 120.917362 
L 80.311405 121.380755 
L 80.320193 121.056945 
L 80.720025 105.371311 
L 80.821081 106.550609 
L 81.086903 114.748564 
L 81.387876 120.436438 
L 81.618548 121.471316 
L 81.847023 121.639502 
L 82.497299 121.657998 
L 83.417791 121.572205 
L 83.736338 113.397285 
L 83.769291 113.33213 
L 83.819819 113.508811 
L 83.951632 115.11374 
L 84.322904 120.391504 
L 84.344873 119.699953 
L 84.659027 113.254871 
L 84.676602 113.253123 
L 84.709555 113.354433 
L 84.819399 114.488591 
L 85.392784 121.251302 
L 85.621259 121.602748 
L 85.957382 121.656713 
L 92.967619 121.658 
L 112.482485 121.572205 
L 112.801032 113.397285 
L 112.833985 113.33213 
L 112.884513 113.508811 
L 113.016326 115.11374 
L 113.490852 121.025044 
L 113.723721 121.564905 
L 113.996134 121.652582 
L 115.872267 121.658 
L 122.838567 121.572205 
L 123.157114 113.397285 
L 123.190067 113.33213 
L 123.240596 113.508811 
L 123.372408 115.11374 
L 123.723909 120.227771 
L 123.748074 119.484331 
L 124.060031 113.236358 
L 124.077606 113.237123 
L 124.108362 113.331337 
L 124.216009 114.420715 
L 124.802576 121.278122 
L 125.031051 121.607296 
L 125.382552 121.657053 
L 134.736857 121.658 
L 144.014273 121.572205 
L 144.33282 113.397285 
L 144.365773 113.33213 
L 144.416301 113.508811 
L 144.548114 115.11374 
L 145.02264 121.025044 
L 145.255509 121.564905 
L 145.527921 121.652582 
L 147.404055 121.658 
L 147.933503 121.572205 
L 148.25205 113.397285 
L 148.285003 113.33213 
L 148.335531 113.508811 
L 148.467344 115.11374 
L 148.94187 121.025044 
L 148.952854 121.073428 
L 148.963838 120.689925 
L 149.284583 113.326679 
L 149.306551 113.30666 
L 149.348292 113.439633 
L 149.466923 114.763496 
L 149.991977 121.144433 
L 150.222649 121.58529 
L 150.521425 121.655097 
L 151.092613 121.658 
L 151.09481 121.572204 
L 151.413357 113.397285 
L 151.44631 113.33213 
L 151.496839 113.508811 
L 151.628651 115.11374 
L 152.103177 121.025044 
L 152.336046 121.564905 
L 152.608459 121.652582 
L 154.484592 121.658 
L 161.784818 121.572205 
L 162.103365 113.397285 
L 162.162681 112.699675 
L 162.380171 108.81562 
L 162.382368 108.816302 
L 162.424109 108.967906 
L 162.53615 110.47605 
L 163.206198 121.207648 
L 163.432476 121.595483 
L 163.748826 121.656097 
L 164.796737 121.572205 
L 165.115284 113.397285 
L 165.150434 112.818679 
L 165.372319 108.473114 
L 165.374516 108.473408 
L 165.41406 108.610832 
L 165.521707 110.060819 
L 166.20933 121.241398 
L 166.435608 121.601563 
L 166.767337 121.656628 
L 167.474731 121.572205 
L 167.94706 107.421054 
L 167.988801 107.246323 
L 168.043723 107.538433 
L 168.175535 110.042873 
L 168.584155 119.516262 
L 168.619305 118.56552 
L 168.924671 113.17009 
L 168.968608 113.288508 
L 169.082846 114.501613 
L 169.645247 121.222867 
L 169.873722 121.597831 
L 170.196663 121.656305 
L 171.046855 121.572205 
L 171.508199 107.84553 
L 171.571908 107.45172 
L 171.62683 107.74283 
L 171.76084 110.249186 
L 172.285894 120.663296 
L 172.518763 121.502284 
L 172.756026 121.643326 
L 173.555689 121.658 
L 175.515304 121.572205 
L 175.833851 113.397285 
L 175.866805 113.33213 
L 175.917333 113.508811 
L 176.049145 115.11374 
L 176.523671 121.025044 
L 176.75654 121.564905 
L 177.028953 121.652582 
L 178.153754 121.658 
L 178.474499 113.397285 
L 178.507452 113.33213 
L 178.55798 113.508811 
L 178.689793 115.11374 
L 179.164318 121.025044 
L 179.397187 121.564905 
L 179.6696 121.652582 
L 180.069432 121.657974 
L 180.071629 121.572179 
L 180.390176 113.397285 
L 180.423129 113.33213 
L 180.473657 113.508811 
L 180.590092 114.869418 
L 180.63403 113.885828 
L 180.853717 111.344975 
L 180.864702 111.351694 
L 180.924017 111.615669 
L 181.069011 113.580471 
L 181.585278 120.946386 
L 181.818147 121.55048 
L 182.079575 121.650657 
L 182.23775 121.65691 
L 182.239947 121.571145 
L 182.560691 113.388154 
L 182.591448 113.332123 
L 182.641976 113.508808 
L 182.773789 115.113739 
L 183.248314 121.025044 
L 183.481183 121.564905 
L 183.753596 121.652582 
L 184.14464 121.65797 
L 184.146837 121.572175 
L 184.465385 113.397285 
L 184.498338 113.33213 
L 184.548866 113.508811 
L 184.680679 115.11374 
L 185.155204 121.025044 
L 185.161795 121.054455 
L 185.172779 120.672179 
L 185.493523 113.325215 
L 185.515492 113.305471 
L 185.557233 113.438842 
L 185.678061 114.797034 
L 185.994412 119.691381 
L 186.031758 118.619044 
L 186.330534 113.166546 
L 186.3547 113.189981 
L 186.374471 113.261937 
L 186.482118 114.339297 
L 187.079669 121.297221 
L 187.308145 121.610481 
L 187.670629 121.657245 
L 188.417568 121.572205 
L 189.019512 102.389247 
L 189.072237 102.047552 
L 189.127159 102.424774 
L 189.258972 105.661755 
L 189.423738 107.465547 
L 189.533582 108.195831 
L 189.722513 111.316475 
L 190.267339 120.723895 
L 190.504602 121.512572 
L 190.748455 121.645057 
L 191.638191 121.658 
L 192.235742 121.572205 
L 192.554289 113.397285 
L 192.587242 113.33213 
L 192.63777 113.508811 
L 192.769583 115.11374 
L 193.244108 121.025044 
L 193.476978 121.564905 
L 193.74939 121.652582 
L 194.335957 121.657999 
L 194.825861 106.793612 
L 194.841239 106.808798 
L 194.858814 106.885728 
L 194.951083 108.182013 
L 195.689234 121.343986 
L 195.913315 121.618869 
L 196.018765 121.645308 
L 196.020962 121.559819 
L 196.341706 113.387939 
L 196.370266 112.902876 
L 196.594347 108.435326 
L 196.631694 108.545323 
L 196.73275 109.820282 
L 197.466508 121.343415 
L 197.644455 121.59379 
L 197.646652 121.509348 
L 197.967396 113.386359 
L 197.998152 113.330902 
L 198.04868 113.508171 
L 198.180493 115.113634 
L 198.391393 118.607312 
L 198.435331 117.498047 
L 198.720925 112.978549 
L 198.723122 112.978757 
L 198.767059 113.102922 
L 198.883494 114.348092 
L 199.050457 117.201585 
L 199.103182 116.03403 
L 199.362413 112.605211 
L 199.369004 112.608482 
L 199.421729 112.80933 
L 199.557935 114.483354 
L 199.61066 115.397838 
L 199.661189 114.360277 
L 199.762245 110.211911 
L 199.981933 104.272507 
L 199.99072 104.279738 
L 200.039052 104.63828 
L 200.08958 105.525854 
L 200.157683 104.739995 
L 200.199424 104.616474 
L 200.252149 104.823871 
L 200.372977 106.603525 
L 200.449868 105.501658 
L 200.528955 105.100593 
L 200.579484 105.287123 
L 200.693721 106.936098 
L 201.4824 121.339034 
L 201.811932 113.351662 
L 201.836098 113.321957 
L 201.882232 113.475314 
L 202.007454 114.936932 
L 202.506146 121.082726 
L 202.736818 121.573952 
L 203.018018 121.6537 
L 204.094488 121.658 
L 204.094488 121.658 
" clip-path="url(#pf78403dcc4)" style="fill: none; stroke: #000000; stroke-width: 0.5; stroke-linecap: square"/>
   </g>
   <g id="patch_13">
    <path d="M 28.346457 122.756203 
L 28.346457 106.283167 
" style="fill: none; stroke: #000000; stroke-width: 0.8; stroke-linejoin: miter; stroke-linecap: square"/>
   </g>
   <g id="patch_14">
    <path d="M 204.094488 122.756203 
L 204.094488 106.283167 
" style="fill: none; stroke: #000000; stroke-width: 0.8; stroke-linejoin: miter; stroke-linecap: square"/>
   </g>
   <g id="patch_15">
    <path d="M 28.346457 122.756203 
L 204.094488 122.756203 
" style="fill: none; stroke: #000000; stroke-width: 0.8; stroke-linejoin: miter; stroke-linecap: square"/>
   </g>
   <g id="patch_16">
    <path d="M 28.346457 106.283167 
L 204.094488 106.283167 
" style="fill: none; stroke: #000000; stroke-width: 0.8; stroke-linejoin: miter; stroke-linecap: square"/>
   </g>
  </g>
  <g id="axes_4">
   <g id="patch_17">
    <path d="M 28.346457 142.523845 
L 204.094488 142.523845 
L 204.094488 126.05081 
L 28.346457 126.05081 
z
" style="fill: #ffffff"/>
   </g>
   <g id="matplotlib.axis_7"/>
   <g id="matplotlib.axis_8"/>
   <g id="line2d_4">
    <path d="M 28.346457 141.425643 
L 37.3229 141.339847 
L 37.641447 133.164927 
L 37.6744 133.099773 
L 37.724928 133.276453 
L 37.856741 134.881382 
L 38.331267 140.792686 
L 38.564136 141.332547 
L 38.836548 141.420224 
L 39.214411 141.425606 
L 39.216608 141.339811 
L 39.535156 133.164927 
L 39.568109 133.099773 
L 39.618637 133.276453 
L 39.75045 134.881382 
L 40.117328 140.124051 
L 40.139297 139.436051 
L 40.453451 133.018656 
L 40.471026 133.017436 
L 40.503979 133.119569 
L 40.613823 134.255332 
L 41.187208 141.018944 
L 41.415683 141.37039 
L 41.624386 141.419644 
L 41.947327 133.155715 
L 41.978084 133.099713 
L 42.028612 133.276425 
L 42.160425 134.881378 
L 42.63495 140.792686 
L 42.867819 141.332547 
L 43.140232 141.420224 
L 43.15561 141.421114 
L 43.157807 141.335434 
L 43.478551 133.155742 
L 43.509308 133.099731 
L 43.559836 133.276433 
L 43.691649 134.881379 
L 44.166174 140.792686 
L 44.396846 141.330636 
L 44.721984 133.144404 
L 44.750544 133.097666 
L 44.798875 133.261286 
L 44.926294 134.775308 
L 45.416198 140.831647 
L 45.444757 140.944781 
L 45.455741 140.554404 
L 45.774289 133.107723 
L 45.798454 133.08047 
L 45.842392 133.224032 
L 45.910495 133.859061 
L 45.939055 133.128077 
L 46.156545 130.326652 
L 46.163136 130.329256 
L 46.213664 130.518702 
L 46.341083 132.129052 
L 46.949618 140.905925 
L 47.178094 141.351047 
L 47.472475 141.422495 
L 47.72951 141.425534 
L 47.731707 141.339742 
L 48.050254 133.164926 
L 48.083207 133.099772 
L 48.133736 133.276453 
L 48.265548 134.881382 
L 48.740074 140.792686 
L 48.972943 141.332547 
L 49.245356 141.420224 
L 50.176832 141.425643 
L 50.497576 133.164927 
L 50.530529 133.099773 
L 50.581057 133.276453 
L 50.71287 134.881382 
L 50.750217 135.506067 
L 50.798548 134.475199 
L 51.033614 131.713518 
L 51.042402 131.71797 
L 51.097324 131.935222 
L 51.23353 133.64152 
L 51.424659 137.156398 
L 51.479581 135.9451 
L 51.738812 132.453713 
L 51.7476 132.457654 
L 51.802522 132.678433 
L 51.943122 134.455754 
L 52.026603 135.932203 
L 52.077131 134.880839 
L 52.320985 131.971213 
L 52.329772 131.976788 
L 52.386891 132.21688 
L 52.529688 134.062319 
L 53.028379 140.749752 
L 53.261248 141.324604 
L 53.527071 141.41917 
L 54.074093 141.425639 
L 54.394837 133.164927 
L 54.473925 132.392663 
L 54.687022 128.851171 
L 54.691416 128.853328 
L 54.73755 129.043893 
L 54.849591 130.579739 
L 54.908907 129.533325 
L 55.045113 128.471057 
L 55.084657 128.561878 
L 55.143973 129.031374 
L 55.165942 128.443158 
L 55.339495 126.134422 
L 55.363661 126.185647 
L 55.444945 126.995137 
L 55.649255 131.911123 
L 55.728342 134.118137 
L 55.803036 133.162313 
L 56.000755 131.616734 
L 56.029315 131.661838 
L 56.11719 132.292068 
L 56.341271 136.043392 
L 56.692772 140.548476 
L 56.930034 141.289488 
L 57.255172 133.142617 
L 57.283732 133.096371 
L 57.332063 133.260547 
L 57.461679 134.810271 
L 57.944992 140.812422 
L 58.177861 141.336266 
L 58.454668 141.420751 
L 59.871654 141.425643 
L 60.192398 133.164927 
L 60.225351 133.099773 
L 60.275879 133.276453 
L 60.407692 134.881382 
L 60.596624 138.05072 
L 60.642758 136.924466 
L 60.923958 132.674478 
L 60.926155 132.675118 
L 60.97229 132.818524 
L 61.093118 134.161233 
L 61.642337 140.936561 
L 61.870813 141.3559 
L 62.173982 141.423032 
L 62.360717 141.425409 
L 62.362913 141.33962 
L 62.681461 133.164925 
L 62.714414 133.099771 
L 62.764942 133.276453 
L 62.896755 134.881382 
L 63.37128 140.792686 
L 63.604149 141.332547 
L 63.876562 141.420224 
L 64.379647 141.425637 
L 64.858567 127.062661 
L 64.893717 126.947173 
L 64.944245 127.209211 
L 65.071664 129.573041 
L 65.614293 140.489553 
L 65.844965 141.280026 
L 66.086621 141.412845 
L 66.930222 141.425643 
L 67.250967 133.164927 
L 67.28392 133.099773 
L 67.334448 133.276453 
L 67.466261 134.881382 
L 67.940786 140.792686 
L 68.173655 141.332547 
L 68.446068 141.420224 
L 69.045816 141.425641 
L 69.511554 127.531641 
L 69.57087 127.184643 
L 69.625792 127.472559 
L 69.663139 127.954168 
L 69.702682 127.135185 
L 69.825707 126.035132 
L 69.867448 126.161143 
L 69.972898 127.478521 
L 70.276067 135.132713 
L 70.544087 139.814687 
L 70.557268 139.428527 
L 70.884603 132.990496 
L 70.915359 133.037211 
L 70.92854 133.092454 
L 71.038384 134.217805 
L 71.61836 141.032546 
L 71.846835 141.372709 
L 72.189548 141.424522 
L 75.322296 141.425643 
L 75.64304 133.164927 
L 75.717734 133.223651 
L 75.746293 132.314258 
L 75.9528 129.15678 
L 75.961587 129.162887 
L 76.016509 129.438896 
L 76.157109 131.626741 
L 76.697541 140.613958 
L 76.93041 141.300593 
L 77.180855 141.415705 
L 78.050818 141.425643 
L 78.371562 133.164927 
L 78.404515 133.099773 
L 78.455044 133.276453 
L 78.586856 134.881382 
L 79.026232 140.615265 
L 79.032823 140.393943 
L 79.360157 133.070976 
L 79.377732 133.057758 
L 79.419473 133.184553 
L 79.538104 134.494497 
L 80.069749 140.92865 
L 80.300421 141.355907 
L 80.60359 141.423032 
L 81.851417 141.425643 
L 82.172161 133.164927 
L 82.205114 133.099773 
L 82.255642 133.276453 
L 82.387455 134.881382 
L 82.861981 140.792686 
L 83.09485 141.332547 
L 83.367263 141.420224 
L 85.243396 141.425643 
L 85.816781 141.339847 
L 86.135329 133.164927 
L 86.168282 133.099773 
L 86.21881 133.276453 
L 86.350623 134.881382 
L 86.825148 140.792686 
L 87.058017 141.332547 
L 87.33043 141.420224 
L 87.580874 141.425416 
L 87.583071 141.339627 
L 87.901618 133.164925 
L 87.934572 133.099772 
L 87.9851 133.276453 
L 88.116912 134.881382 
L 88.591438 140.792686 
L 88.824307 141.332547 
L 89.09672 141.420224 
L 90.972854 141.425643 
L 110.590973 141.339847 
L 110.90952 133.164927 
L 110.942473 133.099773 
L 110.993002 133.276453 
L 111.124814 134.881382 
L 111.59934 140.792686 
L 111.832209 141.332547 
L 112.104622 141.420224 
L 113.134957 141.425643 
L 113.455702 133.164927 
L 113.488655 133.099773 
L 113.539183 133.276453 
L 113.670996 134.881382 
L 114.145521 140.792686 
L 114.37839 141.332547 
L 114.650803 141.420224 
L 116.526937 141.425643 
L 132.427939 141.339847 
L 132.746486 133.164927 
L 132.779439 133.099773 
L 132.829967 133.276453 
L 132.96178 134.881382 
L 133.436306 140.792686 
L 133.669175 141.332547 
L 133.941588 141.420224 
L 135.756209 141.425643 
L 136.076953 133.164927 
L 136.109906 133.099773 
L 136.160434 133.276453 
L 136.206569 133.685331 
L 136.230734 133.033749 
L 136.448225 130.082782 
L 136.454816 130.084913 
L 136.505344 130.275789 
L 136.630566 131.878114 
L 137.247889 140.913268 
L 137.476364 141.352509 
L 137.772943 141.422656 
L 140.984778 141.425643 
L 146.384704 141.339847 
L 146.703251 133.164927 
L 146.736204 133.099773 
L 146.786732 133.276453 
L 146.918545 134.881382 
L 147.393071 140.792686 
L 147.62594 141.332547 
L 147.898353 141.420224 
L 148.625519 141.425643 
L 148.946263 133.164927 
L 148.979217 133.099773 
L 149.029745 133.276453 
L 149.161557 134.881382 
L 149.636083 140.792686 
L 149.868952 141.332547 
L 150.141365 141.420224 
L 152.017499 141.425643 
L 157.087893 141.339847 
L 157.40644 133.164927 
L 157.439393 133.099773 
L 157.489921 133.276453 
L 157.536056 133.685331 
L 157.560221 133.033749 
L 157.777712 130.082782 
L 157.784303 130.084913 
L 157.834831 130.275789 
L 157.960053 131.878114 
L 158.577376 140.913268 
L 158.805851 141.352509 
L 159.10243 141.422656 
L 160.591913 141.425643 
L 160.912657 133.164927 
L 160.94561 133.099773 
L 160.996138 133.276453 
L 161.127951 134.881382 
L 161.602477 140.792686 
L 161.835346 141.332547 
L 162.107759 141.420224 
L 163.632392 141.425643 
L 163.953136 133.164927 
L 163.986089 133.099773 
L 164.036617 133.276453 
L 164.16843 134.881382 
L 164.642956 140.792686 
L 164.875825 141.332547 
L 165.148238 141.420224 
L 165.831467 141.425643 
L 166.152211 133.164927 
L 166.185164 133.099773 
L 166.235692 133.276453 
L 166.367505 134.881382 
L 166.84203 140.792686 
L 167.074899 141.332547 
L 167.347312 141.420224 
L 167.369281 141.421452 
L 167.371478 141.335764 
L 167.769113 130.158197 
L 167.925091 127.829292 
L 167.955847 127.906545 
L 168.045919 128.958943 
L 168.349089 136.238603 
L 168.650061 140.473689 
L 168.88293 141.275922 
L 169.124586 141.412165 
L 169.33329 141.424509 
L 169.335487 141.338745 
L 169.656231 133.155796 
L 169.686987 133.099765 
L 169.737515 133.27645 
L 169.869328 134.881382 
L 170.343854 140.792686 
L 170.576723 141.332547 
L 170.849136 141.420224 
L 171.172077 141.425561 
L 171.174274 141.339767 
L 171.492821 133.164927 
L 171.525774 133.099772 
L 171.576302 133.276453 
L 171.708115 134.881382 
L 172.18264 140.792686 
L 172.41551 141.332547 
L 172.687922 141.420224 
L 174.564056 141.425643 
L 174.588222 141.339847 
L 174.906769 133.164927 
L 174.939722 133.099773 
L 174.99025 133.276453 
L 175.122063 134.881382 
L 175.596589 140.792686 
L 175.829458 141.332547 
L 176.101871 141.420224 
L 176.888353 141.425643 
L 177.356288 126.064976 
L 177.389241 126.191764 
L 177.4881 127.785624 
L 177.58696 130.52111 
L 177.685819 129.837847 
L 177.767104 129.641163 
L 177.815435 129.742736 
L 177.830813 129.813682 
L 177.841798 129.447359 
L 178.197692 121.382288 
L 178.228448 121.396591 
L 178.24163 120.955705 
L 178.371245 118.878069 
L 178.410789 119.057215 
L 178.511846 120.995142 
L 178.852362 133.756012 
L 178.951221 136.630386 
L 179.017127 135.546088 
L 179.269768 132.568366 
L 179.291737 132.597968 
L 179.370825 133.125357 
L 179.588316 136.578583 
L 179.660813 135.026962 
L 179.893682 132.236372 
L 179.904666 132.244162 
L 179.963982 132.514469 
L 180.115566 134.55217 
L 180.576911 140.684569 
L 180.811977 141.313974 
L 181.071208 141.417734 
L 182.420091 141.425643 
L 183.661327 141.339847 
L 183.979875 133.164927 
L 184.012828 133.099773 
L 184.063356 133.276453 
L 184.195169 134.881382 
L 184.669694 140.792686 
L 184.902563 141.332547 
L 185.071723 141.408476 
L 185.394664 133.155463 
L 185.42542 133.099546 
L 185.475948 133.276341 
L 185.607761 134.881366 
L 186.082287 140.792686 
L 186.315156 141.332547 
L 186.587569 141.420224 
L 188.463702 141.425643 
L 188.628468 141.339847 
L 188.947015 133.164927 
L 188.979969 133.099773 
L 189.030497 133.276453 
L 189.162309 134.881382 
L 189.276547 136.838111 
L 189.324878 135.770254 
L 189.810388 127.34634 
L 189.819176 127.355183 
L 189.874098 127.704066 
L 190.019092 130.479213 
L 190.51998 140.335815 
L 190.755046 141.252359 
L 190.990112 141.408414 
L 191.143893 141.422685 
L 191.14609 141.336967 
L 191.466834 133.15577 
L 191.497591 133.099748 
L 191.548119 133.276442 
L 191.679931 134.881381 
L 192.154457 140.792686 
L 192.387326 141.332547 
L 192.659739 141.420224 
L 193.413268 141.425643 
L 193.734012 133.164927 
L 193.766965 133.099773 
L 193.817494 133.276453 
L 193.949306 134.881382 
L 193.991047 135.58156 
L 194.039378 134.551567 
L 194.153616 129.964248 
L 194.371107 124.221764 
L 194.379894 124.233371 
L 194.432619 124.672897 
L 194.575416 128.259608 
L 195.043351 140.046029 
L 195.27622 141.212956 
L 195.498105 141.402476 
L 195.821046 133.15537 
L 195.851802 133.099486 
L 195.902331 133.276313 
L 196.034143 134.881362 
L 196.086868 135.771386 
L 196.1352 134.741822 
L 196.376856 131.859317 
L 196.385644 131.86479 
L 196.442763 132.104048 
L 196.58556 133.952148 
L 197.088645 140.749419 
L 197.321514 141.324587 
L 197.587336 141.41917 
L 199.191057 141.425643 
L 199.263554 141.339847 
L 199.582101 133.164927 
L 199.615054 133.099773 
L 199.665582 133.276453 
L 199.797395 134.881382 
L 200.271921 140.792686 
L 200.50479 141.332547 
L 200.731068 141.416469 
L 201.054009 133.155651 
L 201.084766 133.09967 
L 201.135294 133.276404 
L 201.267106 134.881375 
L 201.741632 140.792686 
L 201.974501 141.332547 
L 202.018439 141.364185 
L 202.020635 141.279678 
L 202.34138 133.154066 
L 202.354561 132.685354 
L 202.580839 127.940368 
L 202.618186 128.058251 
L 202.72144 129.42939 
L 202.771968 130.507754 
L 202.840071 129.576141 
L 202.993852 126.643812 
L 203.163012 123.640326 
L 203.189375 123.714612 
L 203.272856 124.838477 
L 203.503528 131.951732 
L 203.846241 139.794028 
L 204.083504 141.162063 
L 204.094488 141.186202 
L 204.094488 141.186202 
" clip-path="url(#p9eb2a4a13c)" style="fill: none; stroke: #000000; stroke-width: 0.5; stroke-linecap: square"/>
   </g>
   <g id="patch_18">
    <path d="M 28.346457 142.523845 
L 28.346457 126.05081 
" style="fill: none; stroke: #000000; stroke-width: 0.8; stroke-linejoin: miter; stroke-linecap: square"/>
   </g>
   <g id="patch_19">
    <path d="M 204.094488 142.523845 
L 204.094488 126.05081 
" style="fill: none; stroke: #000000; stroke-width: 0.8; stroke-linejoin: miter; stroke-linecap: square"/>
   </g>
   <g id="patch_20">
    <path d="M 28.346457 142.523845 
L 204.094488 142.523845 
" style="fill: none; stroke: #000000; stroke-width: 0.8; stroke-linejoin: miter; stroke-linecap: square"/>
   </g>
   <g id="patch_21">
    <path d="M 28.346457 126.05081 
L 204.094488 126.05081 
" style="fill: none; stroke: #000000; stroke-width: 0.8; stroke-linejoin: miter; stroke-linecap: square"/>
   </g>
  </g>
  <g id="axes_5">
   <g id="patch_22">
    <path d="M 28.346457 201.826772 
L 204.094488 201.826772 
L 204.094488 185.353736 
L 28.346457 185.353736 
z
" style="fill: #ffffff"/>
   </g>
   <g id="matplotlib.axis_9">
    <g id="xtick_1">
     <g id="line2d_5">
      <defs>
       <path id="m50c586143a" d="M 0 0 
L 0 3.5 
" style="stroke: #000000; stroke-width: 0.8"/>
      </defs>
      <g>
       <use xlink:href="#m50c586143a" x="28.346457" y="201.826772" style="stroke: #000000; stroke-width: 0.8"/>
      </g>
     </g>
     <g id="text_2">
      <!-- 0 -->
      <g transform="translate(26.021457 215.806459) scale(0.1 -0.1)">
       <defs>
        <path id="LibertinusSerif-Regular-30" d="M 1459 -64 
C 1952 -64 2701 435 2701 1939 
C 2701 2573 2547 3117 2266 3488 
C 2099 3712 1830 3904 1485 3904 
C 851 3904 250 3149 250 1882 
C 250 1197 461 557 813 205 
C 992 26 1210 -64 1459 -64 
z
M 1485 3680 
C 1594 3680 1696 3642 1773 3571 
C 1971 3405 2144 2918 2144 2061 
C 2144 1472 2125 1069 2035 742 
C 1894 218 1581 160 1466 160 
C 870 160 806 1254 806 1811 
C 806 3386 1197 3680 1485 3680 
z
" transform="scale(0.015625)"/>
       </defs>
       <use xlink:href="#LibertinusSerif-Regular-30"/>
      </g>
     </g>
    </g>
    <g id="xtick_2">
     <g id="line2d_6">
      <g>
       <use xlink:href="#m50c586143a" x="72.283465" y="201.826772" style="stroke: #000000; stroke-width: 0.8"/>
      </g>
     </g>
     <g id="text_3">
      <!-- 1000 -->
      <g transform="translate(62.983465 215.806459) scale(0.1 -0.1)">
       <defs>
        <path id="LibertinusSerif-Regular-31" d="M 1843 781 
L 1843 3002 
C 1843 3386 1850 3776 1862 3859 
C 1862 3891 1850 3891 1824 3891 
C 1472 3674 1133 3514 570 3251 
C 582 3181 608 3117 666 3078 
C 960 3200 1101 3238 1222 3238 
C 1331 3238 1350 3085 1350 2867 
L 1350 781 
C 1350 250 1178 218 730 198 
C 691 160 691 26 730 -13 
C 1043 -6 1274 0 1619 0 
C 1926 0 2080 -6 2400 -13 
C 2438 26 2438 160 2400 198 
C 1952 218 1843 250 1843 781 
z
" transform="scale(0.015625)"/>
       </defs>
       <use xlink:href="#LibertinusSerif-Regular-31"/>
       <use xlink:href="#LibertinusSerif-Regular-30" transform="translate(46.499985 0)"/>
       <use xlink:href="#LibertinusSerif-Regular-30" transform="translate(92.999969 0)"/>
       <use xlink:href="#LibertinusSerif-Regular-30" transform="translate(139.499954 0)"/>
      </g>
     </g>
    </g>
    <g id="xtick_3">
     <g id="line2d_7">
      <g>
       <use xlink:href="#m50c586143a" x="116.220472" y="201.826772" style="stroke: #000000; stroke-width: 0.8"/>
      </g>
     </g>
     <g id="text_4">
      <!-- 2000 -->
      <g transform="translate(106.920472 215.806459) scale(0.1 -0.1)">
       <defs>
        <path id="LibertinusSerif-Regular-32" d="M 390 2995 
C 390 2861 512 2746 646 2746 
C 755 2746 947 2861 947 3002 
C 947 3053 934 3091 922 3136 
C 909 3181 870 3238 870 3290 
C 870 3450 1037 3680 1504 3680 
C 1734 3680 2061 3520 2061 2906 
C 2061 2496 1914 2163 1536 1779 
L 1062 1312 
C 435 672 333 365 333 -13 
C 333 -13 659 0 864 0 
L 1984 0 
C 2189 0 2483 -13 2483 -13 
C 2566 326 2630 806 2637 998 
C 2598 1030 2515 1043 2451 1030 
C 2342 576 2234 416 2003 416 
L 864 416 
C 864 723 1306 1158 1338 1190 
L 1984 1811 
C 2349 2163 2624 2445 2624 2931 
C 2624 3622 2061 3904 1542 3904 
C 832 3904 390 3379 390 2995 
z
" transform="scale(0.015625)"/>
       </defs>
       <use xlink:href="#LibertinusSerif-Regular-32"/>
       <use xlink:href="#LibertinusSerif-Regular-30" transform="translate(46.499985 0)"/>
       <use xlink:href="#LibertinusSerif-Regular-30" transform="translate(92.999969 0)"/>
       <use xlink:href="#LibertinusSerif-Regular-30" transform="translate(139.499954 0)"/>
      </g>
     </g>
    </g>
    <g id="xtick_4">
     <g id="line2d_8">
      <g>
       <use xlink:href="#m50c586143a" x="160.15748" y="201.826772" style="stroke: #000000; stroke-width: 0.8"/>
      </g>
     </g>
     <g id="text_5">
      <!-- 3000 -->
      <g transform="translate(150.85748 215.806459) scale(0.1 -0.1)">
       <defs>
        <path id="LibertinusSerif-Regular-33" d="M 1376 3680 
C 1651 3680 1907 3514 1907 3104 
C 1907 2784 1536 2291 902 2202 
L 934 1997 
C 1043 2010 1158 2010 1242 2010 
C 1606 2010 2080 1907 2080 1184 
C 2080 333 1510 160 1286 160 
C 960 160 902 307 826 422 
C 762 512 678 589 550 589 
C 416 589 282 467 282 365 
C 282 109 819 -64 1203 -64 
C 1965 -64 2643 429 2643 1274 
C 2643 1971 2118 2221 1741 2285 
L 1734 2298 
C 2259 2547 2406 2810 2406 3149 
C 2406 3341 2362 3494 2208 3654 
C 2067 3795 1843 3904 1510 3904 
C 570 3904 301 3290 301 3078 
C 301 2989 365 2861 518 2861 
C 742 2861 768 3072 768 3194 
C 768 3603 1210 3680 1376 3680 
z
" transform="scale(0.015625)"/>
       </defs>
       <use xlink:href="#LibertinusSerif-Regular-33"/>
       <use xlink:href="#LibertinusSerif-Regular-30" transform="translate(46.499985 0)"/>
       <use xlink:href="#LibertinusSerif-Regular-30" transform="translate(92.999969 0)"/>
       <use xlink:href="#LibertinusSerif-Regular-30" transform="translate(139.499954 0)"/>
      </g>
     </g>
    </g>
    <g id="xtick_5">
     <g id="line2d_9">
      <g>
       <use xlink:href="#m50c586143a" x="204.094488" y="201.826772" style="stroke: #000000; stroke-width: 0.8"/>
      </g>
     </g>
     <g id="text_6">
      <!-- 4000 -->
      <g transform="translate(194.794488 215.806459) scale(0.1 -0.1)">
       <defs>
        <path id="LibertinusSerif-Regular-34" d="M 2752 1402 
L 2221 1402 
L 2221 3270 
C 2221 3590 2221 3840 2234 3891 
L 2221 3904 
L 2016 3904 
C 1971 3904 1939 3866 1914 3834 
C 1510 3341 768 2285 179 1370 
C 198 1274 237 1101 429 1101 
L 1734 1101 
L 1734 512 
C 1734 218 1491 218 1216 198 
C 1178 160 1178 26 1216 -13 
C 1421 -6 1677 0 1971 0 
C 2221 0 2464 -6 2669 -13 
C 2707 26 2707 160 2669 198 
C 2355 224 2221 211 2221 512 
L 2221 1101 
L 2662 1101 
C 2752 1101 2848 1222 2848 1299 
C 2848 1363 2822 1402 2752 1402 
z
M 1734 3245 
L 1734 1402 
L 512 1402 
C 838 1926 1293 2643 1734 3245 
z
" transform="scale(0.015625)"/>
       </defs>
       <use xlink:href="#LibertinusSerif-Regular-34"/>
       <use xlink:href="#LibertinusSerif-Regular-30" transform="translate(46.499985 0)"/>
       <use xlink:href="#LibertinusSerif-Regular-30" transform="translate(92.999969 0)"/>
       <use xlink:href="#LibertinusSerif-Regular-30" transform="translate(139.499954 0)"/>
      </g>
     </g>
    </g>
    <g id="text_7">
     <!-- Time (ms) -->
     <g transform="translate(91.434847 230.522709) scale(0.12 -0.12)">
      <defs>
       <path id="LibertinusSerif-Regular-6d" d="M 1088 2291 
C 1082 2483 1069 2714 1037 2778 
C 1024 2810 1011 2829 960 2829 
C 781 2758 614 2701 173 2643 
C 160 2605 173 2502 186 2464 
C 531 2432 602 2400 602 2029 
L 602 781 
C 602 256 518 224 166 198 
C 128 160 128 26 166 -13 
C 358 -6 602 0 858 0 
C 1114 0 1312 -6 1504 -13 
C 1542 26 1542 160 1504 198 
C 1178 230 1107 256 1107 781 
L 1107 1830 
C 1107 1965 1165 2042 1216 2099 
C 1472 2349 1709 2477 1907 2477 
C 2150 2477 2330 2323 2330 1894 
L 2330 781 
C 2330 256 2278 224 1933 198 
C 1901 160 1901 26 1933 -13 
C 2093 -6 2330 0 2586 0 
C 2842 0 3053 -6 3213 -13 
C 3245 26 3245 160 3213 198 
C 2893 224 2835 256 2835 781 
L 2835 1798 
C 2835 1888 2835 1978 2829 2054 
C 3136 2394 3424 2477 3674 2477 
C 3917 2477 4058 2336 4058 1907 
L 4058 781 
C 4058 256 3994 224 3661 198 
C 3629 160 3629 26 3661 -13 
C 3821 -6 4058 0 4314 0 
C 4570 0 4794 -6 4973 -13 
C 5005 26 5005 160 4973 198 
C 4621 224 4563 256 4563 781 
L 4563 1792 
C 4563 2362 4467 2810 3904 2810 
C 3578 2810 3181 2688 2848 2336 
C 2829 2317 2790 2285 2778 2342 
C 2720 2605 2470 2810 2138 2810 
C 1766 2810 1434 2592 1165 2291 
C 1133 2259 1094 2214 1088 2291 
z
" transform="scale(0.015625)"/>
       <path id="LibertinusSerif-Regular-65" d="M 2470 595 
C 2234 352 2048 250 1677 250 
C 1446 250 1178 384 979 710 
C 851 922 774 1216 774 1587 
L 2477 1574 
C 2554 1574 2598 1613 2598 1683 
C 2598 2221 2406 2797 1517 2797 
C 960 2797 237 2266 237 1293 
C 237 934 326 589 538 346 
C 755 90 1056 -64 1517 -64 
C 2003 -64 2349 160 2605 493 
C 2586 557 2547 589 2470 595 
z
M 794 1805 
C 915 2528 1363 2586 1517 2586 
C 1760 2586 2048 2451 2048 1914 
C 2048 1856 2022 1824 1952 1824 
L 794 1805 
z
" transform="scale(0.015625)"/>
       <path id="LibertinusSerif-Regular-28" d="M 282 1613 
C 282 1325 307 -154 1638 -1306 
C 1702 -1293 1754 -1248 1773 -1197 
C 1562 -954 813 -70 813 1613 
C 813 3296 1568 4179 1773 4410 
C 1754 4474 1709 4518 1638 4525 
C 877 3872 282 2803 282 1613 
z
" transform="scale(0.015625)"/>
       <path id="LibertinusSerif-Regular-29" d="M 1626 1613 
C 1626 1901 1600 3379 269 4531 
C 205 4518 154 4474 134 4422 
C 346 4179 1094 3296 1094 1613 
C 1094 -70 339 -954 134 -1184 
C 154 -1248 198 -1293 269 -1299 
C 1030 -646 1626 422 1626 1613 
z
" transform="scale(0.015625)"/>
      </defs>
      <use xlink:href="#LibertinusSerif-Regular-54"/>
      <use xlink:href="#LibertinusSerif-Regular-69" transform="translate(59.699997 0)"/>
      <use xlink:href="#LibertinusSerif-Regular-6d" transform="translate(86.799988 0)"/>
      <use xlink:href="#LibertinusSerif-Regular-65" transform="translate(165.799973 0)"/>
      <use xlink:href="#LibertinusSerif-Regular-20" transform="translate(210.499969 0)"/>
      <use xlink:href="#LibertinusSerif-Regular-28" transform="translate(235.499954 0)"/>
      <use xlink:href="#LibertinusSerif-Regular-6d" transform="translate(265.299942 0)"/>
      <use xlink:href="#LibertinusSerif-Regular-73" transform="translate(344.299927 0)"/>
      <use xlink:href="#LibertinusSerif-Regular-29" transform="translate(383.299911 0)"/>
     </g>
    </g>
   </g>
   <g id="matplotlib.axis_10"/>
   <g id="line2d_10">
    <path d="M 28.346457 200.728569 
L 38.843008 200.642774 
L 39.161551 192.467854 
L 39.194504 192.402699 
L 39.245031 192.57938 
L 39.376843 194.184309 
L 39.851362 200.095613 
L 40.084228 200.635474 
L 40.356638 200.723151 
L 42.232748 200.728569 
L 61.103693 200.642774 
L 61.422236 192.467854 
L 61.455189 192.402699 
L 61.505717 192.57938 
L 61.637528 194.184309 
L 62.112047 200.095613 
L 62.344913 200.635474 
L 62.617323 200.723151 
L 64.493433 200.728569 
L 79.566024 200.642774 
L 79.884567 192.467854 
L 79.91752 192.402699 
L 79.968047 192.57938 
L 80.099858 194.184309 
L 80.574378 200.095613 
L 80.807244 200.635474 
L 81.079654 200.723151 
L 82.955764 200.728569 
L 85.020803 200.642774 
L 85.339346 192.467854 
L 85.372299 192.402699 
L 85.422827 192.57938 
L 85.554638 194.184309 
L 86.029157 200.095613 
L 86.262024 200.635474 
L 86.534433 200.723151 
L 88.410543 200.728569 
L 99.706748 200.642774 
L 100.025291 192.467854 
L 100.058244 192.402699 
L 100.108772 192.57938 
L 100.240583 194.184309 
L 100.715102 200.095613 
L 100.947969 200.635474 
L 101.220378 200.723151 
L 103.096488 200.728569 
L 126.23152 200.642774 
L 126.550063 192.467854 
L 126.583016 192.402699 
L 126.633543 192.57938 
L 126.708236 193.335636 
L 126.738992 192.575193 
L 126.958677 189.831605 
L 126.965268 189.834679 
L 127.017992 190.038808 
L 127.147606 191.690478 
L 127.740756 200.18357 
L 127.969228 200.649237 
L 128.257016 200.724886 
L 130.330843 200.728569 
L 130.651583 192.467854 
L 130.684535 192.402699 
L 130.735063 192.57938 
L 130.866874 194.184309 
L 131.200795 199.139999 
L 131.229354 198.279462 
L 131.536913 192.287778 
L 131.554488 192.29109 
L 131.585244 192.389067 
L 131.695087 193.518133 
L 132.272858 200.328716 
L 132.501331 200.674487 
L 132.841843 200.727385 
L 140.420976 200.728569 
L 149.313827 200.642774 
L 149.63237 192.467854 
L 149.665323 192.402699 
L 149.71585 192.57938 
L 149.847661 194.184309 
L 150.322181 200.095613 
L 150.555047 200.635474 
L 150.827457 200.723151 
L 152.703567 200.728569 
L 154.36878 200.642774 
L 154.687323 192.467854 
L 154.720276 192.402699 
L 154.770803 192.57938 
L 154.902614 194.184309 
L 155.377134 200.095613 
L 155.61 200.635474 
L 155.882409 200.723151 
L 157.75852 200.728569 
L 204.092291 200.728569 
L 204.092291 200.728569 
" clip-path="url(#pde52c656e4)" style="fill: none; stroke: #000000; stroke-width: 0.5; stroke-linecap: square"/>
   </g>
   <g id="patch_23">
    <path d="M 28.346457 201.826772 
L 28.346457 185.353736 
" style="fill: none; stroke: #000000; stroke-width: 0.8; stroke-linejoin: miter; stroke-linecap: square"/>
   </g>
   <g id="patch_24">
    <path d="M 204.094488 201.826772 
L 204.094488 185.353736 
" style="fill: none; stroke: #000000; stroke-width: 0.8; stroke-linejoin: miter; stroke-linecap: square"/>
   </g>
   <g id="patch_25">
    <path d="M 28.346457 201.826772 
L 204.094488 201.826772 
" style="fill: none; stroke: #000000; stroke-width: 0.8; stroke-linejoin: miter; stroke-linecap: square"/>
   </g>
   <g id="patch_26">
    <path d="M 28.346457 185.353736 
L 204.094488 185.353736 
" style="fill: none; stroke: #000000; stroke-width: 0.8; stroke-linejoin: miter; stroke-linecap: square"/>
   </g>
  </g>
  <g id="text_8">
   <!-- C -->
   <g transform="translate(28.589873 16.261308) scale(0.168 -0.168)">
    <use xlink:href="#LibertinusSerif-Regular-43"/>
   </g>
  </g>
 </g>
 <defs>
  <clipPath id="p6228d6cdda">
   <rect x="28.346457" y="27.212598" width="175.748031" height="16.473035"/>
  </clipPath>
  <clipPath id="p199532a7bb">
   <rect x="28.346457" y="86.515525" width="175.748031" height="16.473035"/>
  </clipPath>
  <clipPath id="pf78403dcc4">
   <rect x="28.346457" y="106.283167" width="175.748031" height="16.473035"/>
  </clipPath>
  <clipPath id="p9eb2a4a13c">
   <rect x="28.346457" y="126.05081" width="175.748031" height="16.473035"/>
  </clipPath>
  <clipPath id="pde52c656e4">
   <rect x="28.346457" y="185.353736" width="175.748031" height="16.473035"/>
  </clipPath>
 </defs>
</svg>
