<?xml version="1.0" encoding="utf-8" standalone="no"?>
<!DOCTYPE svg PUBLIC "-//W3C//DTD SVG 1.1//EN"
  "http://www.w3.org/Graphics/SVG/1.1/DTD/svg11.dtd">
<svg xmlns:xlink="http://www.w3.org/1999/xlink" width="226.771654pt" height="226.771654pt" viewBox="0 0 226.771654 226.771654" xmlns="http://www.w3.org/2000/svg" version="1.1">
 <metadata>
  <rdf:RDF xmlns:dc="http://purl.org/dc/elements/1.1/" xmlns:cc="http://creativecommons.org/ns#" xmlns:rdf="http://www.w3.org/1999/02/22-rdf-syntax-ns#">
   <cc:Work>
    <dc:type rdf:resource="http://purl.org/dc/dcmitype/StillImage"/>
    <dc:date>1980-01-01T00:00:00+00:00</dc:date>
    <dc:format>image/svg+xml</dc:format>
    <dc:creator>
     <cc:Agent>
      <dc:title>Matplotlib v3.10.1, https://matplotlib.org/</dc:title>
     </cc:Agent>
    </dc:creator>
   </cc:Work>
  </rdf:RDF>
 </metadata>
 <defs>
  <style type="text/css">*{stroke-linejoin: round; stroke-linecap: butt}</style>
 </defs>
 <g id="figure_1">
  <g id="patch_1">
   <path d="M 0 226.771654 
L 226.771654 226.771654 
L 226.771654 0 
L 0 0 
z
" style="fill: #ffffff"/>
  </g>
  <g id="axes_1">
   <g id="patch_2">
    <path d="M 28.346457 43.685634 
L 204.094488 43.685634 
L 204.094488 27.212598 
L 28.346457 27.212598 
z
" style="fill: #ffffff"/>
   </g>
   <g id="matplotlib.axis_1"/>
   <g id="matplotlib.axis_2"/>
   <g id="line2d_1">
    <path d="M 28.346457 42.587431 
L 59.506972 42.501636 
L 59.825519 34.326716 
L 59.858473 34.261561 
L 59.909001 34.438242 
L 60.040814 36.043171 
L 60.091342 34.942055 
L 60.311029 32.466054 
L 60.322014 32.473872 
L 60.38133 32.741695 
L 60.52852 34.737972 
L 61.033802 41.865583 
L 61.266671 42.47779 
L 61.365531 42.544758 
L 61.367728 42.459888 
L 61.688472 34.316507 
L 61.719228 34.260828 
L 61.769756 34.437865 
L 61.901569 36.043111 
L 62.376095 41.954475 
L 62.608964 42.494336 
L 62.881377 42.582013 
L 64.75751 42.587431 
L 85.950791 42.501636 
L 86.269338 34.326716 
L 86.302291 34.261561 
L 86.35282 34.438242 
L 86.484632 36.043171 
L 86.959158 41.954475 
L 87.192027 42.494336 
L 87.46444 42.582013 
L 89.340573 42.587431 
L 92.31954 42.501636 
L 92.638087 34.326716 
L 92.67104 34.261561 
L 92.721568 34.438242 
L 92.853381 36.043171 
L 93.327907 41.954475 
L 93.560776 42.494336 
L 93.833189 42.582013 
L 95.709322 42.587431 
L 134.145897 42.501636 
L 134.464445 34.326716 
L 134.497398 34.261561 
L 134.547926 34.438242 
L 134.679739 36.043171 
L 135.154264 41.954475 
L 135.387133 42.494336 
L 135.659546 42.582013 
L 137.53568 42.587431 
L 142.823565 42.501636 
L 143.142112 34.326716 
L 143.175065 34.261561 
L 143.225593 34.438242 
L 143.357406 36.043171 
L 143.831932 41.954475 
L 144.064801 42.494336 
L 144.337214 42.582013 
L 146.213347 42.587431 
L 161.040076 42.501636 
L 161.358623 34.326716 
L 161.391576 34.261561 
L 161.442105 34.438242 
L 161.573917 36.043171 
L 162.048443 41.954475 
L 162.281312 42.494336 
L 162.553725 42.582013 
L 164.429859 42.587431 
L 176.743359 42.501636 
L 177.061906 34.326716 
L 177.094859 34.261561 
L 177.145388 34.438242 
L 177.2772 36.043171 
L 177.751726 41.954475 
L 177.984595 42.494336 
L 178.257008 42.582013 
L 180.133141 42.587431 
L 187.229057 42.501636 
L 187.547604 34.326716 
L 187.580557 34.261561 
L 187.631086 34.438242 
L 187.762898 36.043171 
L 188.237424 41.954475 
L 188.470293 42.494336 
L 188.742706 42.582013 
L 190.618839 42.587431 
L 191.921588 42.501636 
L 192.332404 26.352736 
L 192.420279 27.264626 
L 192.63118 33.546595 
L 192.969499 41.073756 
L 193.204565 42.349983 
L 193.426449 42.560733 
L 193.925141 42.587388 
L 202.48198 42.501636 
L 202.800527 34.326716 
L 202.83348 34.261561 
L 202.884008 34.438242 
L 203.015821 36.043171 
L 203.490347 41.954475 
L 203.723216 42.494336 
L 203.995629 42.582013 
L 204.094488 42.585782 
L 204.094488 42.585782 
" clip-path="url(#pa42e77479c)" style="fill: none; stroke: #000000; stroke-width: 0.5; stroke-linecap: square"/>
   </g>
   <g id="patch_3">
    <path d="M 28.346457 43.685634 
L 28.346457 27.212598 
" style="fill: none; stroke: #000000; stroke-width: 0.8; stroke-linejoin: miter; stroke-linecap: square"/>
   </g>
   <g id="patch_4">
    <path d="M 204.094488 43.685634 
L 204.094488 27.212598 
" style="fill: none; stroke: #000000; stroke-width: 0.8; stroke-linejoin: miter; stroke-linecap: square"/>
   </g>
   <g id="patch_5">
    <path d="M 28.346457 43.685634 
L 204.094488 43.685634 
" style="fill: none; stroke: #000000; stroke-width: 0.8; stroke-linejoin: miter; stroke-linecap: square"/>
   </g>
   <g id="patch_6">
    <path d="M 28.346457 27.212598 
L 204.094488 27.212598 
" style="fill: none; stroke: #000000; stroke-width: 0.8; stroke-linejoin: miter; stroke-linecap: square"/>
   </g>
   <g id="text_1">
    <!-- CTX synaptic ouput -->
    <g transform="translate(54.40641 21.212598) scale(0.15 -0.15)">
     <defs>
      <path id="LibertinusSerif-Regular-43" d="M 2285 -64 
C 2906 -64 3475 230 3910 800 
C 3878 858 3834 896 3763 896 
C 3309 397 2874 198 2278 198 
C 1414 198 819 1171 819 2106 
C 819 2656 966 3117 1197 3405 
C 1517 3795 1888 3974 2221 3974 
C 3104 3974 3456 3450 3622 2899 
C 3699 2874 3763 2893 3834 2931 
C 3802 3264 3757 3571 3693 3923 
C 3366 3955 3078 4211 2291 4211 
C 1747 4211 1293 4013 915 3667 
C 493 3277 237 2650 237 1984 
C 237 870 909 -64 2285 -64 
z
" transform="scale(0.015625)"/>
      <path id="LibertinusSerif-Regular-54" d="M 2240 781 
L 2240 3226 
C 2240 3635 2304 3878 2534 3878 
L 2675 3878 
C 3155 3878 3456 3712 3565 3219 
C 3635 3219 3725 3226 3782 3251 
C 3738 3546 3706 3872 3699 4160 
C 3699 4166 3686 4179 3680 4179 
C 3462 4160 2752 4128 2246 4128 
L 1696 4128 
C 1203 4128 448 4160 205 4179 
C 192 4179 179 4166 179 4160 
C 154 3872 90 3539 19 3232 
C 83 3206 160 3200 237 3200 
C 365 3712 659 3878 1082 3878 
L 1395 3878 
C 1632 3878 1696 3635 1696 3245 
L 1696 781 
C 1696 250 1587 218 1075 198 
C 1037 160 1037 26 1075 -13 
C 1389 -6 1715 0 1971 0 
C 2214 0 2541 -6 2861 -13 
C 2899 26 2899 160 2861 198 
C 2349 218 2240 250 2240 781 
z
" transform="scale(0.015625)"/>
      <path id="LibertinusSerif-Regular-58" d="M 3443 653 
L 2464 1997 
C 2400 2080 2362 2144 2362 2208 
C 2362 2266 2368 2323 2426 2400 
L 3302 3533 
C 3526 3821 3725 3904 4013 3930 
C 4051 3968 4051 4102 4013 4141 
C 3821 4134 3584 4128 3437 4128 
C 3290 4128 3021 4134 2765 4141 
C 2726 4102 2726 3968 2765 3930 
C 3046 3910 3168 3872 3014 3661 
L 2227 2541 
C 2189 2490 2150 2464 2125 2464 
C 2106 2464 2080 2490 2048 2534 
L 1344 3584 
C 1158 3840 1133 3910 1491 3930 
C 1530 3968 1530 4102 1491 4141 
C 1254 4134 1018 4128 762 4128 
C 512 4128 301 4134 109 4141 
C 70 4102 77 3968 115 3930 
C 384 3910 506 3878 768 3501 
L 1677 2202 
C 1728 2125 1766 2074 1766 2010 
C 1766 1971 1741 1914 1702 1862 
L 755 595 
C 538 301 333 224 45 198 
C 6 160 6 26 45 -13 
C 237 -6 474 0 621 0 
C 768 0 1037 -6 1293 -13 
C 1331 26 1331 160 1293 198 
C 1011 218 890 250 1043 467 
L 1888 1651 
C 1926 1702 1965 1741 1984 1741 
C 2010 1741 2035 1722 2074 1670 
L 2867 544 
C 3046 288 3072 218 2714 198 
C 2675 160 2675 26 2714 -13 
C 2950 -6 3187 0 3443 0 
C 3693 0 3904 -6 4096 -13 
C 4134 26 4128 160 4090 198 
C 3821 218 3712 282 3443 653 
z
" transform="scale(0.015625)"/>
      <path id="LibertinusSerif-Regular-20" transform="scale(0.015625)"/>
      <path id="LibertinusSerif-Regular-73" d="M 307 883 
C 333 570 352 269 352 0 
C 416 13 480 19 512 19 
C 557 19 595 19 640 6 
C 813 -38 986 -64 1222 -64 
C 1581 -64 2240 109 2240 742 
C 2240 1178 1926 1434 1491 1594 
C 1107 1741 851 1837 851 2189 
C 851 2451 1082 2598 1299 2598 
C 1440 2598 1811 2547 1894 2003 
C 1933 1965 2061 1971 2099 2010 
C 2118 2240 2131 2477 2138 2688 
C 1939 2720 1632 2810 1299 2810 
C 826 2810 397 2502 397 2093 
C 397 1626 608 1427 1101 1222 
C 1632 1005 1754 870 1754 595 
C 1754 282 1446 147 1210 147 
C 960 147 819 230 755 301 
C 614 448 544 730 506 890 
C 467 928 346 922 307 883 
z
" transform="scale(0.015625)"/>
      <path id="LibertinusSerif-Regular-79" d="M 1306 -1024 
C 1408 -845 1491 -666 1568 -474 
C 2080 762 2368 1421 2701 2138 
C 2829 2406 2918 2509 3219 2547 
C 3258 2586 3258 2720 3219 2758 
C 3091 2752 2944 2746 2765 2746 
C 2573 2746 2374 2752 2182 2758 
C 2144 2720 2144 2586 2182 2547 
C 2387 2528 2592 2490 2490 2259 
L 1856 794 
C 1811 691 1754 672 1702 800 
L 1133 2131 
C 1018 2400 986 2522 1344 2547 
C 1382 2586 1382 2720 1344 2758 
C 1107 2752 851 2746 621 2746 
C 403 2746 230 2752 102 2758 
C 64 2720 64 2586 102 2547 
C 358 2515 442 2458 608 2067 
L 1331 384 
C 1389 256 1485 -38 1421 -218 
C 1344 -429 1267 -608 1171 -806 
C 1101 -934 1011 -992 851 -992 
C 762 -992 736 -973 666 -973 
C 480 -973 384 -1165 384 -1248 
C 384 -1382 512 -1485 685 -1485 
C 819 -1485 1075 -1434 1306 -1024 
z
" transform="scale(0.015625)"/>
      <path id="LibertinusSerif-Regular-6e" d="M 1178 2291 
C 1139 2246 1101 2234 1101 2291 
C 1094 2464 1082 2714 1050 2778 
C 1037 2810 1024 2829 973 2829 
C 794 2758 627 2701 186 2643 
C 173 2605 186 2502 198 2464 
C 544 2432 614 2400 614 2029 
L 614 781 
C 614 256 550 230 166 198 
C 128 160 128 26 166 -13 
C 358 -6 614 0 870 0 
C 1126 0 1318 -6 1510 -13 
C 1549 26 1549 160 1510 198 
C 1184 230 1120 256 1120 781 
L 1120 1830 
C 1120 1965 1178 2042 1229 2099 
C 1472 2336 1760 2477 2010 2477 
C 2138 2477 2272 2394 2349 2246 
C 2413 2118 2426 1946 2426 1754 
L 2426 781 
C 2426 256 2362 230 2029 198 
C 1997 160 1997 26 2029 -13 
C 2221 -6 2426 0 2682 0 
C 2938 0 3168 -6 3360 -13 
C 3392 26 3392 160 3360 198 
C 3002 230 2931 256 2931 781 
L 2931 1734 
C 2931 2086 2906 2394 2758 2592 
C 2650 2733 2451 2810 2227 2810 
C 1914 2810 1555 2726 1178 2291 
z
" transform="scale(0.015625)"/>
      <path id="LibertinusSerif-Regular-61" d="M 1875 307 
C 1914 109 1984 -64 2304 -64 
C 2547 -64 2778 45 2912 173 
C 2899 250 2874 307 2803 346 
C 2758 307 2650 243 2566 243 
C 2381 243 2374 493 2374 787 
L 2374 1728 
C 2374 2637 1875 2810 1408 2810 
C 883 2810 352 2464 352 2099 
C 352 1946 429 1869 576 1869 
C 762 1869 877 2003 877 2086 
C 877 2131 870 2176 858 2202 
C 851 2221 845 2259 845 2330 
C 845 2528 1114 2598 1357 2598 
C 1574 2598 1875 2490 1875 1766 
C 1875 1722 1856 1696 1837 1690 
L 1286 1555 
C 672 1402 230 1062 230 627 
C 230 102 589 -64 1037 -64 
C 1261 -64 1453 -13 1734 205 
L 1862 307 
L 1875 307 
z
M 1875 1491 
L 1875 646 
C 1875 563 1837 518 1786 480 
C 1619 346 1402 198 1222 198 
C 902 198 762 454 762 653 
C 762 941 896 1235 1370 1357 
L 1875 1491 
z
" transform="scale(0.015625)"/>
      <path id="LibertinusSerif-Regular-70" d="M 998 2355 
C 992 2547 979 2714 947 2778 
C 934 2810 922 2829 870 2829 
C 691 2758 525 2701 83 2643 
C 70 2605 83 2502 96 2464 
C 442 2432 512 2400 512 2029 
L 512 -704 
C 512 -1235 442 -1267 51 -1286 
C 13 -1325 13 -1459 51 -1498 
C 275 -1491 512 -1485 768 -1485 
C 1024 -1485 1331 -1491 1542 -1498 
C 1581 -1459 1581 -1325 1542 -1286 
C 1088 -1261 1018 -1235 1018 -704 
L 1018 -13 
C 1018 70 1043 64 1107 38 
C 1267 -26 1459 -64 1664 -64 
C 2022 -64 2342 45 2605 294 
C 2906 589 3078 986 3078 1504 
C 3078 2182 2598 2810 1946 2810 
C 1651 2810 1325 2618 1069 2330 
C 1030 2291 1005 2291 998 2355 
z
M 1120 2118 
C 1286 2323 1581 2515 1766 2515 
C 2176 2515 2528 2054 2528 1331 
C 2528 806 2342 154 1626 154 
C 1510 154 1286 186 1171 288 
C 1043 403 1018 442 1018 672 
L 1018 1837 
C 1018 1971 1043 2029 1120 2118 
z
" transform="scale(0.015625)"/>
      <path id="LibertinusSerif-Regular-74" d="M 275 2746 
C 186 2746 160 2669 160 2618 
L 160 2534 
C 160 2502 166 2496 192 2496 
L 570 2496 
L 570 570 
C 570 115 768 -64 1062 -64 
C 1357 -64 1677 77 1926 358 
C 1914 422 1875 461 1811 467 
C 1645 339 1453 288 1286 288 
C 1114 288 1075 480 1075 877 
L 1075 2496 
L 1741 2496 
C 1805 2496 1894 2522 1894 2579 
L 1894 2707 
C 1894 2733 1875 2746 1843 2746 
L 1075 2746 
L 1075 2995 
C 1075 3411 1101 3667 1101 3667 
C 1101 3706 1082 3725 1050 3725 
C 1024 3725 966 3699 909 3667 
C 838 3629 774 3597 691 3578 
C 614 3552 550 3533 550 3488 
C 550 3411 570 3456 570 2746 
L 275 2746 
z
" transform="scale(0.015625)"/>
      <path id="LibertinusSerif-Regular-69" d="M 1158 781 
L 1158 2054 
C 1158 2374 1184 2784 1184 2784 
C 1184 2810 1152 2829 1101 2829 
C 922 2758 666 2701 224 2643 
C 211 2605 224 2502 237 2464 
C 589 2432 653 2394 653 2029 
L 653 781 
C 653 250 582 230 192 198 
C 154 160 154 26 192 -13 
C 403 -6 653 0 909 0 
C 1165 0 1408 -6 1619 -13 
C 1658 26 1658 160 1619 198 
C 1229 224 1158 250 1158 781 
z
M 576 3834 
C 576 3667 730 3501 883 3501 
C 1062 3501 1216 3674 1216 3808 
C 1216 3962 1082 4141 909 4141 
C 755 4141 576 3987 576 3834 
z
" transform="scale(0.015625)"/>
      <path id="LibertinusSerif-Regular-63" d="M 2547 582 
C 2522 640 2470 666 2413 672 
C 2195 390 1920 250 1645 250 
C 1178 250 787 723 787 1472 
C 787 2176 1094 2598 1517 2598 
C 1894 2598 1946 2374 1971 2150 
C 1990 1978 2080 1920 2214 1920 
C 2349 1920 2528 2003 2528 2202 
C 2528 2554 2163 2810 1549 2810 
C 915 2810 237 2240 237 1331 
C 237 506 698 -64 1504 -64 
C 1888 -64 2227 58 2547 582 
z
" transform="scale(0.015625)"/>
      <path id="LibertinusSerif-Regular-6f" d="M 262 1312 
C 262 659 698 -64 1606 -64 
C 2016 -64 2330 83 2547 294 
C 2835 576 2963 979 2963 1370 
C 2963 2035 2598 2810 1619 2810 
C 1197 2810 851 2637 614 2362 
C 384 2086 262 1715 262 1312 
z
M 1523 2586 
C 2074 2586 2413 2086 2413 1165 
C 2413 358 1997 160 1696 160 
C 1030 160 813 966 813 1459 
C 813 2016 947 2586 1523 2586 
z
" transform="scale(0.015625)"/>
      <path id="LibertinusSerif-Regular-75" d="M 1389 -64 
C 1638 -64 1939 64 2253 320 
C 2285 346 2342 358 2349 314 
C 2368 154 2419 -64 2419 -64 
C 2470 -83 2502 -77 2541 -64 
C 2682 51 2906 147 3296 192 
C 3334 230 3334 326 3296 365 
C 2886 397 2829 518 2829 832 
L 2829 2061 
C 2829 2253 2854 2720 2854 2720 
C 2854 2739 2835 2758 2803 2758 
C 2771 2752 2675 2746 2579 2746 
C 2374 2746 2144 2752 1926 2758 
C 1888 2720 1888 2586 1926 2547 
C 2240 2528 2323 2451 2323 2029 
L 2323 794 
C 2323 672 2310 621 2221 544 
C 1984 339 1741 237 1581 237 
C 1389 237 1069 326 1069 896 
L 1069 2061 
C 1069 2253 1094 2720 1094 2720 
C 1094 2739 1075 2758 1043 2758 
C 1011 2752 915 2746 819 2746 
C 614 2746 384 2752 166 2758 
C 128 2720 128 2586 166 2547 
C 474 2522 563 2451 563 2035 
L 563 806 
C 563 365 755 -64 1389 -64 
z
" transform="scale(0.015625)"/>
     </defs>
     <use xlink:href="#LibertinusSerif-Regular-43"/>
     <use xlink:href="#LibertinusSerif-Regular-54" transform="translate(64.599991 0)"/>
     <use xlink:href="#LibertinusSerif-Regular-58" transform="translate(124.299988 0)"/>
     <use xlink:href="#LibertinusSerif-Regular-20" transform="translate(190.299973 0)"/>
     <use xlink:href="#LibertinusSerif-Regular-73" transform="translate(215.299957 0)"/>
     <use xlink:href="#LibertinusSerif-Regular-79" transform="translate(254.299942 0)"/>
     <use xlink:href="#LibertinusSerif-Regular-6e" transform="translate(305.799927 0)"/>
     <use xlink:href="#LibertinusSerif-Regular-61" transform="translate(359.999924 0)"/>
     <use xlink:href="#LibertinusSerif-Regular-70" transform="translate(405.699921 0)"/>
     <use xlink:href="#LibertinusSerif-Regular-74" transform="translate(457.599915 0)"/>
     <use xlink:href="#LibertinusSerif-Regular-69" transform="translate(489.199905 0)"/>
     <use xlink:href="#LibertinusSerif-Regular-63" transform="translate(516.299896 0)"/>
     <use xlink:href="#LibertinusSerif-Regular-20" transform="translate(559.099884 0)"/>
     <use xlink:href="#LibertinusSerif-Regular-6f" transform="translate(584.099869 0)"/>
     <use xlink:href="#LibertinusSerif-Regular-75" transform="translate(634.499863 0)"/>
     <use xlink:href="#LibertinusSerif-Regular-70" transform="translate(687.599854 0)"/>
     <use xlink:href="#LibertinusSerif-Regular-75" transform="translate(739.499847 0)"/>
     <use xlink:href="#LibertinusSerif-Regular-74" transform="translate(792.599838 0)"/>
    </g>
   </g>
  </g>
  <g id="axes_2">
   <g id="patch_7">
    <path d="M 28.346457 102.98856 
L 204.094488 102.98856 
L 204.094488 86.515525 
L 28.346457 86.515525 
z
" style="fill: #ffffff"/>
   </g>
   <g id="matplotlib.axis_3"/>
   <g id="matplotlib.axis_4"/>
   <g id="line2d_2">
    <path d="M 28.346457 101.890358 
L 38.214832 101.804562 
L 38.533379 93.629643 
L 38.566332 93.564488 
L 38.616861 93.741169 
L 38.748673 95.346097 
L 39.104568 100.497813 
L 39.128733 99.750341 
L 39.44069 93.473093 
L 39.458265 93.473269 
L 39.491218 93.577583 
L 39.603259 94.749749 
L 39.79219 97.924905 
L 39.844915 96.70681 
L 40.110738 92.986213 
L 40.115131 92.987534 
L 40.163463 93.147517 
L 40.288685 94.581032 
L 40.829117 101.367933 
L 41.059789 101.816103 
L 41.233342 101.877764 
L 41.556283 93.62029 
L 41.58704 93.564335 
L 41.637568 93.741094 
L 41.76938 95.346087 
L 42.243906 101.257401 
L 42.476775 101.797262 
L 42.749188 101.884939 
L 43.004026 101.890145 
L 43.006223 101.804355 
L 43.32477 93.629641 
L 43.357723 93.564487 
L 43.408251 93.741168 
L 43.428023 93.890663 
L 43.447795 93.308291 
L 43.812477 83.941748 
L 43.873989 84.351496 
L 44.010196 87.61265 
L 44.480328 100.167441 
L 44.495706 99.736264 
L 45.02076 87.952668 
L 45.044925 88.010887 
L 45.049319 87.860928 
L 45.225069 84.84942 
L 45.247038 84.890723 
L 45.321732 85.652459 
L 45.510663 90.505364 
L 45.703989 96.207461 
L 45.769895 95.197848 
L 46.007158 92.729524 
L 46.031323 92.763931 
L 46.112608 93.316806 
L 46.330099 96.819639 
L 46.622284 100.705755 
L 46.633268 100.357483 
L 46.958406 93.496249 
L 46.975981 93.493258 
L 47.011131 93.603863 
L 47.125369 94.819881 
L 47.678982 101.44042 
L 47.907457 101.827585 
L 48.223808 101.888416 
L 53.002017 101.890358 
L 53.373289 101.804562 
L 53.691837 93.629643 
L 53.72479 93.564488 
L 53.775318 93.741169 
L 53.907131 95.346097 
L 54.381656 101.257401 
L 54.614525 101.797262 
L 54.665053 101.832695 
L 54.66725 101.748116 
L 54.987994 93.618918 
L 55.018751 93.563399 
L 55.069279 93.740602 
L 55.201092 95.346004 
L 55.675617 101.257401 
L 55.908486 101.797262 
L 56.042496 101.865464 
L 56.044693 101.780232 
L 56.442328 85.522264 
L 56.543384 86.683723 
L 56.60929 88.407776 
L 56.710347 87.931708 
L 56.752087 87.986309 
L 56.763072 88.024708 
L 56.870719 88.922038 
L 56.905869 89.410672 
L 56.945413 88.528276 
L 57.101391 86.832971 
L 57.134344 86.919792 
L 57.226613 87.971271 
L 57.472663 94.155476 
L 57.817573 100.529123 
L 58.057033 101.667867 
L 58.285508 101.865272 
L 58.819349 101.890331 
L 58.863287 101.804548 
L 59.331222 87.84249 
L 59.38175 87.580532 
L 59.436672 87.86164 
L 59.568485 90.323632 
L 60.097932 100.904947 
L 60.330801 101.737022 
L 60.570261 101.876333 
L 60.704271 101.887378 
L 60.706467 101.80166 
L 61.027212 93.620485 
L 61.057968 93.564464 
L 61.108496 93.741158 
L 61.240309 95.346096 
L 61.714834 101.257401 
L 61.947703 101.797262 
L 62.220116 101.884939 
L 62.237691 101.885945 
L 62.239888 101.800262 
L 62.560632 93.62046 
L 62.591389 93.564447 
L 62.641917 93.74115 
L 62.77373 95.346095 
L 63.248255 101.257401 
L 63.309768 101.490522 
L 63.320752 101.09455 
L 63.790884 86.8097 
L 63.823837 86.920218 
L 63.918303 88.333501 
L 64.625698 101.507305 
L 64.847582 101.839669 
L 65.192492 101.889394 
L 65.409983 101.804515 
L 65.72853 93.629643 
L 65.761483 93.564488 
L 65.812012 93.741169 
L 65.943824 95.346097 
L 66.41835 101.257401 
L 66.651219 101.797262 
L 66.923632 101.884939 
L 66.947797 101.886275 
L 66.949994 101.800584 
L 67.270739 93.620466 
L 67.301495 93.564451 
L 67.352023 93.741151 
L 67.483836 95.346095 
L 67.883667 100.834642 
L 67.899046 100.336191 
L 68.217593 93.512602 
L 68.235168 93.502705 
L 68.274712 93.623588 
L 68.391146 94.888325 
L 68.931578 101.409487 
L 69.390726 86.390909 
L 69.452238 86.799495 
L 69.597232 90.141317 
L 70.05638 100.572126 
L 70.291446 101.682479 
L 70.517724 101.867788 
L 71.086715 101.890345 
L 71.216331 101.804561 
L 71.534878 93.629643 
L 71.567832 93.564488 
L 71.61836 93.741169 
L 71.750172 95.346097 
L 71.851229 97.076324 
L 71.89956 96.021809 
L 72.14561 88.331568 
L 72.290604 85.876168 
L 72.323558 86.000586 
L 72.42022 87.551028 
L 73.118827 101.473616 
L 73.28579 101.796165 
L 73.287987 101.712339 
L 73.610928 93.609443 
L 73.641684 93.13487 
L 73.999775 83.655148 
L 74.028335 83.572476 
L 74.076666 83.845513 
L 74.197494 86.380112 
L 74.25681 88.262997 
L 74.36226 87.999548 
L 74.42597 88.177549 
L 74.546798 89.343784 
L 74.586342 88.425738 
L 74.74232 86.655368 
L 74.775273 86.740414 
L 74.867542 87.806353 
L 75.113592 94.081756 
L 75.458502 100.521065 
L 75.697962 101.666973 
L 75.926437 101.865205 
L 76.12855 101.887832 
L 76.556941 85.890743 
L 76.631635 86.517348 
L 76.802992 91.130762 
L 77.194036 100.336374 
L 77.429102 101.640674 
L 77.650986 101.861562 
L 77.960746 101.88965 
L 78.28149 93.629636 
L 78.334215 92.99597 
L 78.553903 88.971576 
L 78.5561 88.972206 
L 78.597841 89.124508 
L 78.617613 89.284481 
L 78.639581 88.66627 
L 78.806544 86.403451 
L 78.832907 86.462001 
L 78.916388 87.331547 
L 79.129485 92.569468 
L 79.309629 97.237015 
L 79.366748 96.170375 
L 79.62598 92.955389 
L 79.641358 92.971438 
L 79.709461 93.349237 
L 79.887408 95.970639 
L 80.280649 101.054314 
L 80.517912 101.76211 
L 80.768356 101.879986 
L 81.838236 101.890358 
L 84.711752 101.804562 
L 85.030299 93.629643 
L 85.063252 93.564488 
L 85.11378 93.741169 
L 85.245593 95.346097 
L 85.720119 101.257401 
L 85.952988 101.797262 
L 86.225401 101.884939 
L 88.101534 101.890358 
L 104.408959 101.804562 
L 104.727506 93.629643 
L 104.760459 93.564488 
L 104.810987 93.741169 
L 104.9428 95.346097 
L 105.417326 101.257401 
L 105.650195 101.797262 
L 105.922607 101.884939 
L 107.798741 101.890358 
L 110.771117 101.804562 
L 111.089664 93.629643 
L 111.122617 93.564488 
L 111.173146 93.741169 
L 111.304958 95.346097 
L 111.779484 101.257401 
L 112.012353 101.797262 
L 112.168331 101.8706 
L 112.491272 93.620112 
L 112.522029 93.564216 
L 112.572557 93.741034 
L 112.704369 95.346078 
L 113.178895 101.257401 
L 113.411764 101.797262 
L 113.684177 101.884939 
L 115.560311 101.890358 
L 118.589805 101.804562 
L 118.908352 93.629643 
L 118.941306 93.564488 
L 118.991834 93.741169 
L 119.123647 95.346097 
L 119.598172 101.257401 
L 119.831041 101.797262 
L 120.103454 101.884939 
L 121.979588 101.890358 
L 137.399473 101.804562 
L 137.718021 93.629643 
L 137.750974 93.564488 
L 137.801502 93.741169 
L 137.933315 95.346097 
L 138.40784 101.257401 
L 138.640709 101.797262 
L 138.913122 101.884939 
L 140.789256 101.890358 
L 149.154967 101.804562 
L 149.473514 93.629643 
L 149.506467 93.564488 
L 149.556995 93.741169 
L 149.688808 95.346097 
L 150.163334 101.257401 
L 150.396203 101.797262 
L 150.668616 101.884939 
L 152.544749 101.890358 
L 161.677171 101.804562 
L 161.947387 86.989438 
L 162.173665 77.761696 
L 162.272524 76.163409 
L 162.320856 76.512723 
L 162.441684 79.824797 
L 163.083172 100.546579 
L 163.087566 100.415386 
L 163.428082 93.491054 
L 163.469823 93.594154 
L 163.579667 94.723982 
L 164.155249 101.490515 
L 164.383724 101.836276 
L 164.72424 101.889173 
L 166.363111 101.804562 
L 166.681658 93.629643 
L 166.714611 93.564488 
L 166.76514 93.741169 
L 166.896952 95.346097 
L 167.371478 101.257401 
L 167.604347 101.797262 
L 167.87676 101.884939 
L 169.752894 101.890358 
L 169.858344 101.804562 
L 170.176891 93.629643 
L 170.209844 93.564488 
L 170.260372 93.741169 
L 170.392185 95.346097 
L 170.866711 101.257401 
L 170.956783 101.571026 
L 170.96557 101.249724 
L 171.284117 93.58983 
L 171.31048 93.553599 
L 171.356614 93.707206 
L 171.481836 95.169165 
L 171.980528 101.315084 
L 172.033253 101.503932 
L 172.044237 101.107012 
L 172.362784 93.578912 
L 172.38695 93.55029 
L 172.433085 93.705159 
L 172.558307 95.16866 
L 173.056998 101.315083 
L 173.100935 101.476718 
L 173.11192 101.081714 
L 173.430467 93.577108 
L 173.454633 93.548871 
L 173.500767 93.704275 
L 173.625989 95.168439 
L 174.12468 101.315083 
L 174.355353 101.80631 
L 174.636553 101.886058 
L 175.056157 101.890343 
L 175.058354 101.804548 
L 175.376901 93.629643 
L 175.409854 93.564488 
L 175.460382 93.741169 
L 175.592195 95.346097 
L 175.664692 96.580119 
L 175.713023 95.545322 
L 175.96127 92.492734 
L 175.967861 92.495872 
L 176.020586 92.692049 
L 176.152399 94.285445 
L 176.690634 101.322973 
L 176.921306 101.807966 
L 177.204703 101.886274 
L 177.409013 101.890052 
L 177.41121 101.804265 
L 177.731954 93.620521 
L 177.76271 93.564487 
L 177.813238 93.741168 
L 177.945051 95.346097 
L 178.419577 101.257401 
L 178.652446 101.797262 
L 178.924859 101.884939 
L 179.643238 101.890358 
L 179.963982 93.629643 
L 179.977163 93.156535 
L 180.203442 88.367993 
L 180.240788 88.484768 
L 180.341845 89.816965 
L 181.062421 101.543639 
L 181.288699 101.845682 
L 181.662168 101.88977 
L 183.274677 101.804562 
L 183.593224 93.629643 
L 183.626177 93.564488 
L 183.676705 93.741169 
L 183.808518 95.346097 
L 184.162215 100.479065 
L 184.186381 99.733604 
L 184.498338 93.470924 
L 184.515913 93.471392 
L 184.548866 93.576164 
L 184.660907 94.749242 
L 185.205732 101.39335 
L 185.210126 101.237896 
L 185.537461 93.56551 
L 185.55943 93.544264 
L 185.603367 93.688154 
L 185.726392 95.098715 
L 186.236068 101.342245 
L 186.46674 101.811351 
L 186.754531 101.886679 
L 188.380221 101.890358 
L 188.700965 93.629643 
L 188.733918 93.564488 
L 188.784446 93.741169 
L 188.813006 93.969907 
L 188.834975 93.343011 
L 189.052466 90.25874 
L 189.056859 90.260317 
L 189.105191 90.437846 
L 189.228216 92.01517 
L 189.85872 101.39318 
L 190.087195 101.820118 
L 190.346427 101.885933 
L 190.669368 93.62046 
L 190.700124 93.564447 
L 190.750652 93.74115 
L 190.882465 95.346095 
L 191.014277 97.600471 
L 191.062609 96.511239 
L 191.220784 90.465183 
L 191.422897 85.387697 
L 191.436078 85.4099 
L 191.497591 86.022128 
L 191.66675 90.610779 
L 192.068779 100.3307 
L 192.303845 101.641781 
L 192.525729 101.861948 
L 192.835489 101.88967 
L 193.29903 86.475794 
L 193.336377 86.626184 
L 193.439631 88.383988 
L 194.041575 101.126643 
L 194.05256 100.758534 
L 194.54466 87.241186 
L 194.562235 87.270085 
L 194.630338 87.923928 
L 194.694048 89.162696 
L 194.764348 88.284152 
L 194.847829 87.909636 
L 194.900554 88.061367 
L 195.014792 89.365145 
L 195.333339 96.541762 
L 195.645296 100.90164 
L 195.882559 101.735217 
L 196.124215 101.876065 
L 196.851382 101.890357 
L 197.172126 93.629643 
L 197.242426 92.894322 
L 197.45772 89.201029 
L 197.462114 89.203222 
L 197.508248 89.397104 
L 197.631274 91.172321 
L 197.894899 97.176937 
L 197.967396 95.754242 
L 198.268368 87.570307 
L 198.365031 86.530821 
L 198.415559 86.789371 
L 198.538584 89.162121 
L 199.094394 100.977294 
L 199.325066 101.752899 
L 199.410745 101.829687 
L 199.412941 101.745198 
L 199.733686 93.618922 
L 199.764442 93.563405 
L 199.81497 93.740609 
L 199.946783 95.346007 
L 200.421308 101.257401 
L 200.654177 101.797262 
L 200.92659 101.884939 
L 200.985906 101.887677 
L 200.988103 101.801952 
L 201.308847 93.620489 
L 201.339603 93.564466 
L 201.390132 93.741159 
L 201.521944 95.346096 
L 201.61641 96.962298 
L 201.664741 95.913502 
L 201.919579 92.657109 
L 201.92617 92.659912 
L 201.978895 92.855006 
L 202.112904 94.48199 
L 202.20737 96.160368 
L 202.260095 95.084031 
L 202.378727 90.563331 
L 202.594021 84.869829 
L 202.605005 84.88196 
L 202.65773 85.320779 
L 202.800527 88.879306 
L 203.268462 100.527616 
L 203.349747 101.141064 
L 203.369518 100.477235 
L 203.683672 93.550132 
L 203.703444 93.535998 
L 203.745185 93.670312 
L 203.866013 95.029366 
L 203.960479 96.617045 
L 204.00881 95.581858 
L 204.094488 93.941044 
L 204.094488 93.941044 
" clip-path="url(#pea7b8163aa)" style="fill: none; stroke: #000000; stroke-width: 0.5; stroke-linecap: square"/>
   </g>
   <g id="patch_8">
    <path d="M 28.346457 102.98856 
L 28.346457 86.515525 
" style="fill: none; stroke: #000000; stroke-width: 0.8; stroke-linejoin: miter; stroke-linecap: square"/>
   </g>
   <g id="patch_9">
    <path d="M 204.094488 102.98856 
L 204.094488 86.515525 
" style="fill: none; stroke: #000000; stroke-width: 0.8; stroke-linejoin: miter; stroke-linecap: square"/>
   </g>
   <g id="patch_10">
    <path d="M 28.346457 102.98856 
L 204.094488 102.98856 
" style="fill: none; stroke: #000000; stroke-width: 0.8; stroke-linejoin: miter; stroke-linecap: square"/>
   </g>
   <g id="patch_11">
    <path d="M 28.346457 86.515525 
L 204.094488 86.515525 
" style="fill: none; stroke: #000000; stroke-width: 0.8; stroke-linejoin: miter; stroke-linecap: square"/>
   </g>
  </g>
  <g id="axes_3">
   <g id="patch_12">
    <path d="M 28.346457 122.756203 
L 204.094488 122.756203 
L 204.094488 106.283167 
L 28.346457 106.283167 
z
" style="fill: #ffffff"/>
   </g>
   <g id="matplotlib.axis_5"/>
   <g id="matplotlib.axis_6"/>
   <g id="line2d_3">
    <path d="M 28.346457 121.658 
L 38.805792 121.572205 
L 39.124339 113.397285 
L 39.157293 113.33213 
L 39.207821 113.508811 
L 39.339633 115.11374 
L 39.814159 121.025044 
L 40.047028 121.564905 
L 40.319441 121.652582 
L 40.352394 121.654321 
L 40.354591 121.56862 
L 40.675335 113.388115 
L 40.706092 113.332098 
L 40.75662 113.508796 
L 40.888432 115.113738 
L 41.362958 121.025044 
L 41.595827 121.564905 
L 41.736427 121.634763 
L 41.738624 121.549497 
L 42.059368 113.387661 
L 42.090125 113.331796 
L 42.140653 113.508644 
L 42.272465 115.113715 
L 42.746991 121.025044 
L 42.97986 121.564905 
L 43.252273 121.652582 
L 43.794902 121.657997 
L 44.115646 113.397285 
L 44.148599 113.33213 
L 44.199127 113.508811 
L 44.33094 115.11374 
L 44.805466 121.025044 
L 45.038335 121.564905 
L 45.310747 121.652582 
L 45.68861 121.657963 
L 45.690807 121.572169 
L 46.160939 106.407865 
L 46.187302 106.480617 
L 46.270783 107.595304 
L 46.560771 115.726146 
L 46.602512 116.7619 
L 46.666221 115.667722 
L 46.916665 112.727622 
L 46.936437 112.750013 
L 47.011131 113.20773 
L 47.206653 116.216289 
L 47.573532 120.822067 
L 47.810794 121.529758 
L 48.061239 121.647629 
L 48.177673 121.655319 
L 48.17987 121.569594 
L 48.656592 106.52218 
L 48.674167 106.55563 
L 48.742271 107.263532 
L 48.893855 111.029737 
L 49.025668 110.127652 
L 49.082787 110.025016 
L 49.133315 110.137914 
L 49.243159 111.107467 
L 49.2849 111.718753 
L 49.328837 110.774291 
L 49.500194 108.987594 
L 49.526556 109.034682 
L 49.583675 109.428996 
L 49.60125 108.939819 
L 49.779197 106.460098 
L 49.803363 106.509173 
L 49.814347 106.561608 
L 49.825331 106.203613 
L 50.135091 99.898498 
L 50.159257 99.828848 
L 50.207588 100.104611 
L 50.321826 102.643345 
L 51.009449 120.923272 
L 51.23353 121.551556 
L 51.488368 121.650882 
L 51.538896 121.654095 
L 51.541093 121.568402 
L 51.987059 108.499319 
L 52.077131 107.698104 
L 52.127659 107.926161 
L 52.250685 110.009288 
L 52.826267 120.868194 
L 53.056939 121.538861 
L 53.30958 121.649055 
L 54.348703 121.658 
L 54.669447 113.397285 
L 54.7024 113.33213 
L 54.752929 113.508811 
L 54.884741 115.11374 
L 55.359267 121.025044 
L 55.592136 121.564905 
L 55.864549 121.652582 
L 56.525809 121.658 
L 56.984956 106.16455 
L 57.026697 106.353757 
L 57.136541 108.367735 
L 57.731895 120.923697 
L 57.958173 121.551042 
L 58.213011 121.65071 
L 59.566288 121.658 
L 59.887032 113.397285 
L 59.919985 113.33213 
L 59.970513 113.508811 
L 60.102326 115.11374 
L 60.218761 117.107975 
L 60.267092 116.037661 
L 60.52852 112.56695 
L 60.535111 112.569883 
L 60.587836 112.767689 
L 60.721846 114.400091 
L 61.235915 121.053633 
L 61.466587 121.56859 
L 61.743394 121.653108 
L 61.899372 121.657287 
L 61.901569 121.571512 
L 62.222313 113.388159 
L 62.25307 113.332126 
L 62.303598 113.508809 
L 62.43541 115.11374 
L 62.701233 119.336812 
L 62.73858 118.31198 
L 63.035158 113.113218 
L 63.065914 113.158485 
L 63.079096 113.212434 
L 63.186743 114.292195 
L 63.78649 121.297206 
L 64.014966 121.61048 
L 64.311544 121.656258 
L 64.634485 113.388145 
L 64.665241 113.332118 
L 64.71577 113.508805 
L 64.772888 114.043819 
L 64.799251 113.357136 
L 65.018939 110.490481 
L 65.025529 110.493993 
L 65.078254 110.706607 
L 65.210067 112.442532 
L 65.796633 121.075014 
L 65.820799 121.171291 
L 65.831784 120.781613 
L 66.150331 113.339999 
L 66.174496 113.31277 
L 66.218434 113.456359 
L 66.341459 114.86651 
L 66.642431 119.569261 
L 66.679778 118.51381 
L 66.978554 113.148671 
L 67.011507 113.202405 
L 67.022491 113.249216 
L 67.132335 114.36572 
L 67.721098 121.278101 
L 67.949574 121.607296 
L 68.301074 121.657053 
L 68.823931 121.572204 
L 69.142478 113.397285 
L 69.175432 113.33213 
L 69.22596 113.508811 
L 69.357772 115.11374 
L 69.832298 121.025044 
L 70.065167 121.564905 
L 70.33758 121.652582 
L 70.497952 121.657245 
L 70.500149 121.571471 
L 70.820893 113.388158 
L 70.851649 113.332126 
L 70.902178 113.508809 
L 71.03399 115.11374 
L 71.508516 121.025044 
L 71.741385 121.564905 
L 72.013798 121.652582 
L 72.222501 121.657601 
L 72.224698 121.571817 
L 72.545442 113.388162 
L 72.576199 113.332128 
L 72.626727 113.50881 
L 72.758539 115.11374 
L 72.892549 117.404893 
L 72.94088 116.312727 
L 73.206702 112.666213 
L 73.213293 112.668936 
L 73.266018 112.866634 
L 73.397831 114.464187 
L 73.448359 113.377556 
L 73.654866 111.126513 
L 73.670244 111.139995 
L 73.73615 111.488672 
L 73.896522 113.874757 
L 74.366654 120.801526 
L 74.60172 121.524164 
L 74.849967 121.646829 
L 75.043292 121.656879 
L 75.045489 121.571115 
L 75.366233 113.388154 
L 75.39699 113.332123 
L 75.447518 113.508808 
L 75.579331 115.113739 
L 75.831972 119.172813 
L 75.871515 118.108588 
L 76.165897 113.085664 
L 76.209835 113.192528 
L 76.319678 114.315525 
L 76.359222 114.926466 
L 76.40316 113.968341 
L 76.625044 111.426248 
L 76.636029 111.433001 
L 76.695345 111.695806 
L 76.840338 113.651106 
L 76.844732 113.73049 
L 76.897457 112.692522 
L 77.005104 108.728859 
L 77.209414 103.710148 
L 77.222595 103.729981 
L 77.281911 104.301212 
L 77.437889 108.547763 
L 77.571899 113.26463 
L 77.664168 112.602652 
L 77.828933 111.772697 
L 77.868477 111.845769 
L 77.967337 112.620828 
L 78.224372 117.019476 
L 78.452847 120.162333 
L 78.472619 119.561704 
L 78.788969 113.229403 
L 78.806544 113.231107 
L 78.8373 113.326702 
L 78.947144 114.450625 
L 79.52712 121.264904 
L 79.652342 121.519338 
L 79.656736 121.353071 
L 79.97748 113.374851 
L 80.006039 113.328639 
L 80.054371 113.492853 
L 80.129065 114.235435 
L 80.159821 113.471182 
L 80.379509 110.727985 
L 80.386099 110.731573 
L 80.438824 110.940203 
L 80.570637 112.642223 
L 81.155007 121.085593 
L 81.383482 121.573587 
L 81.70862 113.377198 
L 81.737179 113.330338 
L 81.785511 113.493821 
L 81.912929 115.007701 
L 82.402833 121.064004 
L 82.633505 121.570433 
L 82.912509 121.653354 
L 85.065449 121.658 
L 88.769385 121.572205 
L 89.087932 113.397285 
L 89.120886 113.33213 
L 89.171414 113.508811 
L 89.303227 115.11374 
L 89.777752 121.025044 
L 90.010621 121.564905 
L 90.283034 121.652582 
L 92.159168 121.658 
L 97.89961 121.572205 
L 98.218157 113.397285 
L 98.25111 113.33213 
L 98.301638 113.508811 
L 98.433451 115.11374 
L 98.46201 115.588421 
L 98.508145 114.599757 
L 98.743211 111.856788 
L 98.751998 111.862258 
L 98.809117 112.100985 
L 98.949717 113.918637 
L 99.46818 121.001959 
L 99.701049 121.560912 
L 99.969069 121.651999 
L 101.682633 121.658 
L 106.324636 121.572205 
L 106.643183 113.397285 
L 106.676137 113.33213 
L 106.726665 113.508811 
L 106.858477 115.11374 
L 107.333003 121.025044 
L 107.565872 121.564905 
L 107.838285 121.652582 
L 108.27107 121.657984 
L 108.273267 121.572189 
L 108.591814 113.397285 
L 108.624767 113.33213 
L 108.675295 113.508811 
L 108.807108 115.11374 
L 109.281634 121.025044 
L 109.514503 121.564905 
L 109.786916 121.652582 
L 110.461357 121.658 
L 110.782101 113.397285 
L 110.815054 113.33213 
L 110.865583 113.508811 
L 110.997395 115.11374 
L 111.471921 121.025044 
L 111.70479 121.564905 
L 111.977203 121.652582 
L 113.853337 121.658 
L 114.193853 121.572205 
L 114.5124 113.397285 
L 114.545353 113.33213 
L 114.595881 113.508811 
L 114.727694 115.11374 
L 114.890263 117.872394 
L 114.938594 116.737534 
L 115.211007 112.803289 
L 115.215401 112.80447 
L 115.263732 112.963786 
L 115.388954 114.397686 
L 115.927189 121.13563 
L 116.157861 121.583747 
L 116.228162 121.620657 
L 116.230358 121.53568 
L 116.551103 113.387245 
L 116.581859 113.331513 
L 116.632387 113.508496 
L 116.7642 115.11369 
L 117.238725 121.025044 
L 117.471594 121.564905 
L 117.744007 121.652582 
L 118.842446 121.658 
L 119.16319 113.397285 
L 119.196143 113.33213 
L 119.246672 113.508811 
L 119.378484 115.11374 
L 119.85301 121.025044 
L 120.085879 121.564905 
L 120.320945 121.64969 
L 120.643886 113.388026 
L 120.674642 113.33204 
L 120.72517 113.508768 
L 120.856983 115.113734 
L 121.331509 121.025044 
L 121.564378 121.564905 
L 121.836791 121.652582 
L 123.712924 121.658 
L 127.640942 121.572205 
L 127.959489 113.397285 
L 127.992442 113.33213 
L 128.042971 113.508811 
L 128.174783 115.11374 
L 128.649309 121.025044 
L 128.882178 121.564905 
L 128.954675 121.611502 
L 128.956872 121.526707 
L 129.277616 113.386948 
L 129.308372 113.331308 
L 129.3589 113.508387 
L 129.490713 115.113672 
L 129.965239 121.025044 
L 130.198108 121.564905 
L 130.470521 121.652582 
L 132.346654 121.658 
L 133.7922 121.572205 
L 134.273316 107.100059 
L 134.297482 107.047592 
L 134.343616 107.272576 
L 134.464445 109.441689 
L 135.033436 120.825269 
L 135.264108 121.533123 
L 135.512355 121.648187 
L 136.621779 121.658 
L 139.207504 121.572205 
L 139.526051 113.397285 
L 139.559004 113.33213 
L 139.609533 113.508811 
L 139.741345 115.11374 
L 140.215871 121.025044 
L 140.44874 121.564905 
L 140.721153 121.652582 
L 142.597286 121.658 
L 143.530959 121.572205 
L 143.849507 113.397285 
L 143.88246 113.33213 
L 143.932988 113.508811 
L 144.064801 115.11374 
L 144.539326 121.025044 
L 144.772195 121.564905 
L 145.044608 121.652582 
L 146.920742 121.658 
L 154.49338 121.572205 
L 154.811927 113.397285 
L 154.84488 113.33213 
L 154.895409 113.508811 
L 155.027221 115.11374 
L 155.501747 121.025044 
L 155.734616 121.564905 
L 156.007029 121.652582 
L 157.883163 121.658 
L 160.209656 121.572205 
L 160.528203 113.397285 
L 160.561157 113.33213 
L 160.611685 113.508811 
L 160.743497 115.11374 
L 161.218023 121.025044 
L 161.450892 121.564905 
L 161.723305 121.652582 
L 162.221996 121.657995 
L 162.54274 113.397285 
L 162.575694 113.33213 
L 162.626222 113.508811 
L 162.758034 115.11374 
L 163.23256 121.025044 
L 163.465429 121.564905 
L 163.737842 121.652582 
L 164.13328 121.657972 
L 164.135477 121.572177 
L 164.454024 113.397285 
L 164.486977 113.33213 
L 164.537506 113.508811 
L 164.669318 115.11374 
L 165.058166 120.524708 
L 165.075741 119.961278 
L 165.392091 113.272298 
L 165.409666 113.263517 
L 165.44921 113.386421 
L 165.565644 114.654397 
L 166.108273 121.185025 
L 166.336749 121.59113 
L 166.644311 121.655654 
L 169.287155 121.658 
L 169.6079 113.397285 
L 169.640853 113.33213 
L 169.691381 113.508811 
L 169.779256 114.445045 
L 169.814406 113.607053 
L 170.034094 110.954985 
L 170.042881 110.960448 
L 170.1 111.207272 
L 170.2406 113.103517 
L 170.783229 120.987655 
L 171.016098 121.558688 
L 171.284117 121.65184 
L 172.676938 121.658 
L 172.997682 113.397285 
L 173.030635 113.33213 
L 173.081164 113.508811 
L 173.212976 115.11374 
L 173.687502 121.025044 
L 173.920371 121.564905 
L 174.192784 121.652582 
L 175.515304 121.658 
L 175.99642 107.194131 
L 176.02498 107.112932 
L 176.075508 107.367144 
L 176.090886 107.535758 
L 176.121642 106.788012 
L 176.251258 105.381459 
L 176.290802 105.503548 
L 176.391858 106.826262 
L 176.684043 114.649379 
L 177.009181 120.368153 
L 177.099253 120.969958 
L 177.116828 120.368721 
L 177.430982 113.321102 
L 177.450754 113.301172 
L 177.494691 113.436718 
L 177.615519 114.796474 
L 178.136179 121.135971 
L 178.366852 121.58376 
L 178.66343 121.654939 
L 179.432337 121.658 
L 179.434534 121.572205 
L 179.753082 113.397285 
L 179.786035 113.33213 
L 179.836563 113.508811 
L 179.968376 115.11374 
L 180.442901 121.025044 
L 180.67577 121.564905 
L 180.948183 121.652582 
L 182.824317 121.658 
L 183.597618 121.572205 
L 183.916165 113.397285 
L 183.949118 113.33213 
L 183.999646 113.508811 
L 184.131459 115.11374 
L 184.410463 119.49362 
L 184.44781 118.448338 
L 184.744388 113.138262 
L 184.766357 113.155081 
L 184.788326 113.230422 
L 184.893776 114.268552 
L 185.029982 116.52558 
L 185.082707 115.397943 
L 185.328758 112.345107 
L 185.337545 112.349033 
L 185.392467 112.56535 
L 185.53087 114.298813 
L 185.866993 119.728273 
L 185.902143 118.716828 
L 186.203115 113.173134 
L 186.225084 113.190437 
L 186.247052 113.266637 
L 186.3547 114.341183 
L 186.892935 121.091845 
L 186.906116 120.629966 
L 187.224663 113.328083 
L 187.246632 113.3078 
L 187.290569 113.453138 
L 187.413595 114.865642 
L 187.92327 121.109887 
L 188.153942 121.578993 
L 188.441733 121.654321 
L 190.177267 121.658 
L 190.498011 113.397285 
L 190.517783 112.911242 
L 190.744061 108.247426 
L 190.781408 108.367179 
L 190.884662 109.731131 
L 191.59645 121.293534 
L 191.822728 121.610382 
L 192.183016 121.657239 
L 193.092524 121.572205 
L 193.411071 113.397285 
L 193.444024 113.33213 
L 193.494553 113.508811 
L 193.626365 115.11374 
L 193.916353 119.618771 
L 193.951503 118.619715 
L 194.252475 113.155999 
L 194.281035 113.193508 
L 194.296413 113.254438 
L 194.40406 114.336295 
L 194.999414 121.29094 
L 195.227889 121.60944 
L 195.282811 121.630101 
L 195.285008 121.544932 
L 195.605752 113.38753 
L 195.671658 112.736437 
L 195.889149 108.96866 
L 195.891346 108.96939 
L 195.933087 109.118647 
L 196.045128 110.59855 
L 196.589953 120.551581 
L 196.622907 119.492422 
L 196.923879 113.27906 
L 196.941454 113.269401 
L 196.980998 113.390663 
L 197.097432 114.655852 
L 197.640061 121.185027 
L 197.868536 121.59113 
L 198.176099 121.655654 
L 198.459496 121.657948 
L 198.461693 121.572154 
L 198.780241 113.397285 
L 198.813194 113.33213 
L 198.863722 113.508811 
L 198.995535 115.11374 
L 199.47006 121.025044 
L 199.702929 121.564905 
L 199.975342 121.652582 
L 201.851476 121.658 
L 202.132676 121.572205 
L 202.451224 113.397285 
L 202.484177 113.33213 
L 202.534705 113.508811 
L 202.666518 115.11374 
L 202.846662 118.148664 
L 202.892796 117.03734 
L 203.171799 112.874524 
L 203.173996 112.875026 
L 203.220131 113.015148 
L 203.340959 114.350388 
L 203.538678 117.74842 
L 203.591403 116.529461 
L 203.857225 112.773759 
L 203.863816 112.775843 
L 203.914344 112.956396 
L 204.046157 114.529573 
L 204.094488 115.350623 
L 204.094488 115.350623 
" clip-path="url(#p26de5cc9fe)" style="fill: none; stroke: #000000; stroke-width: 0.5; stroke-linecap: square"/>
   </g>
   <g id="patch_13">
    <path d="M 28.346457 122.756203 
L 28.346457 106.283167 
" style="fill: none; stroke: #000000; stroke-width: 0.8; stroke-linejoin: miter; stroke-linecap: square"/>
   </g>
   <g id="patch_14">
    <path d="M 204.094488 122.756203 
L 204.094488 106.283167 
" style="fill: none; stroke: #000000; stroke-width: 0.8; stroke-linejoin: miter; stroke-linecap: square"/>
   </g>
   <g id="patch_15">
    <path d="M 28.346457 122.756203 
L 204.094488 122.756203 
" style="fill: none; stroke: #000000; stroke-width: 0.8; stroke-linejoin: miter; stroke-linecap: square"/>
   </g>
   <g id="patch_16">
    <path d="M 28.346457 106.283167 
L 204.094488 106.283167 
" style="fill: none; stroke: #000000; stroke-width: 0.8; stroke-linejoin: miter; stroke-linecap: square"/>
   </g>
  </g>
  <g id="axes_4">
   <g id="patch_17">
    <path d="M 28.346457 142.523845 
L 204.094488 142.523845 
L 204.094488 126.05081 
L 28.346457 126.05081 
z
" style="fill: #ffffff"/>
   </g>
   <g id="matplotlib.axis_7"/>
   <g id="matplotlib.axis_8"/>
   <g id="line2d_4">
    <path d="M 28.346457 141.425643 
L 31.525339 141.339847 
L 31.843886 133.164927 
L 31.876839 133.099773 
L 31.927368 133.276453 
L 32.05918 134.881382 
L 32.533706 140.792686 
L 32.766575 141.332547 
L 33.038988 141.420224 
L 34.915121 141.425643 
L 38.513607 141.339847 
L 38.832155 133.164927 
L 38.865108 133.099773 
L 38.915636 133.276453 
L 39.047449 134.881382 
L 39.521974 140.792686 
L 39.754843 141.332547 
L 40.027256 141.420224 
L 41.022442 141.425643 
L 41.343186 133.164927 
L 41.387124 132.510999 
L 41.606811 128.354494 
L 41.609008 128.354961 
L 41.648552 128.493067 
L 41.758396 129.969103 
L 42.204362 139.297247 
L 42.263678 137.654312 
L 42.542681 132.92813 
L 42.584422 133.026437 
L 42.610785 133.191765 
L 42.626163 132.721384 
L 42.845851 129.337726 
L 42.850244 129.339284 
L 42.896379 129.511115 
L 43.017207 131.099861 
L 43.28962 136.95779 
L 43.362117 135.466652 
L 43.603773 132.459531 
L 43.616955 132.469276 
L 43.678467 132.767493 
L 43.836642 134.950463 
L 44.069511 138.816741 
L 44.106858 137.829512 
L 44.566006 126.618521 
L 44.623125 126.940591 
L 44.750544 129.445194 
L 44.869175 128.443713 
L 44.913113 128.368152 
L 44.963641 128.500519 
L 45.02076 128.936968 
L 45.042728 128.327073 
L 45.220675 125.782916 
L 45.247038 125.837421 
L 45.328323 126.686657 
L 45.460135 129.713199 
L 45.567782 128.818339 
L 45.629295 128.672785 
L 45.68202 128.808846 
L 45.796257 129.961955 
L 46.057686 135.351012 
L 46.154349 133.671426 
L 46.345477 131.892969 
L 46.371839 131.930175 
L 46.455321 132.515781 
L 46.675009 136.146641 
L 47.024312 140.562075 
L 47.202259 141.202553 
L 47.206653 141.039072 
L 47.529594 133.130703 
L 47.555957 133.093135 
L 47.604288 133.258661 
L 47.733904 134.809871 
L 48.217217 140.812421 
L 48.283123 141.052241 
L 48.294108 140.654395 
L 48.612655 133.115042 
L 48.636821 133.086238 
L 48.682955 133.240856 
L 48.808177 134.704048 
L 49.306868 140.850368 
L 49.53754 141.341594 
L 49.818741 141.421342 
L 51.758584 141.425643 
L 52.156219 125.031457 
L 52.257275 126.202754 
L 52.518704 134.344495 
L 52.819676 140.167859 
L 53.050348 141.233392 
L 53.259052 141.402005 
L 53.581993 133.155361 
L 53.612749 133.09948 
L 53.663277 133.27631 
L 53.79509 134.881362 
L 54.269615 140.792686 
L 54.502484 141.332547 
L 54.544225 141.36287 
L 54.546422 141.278389 
L 55.038523 126.622888 
L 55.071476 126.722487 
L 55.163745 128.026132 
L 55.897502 141.101387 
L 56.121583 141.384858 
L 56.510431 141.425231 
L 57.294716 141.339847 
L 57.613263 133.164927 
L 57.646217 133.099773 
L 57.696745 133.276453 
L 57.828558 134.881382 
L 58.303083 140.792686 
L 58.535952 141.332547 
L 58.733671 141.413049 
L 59.056612 133.155574 
L 59.087369 133.09962 
L 59.137897 133.276379 
L 59.269709 134.881372 
L 59.744235 140.792686 
L 59.977104 141.332547 
L 60.128689 141.404943 
L 60.130885 141.319623 
L 60.45163 133.155372 
L 60.482386 133.099484 
L 60.532914 133.27631 
L 60.664727 134.881361 
L 61.139252 140.792686 
L 61.372121 141.332547 
L 61.644534 141.420224 
L 63.520668 141.425643 
L 63.924894 141.339847 
L 64.243441 133.164927 
L 64.276394 133.099773 
L 64.326922 133.276453 
L 64.397222 133.975292 
L 64.427979 133.206642 
L 64.645469 130.462236 
L 64.654257 130.466547 
L 64.709179 130.695211 
L 64.845385 132.511987 
L 65.409983 140.795096 
L 65.640655 141.332111 
L 65.785649 141.403395 
L 65.787846 141.318108 
L 66.10859 133.155332 
L 66.139346 133.099457 
L 66.189875 133.276296 
L 66.321687 134.881359 
L 66.796213 140.792686 
L 66.923632 141.190249 
L 66.930222 140.945522 
L 67.250967 133.13002 
L 67.277329 133.092617 
L 67.32566 133.258355 
L 67.455276 134.809804 
L 67.938589 140.812421 
L 68.171458 141.336266 
L 68.448265 141.420751 
L 69.078769 141.425642 
L 69.50057 125.329739 
L 69.581854 126.076406 
L 69.768589 131.354454 
L 70.135467 139.858281 
L 70.370533 141.17477 
L 70.592418 141.396847 
L 70.662718 141.412343 
L 70.664915 141.326874 
L 70.985659 133.155583 
L 71.016415 133.099627 
L 71.066943 133.276383 
L 71.198756 134.881372 
L 71.673282 140.792686 
L 71.791913 141.172454 
L 71.798504 140.928559 
L 72.119248 133.129029 
L 72.14561 133.091865 
L 72.193942 133.25791 
L 72.323558 134.809705 
L 72.565214 138.740118 
L 72.606955 137.642549 
L 73.030952 126.024783 
L 73.121024 126.840676 
L 73.323137 132.271068 
L 73.683425 139.933326 
L 73.920688 141.183658 
L 74.146966 141.398273 
L 74.458923 141.42497 
L 74.779667 133.164921 
L 74.81262 133.099769 
L 74.863148 133.276452 
L 74.994961 134.881382 
L 75.469487 140.792686 
L 75.574937 141.143572 
L 75.583724 140.820044 
L 75.902272 133.127363 
L 75.928634 133.090599 
L 75.974769 133.243543 
L 76.099991 134.704703 
L 76.598682 140.850368 
L 76.829354 141.341594 
L 76.831551 141.343306 
L 76.833748 141.259191 
L 77.156689 133.14491 
L 77.185248 133.09803 
L 77.23358 133.261491 
L 77.360999 134.775349 
L 77.850902 140.831647 
L 78.081574 141.338075 
L 78.360578 141.420996 
L 80.513518 141.425643 
L 80.634347 141.339847 
L 80.952894 133.164927 
L 80.985847 133.099773 
L 81.036375 133.276453 
L 81.168188 134.881382 
L 81.642713 140.792686 
L 81.875582 141.332547 
L 82.147995 141.420224 
L 84.024129 141.425643 
L 84.13617 141.339847 
L 84.454717 133.164927 
L 84.48767 133.099773 
L 84.538198 133.276453 
L 84.670011 134.881382 
L 85.144537 140.792686 
L 85.377406 141.332547 
L 85.649819 141.420224 
L 87.525952 141.425643 
L 88.279481 141.339847 
L 88.598029 133.164927 
L 88.630982 133.099773 
L 88.68151 133.276453 
L 88.813323 134.881382 
L 89.287848 140.792686 
L 89.520717 141.332547 
L 89.79313 141.420224 
L 90.34235 141.42564 
L 90.663094 133.164927 
L 90.696047 133.099773 
L 90.746575 133.276453 
L 90.878388 134.881382 
L 91.352914 140.792686 
L 91.585783 141.332547 
L 91.858195 141.420224 
L 93.734329 141.425643 
L 105.309679 141.339847 
L 105.628226 133.164927 
L 105.661179 133.099773 
L 105.711707 133.276453 
L 105.84352 134.881382 
L 106.318046 140.792686 
L 106.550915 141.332547 
L 106.823327 141.420224 
L 108.699461 141.425643 
L 130.938456 141.339847 
L 131.257003 133.164927 
L 131.289956 133.099773 
L 131.340484 133.276453 
L 131.472297 134.881382 
L 131.946823 140.792686 
L 132.179692 141.332547 
L 132.267567 141.385746 
L 132.269764 141.30082 
L 132.590508 133.154806 
L 132.621264 133.099099 
L 132.671792 133.276109 
L 132.803605 134.881328 
L 133.278131 140.792686 
L 133.511 141.332547 
L 133.783412 141.420224 
L 135.659546 141.425643 
L 140.022546 141.339847 
L 140.341093 133.164927 
L 140.374046 133.099773 
L 140.424574 133.276453 
L 140.556387 134.881382 
L 141.030912 140.792686 
L 141.263782 141.332547 
L 141.536194 141.420224 
L 143.412328 141.425643 
L 146.793323 141.339847 
L 147.11187 133.164927 
L 147.144824 133.099773 
L 147.195352 133.276453 
L 147.327164 134.881382 
L 147.80169 140.792686 
L 148.034559 141.332547 
L 148.306972 141.420224 
L 150.183106 141.425643 
L 160.400785 141.339847 
L 160.719332 133.164927 
L 160.752285 133.099773 
L 160.802813 133.276453 
L 160.934626 134.881382 
L 161.409151 140.792686 
L 161.49483 141.094916 
L 161.503617 140.774284 
L 161.95178 125.87733 
L 162.011096 126.268016 
L 162.153893 129.537033 
L 162.617434 140.117641 
L 162.8525 141.220427 
L 163.080976 141.403994 
L 163.140291 141.414402 
L 163.142488 141.328882 
L 163.573076 125.466558 
L 163.643376 126.047485 
L 163.764205 128.990245 
L 163.904805 128.433686 
L 163.968514 128.637128 
L 164.09813 130.017509 
L 164.447434 137.148223 
L 164.746209 140.63933 
L 164.979078 141.304115 
L 165.231719 141.416222 
L 165.798513 141.425638 
L 166.119258 133.164927 
L 166.198345 133.248962 
L 166.229101 132.288104 
L 166.743171 118.692467 
L 166.791502 119.009307 
L 166.907937 122.017105 
L 167.153987 131.132529 
L 167.263831 130.953732 
L 167.334131 130.887544 
L 167.378069 130.968814 
L 167.481322 131.696632 
L 167.698813 135.300407 
L 168.076676 140.480853 
L 168.313939 141.275587 
L 168.557792 141.412103 
L 169.416771 141.425643 
L 169.524418 141.339847 
L 169.842966 133.164927 
L 169.875919 133.099773 
L 169.926447 133.276453 
L 169.965991 133.614531 
L 169.987959 133.00832 
L 170.207647 129.975603 
L 170.212041 129.977215 
L 170.260372 130.151357 
L 170.383398 131.699189 
L 171.016098 140.945699 
L 171.244574 141.358361 
L 171.248967 141.361142 
L 171.251164 141.276698 
L 171.571908 133.153965 
L 171.602665 133.098518 
L 171.653193 133.275798 
L 171.785006 134.881273 
L 172.259531 140.792686 
L 172.4924 141.332547 
L 172.560503 141.377083 
L 172.5627 141.292328 
L 172.883445 133.15452 
L 172.914201 133.098903 
L 172.964729 133.276004 
L 173.096542 134.88131 
L 173.571067 140.792686 
L 173.803936 141.332547 
L 173.97749 141.409268 
L 174.300431 133.155483 
L 174.331187 133.099559 
L 174.381715 133.276348 
L 174.513528 134.881367 
L 174.988053 140.792686 
L 175.220923 141.332547 
L 175.493335 141.420224 
L 175.945892 141.425631 
L 175.948089 141.339835 
L 176.266636 133.164927 
L 176.29959 133.099773 
L 176.350118 133.276453 
L 176.48193 134.881382 
L 176.89714 140.471483 
L 176.910322 140.03781 
L 177.138797 128.825334 
L 177.303563 125.098104 
L 177.329925 125.188929 
L 177.380453 125.805108 
L 177.422194 125.06036 
L 177.503479 124.499748 
L 177.556204 124.710646 
L 177.677032 126.569717 
L 178.448136 140.996707 
L 178.674415 141.367008 
L 178.999552 141.424072 
L 179.252193 141.339796 
L 179.570741 133.164927 
L 179.603694 133.099773 
L 179.654222 133.276453 
L 179.786035 134.881382 
L 179.84535 135.88585 
L 179.893682 134.855369 
L 180.137535 131.917823 
L 180.146323 131.923183 
L 180.203442 132.162052 
L 180.346239 134.007889 
L 180.524186 137.248834 
L 180.576911 136.072012 
L 180.840536 132.476848 
L 180.847127 132.479757 
L 180.899852 132.679297 
L 181.036058 134.351991 
L 181.290896 138.639394 
L 181.334834 137.499863 
L 181.624821 132.801076 
L 181.668759 132.922173 
L 181.68194 133.001181 
L 181.697318 132.516252 
L 181.914809 129.058982 
L 181.9214 129.062172 
L 181.969731 129.267974 
L 182.094953 131.040419 
L 182.677126 140.696739 
L 182.683717 140.473109 
L 183.011051 133.07939 
L 183.030823 133.06604 
L 183.070367 133.189447 
L 183.186802 134.462651 
L 183.494365 139.286575 
L 183.536105 138.113066 
L 183.82829 132.909848 
L 183.850259 132.926067 
L 183.872228 133.000887 
L 183.977678 134.037365 
L 184.58841 141.08906 
L 184.816885 141.382086 
L 185.196945 141.425108 
L 187.266404 141.339847 
L 187.584951 133.164927 
L 187.617904 133.099773 
L 187.668432 133.276453 
L 187.800245 134.881382 
L 188.274771 140.792686 
L 188.50764 141.332547 
L 188.780053 141.420224 
L 189.667591 141.425643 
L 190.23878 122.344935 
L 190.265142 122.420333 
L 190.348623 123.550991 
L 190.579296 130.63656 
L 190.948371 139.524155 
L 191.128515 140.884373 
L 191.139499 140.499877 
L 191.460244 133.099904 
L 191.482212 133.078882 
L 191.52615 133.22307 
L 191.649175 134.633936 
L 192.158851 140.87753 
L 192.389523 141.346635 
L 192.677314 141.421963 
L 195.230086 141.425643 
L 195.55083 133.164927 
L 195.583783 133.099773 
L 195.634312 133.276453 
L 195.766124 134.881382 
L 196.24065 140.792686 
L 196.394431 141.237248 
L 196.398825 141.072641 
L 196.719569 133.140048 
L 196.748129 133.09449 
L 196.79646 133.259456 
L 196.926076 134.810043 
L 197.409389 140.812422 
L 197.642258 141.336266 
L 197.919065 141.420751 
L 199.81497 141.425643 
L 200.212605 125.031457 
L 200.313661 126.202754 
L 200.57509 134.344495 
L 200.876062 140.167859 
L 200.96174 140.76448 
L 200.979315 140.165301 
L 201.390132 125.395967 
L 201.486794 126.456774 
L 201.726254 133.617007 
L 202.044801 140.061916 
L 202.27767 141.210992 
L 202.503949 141.402808 
L 203.061956 141.425628 
L 203.747381 141.339847 
L 204.065929 133.164927 
L 204.094488 133.099774 
L 204.094488 133.099774 
" clip-path="url(#pf8d60b5f29)" style="fill: none; stroke: #000000; stroke-width: 0.5; stroke-linecap: square"/>
   </g>
   <g id="patch_18">
    <path d="M 28.346457 142.523845 
L 28.346457 126.05081 
" style="fill: none; stroke: #000000; stroke-width: 0.8; stroke-linejoin: miter; stroke-linecap: square"/>
   </g>
   <g id="patch_19">
    <path d="M 204.094488 142.523845 
L 204.094488 126.05081 
" style="fill: none; stroke: #000000; stroke-width: 0.8; stroke-linejoin: miter; stroke-linecap: square"/>
   </g>
   <g id="patch_20">
    <path d="M 28.346457 142.523845 
L 204.094488 142.523845 
" style="fill: none; stroke: #000000; stroke-width: 0.8; stroke-linejoin: miter; stroke-linecap: square"/>
   </g>
   <g id="patch_21">
    <path d="M 28.346457 126.05081 
L 204.094488 126.05081 
" style="fill: none; stroke: #000000; stroke-width: 0.8; stroke-linejoin: miter; stroke-linecap: square"/>
   </g>
  </g>
  <g id="axes_5">
   <g id="patch_22">
    <path d="M 28.346457 201.826772 
L 204.094488 201.826772 
L 204.094488 185.353736 
L 28.346457 185.353736 
z
" style="fill: #ffffff"/>
   </g>
   <g id="matplotlib.axis_9">
    <g id="xtick_1">
     <g id="line2d_5">
      <defs>
       <path id="m462a661f31" d="M 0 0 
L 0 3.5 
" style="stroke: #000000; stroke-width: 0.8"/>
      </defs>
      <g>
       <use xlink:href="#m462a661f31" x="28.346457" y="201.826772" style="stroke: #000000; stroke-width: 0.8"/>
      </g>
     </g>
     <g id="text_2">
      <!-- 0 -->
      <g transform="translate(26.021457 215.806459) scale(0.1 -0.1)">
       <defs>
        <path id="LibertinusSerif-Regular-30" d="M 1459 -64 
C 1952 -64 2701 435 2701 1939 
C 2701 2573 2547 3117 2266 3488 
C 2099 3712 1830 3904 1485 3904 
C 851 3904 250 3149 250 1882 
C 250 1197 461 557 813 205 
C 992 26 1210 -64 1459 -64 
z
M 1485 3680 
C 1594 3680 1696 3642 1773 3571 
C 1971 3405 2144 2918 2144 2061 
C 2144 1472 2125 1069 2035 742 
C 1894 218 1581 160 1466 160 
C 870 160 806 1254 806 1811 
C 806 3386 1197 3680 1485 3680 
z
" transform="scale(0.015625)"/>
       </defs>
       <use xlink:href="#LibertinusSerif-Regular-30"/>
      </g>
     </g>
    </g>
    <g id="xtick_2">
     <g id="line2d_6">
      <g>
       <use xlink:href="#m462a661f31" x="72.283465" y="201.826772" style="stroke: #000000; stroke-width: 0.8"/>
      </g>
     </g>
     <g id="text_3">
      <!-- 1000 -->
      <g transform="translate(62.983465 215.806459) scale(0.1 -0.1)">
       <defs>
        <path id="LibertinusSerif-Regular-31" d="M 1843 781 
L 1843 3002 
C 1843 3386 1850 3776 1862 3859 
C 1862 3891 1850 3891 1824 3891 
C 1472 3674 1133 3514 570 3251 
C 582 3181 608 3117 666 3078 
C 960 3200 1101 3238 1222 3238 
C 1331 3238 1350 3085 1350 2867 
L 1350 781 
C 1350 250 1178 218 730 198 
C 691 160 691 26 730 -13 
C 1043 -6 1274 0 1619 0 
C 1926 0 2080 -6 2400 -13 
C 2438 26 2438 160 2400 198 
C 1952 218 1843 250 1843 781 
z
" transform="scale(0.015625)"/>
       </defs>
       <use xlink:href="#LibertinusSerif-Regular-31"/>
       <use xlink:href="#LibertinusSerif-Regular-30" transform="translate(46.499985 0)"/>
       <use xlink:href="#LibertinusSerif-Regular-30" transform="translate(92.999969 0)"/>
       <use xlink:href="#LibertinusSerif-Regular-30" transform="translate(139.499954 0)"/>
      </g>
     </g>
    </g>
    <g id="xtick_3">
     <g id="line2d_7">
      <g>
       <use xlink:href="#m462a661f31" x="116.220472" y="201.826772" style="stroke: #000000; stroke-width: 0.8"/>
      </g>
     </g>
     <g id="text_4">
      <!-- 2000 -->
      <g transform="translate(106.920472 215.806459) scale(0.1 -0.1)">
       <defs>
        <path id="LibertinusSerif-Regular-32" d="M 390 2995 
C 390 2861 512 2746 646 2746 
C 755 2746 947 2861 947 3002 
C 947 3053 934 3091 922 3136 
C 909 3181 870 3238 870 3290 
C 870 3450 1037 3680 1504 3680 
C 1734 3680 2061 3520 2061 2906 
C 2061 2496 1914 2163 1536 1779 
L 1062 1312 
C 435 672 333 365 333 -13 
C 333 -13 659 0 864 0 
L 1984 0 
C 2189 0 2483 -13 2483 -13 
C 2566 326 2630 806 2637 998 
C 2598 1030 2515 1043 2451 1030 
C 2342 576 2234 416 2003 416 
L 864 416 
C 864 723 1306 1158 1338 1190 
L 1984 1811 
C 2349 2163 2624 2445 2624 2931 
C 2624 3622 2061 3904 1542 3904 
C 832 3904 390 3379 390 2995 
z
" transform="scale(0.015625)"/>
       </defs>
       <use xlink:href="#LibertinusSerif-Regular-32"/>
       <use xlink:href="#LibertinusSerif-Regular-30" transform="translate(46.499985 0)"/>
       <use xlink:href="#LibertinusSerif-Regular-30" transform="translate(92.999969 0)"/>
       <use xlink:href="#LibertinusSerif-Regular-30" transform="translate(139.499954 0)"/>
      </g>
     </g>
    </g>
    <g id="xtick_4">
     <g id="line2d_8">
      <g>
       <use xlink:href="#m462a661f31" x="160.15748" y="201.826772" style="stroke: #000000; stroke-width: 0.8"/>
      </g>
     </g>
     <g id="text_5">
      <!-- 3000 -->
      <g transform="translate(150.85748 215.806459) scale(0.1 -0.1)">
       <defs>
        <path id="LibertinusSerif-Regular-33" d="M 1376 3680 
C 1651 3680 1907 3514 1907 3104 
C 1907 2784 1536 2291 902 2202 
L 934 1997 
C 1043 2010 1158 2010 1242 2010 
C 1606 2010 2080 1907 2080 1184 
C 2080 333 1510 160 1286 160 
C 960 160 902 307 826 422 
C 762 512 678 589 550 589 
C 416 589 282 467 282 365 
C 282 109 819 -64 1203 -64 
C 1965 -64 2643 429 2643 1274 
C 2643 1971 2118 2221 1741 2285 
L 1734 2298 
C 2259 2547 2406 2810 2406 3149 
C 2406 3341 2362 3494 2208 3654 
C 2067 3795 1843 3904 1510 3904 
C 570 3904 301 3290 301 3078 
C 301 2989 365 2861 518 2861 
C 742 2861 768 3072 768 3194 
C 768 3603 1210 3680 1376 3680 
z
" transform="scale(0.015625)"/>
       </defs>
       <use xlink:href="#LibertinusSerif-Regular-33"/>
       <use xlink:href="#LibertinusSerif-Regular-30" transform="translate(46.499985 0)"/>
       <use xlink:href="#LibertinusSerif-Regular-30" transform="translate(92.999969 0)"/>
       <use xlink:href="#LibertinusSerif-Regular-30" transform="translate(139.499954 0)"/>
      </g>
     </g>
    </g>
    <g id="xtick_5">
     <g id="line2d_9">
      <g>
       <use xlink:href="#m462a661f31" x="204.094488" y="201.826772" style="stroke: #000000; stroke-width: 0.8"/>
      </g>
     </g>
     <g id="text_6">
      <!-- 4000 -->
      <g transform="translate(194.794488 215.806459) scale(0.1 -0.1)">
       <defs>
        <path id="LibertinusSerif-Regular-34" d="M 2752 1402 
L 2221 1402 
L 2221 3270 
C 2221 3590 2221 3840 2234 3891 
L 2221 3904 
L 2016 3904 
C 1971 3904 1939 3866 1914 3834 
C 1510 3341 768 2285 179 1370 
C 198 1274 237 1101 429 1101 
L 1734 1101 
L 1734 512 
C 1734 218 1491 218 1216 198 
C 1178 160 1178 26 1216 -13 
C 1421 -6 1677 0 1971 0 
C 2221 0 2464 -6 2669 -13 
C 2707 26 2707 160 2669 198 
C 2355 224 2221 211 2221 512 
L 2221 1101 
L 2662 1101 
C 2752 1101 2848 1222 2848 1299 
C 2848 1363 2822 1402 2752 1402 
z
M 1734 3245 
L 1734 1402 
L 512 1402 
C 838 1926 1293 2643 1734 3245 
z
" transform="scale(0.015625)"/>
       </defs>
       <use xlink:href="#LibertinusSerif-Regular-34"/>
       <use xlink:href="#LibertinusSerif-Regular-30" transform="translate(46.499985 0)"/>
       <use xlink:href="#LibertinusSerif-Regular-30" transform="translate(92.999969 0)"/>
       <use xlink:href="#LibertinusSerif-Regular-30" transform="translate(139.499954 0)"/>
      </g>
     </g>
    </g>
    <g id="text_7">
     <!-- Time (ms) -->
     <g transform="translate(91.434847 230.522709) scale(0.12 -0.12)">
      <defs>
       <path id="LibertinusSerif-Regular-6d" d="M 1088 2291 
C 1082 2483 1069 2714 1037 2778 
C 1024 2810 1011 2829 960 2829 
C 781 2758 614 2701 173 2643 
C 160 2605 173 2502 186 2464 
C 531 2432 602 2400 602 2029 
L 602 781 
C 602 256 518 224 166 198 
C 128 160 128 26 166 -13 
C 358 -6 602 0 858 0 
C 1114 0 1312 -6 1504 -13 
C 1542 26 1542 160 1504 198 
C 1178 230 1107 256 1107 781 
L 1107 1830 
C 1107 1965 1165 2042 1216 2099 
C 1472 2349 1709 2477 1907 2477 
C 2150 2477 2330 2323 2330 1894 
L 2330 781 
C 2330 256 2278 224 1933 198 
C 1901 160 1901 26 1933 -13 
C 2093 -6 2330 0 2586 0 
C 2842 0 3053 -6 3213 -13 
C 3245 26 3245 160 3213 198 
C 2893 224 2835 256 2835 781 
L 2835 1798 
C 2835 1888 2835 1978 2829 2054 
C 3136 2394 3424 2477 3674 2477 
C 3917 2477 4058 2336 4058 1907 
L 4058 781 
C 4058 256 3994 224 3661 198 
C 3629 160 3629 26 3661 -13 
C 3821 -6 4058 0 4314 0 
C 4570 0 4794 -6 4973 -13 
C 5005 26 5005 160 4973 198 
C 4621 224 4563 256 4563 781 
L 4563 1792 
C 4563 2362 4467 2810 3904 2810 
C 3578 2810 3181 2688 2848 2336 
C 2829 2317 2790 2285 2778 2342 
C 2720 2605 2470 2810 2138 2810 
C 1766 2810 1434 2592 1165 2291 
C 1133 2259 1094 2214 1088 2291 
z
" transform="scale(0.015625)"/>
       <path id="LibertinusSerif-Regular-65" d="M 2470 595 
C 2234 352 2048 250 1677 250 
C 1446 250 1178 384 979 710 
C 851 922 774 1216 774 1587 
L 2477 1574 
C 2554 1574 2598 1613 2598 1683 
C 2598 2221 2406 2797 1517 2797 
C 960 2797 237 2266 237 1293 
C 237 934 326 589 538 346 
C 755 90 1056 -64 1517 -64 
C 2003 -64 2349 160 2605 493 
C 2586 557 2547 589 2470 595 
z
M 794 1805 
C 915 2528 1363 2586 1517 2586 
C 1760 2586 2048 2451 2048 1914 
C 2048 1856 2022 1824 1952 1824 
L 794 1805 
z
" transform="scale(0.015625)"/>
       <path id="LibertinusSerif-Regular-28" d="M 282 1613 
C 282 1325 307 -154 1638 -1306 
C 1702 -1293 1754 -1248 1773 -1197 
C 1562 -954 813 -70 813 1613 
C 813 3296 1568 4179 1773 4410 
C 1754 4474 1709 4518 1638 4525 
C 877 3872 282 2803 282 1613 
z
" transform="scale(0.015625)"/>
       <path id="LibertinusSerif-Regular-29" d="M 1626 1613 
C 1626 1901 1600 3379 269 4531 
C 205 4518 154 4474 134 4422 
C 346 4179 1094 3296 1094 1613 
C 1094 -70 339 -954 134 -1184 
C 154 -1248 198 -1293 269 -1299 
C 1030 -646 1626 422 1626 1613 
z
" transform="scale(0.015625)"/>
      </defs>
      <use xlink:href="#LibertinusSerif-Regular-54"/>
      <use xlink:href="#LibertinusSerif-Regular-69" transform="translate(59.699997 0)"/>
      <use xlink:href="#LibertinusSerif-Regular-6d" transform="translate(86.799988 0)"/>
      <use xlink:href="#LibertinusSerif-Regular-65" transform="translate(165.799973 0)"/>
      <use xlink:href="#LibertinusSerif-Regular-20" transform="translate(210.499969 0)"/>
      <use xlink:href="#LibertinusSerif-Regular-28" transform="translate(235.499954 0)"/>
      <use xlink:href="#LibertinusSerif-Regular-6d" transform="translate(265.299942 0)"/>
      <use xlink:href="#LibertinusSerif-Regular-73" transform="translate(344.299927 0)"/>
      <use xlink:href="#LibertinusSerif-Regular-29" transform="translate(383.299911 0)"/>
     </g>
    </g>
   </g>
   <g id="matplotlib.axis_10"/>
   <g id="line2d_10">
    <path d="M 28.346457 200.728569 
L 30.815717 200.642774 
L 31.13426 192.467854 
L 31.167213 192.402699 
L 31.21774 192.57938 
L 31.349551 194.184309 
L 31.824071 200.095613 
L 32.056937 200.635474 
L 32.329346 200.723151 
L 34.205457 200.728569 
L 37.103102 200.642774 
L 37.421646 192.467854 
L 37.454598 192.402699 
L 37.505126 192.57938 
L 37.636937 194.184309 
L 38.111457 200.095613 
L 38.344323 200.635474 
L 38.616732 200.723151 
L 40.119378 200.728569 
L 40.440118 192.467854 
L 40.473071 192.402699 
L 40.523598 192.57938 
L 40.655409 194.184309 
L 41.129929 200.095613 
L 41.362795 200.635474 
L 41.635205 200.723151 
L 43.511315 200.728569 
L 46.879087 200.642774 
L 47.353606 186.427019 
L 47.390953 186.283241 
L 47.445874 186.571455 
L 47.577685 189.078535 
L 48.102732 199.719472 
L 48.335598 200.571214 
L 48.572858 200.713788 
L 49.365921 200.728569 
L 57.858945 200.642774 
L 58.177488 192.467854 
L 58.210441 192.402699 
L 58.260969 192.57938 
L 58.39278 194.184309 
L 58.867299 200.095613 
L 59.100165 200.635474 
L 59.372575 200.723151 
L 61.248685 200.728569 
L 62.551417 200.642774 
L 62.869961 192.467854 
L 62.902913 192.402699 
L 62.953441 192.57938 
L 63.085252 194.184309 
L 63.559772 200.095613 
L 63.792638 200.635474 
L 64.065047 200.723151 
L 65.941157 200.728569 
L 73.234701 200.642774 
L 73.553244 192.467854 
L 73.586197 192.402699 
L 73.636724 192.57938 
L 73.768535 194.184309 
L 74.243055 200.095613 
L 74.475921 200.635474 
L 74.748331 200.723151 
L 76.624441 200.728569 
L 88.57311 200.642774 
L 88.891654 192.467854 
L 88.924606 192.402699 
L 88.975134 192.57938 
L 89.106945 194.184309 
L 89.581465 200.095613 
L 89.814331 200.635474 
L 90.08674 200.723151 
L 91.96285 200.728569 
L 105.299929 200.642774 
L 105.618472 192.467854 
L 105.651425 192.402699 
L 105.701953 192.57938 
L 105.833764 194.184309 
L 106.308283 200.095613 
L 106.54115 200.635474 
L 106.813559 200.723151 
L 108.689669 200.728569 
L 115.78989 200.642774 
L 116.108433 192.467854 
L 116.141386 192.402699 
L 116.191913 192.57938 
L 116.323724 194.184309 
L 116.798244 200.095613 
L 117.03111 200.635474 
L 117.30352 200.723151 
L 119.17963 200.728569 
L 125.177031 200.642774 
L 125.495575 192.467854 
L 125.528528 192.402699 
L 125.579055 192.57938 
L 125.710866 194.184309 
L 126.185386 200.095613 
L 126.418252 200.635474 
L 126.690661 200.723151 
L 128.566772 200.728569 
L 131.266701 200.642774 
L 131.585244 192.467854 
L 131.618197 192.402699 
L 131.668724 192.57938 
L 131.800535 194.184309 
L 132.275055 200.095613 
L 132.507921 200.635474 
L 132.780331 200.723151 
L 134.656441 200.728569 
L 140.210079 200.642774 
L 140.528622 192.467854 
L 140.561575 192.402699 
L 140.612102 192.57938 
L 140.743913 194.184309 
L 141.218433 200.095613 
L 141.451299 200.635474 
L 141.723709 200.723151 
L 143.599819 200.728569 
L 162.670677 200.642774 
L 162.98922 192.467854 
L 163.022173 192.402699 
L 163.072701 192.57938 
L 163.204512 194.184309 
L 163.679031 200.095613 
L 163.911898 200.635474 
L 164.184307 200.723151 
L 165.194858 200.728569 
L 165.515598 192.467854 
L 165.548551 192.402699 
L 165.599079 192.57938 
L 165.73089 194.184309 
L 166.205409 200.095613 
L 166.29548 200.409237 
L 166.304268 200.087935 
L 166.622811 192.428041 
L 166.649173 192.39181 
L 166.695307 192.545418 
L 166.820528 194.007376 
L 167.319213 200.153295 
L 167.549882 200.644521 
L 167.831079 200.724269 
L 170.139969 200.728569 
L 184.959921 200.642774 
L 185.278465 192.467854 
L 185.311417 192.402699 
L 185.361945 192.57938 
L 185.493756 194.184309 
L 185.968276 200.095613 
L 186.201142 200.635474 
L 186.473551 200.723151 
L 188.349661 200.728569 
L 191.675693 200.642774 
L 191.994236 192.467854 
L 192.027189 192.402699 
L 192.077717 192.57938 
L 192.209528 194.184309 
L 192.684047 200.095613 
L 192.916913 200.635474 
L 193.189323 200.723151 
L 195.065433 200.728569 
L 195.867283 200.642774 
L 196.185827 192.467854 
L 196.21878 192.402699 
L 196.269307 192.57938 
L 196.401118 194.184309 
L 196.875638 200.095613 
L 197.108504 200.635474 
L 197.174409 200.678948 
L 197.176606 200.594214 
L 197.497346 192.457411 
L 197.528102 192.401804 
L 197.57863 192.578918 
L 197.710441 194.184234 
L 198.184961 200.095613 
L 198.417827 200.635474 
L 198.690236 200.723151 
L 200.566346 200.728569 
L 201.585685 200.642774 
L 201.904228 192.467854 
L 201.937181 192.402699 
L 201.987709 192.57938 
L 202.11952 194.184309 
L 202.594039 200.095613 
L 202.826906 200.635474 
L 203.099315 200.723151 
L 204.092291 200.728569 
L 204.092291 200.728569 
" clip-path="url(#p8e975b2dde)" style="fill: none; stroke: #000000; stroke-width: 0.5; stroke-linecap: square"/>
   </g>
   <g id="patch_23">
    <path d="M 28.346457 201.826772 
L 28.346457 185.353736 
" style="fill: none; stroke: #000000; stroke-width: 0.8; stroke-linejoin: miter; stroke-linecap: square"/>
   </g>
   <g id="patch_24">
    <path d="M 204.094488 201.826772 
L 204.094488 185.353736 
" style="fill: none; stroke: #000000; stroke-width: 0.8; stroke-linejoin: miter; stroke-linecap: square"/>
   </g>
   <g id="patch_25">
    <path d="M 28.346457 201.826772 
L 204.094488 201.826772 
" style="fill: none; stroke: #000000; stroke-width: 0.8; stroke-linejoin: miter; stroke-linecap: square"/>
   </g>
   <g id="patch_26">
    <path d="M 28.346457 185.353736 
L 204.094488 185.353736 
" style="fill: none; stroke: #000000; stroke-width: 0.8; stroke-linejoin: miter; stroke-linecap: square"/>
   </g>
  </g>
  <g id="text_8">
   <!-- C -->
   <g transform="translate(28.589873 16.261308) scale(0.168 -0.168)">
    <use xlink:href="#LibertinusSerif-Regular-43"/>
   </g>
  </g>
 </g>
 <defs>
  <clipPath id="pa42e77479c">
   <rect x="28.346457" y="27.212598" width="175.748031" height="16.473035"/>
  </clipPath>
  <clipPath id="pea7b8163aa">
   <rect x="28.346457" y="86.515525" width="175.748031" height="16.473035"/>
  </clipPath>
  <clipPath id="p26de5cc9fe">
   <rect x="28.346457" y="106.283167" width="175.748031" height="16.473035"/>
  </clipPath>
  <clipPath id="pf8d60b5f29">
   <rect x="28.346457" y="126.05081" width="175.748031" height="16.473035"/>
  </clipPath>
  <clipPath id="p8e975b2dde">
   <rect x="28.346457" y="185.353736" width="175.748031" height="16.473035"/>
  </clipPath>
 </defs>
</svg>
