<?xml version="1.0" encoding="utf-8" standalone="no"?>
<!DOCTYPE svg PUBLIC "-//W3C//DTD SVG 1.1//EN"
  "http://www.w3.org/Graphics/SVG/1.1/DTD/svg11.dtd">
<svg xmlns:xlink="http://www.w3.org/1999/xlink" width="324pt" height="216pt" viewBox="0 0 324 216" xmlns="http://www.w3.org/2000/svg" version="1.1">
 <metadata>
  <rdf:RDF xmlns:dc="http://purl.org/dc/elements/1.1/" xmlns:cc="http://creativecommons.org/ns#" xmlns:rdf="http://www.w3.org/1999/02/22-rdf-syntax-ns#">
   <cc:Work>
    <dc:type rdf:resource="http://purl.org/dc/dcmitype/StillImage"/>
    <dc:date>1980-01-01T00:00:00+00:00</dc:date>
    <dc:format>image/svg+xml</dc:format>
    <dc:creator>
     <cc:Agent>
      <dc:title>Matplotlib v3.10.1, https://matplotlib.org/</dc:title>
     </cc:Agent>
    </dc:creator>
   </cc:Work>
  </rdf:RDF>
 </metadata>
 <defs>
  <style type="text/css">*{stroke-linejoin: round; stroke-linecap: butt}</style>
 </defs>
 <g id="figure_1">
  <g id="patch_1">
   <path d="M 0 216 
L 324 216 
L 324 0 
L 0 0 
L 0 216 
z
" style="fill: none"/>
  </g>
  <g id="axes_1">
   <g id="patch_2">
    <path d="M 40.5 74.837647 
L 291.6 74.837647 
L 291.6 25.92 
L 40.5 25.92 
L 40.5 74.837647 
z
" style="fill: none"/>
   </g>
   <g id="matplotlib.axis_1">
    <g id="xtick_1">
     <g id="line2d_1">
      <defs>
       <path id="m6214153638" d="M 0 0 
L 0 3.5 
" style="stroke: #000000; stroke-width: 0.8"/>
      </defs>
      <g>
       <use xlink:href="#m6214153638" x="40.5" y="74.837647" style="stroke: #000000; stroke-width: 0.8"/>
      </g>
     </g>
    </g>
    <g id="xtick_2">
     <g id="line2d_2">
      <g>
       <use xlink:href="#m6214153638" x="291.6" y="74.837647" style="stroke: #000000; stroke-width: 0.8"/>
      </g>
     </g>
    </g>
   </g>
   <g id="matplotlib.axis_2">
    <g id="text_1">
     <!-- Pre -->
     <g transform="translate(7.785 47.051324) scale(0.16 -0.16)">
      <defs>
       <path id="DejaVuSans-50" d="M 1259 4147 
L 1259 2394 
L 2053 2394 
Q 2494 2394 2734 2622 
Q 2975 2850 2975 3272 
Q 2975 3691 2734 3919 
Q 2494 4147 2053 4147 
L 1259 4147 
z
M 628 4666 
L 2053 4666 
Q 2838 4666 3239 4311 
Q 3641 3956 3641 3272 
Q 3641 2581 3239 2228 
Q 2838 1875 2053 1875 
L 1259 1875 
L 1259 0 
L 628 0 
L 628 4666 
z
" transform="scale(0.015625)"/>
       <path id="DejaVuSans-72" d="M 2631 2963 
Q 2534 3019 2420 3045 
Q 2306 3072 2169 3072 
Q 1681 3072 1420 2755 
Q 1159 2438 1159 1844 
L 1159 0 
L 581 0 
L 581 3500 
L 1159 3500 
L 1159 2956 
Q 1341 3275 1631 3429 
Q 1922 3584 2338 3584 
Q 2397 3584 2469 3576 
Q 2541 3569 2628 3553 
L 2631 2963 
z
" transform="scale(0.015625)"/>
       <path id="DejaVuSans-65" d="M 3597 1894 
L 3597 1613 
L 953 1613 
Q 991 1019 1311 708 
Q 1631 397 2203 397 
Q 2534 397 2845 478 
Q 3156 559 3463 722 
L 3463 178 
Q 3153 47 2828 -22 
Q 2503 -91 2169 -91 
Q 1331 -91 842 396 
Q 353 884 353 1716 
Q 353 2575 817 3079 
Q 1281 3584 2069 3584 
Q 2775 3584 3186 3129 
Q 3597 2675 3597 1894 
z
M 3022 2063 
Q 3016 2534 2758 2815 
Q 2500 3097 2075 3097 
Q 1594 3097 1305 2825 
Q 1016 2553 972 2059 
L 3022 2063 
z
" transform="scale(0.015625)"/>
      </defs>
      <use xlink:href="#DejaVuSans-50"/>
      <use xlink:href="#DejaVuSans-72" transform="translate(58.552734 0)"/>
      <use xlink:href="#DejaVuSans-65" transform="translate(97.416016 0)"/>
     </g>
    </g>
   </g>
   <g id="LineCollection_1">
    <path d="M 43.632472 72.614118 
L 43.632472 28.143529 
" clip-path="url(#p024a03a136)" style="fill: none; stroke: #000000; stroke-width: 1.2"/>
    <path d="M 47.769345 72.614118 
L 47.769345 28.143529 
" clip-path="url(#p024a03a136)" style="fill: none; stroke: #000000; stroke-width: 1.2"/>
    <path d="M 51.630008 72.614118 
L 51.630008 28.143529 
" clip-path="url(#p024a03a136)" style="fill: none; stroke: #000000; stroke-width: 1.2"/>
    <path d="M 55.51578 72.614118 
L 55.51578 28.143529 
" clip-path="url(#p024a03a136)" style="fill: none; stroke: #000000; stroke-width: 1.2"/>
    <path d="M 59.495715 72.614118 
L 59.495715 28.143529 
" clip-path="url(#p024a03a136)" style="fill: none; stroke: #000000; stroke-width: 1.2"/>
    <path d="M 63.469373 72.614118 
L 63.469373 28.143529 
" clip-path="url(#p024a03a136)" style="fill: none; stroke: #000000; stroke-width: 1.2"/>
    <path d="M 67.461863 72.614118 
L 67.461863 28.143529 
" clip-path="url(#p024a03a136)" style="fill: none; stroke: #000000; stroke-width: 1.2"/>
    <path d="M 71.479463 72.614118 
L 71.479463 28.143529 
" clip-path="url(#p024a03a136)" style="fill: none; stroke: #000000; stroke-width: 1.2"/>
    <path d="M 75.541005 72.614118 
L 75.541005 28.143529 
" clip-path="url(#p024a03a136)" style="fill: none; stroke: #000000; stroke-width: 1.2"/>
    <path d="M 77.88879 72.614118 
L 77.88879 28.143529 
" clip-path="url(#p024a03a136)" style="fill: none; stroke: #000000; stroke-width: 1.2"/>
    <path d="M 80.90199 72.614118 
L 80.90199 28.143529 
" clip-path="url(#p024a03a136)" style="fill: none; stroke: #000000; stroke-width: 1.2"/>
    <path d="M 175.535303 72.614118 
L 175.535303 28.143529 
" clip-path="url(#p024a03a136)" style="fill: none; stroke: #000000; stroke-width: 1.2"/>
    <path d="M 288.680963 72.614118 
L 288.680963 28.143529 
" clip-path="url(#p024a03a136)" style="fill: none; stroke: #000000; stroke-width: 1.2"/>
   </g>
   <g id="patch_3">
    <path d="M 40.5 74.837647 
L 40.5 25.92 
" style="fill: none; stroke: #000000; stroke-width: 0.8; stroke-linejoin: miter; stroke-linecap: square"/>
   </g>
   <g id="patch_4">
    <path d="M 291.6 74.837647 
L 291.6 25.92 
" style="fill: none; stroke: #000000; stroke-width: 0.8; stroke-linejoin: miter; stroke-linecap: square"/>
   </g>
   <g id="patch_5">
    <path d="M 40.5 74.837647 
L 291.6 74.837647 
" style="fill: none; stroke: #000000; stroke-width: 0.8; stroke-linejoin: miter; stroke-linecap: square"/>
   </g>
   <g id="patch_6">
    <path d="M 40.5 25.92 
L 291.6 25.92 
" style="fill: none; stroke: #000000; stroke-width: 0.8; stroke-linejoin: miter; stroke-linecap: square"/>
   </g>
  </g>
  <g id="axes_2">
   <g id="patch_7">
    <path d="M 40.5 133.538824 
L 291.6 133.538824 
L 291.6 84.621176 
L 40.5 84.621176 
L 40.5 133.538824 
z
" style="fill: none"/>
   </g>
   <g id="matplotlib.axis_3">
    <g id="xtick_3">
     <g id="line2d_3">
      <g>
       <use xlink:href="#m6214153638" x="40.5" y="133.538824" style="stroke: #000000; stroke-width: 0.8"/>
      </g>
     </g>
    </g>
    <g id="xtick_4">
     <g id="line2d_4">
      <g>
       <use xlink:href="#m6214153638" x="291.6" y="133.538824" style="stroke: #000000; stroke-width: 0.8"/>
      </g>
     </g>
    </g>
   </g>
   <g id="matplotlib.axis_4">
    <g id="text_2">
     <!-- Post -->
     <g transform="translate(3.7675 105.7525) scale(0.16 -0.16)">
      <defs>
       <path id="DejaVuSans-6f" d="M 1959 3097 
Q 1497 3097 1228 2736 
Q 959 2375 959 1747 
Q 959 1119 1226 758 
Q 1494 397 1959 397 
Q 2419 397 2687 759 
Q 2956 1122 2956 1747 
Q 2956 2369 2687 2733 
Q 2419 3097 1959 3097 
z
M 1959 3584 
Q 2709 3584 3137 3096 
Q 3566 2609 3566 1747 
Q 3566 888 3137 398 
Q 2709 -91 1959 -91 
Q 1206 -91 779 398 
Q 353 888 353 1747 
Q 353 2609 779 3096 
Q 1206 3584 1959 3584 
z
" transform="scale(0.015625)"/>
       <path id="DejaVuSans-73" d="M 2834 3397 
L 2834 2853 
Q 2591 2978 2328 3040 
Q 2066 3103 1784 3103 
Q 1356 3103 1142 2972 
Q 928 2841 928 2578 
Q 928 2378 1081 2264 
Q 1234 2150 1697 2047 
L 1894 2003 
Q 2506 1872 2764 1633 
Q 3022 1394 3022 966 
Q 3022 478 2636 193 
Q 2250 -91 1575 -91 
Q 1294 -91 989 -36 
Q 684 19 347 128 
L 347 722 
Q 666 556 975 473 
Q 1284 391 1588 391 
Q 1994 391 2212 530 
Q 2431 669 2431 922 
Q 2431 1156 2273 1281 
Q 2116 1406 1581 1522 
L 1381 1569 
Q 847 1681 609 1914 
Q 372 2147 372 2553 
Q 372 3047 722 3315 
Q 1072 3584 1716 3584 
Q 2034 3584 2315 3537 
Q 2597 3491 2834 3397 
z
" transform="scale(0.015625)"/>
       <path id="DejaVuSans-74" d="M 1172 4494 
L 1172 3500 
L 2356 3500 
L 2356 3053 
L 1172 3053 
L 1172 1153 
Q 1172 725 1289 603 
Q 1406 481 1766 481 
L 2356 481 
L 2356 0 
L 1766 0 
Q 1100 0 847 248 
Q 594 497 594 1153 
L 594 3053 
L 172 3053 
L 172 3500 
L 594 3500 
L 594 4494 
L 1172 4494 
z
" transform="scale(0.015625)"/>
      </defs>
      <use xlink:href="#DejaVuSans-50"/>
      <use xlink:href="#DejaVuSans-6f" transform="translate(56.677734 0)"/>
      <use xlink:href="#DejaVuSans-73" transform="translate(117.859375 0)"/>
      <use xlink:href="#DejaVuSans-74" transform="translate(169.958984 0)"/>
     </g>
    </g>
   </g>
   <g id="LineCollection_2">
    <path d="M 125.428298 131.315294 
L 125.428298 86.844706 
" clip-path="url(#p59b0e322f1)" style="fill: none; stroke: #000000; stroke-width: 1.2"/>
    <path d="M 129.445898 131.315294 
L 129.445898 86.844706 
" clip-path="url(#p59b0e322f1)" style="fill: none; stroke: #000000; stroke-width: 1.2"/>
    <path d="M 132.816915 131.315294 
L 132.816915 86.844706 
" clip-path="url(#p59b0e322f1)" style="fill: none; stroke: #000000; stroke-width: 1.2"/>
    <path d="M 136.332315 131.315294 
L 136.332315 86.844706 
" clip-path="url(#p59b0e322f1)" style="fill: none; stroke: #000000; stroke-width: 1.2"/>
    <path d="M 139.973265 131.315294 
L 139.973265 86.844706 
" clip-path="url(#p59b0e322f1)" style="fill: none; stroke: #000000; stroke-width: 1.2"/>
    <path d="M 189.019373 131.315294 
L 189.019373 86.844706 
" clip-path="url(#p59b0e322f1)" style="fill: none; stroke: #000000; stroke-width: 1.2"/>
    <path d="M 193.350848 131.315294 
L 193.350848 86.844706 
" clip-path="url(#p59b0e322f1)" style="fill: none; stroke: #000000; stroke-width: 1.2"/>
    <path d="M 196.91019 131.315294 
L 196.91019 86.844706 
" clip-path="url(#p59b0e322f1)" style="fill: none; stroke: #000000; stroke-width: 1.2"/>
    <path d="M 200.7018 131.315294 
L 200.7018 86.844706 
" clip-path="url(#p59b0e322f1)" style="fill: none; stroke: #000000; stroke-width: 1.2"/>
    <path d="M 204.637793 131.315294 
L 204.637793 86.844706 
" clip-path="url(#p59b0e322f1)" style="fill: none; stroke: #000000; stroke-width: 1.2"/>
    <path d="M 208.705613 131.315294 
L 208.705613 86.844706 
" clip-path="url(#p59b0e322f1)" style="fill: none; stroke: #000000; stroke-width: 1.2"/>
    <path d="M 212.90526 131.315294 
L 212.90526 86.844706 
" clip-path="url(#p59b0e322f1)" style="fill: none; stroke: #000000; stroke-width: 1.2"/>
    <path d="M 217.418783 131.315294 
L 217.418783 86.844706 
" clip-path="url(#p59b0e322f1)" style="fill: none; stroke: #000000; stroke-width: 1.2"/>
    <path d="M 222.327788 131.315294 
L 222.327788 86.844706 
" clip-path="url(#p59b0e322f1)" style="fill: none; stroke: #000000; stroke-width: 1.2"/>
    <path d="M 226.558823 131.315294 
L 226.558823 86.844706 
" clip-path="url(#p59b0e322f1)" style="fill: none; stroke: #000000; stroke-width: 1.2"/>
    <path d="M 232.61661 131.315294 
L 232.61661 86.844706 
" clip-path="url(#p59b0e322f1)" style="fill: none; stroke: #000000; stroke-width: 1.2"/>
    <path d="M 236.653043 131.315294 
L 236.653043 86.844706 
" clip-path="url(#p59b0e322f1)" style="fill: none; stroke: #000000; stroke-width: 1.2"/>
    <path d="M 239.84829 131.315294 
L 239.84829 86.844706 
" clip-path="url(#p59b0e322f1)" style="fill: none; stroke: #000000; stroke-width: 1.2"/>
    <path d="M 243.01215 131.315294 
L 243.01215 86.844706 
" clip-path="url(#p59b0e322f1)" style="fill: none; stroke: #000000; stroke-width: 1.2"/>
    <path d="M 246.138345 131.315294 
L 246.138345 86.844706 
" clip-path="url(#p59b0e322f1)" style="fill: none; stroke: #000000; stroke-width: 1.2"/>
    <path d="M 249.302205 131.315294 
L 249.302205 86.844706 
" clip-path="url(#p59b0e322f1)" style="fill: none; stroke: #000000; stroke-width: 1.2"/>
    <path d="M 252.516285 131.315294 
L 252.516285 86.844706 
" clip-path="url(#p59b0e322f1)" style="fill: none; stroke: #000000; stroke-width: 1.2"/>
    <path d="M 255.761753 131.315294 
L 255.761753 86.844706 
" clip-path="url(#p59b0e322f1)" style="fill: none; stroke: #000000; stroke-width: 1.2"/>
    <path d="M 259.044885 131.315294 
L 259.044885 86.844706 
" clip-path="url(#p59b0e322f1)" style="fill: none; stroke: #000000; stroke-width: 1.2"/>
    <path d="M 262.365683 131.315294 
L 262.365683 86.844706 
" clip-path="url(#p59b0e322f1)" style="fill: none; stroke: #000000; stroke-width: 1.2"/>
    <path d="M 265.717868 131.315294 
L 265.717868 86.844706 
" clip-path="url(#p59b0e322f1)" style="fill: none; stroke: #000000; stroke-width: 1.2"/>
    <path d="M 269.12655 131.315294 
L 269.12655 86.844706 
" clip-path="url(#p59b0e322f1)" style="fill: none; stroke: #000000; stroke-width: 1.2"/>
    <path d="M 272.598007 131.315294 
L 272.598007 86.844706 
" clip-path="url(#p59b0e322f1)" style="fill: none; stroke: #000000; stroke-width: 1.2"/>
    <path d="M 276.201293 131.315294 
L 276.201293 86.844706 
" clip-path="url(#p59b0e322f1)" style="fill: none; stroke: #000000; stroke-width: 1.2"/>
   </g>
   <g id="patch_8">
    <path d="M 40.5 133.538824 
L 40.5 84.621176 
" style="fill: none; stroke: #000000; stroke-width: 0.8; stroke-linejoin: miter; stroke-linecap: square"/>
   </g>
   <g id="patch_9">
    <path d="M 291.6 133.538824 
L 291.6 84.621176 
" style="fill: none; stroke: #000000; stroke-width: 0.8; stroke-linejoin: miter; stroke-linecap: square"/>
   </g>
   <g id="patch_10">
    <path d="M 40.5 133.538824 
L 291.6 133.538824 
" style="fill: none; stroke: #000000; stroke-width: 0.8; stroke-linejoin: miter; stroke-linecap: square"/>
   </g>
   <g id="patch_11">
    <path d="M 40.5 84.621176 
L 291.6 84.621176 
" style="fill: none; stroke: #000000; stroke-width: 0.8; stroke-linejoin: miter; stroke-linecap: square"/>
   </g>
  </g>
  <g id="axes_3">
   <g id="patch_12">
    <path d="M 40.5 192.24 
L 291.6 192.24 
L 291.6 143.322353 
L 40.5 143.322353 
L 40.5 192.24 
z
" style="fill: none"/>
   </g>
   <g id="matplotlib.axis_5">
    <g id="xtick_5">
     <g id="line2d_5">
      <path d="M 40.5 192.24 
L 40.5 143.322353 
" clip-path="url(#p34079c80ab)" style="fill: none; stroke: #000000; stroke-opacity: 0.4; stroke-width: 0.8; stroke-linecap: square"/>
     </g>
     <g id="line2d_6">
      <g>
       <use xlink:href="#m6214153638" x="40.5" y="192.24" style="stroke: #000000; stroke-width: 0.8"/>
      </g>
     </g>
     <g id="text_3">
      <!-- 0 -->
      <g transform="translate(36.428 208.966) scale(0.128 -0.128)">
       <defs>
        <path id="DejaVuSans-30" d="M 2034 4250 
Q 1547 4250 1301 3770 
Q 1056 3291 1056 2328 
Q 1056 1369 1301 889 
Q 1547 409 2034 409 
Q 2525 409 2770 889 
Q 3016 1369 3016 2328 
Q 3016 3291 2770 3770 
Q 2525 4250 2034 4250 
z
M 2034 4750 
Q 2819 4750 3233 4129 
Q 3647 3509 3647 2328 
Q 3647 1150 3233 529 
Q 2819 -91 2034 -91 
Q 1250 -91 836 529 
Q 422 1150 422 2328 
Q 422 3509 836 4129 
Q 1250 4750 2034 4750 
z
" transform="scale(0.015625)"/>
       </defs>
       <use xlink:href="#DejaVuSans-30"/>
      </g>
     </g>
    </g>
    <g id="xtick_6">
     <g id="line2d_7">
      <path d="M 291.6 192.24 
L 291.6 143.322353 
" clip-path="url(#p34079c80ab)" style="fill: none; stroke: #000000; stroke-opacity: 0.4; stroke-width: 0.8; stroke-linecap: square"/>
     </g>
     <g id="line2d_8">
      <g>
       <use xlink:href="#m6214153638" x="291.6" y="192.24" style="stroke: #000000; stroke-width: 0.8"/>
      </g>
     </g>
     <g id="text_4">
      <!-- 4000 -->
      <g transform="translate(275.312 208.966) scale(0.128 -0.128)">
       <defs>
        <path id="DejaVuSans-34" d="M 2419 4116 
L 825 1625 
L 2419 1625 
L 2419 4116 
z
M 2253 4666 
L 3047 4666 
L 3047 1625 
L 3713 1625 
L 3713 1100 
L 3047 1100 
L 3047 0 
L 2419 0 
L 2419 1100 
L 313 1100 
L 313 1709 
L 2253 4666 
z
" transform="scale(0.015625)"/>
       </defs>
       <use xlink:href="#DejaVuSans-34"/>
       <use xlink:href="#DejaVuSans-30" transform="translate(63.623047 0)"/>
       <use xlink:href="#DejaVuSans-30" transform="translate(127.246094 0)"/>
       <use xlink:href="#DejaVuSans-30" transform="translate(190.869141 0)"/>
      </g>
     </g>
    </g>
    <g id="text_5">
     <!-- Time (ms) -->
     <g transform="translate(125.73125 227.7855) scale(0.16 -0.16)">
      <defs>
       <path id="DejaVuSans-54" d="M -19 4666 
L 3928 4666 
L 3928 4134 
L 2272 4134 
L 2272 0 
L 1638 0 
L 1638 4134 
L -19 4134 
L -19 4666 
z
" transform="scale(0.015625)"/>
       <path id="DejaVuSans-69" d="M 603 3500 
L 1178 3500 
L 1178 0 
L 603 0 
L 603 3500 
z
M 603 4863 
L 1178 4863 
L 1178 4134 
L 603 4134 
L 603 4863 
z
" transform="scale(0.015625)"/>
       <path id="DejaVuSans-6d" d="M 3328 2828 
Q 3544 3216 3844 3400 
Q 4144 3584 4550 3584 
Q 5097 3584 5394 3201 
Q 5691 2819 5691 2113 
L 5691 0 
L 5113 0 
L 5113 2094 
Q 5113 2597 4934 2840 
Q 4756 3084 4391 3084 
Q 3944 3084 3684 2787 
Q 3425 2491 3425 1978 
L 3425 0 
L 2847 0 
L 2847 2094 
Q 2847 2600 2669 2842 
Q 2491 3084 2119 3084 
Q 1678 3084 1418 2786 
Q 1159 2488 1159 1978 
L 1159 0 
L 581 0 
L 581 3500 
L 1159 3500 
L 1159 2956 
Q 1356 3278 1631 3431 
Q 1906 3584 2284 3584 
Q 2666 3584 2933 3390 
Q 3200 3197 3328 2828 
z
" transform="scale(0.015625)"/>
       <path id="DejaVuSans-20" transform="scale(0.015625)"/>
       <path id="DejaVuSans-28" d="M 1984 4856 
Q 1566 4138 1362 3434 
Q 1159 2731 1159 2009 
Q 1159 1288 1364 580 
Q 1569 -128 1984 -844 
L 1484 -844 
Q 1016 -109 783 600 
Q 550 1309 550 2009 
Q 550 2706 781 3412 
Q 1013 4119 1484 4856 
L 1984 4856 
z
" transform="scale(0.015625)"/>
       <path id="DejaVuSans-29" d="M 513 4856 
L 1013 4856 
Q 1481 4119 1714 3412 
Q 1947 2706 1947 2009 
Q 1947 1309 1714 600 
Q 1481 -109 1013 -844 
L 513 -844 
Q 928 -128 1133 580 
Q 1338 1288 1338 2009 
Q 1338 2731 1133 3434 
Q 928 4138 513 4856 
z
" transform="scale(0.015625)"/>
      </defs>
      <use xlink:href="#DejaVuSans-54"/>
      <use xlink:href="#DejaVuSans-69" transform="translate(57.958984 0)"/>
      <use xlink:href="#DejaVuSans-6d" transform="translate(85.742188 0)"/>
      <use xlink:href="#DejaVuSans-65" transform="translate(183.154297 0)"/>
      <use xlink:href="#DejaVuSans-20" transform="translate(244.677734 0)"/>
      <use xlink:href="#DejaVuSans-28" transform="translate(276.464844 0)"/>
      <use xlink:href="#DejaVuSans-6d" transform="translate(315.478516 0)"/>
      <use xlink:href="#DejaVuSans-73" transform="translate(412.890625 0)"/>
      <use xlink:href="#DejaVuSans-29" transform="translate(464.990234 0)"/>
     </g>
    </g>
   </g>
   <g id="matplotlib.axis_6">
    <g id="ytick_1">
     <g id="line2d_9">
      <path d="M 40.5 173.868298 
L 291.6 173.868298 
" clip-path="url(#p34079c80ab)" style="fill: none; stroke: #000000; stroke-opacity: 0.4; stroke-width: 0.8; stroke-linecap: square"/>
     </g>
     <g id="line2d_10">
      <defs>
       <path id="mb957087558" d="M 0 0 
L -3.5 0 
" style="stroke: #000000; stroke-width: 0.8"/>
      </defs>
      <g>
       <use xlink:href="#mb957087558" x="40.5" y="173.868298" style="stroke: #000000; stroke-width: 0.8"/>
      </g>
     </g>
     <g id="text_6">
      <!-- $\theta_D$ -->
      <g transform="translate(18.396 178.731298) scale(0.128 -0.128)">
       <defs>
        <path id="DejaVuSans-Oblique-3b8" d="M 2913 2219 
L 925 2219 
Q 791 1284 928 888 
Q 1100 400 1566 400 
Q 2034 400 2391 891 
Q 2703 1322 2913 2219 
z
M 3009 2750 
Q 3094 3638 2984 3950 
Q 2813 4444 2353 4444 
Q 1875 4444 1525 3956 
Q 1250 3563 1034 2750 
L 3009 2750 
z
M 2444 4913 
Q 3194 4913 3494 4250 
Q 3794 3591 3566 2422 
Q 3341 1256 2781 594 
Q 2225 -72 1475 -72 
Q 722 -72 425 594 
Q 128 1256 353 2422 
Q 581 3591 1134 4250 
Q 1691 4913 2444 4913 
z
" transform="scale(0.015625)"/>
        <path id="DejaVuSans-Oblique-44" d="M 1081 4666 
L 2438 4666 
Q 3519 4666 4070 4208 
Q 4622 3750 4622 2847 
Q 4622 2250 4412 1698 
Q 4203 1147 3834 769 
Q 3463 381 2891 190 
Q 2319 0 1538 0 
L 172 0 
L 1081 4666 
z
M 1613 4147 
L 909 519 
L 1734 519 
Q 2794 519 3375 1128 
Q 3956 1738 3956 2847 
Q 3956 3519 3581 3833 
Q 3206 4147 2406 4147 
L 1613 4147 
z
" transform="scale(0.015625)"/>
       </defs>
       <use xlink:href="#DejaVuSans-Oblique-3b8" transform="translate(0 0.234375)"/>
       <use xlink:href="#DejaVuSans-Oblique-44" transform="translate(61.181641 -16.171875) scale(0.7)"/>
      </g>
     </g>
    </g>
    <g id="ytick_2">
     <g id="line2d_11">
      <path d="M 40.5 152.337402 
L 291.6 152.337402 
" clip-path="url(#p34079c80ab)" style="fill: none; stroke: #000000; stroke-opacity: 0.4; stroke-width: 0.8; stroke-linecap: square"/>
     </g>
     <g id="line2d_12">
      <g>
       <use xlink:href="#mb957087558" x="40.5" y="152.337402" style="stroke: #000000; stroke-width: 0.8"/>
      </g>
     </g>
     <g id="text_7">
      <!-- $\theta_P$ -->
      <g transform="translate(19.804 157.200402) scale(0.128 -0.128)">
       <defs>
        <path id="DejaVuSans-Oblique-50" d="M 1081 4666 
L 2541 4666 
Q 3178 4666 3512 4369 
Q 3847 4072 3847 3500 
Q 3847 2731 3353 2303 
Q 2859 1875 1966 1875 
L 1172 1875 
L 806 0 
L 172 0 
L 1081 4666 
z
M 1613 4147 
L 1275 2394 
L 2069 2394 
Q 2606 2394 2893 2669 
Q 3181 2944 3181 3456 
Q 3181 3784 2986 3965 
Q 2791 4147 2438 4147 
L 1613 4147 
z
" transform="scale(0.015625)"/>
       </defs>
       <use xlink:href="#DejaVuSans-Oblique-3b8" transform="translate(0 0.234375)"/>
       <use xlink:href="#DejaVuSans-Oblique-50" transform="translate(61.181641 -16.171875) scale(0.7)"/>
      </g>
     </g>
    </g>
   </g>
   <g id="line2d_13">
    <path d="M 40.5 190.016471 
L 43.632472 190.016471 
L 43.63875 148.448991 
L 43.745468 153.202053 
L 44.228835 168.776399 
L 44.712203 177.762015 
L 45.19557 182.946265 
L 45.678938 185.937317 
L 46.168582 187.679754 
L 46.670783 188.696884 
L 47.20437 189.297421 
L 47.769345 189.638403 
L 47.775622 148.073614 
L 47.88234 152.869599 
L 48.365707 168.58459 
L 48.849075 177.651351 
L 49.332442 182.882417 
L 49.81581 185.90048 
L 50.305455 187.658652 
L 50.807655 188.684968 
L 51.341242 189.290927 
L 51.630008 189.494115 
L 51.636285 147.930353 
L 51.743003 152.742719 
L 52.22637 168.511387 
L 52.709738 177.609116 
L 53.193105 182.85805 
L 53.676473 185.886421 
L 54.166117 187.650599 
L 54.668318 188.68042 
L 55.201905 189.288449 
L 55.51578 189.507094 
L 55.522058 147.94324 
L 55.628775 152.754132 
L 56.112143 168.517972 
L 56.59551 177.612916 
L 57.078878 182.860242 
L 57.562245 185.887686 
L 58.05189 187.651323 
L 58.55409 188.680829 
L 59.087677 189.288672 
L 59.495715 189.558988 
L 59.501993 147.994765 
L 59.60871 152.799765 
L 60.092078 168.5443 
L 60.575445 177.628106 
L 61.058813 182.869006 
L 61.54218 185.892742 
L 62.031825 187.65422 
L 62.534025 188.682465 
L 63.067613 189.289563 
L 63.469373 189.556273 
L 63.47565 147.992069 
L 63.582368 152.797378 
L 64.065735 168.542922 
L 64.549103 177.627311 
L 65.03247 182.868547 
L 65.515838 185.892478 
L 66.005482 187.654068 
L 66.507683 188.682379 
L 67.04127 189.289517 
L 67.461863 189.566001 
L 67.46814 148.001727 
L 67.574858 152.805932 
L 68.058225 168.547857 
L 68.541593 177.630158 
L 69.02496 182.87019 
L 69.508328 185.893425 
L 69.997973 187.654611 
L 70.500173 188.682686 
L 71.03376 189.289684 
L 71.479463 189.57879 
L 71.48574 148.014425 
L 71.592458 152.817178 
L 72.075825 168.554346 
L 72.559192 177.633902 
L 73.04256 182.87235 
L 73.525927 185.894671 
L 74.015573 187.655325 
L 74.517773 188.683089 
L 75.05136 189.289904 
L 75.541005 189.600261 
L 75.547283 148.035744 
L 75.654 152.836059 
L 76.137368 168.565239 
L 76.620735 177.640187 
L 77.104103 182.875976 
L 77.58747 185.896764 
L 77.88879 187.092551 
L 77.895068 145.545882 
L 78.001785 150.630902 
L 78.485152 167.292974 
L 78.96852 176.906154 
L 79.451887 182.452476 
L 79.935255 185.652425 
L 80.4249 187.516556 
L 80.90199 188.563806 
L 80.908268 147.006666 
L 81.014985 151.924651 
L 81.498353 168.039403 
L 81.98172 177.336805 
L 82.465088 182.70094 
L 82.948455 185.795777 
L 83.4381 187.598674 
L 83.934022 188.641309 
L 84.461332 189.261766 
L 85.07025 189.639009 
L 85.880048 189.86626 
L 87.22971 189.98413 
L 91.128038 190.016087 
L 175.535303 190.016471 
L 175.54158 148.448991 
L 175.648298 153.202053 
L 176.131665 168.776399 
L 176.615033 177.762015 
L 177.0984 182.946265 
L 177.581768 185.937317 
L 178.071413 187.679754 
L 178.573613 188.696884 
L 179.1072 189.297421 
L 179.728673 189.661942 
L 180.569858 189.880336 
L 182.007405 189.98995 
L 186.577425 190.016324 
L 226.558823 190.016471 
L 226.5651 163.466919 
L 226.671818 166.502746 
L 227.155185 176.450231 
L 227.638553 182.189432 
L 228.12192 185.500662 
L 228.611565 187.429619 
L 229.107488 188.545157 
L 229.634798 189.208996 
L 230.23116 189.606806 
L 231.00957 189.847517 
L 232.271348 189.976269 
L 232.61661 189.989329 
L 232.622888 163.439971 
L 232.729605 166.478879 
L 233.212973 176.436462 
L 233.69634 182.181487 
L 234.179708 185.496078 
L 234.669353 187.426994 
L 235.165275 188.543663 
L 235.692585 189.208177 
L 236.288948 189.60639 
L 236.653043 189.745484 
L 236.65932 163.197861 
L 236.766038 166.264454 
L 237.249405 176.312749 
L 237.732773 182.110111 
L 238.21614 185.454898 
L 238.705785 187.403404 
L 239.201708 188.530246 
L 239.72274 189.194966 
L 239.84829 189.304327 
L 239.854568 162.759844 
L 239.961285 165.876522 
L 240.444653 176.088932 
L 240.92802 181.98098 
L 241.411388 185.380396 
L 241.901033 187.360726 
L 242.396955 188.505972 
L 242.917988 189.181549 
L 243.01215 189.266379 
L 243.018428 162.722166 
L 243.125145 165.843152 
L 243.608513 176.069679 
L 244.09188 181.969872 
L 244.575248 185.373987 
L 245.064893 187.357054 
L 245.560815 188.503884 
L 246.081848 189.180395 
L 246.138345 189.232452 
L 246.144623 162.68848 
L 246.25134 165.813318 
L 246.734708 176.052466 
L 247.218075 181.959941 
L 247.701443 185.368257 
L 248.191088 187.353772 
L 248.68701 188.502018 
L 249.208043 189.179363 
L 249.302205 189.264415 
L 249.308483 162.720217 
L 249.4152 165.841426 
L 249.898568 176.068683 
L 250.381935 181.969297 
L 250.865303 185.373655 
L 251.354948 187.356864 
L 251.85087 188.503776 
L 252.371903 189.180335 
L 252.516285 189.30701 
L 252.522563 162.762508 
L 252.62928 165.878881 
L 253.112648 176.090293 
L 253.596015 181.981765 
L 254.079383 185.380849 
L 254.569028 187.360985 
L 255.06495 188.50612 
L 255.585983 189.181631 
L 255.761753 189.332962 
L 255.76803 162.788275 
L 255.874748 165.901702 
L 256.358115 176.103459 
L 256.841483 181.989361 
L 257.32485 185.385231 
L 257.814495 187.363496 
L 258.310418 188.507548 
L 258.83145 189.18242 
L 259.044885 189.362255 
L 259.051163 162.81736 
L 259.15788 165.927461 
L 259.641248 176.118321 
L 260.124615 181.997936 
L 260.607983 185.390178 
L 261.097628 187.36633 
L 261.59355 188.50916 
L 262.114583 189.183311 
L 262.365683 189.39037 
L 262.37196 162.845275 
L 262.478678 165.952184 
L 262.962045 176.132585 
L 263.445413 182.006165 
L 263.92878 185.394926 
L 264.418425 187.369049 
L 264.914348 188.510707 
L 265.43538 189.184166 
L 265.717868 189.412956 
L 265.724145 162.8677 
L 265.830863 165.972045 
L 266.31423 176.144044 
L 266.797598 182.012777 
L 267.280965 185.398741 
L 267.77061 187.371234 
L 268.266533 188.51195 
L 268.787565 189.184853 
L 269.12655 189.451 
L 269.132828 162.905473 
L 269.239545 166.005499 
L 269.722913 176.163345 
L 270.20628 182.023912 
L 270.689648 185.405166 
L 271.179293 187.374915 
L 271.675215 188.514043 
L 272.196248 189.18601 
L 272.598007 189.490714 
L 272.604285 162.944905 
L 272.711003 166.040422 
L 273.19437 176.183494 
L 273.677738 182.035537 
L 274.161105 185.411873 
L 274.65075 187.378757 
L 275.146673 188.516228 
L 275.667705 189.187218 
L 276.201293 189.564606 
L 276.20757 163.018271 
L 276.314288 166.105398 
L 276.797655 176.220982 
L 277.281023 182.057166 
L 277.76439 185.424351 
L 278.254035 187.385905 
L 278.749958 188.520294 
L 279.27099 189.189465 
L 279.867353 189.596897 
L 280.639485 189.84219 
L 281.876153 189.973799 
L 285.027458 190.015288 
L 288.680963 190.016452 
L 288.68724 148.448972 
L 288.793958 153.202037 
L 289.277325 168.77639 
L 289.760693 177.76201 
L 290.24406 182.946262 
L 290.727428 185.937315 
L 291.217073 187.679753 
L 291.587445 188.48333 
L 291.593723 190.016471 
L 291.593723 190.016471 
" clip-path="url(#p34079c80ab)" style="fill: none; stroke: #3d9970; stroke-width: 1.2; stroke-linecap: square"/>
   </g>
   <g id="patch_13">
    <path d="M 40.5 192.24 
L 40.5 143.322353 
" style="fill: none; stroke: #000000; stroke-width: 0.8; stroke-linejoin: miter; stroke-linecap: square"/>
   </g>
   <g id="patch_14">
    <path d="M 291.6 192.24 
L 291.6 143.322353 
" style="fill: none; stroke: #000000; stroke-width: 0.8; stroke-linejoin: miter; stroke-linecap: square"/>
   </g>
   <g id="patch_15">
    <path d="M 40.5 192.24 
L 291.6 192.24 
" style="fill: none; stroke: #000000; stroke-width: 0.8; stroke-linejoin: miter; stroke-linecap: square"/>
   </g>
   <g id="patch_16">
    <path d="M 40.5 143.322353 
L 291.6 143.322353 
" style="fill: none; stroke: #000000; stroke-width: 0.8; stroke-linejoin: miter; stroke-linecap: square"/>
   </g>
  </g>
 </g>
 <defs>
  <clipPath id="p024a03a136">
   <rect x="40.5" y="25.92" width="251.1" height="48.917647"/>
  </clipPath>
  <clipPath id="p59b0e322f1">
   <rect x="40.5" y="84.621176" width="251.1" height="48.917647"/>
  </clipPath>
  <clipPath id="p34079c80ab">
   <rect x="40.5" y="143.322353" width="251.1" height="48.917647"/>
  </clipPath>
 </defs>
</svg>
