<?xml version="1.0" encoding="utf-8" standalone="no"?>
<!DOCTYPE svg PUBLIC "-//W3C//DTD SVG 1.1//EN"
  "http://www.w3.org/Graphics/SVG/1.1/DTD/svg11.dtd">
<svg xmlns:xlink="http://www.w3.org/1999/xlink" width="252pt" height="252pt" viewBox="0 0 252 252" xmlns="http://www.w3.org/2000/svg" version="1.1">
 <metadata>
  <rdf:RDF xmlns:dc="http://purl.org/dc/elements/1.1/" xmlns:cc="http://creativecommons.org/ns#" xmlns:rdf="http://www.w3.org/1999/02/22-rdf-syntax-ns#">
   <cc:Work>
    <dc:type rdf:resource="http://purl.org/dc/dcmitype/StillImage"/>
    <dc:date>1980-01-01T00:00:00+00:00</dc:date>
    <dc:format>image/svg+xml</dc:format>
    <dc:creator>
     <cc:Agent>
      <dc:title>Matplotlib v3.10.1, https://matplotlib.org/</dc:title>
     </cc:Agent>
    </dc:creator>
   </cc:Work>
  </rdf:RDF>
 </metadata>
 <defs>
  <style type="text/css">*{stroke-linejoin: round; stroke-linecap: butt}</style>
 </defs>
 <g id="figure_1">
  <g id="patch_1">
   <path d="M 0 252 
L 252 252 
L 252 0 
L 0 0 
L 0 252 
z
" style="fill: none"/>
  </g>
  <g id="axes_1">
   <g id="patch_2">
    <path d="M 51.2525 206.9725 
L 241.2 206.9725 
L 241.2 10.8 
L 51.2525 10.8 
L 51.2525 206.9725 
z
" style="fill: none"/>
   </g>
   <g id="matplotlib.axis_1">
    <g id="xtick_1">
     <g id="line2d_1">
      <defs>
       <path id="m90a7f717ef" d="M 0 0 
L 0 3.5 
" style="stroke: #000000; stroke-width: 0.8"/>
      </defs>
      <g>
       <use xlink:href="#m90a7f717ef" x="77.154432" y="206.9725" style="stroke: #000000; stroke-width: 0.8"/>
      </g>
     </g>
     <g id="text_1">
      <!-- −0.4 -->
      <g transform="translate(65.013026 221.570937) scale(0.1 -0.1)">
       <defs>
        <path id="DejaVuSans-2212" d="M 678 2272 
L 4684 2272 
L 4684 1741 
L 678 1741 
L 678 2272 
z
" transform="scale(0.015625)"/>
        <path id="DejaVuSans-30" d="M 2034 4250 
Q 1547 4250 1301 3770 
Q 1056 3291 1056 2328 
Q 1056 1369 1301 889 
Q 1547 409 2034 409 
Q 2525 409 2770 889 
Q 3016 1369 3016 2328 
Q 3016 3291 2770 3770 
Q 2525 4250 2034 4250 
z
M 2034 4750 
Q 2819 4750 3233 4129 
Q 3647 3509 3647 2328 
Q 3647 1150 3233 529 
Q 2819 -91 2034 -91 
Q 1250 -91 836 529 
Q 422 1150 422 2328 
Q 422 3509 836 4129 
Q 1250 4750 2034 4750 
z
" transform="scale(0.015625)"/>
        <path id="DejaVuSans-2e" d="M 684 794 
L 1344 794 
L 1344 0 
L 684 0 
L 684 794 
z
" transform="scale(0.015625)"/>
        <path id="DejaVuSans-34" d="M 2419 4116 
L 825 1625 
L 2419 1625 
L 2419 4116 
z
M 2253 4666 
L 3047 4666 
L 3047 1625 
L 3713 1625 
L 3713 1100 
L 3047 1100 
L 3047 0 
L 2419 0 
L 2419 1100 
L 313 1100 
L 313 1709 
L 2253 4666 
z
" transform="scale(0.015625)"/>
       </defs>
       <use xlink:href="#DejaVuSans-2212"/>
       <use xlink:href="#DejaVuSans-30" transform="translate(83.789062 0)"/>
       <use xlink:href="#DejaVuSans-2e" transform="translate(147.412109 0)"/>
       <use xlink:href="#DejaVuSans-34" transform="translate(179.199219 0)"/>
      </g>
     </g>
    </g>
    <g id="xtick_2">
     <g id="line2d_2">
      <g>
       <use xlink:href="#m90a7f717ef" x="111.690341" y="206.9725" style="stroke: #000000; stroke-width: 0.8"/>
      </g>
     </g>
     <g id="text_2">
      <!-- −0.2 -->
      <g transform="translate(99.548935 221.570937) scale(0.1 -0.1)">
       <defs>
        <path id="DejaVuSans-32" d="M 1228 531 
L 3431 531 
L 3431 0 
L 469 0 
L 469 531 
Q 828 903 1448 1529 
Q 2069 2156 2228 2338 
Q 2531 2678 2651 2914 
Q 2772 3150 2772 3378 
Q 2772 3750 2511 3984 
Q 2250 4219 1831 4219 
Q 1534 4219 1204 4116 
Q 875 4013 500 3803 
L 500 4441 
Q 881 4594 1212 4672 
Q 1544 4750 1819 4750 
Q 2544 4750 2975 4387 
Q 3406 4025 3406 3419 
Q 3406 3131 3298 2873 
Q 3191 2616 2906 2266 
Q 2828 2175 2409 1742 
Q 1991 1309 1228 531 
z
" transform="scale(0.015625)"/>
       </defs>
       <use xlink:href="#DejaVuSans-2212"/>
       <use xlink:href="#DejaVuSans-30" transform="translate(83.789062 0)"/>
       <use xlink:href="#DejaVuSans-2e" transform="translate(147.412109 0)"/>
       <use xlink:href="#DejaVuSans-32" transform="translate(179.199219 0)"/>
      </g>
     </g>
    </g>
    <g id="xtick_3">
     <g id="line2d_3">
      <g>
       <use xlink:href="#m90a7f717ef" x="146.22625" y="206.9725" style="stroke: #000000; stroke-width: 0.8"/>
      </g>
     </g>
     <g id="text_3">
      <!-- 0.0 -->
      <g transform="translate(138.274687 221.570937) scale(0.1 -0.1)">
       <use xlink:href="#DejaVuSans-30"/>
       <use xlink:href="#DejaVuSans-2e" transform="translate(63.623047 0)"/>
       <use xlink:href="#DejaVuSans-30" transform="translate(95.410156 0)"/>
      </g>
     </g>
    </g>
    <g id="xtick_4">
     <g id="line2d_4">
      <g>
       <use xlink:href="#m90a7f717ef" x="180.762159" y="206.9725" style="stroke: #000000; stroke-width: 0.8"/>
      </g>
     </g>
     <g id="text_4">
      <!-- 0.2 -->
      <g transform="translate(172.810597 221.570937) scale(0.1 -0.1)">
       <use xlink:href="#DejaVuSans-30"/>
       <use xlink:href="#DejaVuSans-2e" transform="translate(63.623047 0)"/>
       <use xlink:href="#DejaVuSans-32" transform="translate(95.410156 0)"/>
      </g>
     </g>
    </g>
    <g id="xtick_5">
     <g id="line2d_5">
      <g>
       <use xlink:href="#m90a7f717ef" x="215.298068" y="206.9725" style="stroke: #000000; stroke-width: 0.8"/>
      </g>
     </g>
     <g id="text_5">
      <!-- 0.4 -->
      <g transform="translate(207.346506 221.570937) scale(0.1 -0.1)">
       <use xlink:href="#DejaVuSans-30"/>
       <use xlink:href="#DejaVuSans-2e" transform="translate(63.623047 0)"/>
       <use xlink:href="#DejaVuSans-34" transform="translate(95.410156 0)"/>
      </g>
     </g>
    </g>
    <g id="text_6">
     <!-- Time to burst onset (s) -->
     <g transform="translate(66.498437 238.288437) scale(0.14 -0.14)">
      <defs>
       <path id="DejaVuSans-54" d="M -19 4666 
L 3928 4666 
L 3928 4134 
L 2272 4134 
L 2272 0 
L 1638 0 
L 1638 4134 
L -19 4134 
L -19 4666 
z
" transform="scale(0.015625)"/>
       <path id="DejaVuSans-69" d="M 603 3500 
L 1178 3500 
L 1178 0 
L 603 0 
L 603 3500 
z
M 603 4863 
L 1178 4863 
L 1178 4134 
L 603 4134 
L 603 4863 
z
" transform="scale(0.015625)"/>
       <path id="DejaVuSans-6d" d="M 3328 2828 
Q 3544 3216 3844 3400 
Q 4144 3584 4550 3584 
Q 5097 3584 5394 3201 
Q 5691 2819 5691 2113 
L 5691 0 
L 5113 0 
L 5113 2094 
Q 5113 2597 4934 2840 
Q 4756 3084 4391 3084 
Q 3944 3084 3684 2787 
Q 3425 2491 3425 1978 
L 3425 0 
L 2847 0 
L 2847 2094 
Q 2847 2600 2669 2842 
Q 2491 3084 2119 3084 
Q 1678 3084 1418 2786 
Q 1159 2488 1159 1978 
L 1159 0 
L 581 0 
L 581 3500 
L 1159 3500 
L 1159 2956 
Q 1356 3278 1631 3431 
Q 1906 3584 2284 3584 
Q 2666 3584 2933 3390 
Q 3200 3197 3328 2828 
z
" transform="scale(0.015625)"/>
       <path id="DejaVuSans-65" d="M 3597 1894 
L 3597 1613 
L 953 1613 
Q 991 1019 1311 708 
Q 1631 397 2203 397 
Q 2534 397 2845 478 
Q 3156 559 3463 722 
L 3463 178 
Q 3153 47 2828 -22 
Q 2503 -91 2169 -91 
Q 1331 -91 842 396 
Q 353 884 353 1716 
Q 353 2575 817 3079 
Q 1281 3584 2069 3584 
Q 2775 3584 3186 3129 
Q 3597 2675 3597 1894 
z
M 3022 2063 
Q 3016 2534 2758 2815 
Q 2500 3097 2075 3097 
Q 1594 3097 1305 2825 
Q 1016 2553 972 2059 
L 3022 2063 
z
" transform="scale(0.015625)"/>
       <path id="DejaVuSans-20" transform="scale(0.015625)"/>
       <path id="DejaVuSans-74" d="M 1172 4494 
L 1172 3500 
L 2356 3500 
L 2356 3053 
L 1172 3053 
L 1172 1153 
Q 1172 725 1289 603 
Q 1406 481 1766 481 
L 2356 481 
L 2356 0 
L 1766 0 
Q 1100 0 847 248 
Q 594 497 594 1153 
L 594 3053 
L 172 3053 
L 172 3500 
L 594 3500 
L 594 4494 
L 1172 4494 
z
" transform="scale(0.015625)"/>
       <path id="DejaVuSans-6f" d="M 1959 3097 
Q 1497 3097 1228 2736 
Q 959 2375 959 1747 
Q 959 1119 1226 758 
Q 1494 397 1959 397 
Q 2419 397 2687 759 
Q 2956 1122 2956 1747 
Q 2956 2369 2687 2733 
Q 2419 3097 1959 3097 
z
M 1959 3584 
Q 2709 3584 3137 3096 
Q 3566 2609 3566 1747 
Q 3566 888 3137 398 
Q 2709 -91 1959 -91 
Q 1206 -91 779 398 
Q 353 888 353 1747 
Q 353 2609 779 3096 
Q 1206 3584 1959 3584 
z
" transform="scale(0.015625)"/>
       <path id="DejaVuSans-62" d="M 3116 1747 
Q 3116 2381 2855 2742 
Q 2594 3103 2138 3103 
Q 1681 3103 1420 2742 
Q 1159 2381 1159 1747 
Q 1159 1113 1420 752 
Q 1681 391 2138 391 
Q 2594 391 2855 752 
Q 3116 1113 3116 1747 
z
M 1159 2969 
Q 1341 3281 1617 3432 
Q 1894 3584 2278 3584 
Q 2916 3584 3314 3078 
Q 3713 2572 3713 1747 
Q 3713 922 3314 415 
Q 2916 -91 2278 -91 
Q 1894 -91 1617 61 
Q 1341 213 1159 525 
L 1159 0 
L 581 0 
L 581 4863 
L 1159 4863 
L 1159 2969 
z
" transform="scale(0.015625)"/>
       <path id="DejaVuSans-75" d="M 544 1381 
L 544 3500 
L 1119 3500 
L 1119 1403 
Q 1119 906 1312 657 
Q 1506 409 1894 409 
Q 2359 409 2629 706 
Q 2900 1003 2900 1516 
L 2900 3500 
L 3475 3500 
L 3475 0 
L 2900 0 
L 2900 538 
Q 2691 219 2414 64 
Q 2138 -91 1772 -91 
Q 1169 -91 856 284 
Q 544 659 544 1381 
z
M 1991 3584 
L 1991 3584 
z
" transform="scale(0.015625)"/>
       <path id="DejaVuSans-72" d="M 2631 2963 
Q 2534 3019 2420 3045 
Q 2306 3072 2169 3072 
Q 1681 3072 1420 2755 
Q 1159 2438 1159 1844 
L 1159 0 
L 581 0 
L 581 3500 
L 1159 3500 
L 1159 2956 
Q 1341 3275 1631 3429 
Q 1922 3584 2338 3584 
Q 2397 3584 2469 3576 
Q 2541 3569 2628 3553 
L 2631 2963 
z
" transform="scale(0.015625)"/>
       <path id="DejaVuSans-73" d="M 2834 3397 
L 2834 2853 
Q 2591 2978 2328 3040 
Q 2066 3103 1784 3103 
Q 1356 3103 1142 2972 
Q 928 2841 928 2578 
Q 928 2378 1081 2264 
Q 1234 2150 1697 2047 
L 1894 2003 
Q 2506 1872 2764 1633 
Q 3022 1394 3022 966 
Q 3022 478 2636 193 
Q 2250 -91 1575 -91 
Q 1294 -91 989 -36 
Q 684 19 347 128 
L 347 722 
Q 666 556 975 473 
Q 1284 391 1588 391 
Q 1994 391 2212 530 
Q 2431 669 2431 922 
Q 2431 1156 2273 1281 
Q 2116 1406 1581 1522 
L 1381 1569 
Q 847 1681 609 1914 
Q 372 2147 372 2553 
Q 372 3047 722 3315 
Q 1072 3584 1716 3584 
Q 2034 3584 2315 3537 
Q 2597 3491 2834 3397 
z
" transform="scale(0.015625)"/>
       <path id="DejaVuSans-6e" d="M 3513 2113 
L 3513 0 
L 2938 0 
L 2938 2094 
Q 2938 2591 2744 2837 
Q 2550 3084 2163 3084 
Q 1697 3084 1428 2787 
Q 1159 2491 1159 1978 
L 1159 0 
L 581 0 
L 581 3500 
L 1159 3500 
L 1159 2956 
Q 1366 3272 1645 3428 
Q 1925 3584 2291 3584 
Q 2894 3584 3203 3211 
Q 3513 2838 3513 2113 
z
" transform="scale(0.015625)"/>
       <path id="DejaVuSans-28" d="M 1984 4856 
Q 1566 4138 1362 3434 
Q 1159 2731 1159 2009 
Q 1159 1288 1364 580 
Q 1569 -128 1984 -844 
L 1484 -844 
Q 1016 -109 783 600 
Q 550 1309 550 2009 
Q 550 2706 781 3412 
Q 1013 4119 1484 4856 
L 1984 4856 
z
" transform="scale(0.015625)"/>
       <path id="DejaVuSans-29" d="M 513 4856 
L 1013 4856 
Q 1481 4119 1714 3412 
Q 1947 2706 1947 2009 
Q 1947 1309 1714 600 
Q 1481 -109 1013 -844 
L 513 -844 
Q 928 -128 1133 580 
Q 1338 1288 1338 2009 
Q 1338 2731 1133 3434 
Q 928 4138 513 4856 
z
" transform="scale(0.015625)"/>
      </defs>
      <use xlink:href="#DejaVuSans-54"/>
      <use xlink:href="#DejaVuSans-69" transform="translate(57.958984 0)"/>
      <use xlink:href="#DejaVuSans-6d" transform="translate(85.742188 0)"/>
      <use xlink:href="#DejaVuSans-65" transform="translate(183.154297 0)"/>
      <use xlink:href="#DejaVuSans-20" transform="translate(244.677734 0)"/>
      <use xlink:href="#DejaVuSans-74" transform="translate(276.464844 0)"/>
      <use xlink:href="#DejaVuSans-6f" transform="translate(315.673828 0)"/>
      <use xlink:href="#DejaVuSans-20" transform="translate(376.855469 0)"/>
      <use xlink:href="#DejaVuSans-62" transform="translate(408.642578 0)"/>
      <use xlink:href="#DejaVuSans-75" transform="translate(472.119141 0)"/>
      <use xlink:href="#DejaVuSans-72" transform="translate(535.498047 0)"/>
      <use xlink:href="#DejaVuSans-73" transform="translate(576.611328 0)"/>
      <use xlink:href="#DejaVuSans-74" transform="translate(628.710938 0)"/>
      <use xlink:href="#DejaVuSans-20" transform="translate(667.919922 0)"/>
      <use xlink:href="#DejaVuSans-6f" transform="translate(699.707031 0)"/>
      <use xlink:href="#DejaVuSans-6e" transform="translate(760.888672 0)"/>
      <use xlink:href="#DejaVuSans-73" transform="translate(824.267578 0)"/>
      <use xlink:href="#DejaVuSans-65" transform="translate(876.367188 0)"/>
      <use xlink:href="#DejaVuSans-74" transform="translate(937.890625 0)"/>
      <use xlink:href="#DejaVuSans-20" transform="translate(977.099609 0)"/>
      <use xlink:href="#DejaVuSans-28" transform="translate(1008.886719 0)"/>
      <use xlink:href="#DejaVuSans-73" transform="translate(1047.900391 0)"/>
      <use xlink:href="#DejaVuSans-29" transform="translate(1100 0)"/>
     </g>
    </g>
   </g>
   <g id="matplotlib.axis_2">
    <g id="ytick_1">
     <g id="line2d_6">
      <defs>
       <path id="mf95971c790" d="M 0 0 
L -3.5 0 
" style="stroke: #000000; stroke-width: 0.8"/>
      </defs>
      <g>
       <use xlink:href="#mf95971c790" x="51.2525" y="170.959979" style="stroke: #000000; stroke-width: 0.8"/>
      </g>
     </g>
     <g id="text_7">
      <!-- 0.4 -->
      <g transform="translate(28.349375 174.759197) scale(0.1 -0.1)">
       <use xlink:href="#DejaVuSans-30"/>
       <use xlink:href="#DejaVuSans-2e" transform="translate(63.623047 0)"/>
       <use xlink:href="#DejaVuSans-34" transform="translate(95.410156 0)"/>
      </g>
     </g>
    </g>
    <g id="ytick_2">
     <g id="line2d_7">
      <g>
       <use xlink:href="#mf95971c790" x="51.2525" y="133.286817" style="stroke: #000000; stroke-width: 0.8"/>
      </g>
     </g>
     <g id="text_8">
      <!-- 0.5 -->
      <g transform="translate(28.349375 137.086036) scale(0.1 -0.1)">
       <defs>
        <path id="DejaVuSans-35" d="M 691 4666 
L 3169 4666 
L 3169 4134 
L 1269 4134 
L 1269 2991 
Q 1406 3038 1543 3061 
Q 1681 3084 1819 3084 
Q 2600 3084 3056 2656 
Q 3513 2228 3513 1497 
Q 3513 744 3044 326 
Q 2575 -91 1722 -91 
Q 1428 -91 1123 -41 
Q 819 9 494 109 
L 494 744 
Q 775 591 1075 516 
Q 1375 441 1709 441 
Q 2250 441 2565 725 
Q 2881 1009 2881 1497 
Q 2881 1984 2565 2268 
Q 2250 2553 1709 2553 
Q 1456 2553 1204 2497 
Q 953 2441 691 2322 
L 691 4666 
z
" transform="scale(0.015625)"/>
       </defs>
       <use xlink:href="#DejaVuSans-30"/>
       <use xlink:href="#DejaVuSans-2e" transform="translate(63.623047 0)"/>
       <use xlink:href="#DejaVuSans-35" transform="translate(95.410156 0)"/>
      </g>
     </g>
    </g>
    <g id="ytick_3">
     <g id="line2d_8">
      <g>
       <use xlink:href="#mf95971c790" x="51.2525" y="95.613656" style="stroke: #000000; stroke-width: 0.8"/>
      </g>
     </g>
     <g id="text_9">
      <!-- 0.6 -->
      <g transform="translate(28.349375 99.412874) scale(0.1 -0.1)">
       <defs>
        <path id="DejaVuSans-36" d="M 2113 2584 
Q 1688 2584 1439 2293 
Q 1191 2003 1191 1497 
Q 1191 994 1439 701 
Q 1688 409 2113 409 
Q 2538 409 2786 701 
Q 3034 994 3034 1497 
Q 3034 2003 2786 2293 
Q 2538 2584 2113 2584 
z
M 3366 4563 
L 3366 3988 
Q 3128 4100 2886 4159 
Q 2644 4219 2406 4219 
Q 1781 4219 1451 3797 
Q 1122 3375 1075 2522 
Q 1259 2794 1537 2939 
Q 1816 3084 2150 3084 
Q 2853 3084 3261 2657 
Q 3669 2231 3669 1497 
Q 3669 778 3244 343 
Q 2819 -91 2113 -91 
Q 1303 -91 875 529 
Q 447 1150 447 2328 
Q 447 3434 972 4092 
Q 1497 4750 2381 4750 
Q 2619 4750 2861 4703 
Q 3103 4656 3366 4563 
z
" transform="scale(0.015625)"/>
       </defs>
       <use xlink:href="#DejaVuSans-30"/>
       <use xlink:href="#DejaVuSans-2e" transform="translate(63.623047 0)"/>
       <use xlink:href="#DejaVuSans-36" transform="translate(95.410156 0)"/>
      </g>
     </g>
    </g>
    <g id="ytick_4">
     <g id="line2d_9">
      <g>
       <use xlink:href="#mf95971c790" x="51.2525" y="57.940494" style="stroke: #000000; stroke-width: 0.8"/>
      </g>
     </g>
     <g id="text_10">
      <!-- 0.7 -->
      <g transform="translate(28.349375 61.739713) scale(0.1 -0.1)">
       <defs>
        <path id="DejaVuSans-37" d="M 525 4666 
L 3525 4666 
L 3525 4397 
L 1831 0 
L 1172 0 
L 2766 4134 
L 525 4134 
L 525 4666 
z
" transform="scale(0.015625)"/>
       </defs>
       <use xlink:href="#DejaVuSans-30"/>
       <use xlink:href="#DejaVuSans-2e" transform="translate(63.623047 0)"/>
       <use xlink:href="#DejaVuSans-37" transform="translate(95.410156 0)"/>
      </g>
     </g>
    </g>
    <g id="ytick_5">
     <g id="line2d_10">
      <g>
       <use xlink:href="#mf95971c790" x="51.2525" y="20.267332" style="stroke: #000000; stroke-width: 0.8"/>
      </g>
     </g>
     <g id="text_11">
      <!-- 0.8 -->
      <g transform="translate(28.349375 24.066551) scale(0.1 -0.1)">
       <defs>
        <path id="DejaVuSans-38" d="M 2034 2216 
Q 1584 2216 1326 1975 
Q 1069 1734 1069 1313 
Q 1069 891 1326 650 
Q 1584 409 2034 409 
Q 2484 409 2743 651 
Q 3003 894 3003 1313 
Q 3003 1734 2745 1975 
Q 2488 2216 2034 2216 
z
M 1403 2484 
Q 997 2584 770 2862 
Q 544 3141 544 3541 
Q 544 4100 942 4425 
Q 1341 4750 2034 4750 
Q 2731 4750 3128 4425 
Q 3525 4100 3525 3541 
Q 3525 3141 3298 2862 
Q 3072 2584 2669 2484 
Q 3125 2378 3379 2068 
Q 3634 1759 3634 1313 
Q 3634 634 3220 271 
Q 2806 -91 2034 -91 
Q 1263 -91 848 271 
Q 434 634 434 1313 
Q 434 1759 690 2068 
Q 947 2378 1403 2484 
z
M 1172 3481 
Q 1172 3119 1398 2916 
Q 1625 2713 2034 2713 
Q 2441 2713 2670 2916 
Q 2900 3119 2900 3481 
Q 2900 3844 2670 4047 
Q 2441 4250 2034 4250 
Q 1625 4250 1398 4047 
Q 1172 3844 1172 3481 
z
" transform="scale(0.015625)"/>
       </defs>
       <use xlink:href="#DejaVuSans-30"/>
       <use xlink:href="#DejaVuSans-2e" transform="translate(63.623047 0)"/>
       <use xlink:href="#DejaVuSans-38" transform="translate(95.410156 0)"/>
      </g>
     </g>
    </g>
    <g id="text_12">
     <!-- Normalised envelope (a.u.) -->
     <g transform="translate(21.437812 203.816094) rotate(-90) scale(0.14 -0.14)">
      <defs>
       <path id="DejaVuSans-4e" d="M 628 4666 
L 1478 4666 
L 3547 763 
L 3547 4666 
L 4159 4666 
L 4159 0 
L 3309 0 
L 1241 3903 
L 1241 0 
L 628 0 
L 628 4666 
z
" transform="scale(0.015625)"/>
       <path id="DejaVuSans-61" d="M 2194 1759 
Q 1497 1759 1228 1600 
Q 959 1441 959 1056 
Q 959 750 1161 570 
Q 1363 391 1709 391 
Q 2188 391 2477 730 
Q 2766 1069 2766 1631 
L 2766 1759 
L 2194 1759 
z
M 3341 1997 
L 3341 0 
L 2766 0 
L 2766 531 
Q 2569 213 2275 61 
Q 1981 -91 1556 -91 
Q 1019 -91 701 211 
Q 384 513 384 1019 
Q 384 1609 779 1909 
Q 1175 2209 1959 2209 
L 2766 2209 
L 2766 2266 
Q 2766 2663 2505 2880 
Q 2244 3097 1772 3097 
Q 1472 3097 1187 3025 
Q 903 2953 641 2809 
L 641 3341 
Q 956 3463 1253 3523 
Q 1550 3584 1831 3584 
Q 2591 3584 2966 3190 
Q 3341 2797 3341 1997 
z
" transform="scale(0.015625)"/>
       <path id="DejaVuSans-6c" d="M 603 4863 
L 1178 4863 
L 1178 0 
L 603 0 
L 603 4863 
z
" transform="scale(0.015625)"/>
       <path id="DejaVuSans-64" d="M 2906 2969 
L 2906 4863 
L 3481 4863 
L 3481 0 
L 2906 0 
L 2906 525 
Q 2725 213 2448 61 
Q 2172 -91 1784 -91 
Q 1150 -91 751 415 
Q 353 922 353 1747 
Q 353 2572 751 3078 
Q 1150 3584 1784 3584 
Q 2172 3584 2448 3432 
Q 2725 3281 2906 2969 
z
M 947 1747 
Q 947 1113 1208 752 
Q 1469 391 1925 391 
Q 2381 391 2643 752 
Q 2906 1113 2906 1747 
Q 2906 2381 2643 2742 
Q 2381 3103 1925 3103 
Q 1469 3103 1208 2742 
Q 947 2381 947 1747 
z
" transform="scale(0.015625)"/>
       <path id="DejaVuSans-76" d="M 191 3500 
L 800 3500 
L 1894 563 
L 2988 3500 
L 3597 3500 
L 2284 0 
L 1503 0 
L 191 3500 
z
" transform="scale(0.015625)"/>
       <path id="DejaVuSans-70" d="M 1159 525 
L 1159 -1331 
L 581 -1331 
L 581 3500 
L 1159 3500 
L 1159 2969 
Q 1341 3281 1617 3432 
Q 1894 3584 2278 3584 
Q 2916 3584 3314 3078 
Q 3713 2572 3713 1747 
Q 3713 922 3314 415 
Q 2916 -91 2278 -91 
Q 1894 -91 1617 61 
Q 1341 213 1159 525 
z
M 3116 1747 
Q 3116 2381 2855 2742 
Q 2594 3103 2138 3103 
Q 1681 3103 1420 2742 
Q 1159 2381 1159 1747 
Q 1159 1113 1420 752 
Q 1681 391 2138 391 
Q 2594 391 2855 752 
Q 3116 1113 3116 1747 
z
" transform="scale(0.015625)"/>
      </defs>
      <use xlink:href="#DejaVuSans-4e"/>
      <use xlink:href="#DejaVuSans-6f" transform="translate(74.804688 0)"/>
      <use xlink:href="#DejaVuSans-72" transform="translate(135.986328 0)"/>
      <use xlink:href="#DejaVuSans-6d" transform="translate(175.349609 0)"/>
      <use xlink:href="#DejaVuSans-61" transform="translate(272.761719 0)"/>
      <use xlink:href="#DejaVuSans-6c" transform="translate(334.041016 0)"/>
      <use xlink:href="#DejaVuSans-69" transform="translate(361.824219 0)"/>
      <use xlink:href="#DejaVuSans-73" transform="translate(389.607422 0)"/>
      <use xlink:href="#DejaVuSans-65" transform="translate(441.707031 0)"/>
      <use xlink:href="#DejaVuSans-64" transform="translate(503.230469 0)"/>
      <use xlink:href="#DejaVuSans-20" transform="translate(566.707031 0)"/>
      <use xlink:href="#DejaVuSans-65" transform="translate(598.494141 0)"/>
      <use xlink:href="#DejaVuSans-6e" transform="translate(660.017578 0)"/>
      <use xlink:href="#DejaVuSans-76" transform="translate(723.396484 0)"/>
      <use xlink:href="#DejaVuSans-65" transform="translate(782.576172 0)"/>
      <use xlink:href="#DejaVuSans-6c" transform="translate(844.099609 0)"/>
      <use xlink:href="#DejaVuSans-6f" transform="translate(871.882812 0)"/>
      <use xlink:href="#DejaVuSans-70" transform="translate(933.064453 0)"/>
      <use xlink:href="#DejaVuSans-65" transform="translate(996.541016 0)"/>
      <use xlink:href="#DejaVuSans-20" transform="translate(1058.064453 0)"/>
      <use xlink:href="#DejaVuSans-28" transform="translate(1089.851562 0)"/>
      <use xlink:href="#DejaVuSans-61" transform="translate(1128.865234 0)"/>
      <use xlink:href="#DejaVuSans-2e" transform="translate(1190.144531 0)"/>
      <use xlink:href="#DejaVuSans-75" transform="translate(1221.931641 0)"/>
      <use xlink:href="#DejaVuSans-2e" transform="translate(1285.310547 0)"/>
      <use xlink:href="#DejaVuSans-29" transform="translate(1317.097656 0)"/>
     </g>
    </g>
   </g>
   <g id="line2d_11">
    <path d="M 59.886477 161.674723 
L 60.894615 162.363358 
L 61.614713 162.611247 
L 62.478831 162.695394 
L 64.207066 162.649576 
L 67.663538 161.759848 
L 68.815695 161.488318 
L 69.679813 161.49694 
L 70.54393 161.727156 
L 71.552068 162.265965 
L 73.424323 163.620017 
L 75.296578 165.05138 
L 77.456873 166.145994 
L 78.60903 166.480423 
L 79.473148 166.535396 
L 80.337266 166.375755 
L 81.633443 165.859916 
L 82.929619 165.100702 
L 84.657855 164.012264 
L 86.242071 163.372409 
L 88.258346 162.945796 
L 89.986582 162.667425 
L 91.570798 162.734397 
L 92.722955 163.077559 
L 93.731092 163.631124 
L 94.883249 164.53478 
L 98.195701 167.378621 
L 99.491878 168.178071 
L 100.067956 168.347119 
L 101.076094 168.382938 
L 102.51629 168.210828 
L 104.388545 167.777578 
L 105.396683 167.655147 
L 106.260801 167.760166 
L 107.268938 168.131453 
L 108.853154 168.930582 
L 110.43737 170.104035 
L 112.021586 171.264336 
L 115.190018 172.923924 
L 116.486195 173.363418 
L 117.926391 173.671989 
L 118.646489 173.585125 
L 119.366588 173.182689 
L 120.230705 172.362889 
L 121.382863 170.963032 
L 123.111098 168.386943 
L 125.415412 164.627448 
L 126.135511 163.86306 
L 126.855609 163.402148 
L 127.575707 163.208321 
L 128.007766 163.298341 
L 128.583844 163.652137 
L 129.159923 164.301844 
L 129.736001 165.309193 
L 130.4561 167.098181 
L 131.320218 170.016172 
L 132.328355 174.393835 
L 133.624532 181.235556 
L 135.928846 193.753415 
L 136.504924 195.902032 
L 137.081003 197.332353 
L 137.513062 197.925121 
L 137.801101 198.055568 
L 138.08914 197.953066 
L 138.37718 197.597607 
L 138.809239 196.511146 
L 139.241298 194.771825 
L 139.817376 191.331663 
L 140.393455 186.481726 
L 141.257573 176.980734 
L 142.26571 163.223219 
L 143.705906 140.397229 
L 148.170515 67.039072 
L 149.466692 50.443161 
L 150.474829 40.194414 
L 151.338947 33.501142 
L 152.059045 29.488026 
L 152.635124 27.328915 
L 153.067183 26.327274 
L 153.499242 25.853296 
L 153.787281 25.827931 
L 154.07532 26.032297 
L 154.507379 26.762552 
L 154.939438 27.989095 
L 155.515517 30.366831 
L 156.235615 34.460098 
L 157.099733 40.849556 
L 158.25189 51.416676 
L 159.836106 68.42307 
L 163.148557 104.772988 
L 164.300715 114.631286 
L 165.308852 121.560113 
L 166.316989 126.943974 
L 167.325127 131.257071 
L 168.333264 134.621527 
L 169.197382 136.811214 
L 170.0615 138.383435 
L 170.781598 139.264086 
L 171.501696 139.735488 
L 172.365814 140.035156 
L 174.382089 140.39517 
L 175.678266 141.015341 
L 176.974443 141.910032 
L 177.83856 142.837231 
L 178.846698 144.313671 
L 180.142875 146.663746 
L 183.743366 154.010683 
L 186.911798 160.16877 
L 188.784053 163.256115 
L 192.528563 168.837926 
L 193.96876 170.713755 
L 195.841015 172.660453 
L 197.137192 173.695967 
L 198.00131 174.155425 
L 199.009447 174.440271 
L 200.017585 174.480306 
L 200.593663 174.350278 
L 201.169742 173.977284 
L 202.177879 173.013945 
L 204.050134 170.880042 
L 207.074547 167.451945 
L 208.226704 166.518371 
L 210.963077 164.675483 
L 211.971215 164.316391 
L 212.979352 164.188208 
L 214.275529 164.279114 
L 215.283666 164.563053 
L 217.011902 165.388374 
L 218.452098 166.425844 
L 219.892295 167.457064 
L 220.900432 167.825829 
L 222.484648 168.16547 
L 223.636805 168.178759 
L 225.50906 167.938064 
L 229.109551 167.344456 
L 230.837787 166.906592 
L 232.566023 166.796768 
L 232.566023 166.796768 
" clip-path="url(#pbd2dea5c55)" style="fill: none; stroke: #5e3c99; stroke-width: 3; stroke-linecap: square"/>
   </g>
   <g id="line2d_12">
    <path d="M 59.886477 120.411124 
L 61.182654 123.791728 
L 63.342949 128.615894 
L 64.351086 130.413063 
L 65.647263 132.007957 
L 68.671675 135.203807 
L 70.975989 138.200653 
L 75.584618 143.99674 
L 78.176971 146.985919 
L 84.369816 152.444114 
L 86.098051 153.382545 
L 87.394228 153.752065 
L 88.402366 153.817655 
L 89.554523 153.661342 
L 90.41864 153.323633 
L 93.443053 151.845565 
L 94.163151 151.832248 
L 94.883249 152.045728 
L 95.603347 152.493595 
L 96.611485 153.446183 
L 97.907662 154.949335 
L 99.347858 156.921542 
L 102.66031 161.731804 
L 103.524427 162.394037 
L 104.244526 162.661488 
L 104.964624 162.69213 
L 105.828742 162.480164 
L 106.836879 161.905004 
L 108.853154 160.471556 
L 112.741684 157.606613 
L 115.910116 155.809665 
L 117.206293 155.382248 
L 119.078548 154.836566 
L 120.230705 154.197192 
L 120.950804 153.635824 
L 122.391 152.478986 
L 123.399137 151.900536 
L 124.407275 151.605514 
L 125.271393 151.633499 
L 125.991491 151.955138 
L 126.567569 152.423178 
L 127.143648 153.157104 
L 127.863746 154.437868 
L 128.871884 156.744878 
L 129.736001 159.225834 
L 130.744139 162.836467 
L 131.896296 167.923083 
L 134.776689 181.234685 
L 135.640807 184.339976 
L 136.216885 185.688309 
L 136.648944 186.276124 
L 136.936983 186.451038 
L 137.225023 186.418311 
L 137.513062 186.191289 
L 137.945121 185.44591 
L 138.37718 184.131605 
L 138.953258 181.367831 
L 139.529337 177.374715 
L 140.249435 170.63709 
L 141.113553 160.255629 
L 142.40973 141.464644 
L 145.002083 99.503665 
L 147.018358 68.352465 
L 148.458554 49.454538 
L 149.610711 37.253128 
L 150.474829 30.087883 
L 151.338947 24.758066 
L 152.059045 21.765898 
L 152.635124 20.328905 
L 153.067183 19.805419 
L 153.355222 19.716932 
L 153.643261 19.833697 
L 154.07532 20.386137 
L 154.507379 21.378613 
L 155.083458 23.356537 
L 155.803556 26.810326 
L 156.667674 32.235498 
L 157.819831 41.221268 
L 159.404047 55.638041 
L 161.852381 77.905027 
L 163.292577 89.190952 
L 164.444734 96.69571 
L 166.02895 105.736089 
L 167.325127 111.878758 
L 168.621304 116.830335 
L 169.91748 120.904934 
L 171.213657 124.304646 
L 172.365814 126.640317 
L 174.670128 130.576869 
L 179.278757 138.544188 
L 181.583071 142.646009 
L 183.023267 144.592222 
L 187.343857 149.859193 
L 189.072092 151.530016 
L 190.512289 152.637308 
L 191.952485 153.360033 
L 193.104642 153.788234 
L 196.561113 154.326477 
L 198.00131 154.220241 
L 199.297486 154.213201 
L 200.737683 154.401596 
L 201.74582 154.72309 
L 202.753958 155.299612 
L 203.906115 155.939399 
L 204.914252 156.226242 
L 206.066409 156.544758 
L 207.506606 157.256212 
L 208.514743 158.001523 
L 209.522881 158.708717 
L 210.386999 159.048226 
L 211.827195 159.348696 
L 213.69945 159.476245 
L 215.139647 159.318228 
L 216.147784 159.018038 
L 219.892295 157.560843 
L 220.756412 157.016962 
L 222.628668 155.652939 
L 223.636805 155.27 
L 225.941119 154.544926 
L 227.381316 153.845928 
L 228.533473 153.409475 
L 230.261709 152.993768 
L 232.277983 152.577264 
L 232.566023 152.577418 
L 232.566023 152.577418 
" clip-path="url(#pbd2dea5c55)" style="fill: none; stroke: #3d9970; stroke-width: 3; stroke-linecap: square"/>
   </g>
   <g id="patch_3">
    <path d="M 51.2525 206.9725 
L 51.2525 10.8 
" style="fill: none; stroke: #000000; stroke-width: 0.8; stroke-linejoin: miter; stroke-linecap: square"/>
   </g>
   <g id="patch_4">
    <path d="M 241.2 206.9725 
L 241.2 10.8 
" style="fill: none; stroke: #000000; stroke-width: 0.8; stroke-linejoin: miter; stroke-linecap: square"/>
   </g>
   <g id="patch_5">
    <path d="M 51.2525 206.9725 
L 241.2 206.9725 
" style="fill: none; stroke: #000000; stroke-width: 0.8; stroke-linejoin: miter; stroke-linecap: square"/>
   </g>
   <g id="patch_6">
    <path d="M 51.2525 10.8 
L 241.2 10.8 
" style="fill: none; stroke: #000000; stroke-width: 0.8; stroke-linejoin: miter; stroke-linecap: square"/>
   </g>
  </g>
 </g>
 <defs>
  <clipPath id="pbd2dea5c55">
   <rect x="51.2525" y="10.8" width="189.9475" height="196.1725"/>
  </clipPath>
 </defs>
</svg>
