<?xml version="1.0" encoding="utf-8" standalone="no"?>
<!DOCTYPE svg PUBLIC "-//W3C//DTD SVG 1.1//EN"
  "http://www.w3.org/Graphics/SVG/1.1/DTD/svg11.dtd">
<svg xmlns:xlink="http://www.w3.org/1999/xlink" width="288pt" height="288pt" viewBox="0 0 288 288" xmlns="http://www.w3.org/2000/svg" version="1.1">
 <metadata>
  <rdf:RDF xmlns:dc="http://purl.org/dc/elements/1.1/" xmlns:cc="http://creativecommons.org/ns#" xmlns:rdf="http://www.w3.org/1999/02/22-rdf-syntax-ns#">
   <cc:Work>
    <dc:type rdf:resource="http://purl.org/dc/dcmitype/StillImage"/>
    <dc:date>1980-01-01T00:00:00+00:00</dc:date>
    <dc:format>image/svg+xml</dc:format>
    <dc:creator>
     <cc:Agent>
      <dc:title>Matplotlib v3.10.1, https://matplotlib.org/</dc:title>
     </cc:Agent>
    </dc:creator>
   </cc:Work>
  </rdf:RDF>
 </metadata>
 <defs>
  <style type="text/css">*{stroke-linejoin: round; stroke-linecap: butt}</style>
 </defs>
 <g id="figure_1">
  <g id="patch_1">
   <path d="M 0 288 
L 288 288 
L 288 0 
L 0 0 
L 0 288 
z
" style="fill: none"/>
  </g>
  <g id="axes_1">
   <g id="patch_2">
    <path d="M 251.391719 152.318906 
C 251.391719 138.717664 248.712571 125.248678 243.507601 112.682769 
C 238.302631 100.11686 230.673063 88.698404 221.055532 79.080874 
C 211.438002 69.463344 200.019546 61.833775 187.453638 56.628805 
C 174.887729 51.423836 161.418742 48.744687 147.8175 48.744687 
C 134.216258 48.744687 120.747271 51.423836 108.181362 56.628805 
C 95.615454 61.833775 84.196998 69.463344 74.579468 79.080874 
C 64.961937 88.698404 57.332369 100.11686 52.127399 112.682769 
C 46.922429 125.248678 44.243281 138.717664 44.243281 152.318906 
C 44.243281 165.920148 46.922429 179.389135 52.127399 191.955044 
C 57.332369 204.520953 64.961937 215.939408 74.579468 225.556939 
C 84.196998 235.174469 95.615454 242.804037 108.181362 248.009007 
C 120.747271 253.213977 134.216258 255.893125 147.8175 255.893125 
C 161.418742 255.893125 174.887729 253.213977 187.453638 248.009007 
C 200.019546 242.804037 211.438002 235.174469 221.055532 225.556939 
C 230.673063 215.939408 238.302631 204.520953 243.507601 191.955044 
C 248.712571 179.389135 251.391719 165.920148 251.391719 152.318906 
M 147.8175 152.318906 
C 147.8175 152.318906 147.8175 152.318906 147.8175 152.318906 
C 147.8175 152.318906 147.8175 152.318906 147.8175 152.318906 
C 147.8175 152.318906 147.8175 152.318906 147.8175 152.318906 
C 147.8175 152.318906 147.8175 152.318906 147.8175 152.318906 
C 147.8175 152.318906 147.8175 152.318906 147.8175 152.318906 
C 147.8175 152.318906 147.8175 152.318906 147.8175 152.318906 
C 147.8175 152.318906 147.8175 152.318906 147.8175 152.318906 
C 147.8175 152.318906 147.8175 152.318906 147.8175 152.318906 
C 147.8175 152.318906 147.8175 152.318906 147.8175 152.318906 
C 147.8175 152.318906 147.8175 152.318906 147.8175 152.318906 
C 147.8175 152.318906 147.8175 152.318906 147.8175 152.318906 
C 147.8175 152.318906 147.8175 152.318906 147.8175 152.318906 
C 147.8175 152.318906 147.8175 152.318906 147.8175 152.318906 
C 147.8175 152.318906 147.8175 152.318906 147.8175 152.318906 
C 147.8175 152.318906 147.8175 152.318906 147.8175 152.318906 
C 147.8175 152.318906 147.8175 152.318906 147.8175 152.318906 
L 147.8175 152.318906 
z
" style="fill: none"/>
   </g>
   <g id="patch_3">
    <path d="M 147.8175 152.318906 
C 147.8175 152.318906 147.8175 152.318906 147.8175 152.318906 
C 147.8175 152.318906 147.8175 152.318906 147.8175 152.318906 
L 102.601656 155.16541 
C 102.571847 154.691909 102.549478 154.217969 102.534557 153.743765 
C 102.519636 153.269561 102.512164 152.795152 102.512145 152.320713 
z
" clip-path="url(#p9e84886b51)" style="fill: #5e3c99; opacity: 0.4"/>
   </g>
   <g id="patch_4">
    <path d="M 147.8175 152.318906 
C 147.8175 152.318906 147.8175 152.318906 147.8175 152.318906 
C 147.8175 152.318906 147.8175 152.318906 147.8175 152.318906 
L 105.048898 157.723481 
C 104.992301 157.275607 104.942743 156.826872 104.900242 156.377442 
C 104.857741 155.928012 104.822302 155.477941 104.793939 155.027398 
z
" clip-path="url(#p9e84886b51)" style="fill: #5e3c99; opacity: 0.4"/>
   </g>
   <g id="patch_5">
    <path d="M 147.8175 152.318906 
C 147.8175 152.318906 147.8175 152.318906 147.8175 152.318906 
C 147.8175 152.318906 147.8175 152.318906 147.8175 152.318906 
L 116.800564 158.236886 
C 116.738591 157.912076 116.681724 157.586313 116.629984 157.259717 
C 116.578243 156.93312 116.531637 156.605732 116.49018 156.277671 
z
" clip-path="url(#p9e84886b51)" style="fill: #5e3c99; opacity: 0.4"/>
   </g>
   <g id="patch_6">
    <path d="M 147.8175 152.318906 
C 147.8175 152.318906 147.8175 152.318906 147.8175 152.318906 
C 147.8175 152.318906 147.8175 152.318906 147.8175 152.318906 
L 124.480467 158.311728 
C 124.41771 158.067342 124.358796 157.821986 124.303746 157.575749 
C 124.248696 157.329513 124.197518 157.082427 124.15023 156.834582 
z
" clip-path="url(#p9e84886b51)" style="fill: #5e3c99; opacity: 0.4"/>
   </g>
   <g id="patch_7">
    <path d="M 147.8175 152.318906 
C 147.8175 152.318906 147.8175 152.318906 147.8175 152.318906 
C 147.8175 152.318906 147.8175 152.318906 147.8175 152.318906 
L 122.944281 160.401661 
C 122.859638 160.141188 122.779092 159.879402 122.702673 159.616399 
C 122.626253 159.353396 122.55397 159.089209 122.485849 158.823935 
z
" clip-path="url(#p9e84886b51)" style="fill: #5e3c99; opacity: 0.4"/>
   </g>
   <g id="patch_8">
    <path d="M 147.8175 152.318906 
C 147.8175 152.318906 147.8175 152.318906 147.8175 152.318906 
C 147.8175 152.318906 147.8175 152.318906 147.8175 152.318906 
L 120.501184 163.135267 
C 120.387915 162.84921 120.279146 162.561391 120.174918 162.271917 
C 120.07069 161.982444 119.971015 161.691351 119.875931 161.398746 
z
" clip-path="url(#p9e84886b51)" style="fill: #5e3c99; opacity: 0.4"/>
   </g>
   <g id="patch_9">
    <path d="M 147.8175 152.318906 
C 147.8175 152.318906 147.8175 152.318906 147.8175 152.318906 
C 147.8175 152.318906 147.8175 152.318906 147.8175 152.318906 
L 117.507613 166.582867 
C 117.358241 166.265461 117.213863 165.945729 117.074534 165.623788 
C 116.935205 165.301847 116.800942 164.977737 116.671794 164.651579 
z
" clip-path="url(#p9e84886b51)" style="fill: #5e3c99; opacity: 0.4"/>
   </g>
   <g id="patch_10">
    <path d="M 147.8175 152.318906 
C 147.8175 152.318906 147.8175 152.318906 147.8175 152.318906 
C 147.8175 152.318906 147.8175 152.318906 147.8175 152.318906 
L 111.906418 172.062672 
C 111.699661 171.686611 111.498824 171.307324 111.303981 170.924954 
C 111.109138 170.542584 110.920314 170.157177 110.737577 169.768875 
z
" clip-path="url(#p9e84886b51)" style="fill: #5e3c99; opacity: 0.4"/>
   </g>
   <g id="patch_11">
    <path d="M 147.8175 152.318906 
C 147.8175 152.318906 147.8175 152.318906 147.8175 152.318906 
C 147.8175 152.318906 147.8175 152.318906 147.8175 152.318906 
L 121.041218 169.312803 
C 120.863257 169.032401 120.689712 168.749222 120.520647 168.463368 
C 120.351582 168.177515 120.187018 167.889024 120.027015 167.598001 
z
" clip-path="url(#p9e84886b51)" style="fill: #5e3c99; opacity: 0.4"/>
   </g>
   <g id="patch_12">
    <path d="M 147.8175 152.318906 
C 147.8175 152.318906 147.8175 152.318906 147.8175 152.318906 
C 147.8175 152.318906 147.8175 152.318906 147.8175 152.318906 
L 130.102361 165.190511 
C 129.967569 165.004997 129.835699 164.817378 129.706801 164.627722 
C 129.577903 164.438067 129.451992 164.246398 129.329115 164.052787 
z
" clip-path="url(#p9e84886b51)" style="fill: #5e3c99; opacity: 0.4"/>
   </g>
   <g id="patch_13">
    <path d="M 147.8175 152.318906 
C 147.8175 152.318906 147.8175 152.318906 147.8175 152.318906 
C 147.8175 152.318906 147.8175 152.318906 147.8175 152.318906 
L 131.315749 165.971137 
C 131.172783 165.79833 131.03254 165.623288 130.895072 165.446076 
C 130.757604 165.268864 130.622928 165.089504 130.491094 164.908062 
z
" clip-path="url(#p9e84886b51)" style="fill: #5e3c99; opacity: 0.4"/>
   </g>
   <g id="patch_14">
    <path d="M 147.8175 152.318906 
C 147.8175 152.318906 147.8175 152.318906 147.8175 152.318906 
C 147.8175 152.318906 147.8175 152.318906 147.8175 152.318906 
L 134.557331 164.771722 
C 134.426925 164.632861 134.298708 164.491961 134.172728 164.349072 
C 134.046748 164.206184 133.92302 164.061326 133.80159 163.914551 
z
" clip-path="url(#p9e84886b51)" style="fill: #5e3c99; opacity: 0.4"/>
   </g>
   <g id="patch_15">
    <path d="M 147.8175 152.318906 
C 147.8175 152.318906 147.8175 152.318906 147.8175 152.318906 
C 147.8175 152.318906 147.8175 152.318906 147.8175 152.318906 
L 140.205274 160.425535 
C 140.120381 160.34582 140.036746 160.264776 139.954399 160.182433 
C 139.872052 160.10009 139.791003 160.01646 139.711283 159.931571 
z
" clip-path="url(#p9e84886b51)" style="fill: #5e3c99; opacity: 0.4"/>
   </g>
   <g id="patch_16">
    <path d="M 147.8175 152.318906 
C 147.8175 152.318906 147.8175 152.318906 147.8175 152.318906 
C 147.8175 152.318906 147.8175 152.318906 147.8175 152.318906 
L 139.110397 162.844533 
C 139.000173 162.753352 138.891387 162.660445 138.784081 162.565847 
C 138.676775 162.471249 138.570961 162.374971 138.466679 162.277049 
z
" clip-path="url(#p9e84886b51)" style="fill: #5e3c99; opacity: 0.4"/>
   </g>
   <g id="patch_17">
    <path d="M 147.8175 152.318906 
C 147.8175 152.318906 147.8175 152.318906 147.8175 152.318906 
C 147.8175 152.318906 147.8175 152.318906 147.8175 152.318906 
L 141.805819 160.593701 
C 141.719166 160.530747 141.633506 160.466435 141.548872 160.40079 
C 141.464239 160.335145 141.380641 160.268174 141.298111 160.199903 
z
" clip-path="url(#p9e84886b51)" style="fill: #5e3c99; opacity: 0.4"/>
   </g>
   <g id="patch_18">
    <path d="M 147.8175 152.318906 
C 147.8175 152.318906 147.8175 152.318906 147.8175 152.318906 
C 147.8175 152.318906 147.8175 152.318906 147.8175 152.318906 
L 142.741834 160.317291 
C 142.658075 160.264139 142.575156 160.209674 142.493107 160.153917 
C 142.411059 160.09816 142.329891 160.041117 142.249635 159.98281 
z
" clip-path="url(#p9e84886b51)" style="fill: #5e3c99; opacity: 0.4"/>
   </g>
   <g id="patch_19">
    <path d="M 147.8175 152.318906 
C 147.8175 152.318906 147.8175 152.318906 147.8175 152.318906 
C 147.8175 152.318906 147.8175 152.318906 147.8175 152.318906 
L 143.088722 160.920979 
C 142.998641 160.871459 142.909343 160.820528 142.820862 160.768203 
C 142.732381 160.715878 142.644727 160.662166 142.557933 160.607088 
z
" clip-path="url(#p9e84886b51)" style="fill: #5e3c99; opacity: 0.4"/>
   </g>
   <g id="patch_20">
    <path d="M 147.8175 152.318906 
C 147.8175 152.318906 147.8175 152.318906 147.8175 152.318906 
C 147.8175 152.318906 147.8175 152.318906 147.8175 152.318906 
L 143.550494 161.387259 
C 143.45553 161.342575 143.361274 161.296402 143.267761 161.248757 
C 143.174247 161.201112 143.081488 161.152001 142.989517 161.101442 
z
" clip-path="url(#p9e84886b51)" style="fill: #5e3c99; opacity: 0.4"/>
   </g>
   <g id="patch_21">
    <path d="M 147.8175 152.318906 
C 147.8175 152.318906 147.8175 152.318906 147.8175 152.318906 
C 147.8175 152.318906 147.8175 152.318906 147.8175 152.318906 
L 143.420796 163.424376 
C 143.304499 163.378333 143.188933 163.330467 143.07414 163.280794 
C 142.959347 163.231122 142.845341 163.179649 142.732165 163.126395 
z
" clip-path="url(#p9e84886b51)" style="fill: #5e3c99; opacity: 0.4"/>
   </g>
   <g id="patch_22">
    <path d="M 147.8175 152.318906 
C 147.8175 152.318906 147.8175 152.318906 147.8175 152.318906 
C 147.8175 152.318906 147.8175 152.318906 147.8175 152.318906 
L 144.784321 161.654688 
C 144.686556 161.622925 144.589297 161.589627 144.492578 161.554809 
C 144.395859 161.51999 144.299694 161.483654 144.204117 161.445815 
z
" clip-path="url(#p9e84886b51)" style="fill: #5e3c99; opacity: 0.4"/>
   </g>
   <g id="patch_23">
    <path d="M 147.8175 152.318906 
C 147.8175 152.318906 147.8175 152.318906 147.8175 152.318906 
C 147.8175 152.318906 147.8175 152.318906 147.8175 152.318906 
L 145.257005 162.292136 
C 145.152565 162.265322 145.048553 162.23687 144.945007 162.206789 
C 144.841461 162.176708 144.738393 162.145003 144.635843 162.111684 
z
" clip-path="url(#p9e84886b51)" style="fill: #5e3c99; opacity: 0.4"/>
   </g>
   <g id="patch_24">
    <path d="M 147.8175 152.318906 
C 147.8175 152.318906 147.8175 152.318906 147.8175 152.318906 
C 147.8175 152.318906 147.8175 152.318906 147.8175 152.318906 
L 146.081194 161.421797 
C 145.985869 161.403614 145.890834 161.383935 145.796127 161.362767 
C 145.70142 161.341599 145.60705 161.318945 145.513054 161.294813 
z
" clip-path="url(#p9e84886b51)" style="fill: #5e3c99; opacity: 0.4"/>
   </g>
   <g id="patch_25">
    <path d="M 147.8175 152.318906 
C 147.8175 152.318906 147.8175 152.318906 147.8175 152.318906 
C 147.8175 152.318906 147.8175 152.318906 147.8175 152.318906 
L 146.733607 160.899926 
C 146.643747 160.888576 146.55407 160.875815 146.46461 160.861647 
C 146.37515 160.84748 146.285919 160.831908 146.196948 160.814937 
z
" clip-path="url(#p9e84886b51)" style="fill: #5e3c99; opacity: 0.4"/>
   </g>
   <g id="patch_26">
    <path d="M 147.8175 152.318906 
C 147.8175 152.318906 147.8175 152.318906 147.8175 152.318906 
C 147.8175 152.318906 147.8175 152.318906 147.8175 152.318906 
L 147.196979 162.184215 
C 147.093669 162.177717 146.990468 162.169596 146.887413 162.159856 
C 146.784358 162.150117 146.681463 162.138759 146.578765 162.125786 
z
" clip-path="url(#p9e84886b51)" style="fill: #5e3c99; opacity: 0.4"/>
   </g>
   <g id="patch_27">
    <path d="M 147.8175 152.318906 
C 147.8175 152.318906 147.8175 152.318906 147.8175 152.318906 
C 147.8175 152.318906 147.8175 152.318906 147.8175 152.318906 
L 147.817669 164.194401 
C 147.693309 164.194402 147.568956 164.192451 147.444657 164.188546 
C 147.320358 164.184642 147.196128 164.178785 147.072013 164.170979 
z
" clip-path="url(#p9e84886b51)" style="fill: #5e3c99; opacity: 0.4"/>
   </g>
   <g id="patch_28">
    <path d="M 147.8175 152.318906 
C 147.8175 152.318906 147.8175 152.318906 147.8175 152.318906 
C 147.8175 152.318906 147.8175 152.318906 147.8175 152.318906 
L 148.334835 160.539982 
C 148.248744 160.5454 148.162573 160.549465 148.076354 160.552175 
C 147.990135 160.554886 147.903879 160.556242 147.817617 160.556243 
z
" clip-path="url(#p9e84886b51)" style="fill: #5e3c99; opacity: 0.4"/>
   </g>
   <g id="patch_29">
    <path d="M 147.8175 152.318906 
C 147.8175 152.318906 147.8175 152.318906 147.8175 152.318906 
C 147.8175 152.318906 147.8175 152.318906 147.8175 152.318906 
L 148.643509 158.856803 
C 148.575044 158.865453 148.506448 158.873027 148.437745 158.879522 
C 148.369042 158.886017 148.300241 158.891433 148.231368 158.895767 
z
" clip-path="url(#p9e84886b51)" style="fill: #5e3c99; opacity: 0.4"/>
   </g>
   <g id="patch_30">
    <path d="M 147.8175 152.318906 
C 147.8175 152.318906 147.8175 152.318906 147.8175 152.318906 
C 147.8175 152.318906 147.8175 152.318906 147.8175 152.318906 
L 149.901378 163.242315 
C 149.786988 163.264138 149.672262 163.284162 149.557243 163.302381 
C 149.442224 163.320599 149.326926 163.33701 149.211391 163.351607 
z
" clip-path="url(#p9e84886b51)" style="fill: #5e3c99; opacity: 0.4"/>
   </g>
   <g id="patch_31">
    <path d="M 147.8175 152.318906 
C 147.8175 152.318906 147.8175 152.318906 147.8175 152.318906 
C 147.8175 152.318906 147.8175 152.318906 147.8175 152.318906 
L 149.900267 160.430407 
C 149.815323 160.452218 149.730042 160.472693 149.644455 160.491825 
C 149.558868 160.510957 149.472986 160.528743 149.38684 160.545177 
z
" clip-path="url(#p9e84886b51)" style="fill: #5e3c99; opacity: 0.4"/>
   </g>
   <g id="patch_32">
    <path d="M 147.8175 152.318906 
C 147.8175 152.318906 147.8175 152.318906 147.8175 152.318906 
C 147.8175 152.318906 147.8175 152.318906 147.8175 152.318906 
L 149.620597 157.868096 
C 149.562486 157.886978 149.504082 157.904946 149.445406 157.921993 
C 149.38673 157.939041 149.32779 157.955166 149.268608 157.970362 
z
" clip-path="url(#p9e84886b51)" style="fill: #5e3c99; opacity: 0.4"/>
   </g>
   <g id="patch_33">
    <path d="M 147.8175 152.318906 
C 147.8175 152.318906 147.8175 152.318906 147.8175 152.318906 
C 147.8175 152.318906 147.8175 152.318906 147.8175 152.318906 
L 149.434795 156.40363 
C 149.39202 156.420567 149.348981 156.43683 149.305695 156.452415 
C 149.262409 156.467999 149.21888 156.482902 149.175126 156.49712 
z
" clip-path="url(#p9e84886b51)" style="fill: #5e3c99; opacity: 0.4"/>
   </g>
   <g id="patch_34">
    <path d="M 147.8175 152.318906 
C 147.8175 152.318906 147.8175 152.318906 147.8175 152.318906 
C 147.8175 152.318906 147.8175 152.318906 147.8175 152.318906 
L 149.57117 156.045577 
C 149.532144 156.063941 149.492833 156.081691 149.453249 156.098821 
C 149.413666 156.115951 149.373816 156.132457 149.333714 156.148335 
z
" clip-path="url(#p9e84886b51)" style="fill: #5e3c99; opacity: 0.4"/>
   </g>
   <g id="patch_35">
    <path d="M 147.8175 152.318906 
C 147.8175 152.318906 147.8175 152.318906 147.8175 152.318906 
C 147.8175 152.318906 147.8175 152.318906 147.8175 152.318906 
L 149.338724 155.085963 
C 149.309748 155.101894 149.280522 155.117368 149.25106 155.13238 
C 149.221597 155.147392 149.1919 155.161941 149.16198 155.17602 
z
" clip-path="url(#p9e84886b51)" style="fill: #5e3c99; opacity: 0.4"/>
   </g>
   <g id="patch_36">
    <path d="M 147.8175 152.318906 
C 147.8175 152.318906 147.8175 152.318906 147.8175 152.318906 
C 147.8175 152.318906 147.8175 152.318906 147.8175 152.318906 
L 148.994519 154.173571 
C 148.975097 154.185896 148.955482 154.197916 148.935683 154.209626 
C 148.915883 154.221336 148.895901 154.232734 148.875743 154.243815 
z
" clip-path="url(#p9e84886b51)" style="fill: #5e3c99; opacity: 0.4"/>
   </g>
   <g id="patch_37">
    <path d="M 147.8175 152.318906 
C 147.8175 152.318906 147.8175 152.318906 147.8175 152.318906 
C 147.8175 152.318906 147.8175 152.318906 147.8175 152.318906 
L 149.229695 154.26261 
C 149.209341 154.277398 149.188755 154.291866 149.167946 154.306008 
C 149.147137 154.32015 149.126107 154.333964 149.104864 154.347445 
z
" clip-path="url(#p9e84886b51)" style="fill: #5e3c99; opacity: 0.4"/>
   </g>
   <g id="patch_38">
    <path d="M 147.8175 152.318906 
C 147.8175 152.318906 147.8175 152.318906 147.8175 152.318906 
C 147.8175 152.318906 147.8175 152.318906 147.8175 152.318906 
L 149.17393 153.958538 
C 149.156759 153.972743 149.139367 153.986677 149.121759 154.000335 
C 149.104151 154.013993 149.08633 154.027374 149.068301 154.040472 
z
" clip-path="url(#p9e84886b51)" style="fill: #5e3c99; opacity: 0.4"/>
   </g>
   <g id="patch_39">
    <path d="M 147.8175 152.318906 
C 147.8175 152.318906 147.8175 152.318906 147.8175 152.318906 
C 147.8175 152.318906 147.8175 152.318906 147.8175 152.318906 
L 149.180224 153.770054 
C 149.165027 153.784324 149.149608 153.798355 149.13397 153.812141 
C 149.118333 153.825928 149.102481 153.839467 149.086418 153.852755 
z
" clip-path="url(#p9e84886b51)" style="fill: #5e3c99; opacity: 0.4"/>
   </g>
   <g id="patch_40">
    <path d="M 147.8175 152.318906 
C 147.8175 152.318906 147.8175 152.318906 147.8175 152.318906 
C 147.8175 152.318906 147.8175 152.318906 147.8175 152.318906 
L 149.668969 154.057549 
C 149.650762 154.076937 149.632252 154.096039 149.613445 154.114846 
C 149.594638 154.133653 149.575536 154.152163 149.556148 154.170371 
z
" clip-path="url(#p9e84886b51)" style="fill: #5e3c99; opacity: 0.4"/>
   </g>
   <g id="patch_41">
    <path d="M 147.8175 152.318906 
C 147.8175 152.318906 147.8175 152.318906 147.8175 152.318906 
C 147.8175 152.318906 147.8175 152.318906 147.8175 152.318906 
L 149.61581 153.806598 
C 149.600231 153.82543 149.584357 153.844016 149.568194 153.862349 
C 149.552031 153.880683 149.535581 153.898761 149.51885 153.916578 
z
" clip-path="url(#p9e84886b51)" style="fill: #5e3c99; opacity: 0.4"/>
   </g>
   <g id="patch_42">
    <path d="M 147.8175 152.318906 
C 147.8175 152.318906 147.8175 152.318906 147.8175 152.318906 
C 147.8175 152.318906 147.8175 152.318906 147.8175 152.318906 
L 149.316932 153.40831 
C 149.305523 153.424012 149.293869 153.439534 149.281973 153.45487 
C 149.270077 153.470206 149.257941 153.485354 149.24557 153.500309 
z
" clip-path="url(#p9e84886b51)" style="fill: #5e3c99; opacity: 0.4"/>
   </g>
   <g id="patch_43">
    <path d="M 147.8175 152.318906 
C 147.8175 152.318906 147.8175 152.318906 147.8175 152.318906 
C 147.8175 152.318906 147.8175 152.318906 147.8175 152.318906 
L 149.96196 153.679828 
C 149.947708 153.702285 149.933105 153.724517 149.918155 153.746515 
C 149.903205 153.768513 149.88791 153.790275 149.872277 153.811792 
z
" clip-path="url(#p9e84886b51)" style="fill: #5e3c99; opacity: 0.4"/>
   </g>
   <g id="patch_44">
    <path d="M 147.8175 152.318906 
C 147.8175 152.318906 147.8175 152.318906 147.8175 152.318906 
C 147.8175 152.318906 147.8175 152.318906 147.8175 152.318906 
L 150.825175 153.972402 
C 150.80786 154.003899 150.790051 154.035121 150.771755 154.066058 
C 150.753458 154.096995 150.734677 154.127643 150.715418 154.15799 
z
" clip-path="url(#p9e84886b51)" style="fill: #5e3c99; opacity: 0.4"/>
   </g>
   <g id="patch_45">
    <path d="M 147.8175 152.318906 
C 147.8175 152.318906 147.8175 152.318906 147.8175 152.318906 
C 147.8175 152.318906 147.8175 152.318906 147.8175 152.318906 
L 150.612507 153.634151 
C 150.598733 153.66342 150.584501 153.692471 150.569815 153.721294 
C 150.555129 153.750116 150.539992 153.778706 150.524408 153.807053 
z
" clip-path="url(#p9e84886b51)" style="fill: #5e3c99; opacity: 0.4"/>
   </g>
   <g id="patch_46">
    <path d="M 147.8175 152.318906 
C 147.8175 152.318906 147.8175 152.318906 147.8175 152.318906 
C 147.8175 152.318906 147.8175 152.318906 147.8175 152.318906 
L 152.285172 154.08781 
C 152.266648 154.134595 152.24739 154.181087 152.227406 154.227268 
C 152.207422 154.273448 152.186713 154.319312 152.165288 154.364842 
z
" clip-path="url(#p9e84886b51)" style="fill: #5e3c99; opacity: 0.4"/>
   </g>
   <g id="patch_47">
    <path d="M 147.8175 152.318906 
C 147.8175 152.318906 147.8175 152.318906 147.8175 152.318906 
C 147.8175 152.318906 147.8175 152.318906 147.8175 152.318906 
L 152.517994 153.846222 
C 152.502 153.895446 152.485234 153.944415 152.467702 153.993112 
C 152.450169 154.041809 152.431873 154.090228 152.41282 154.13835 
z
" clip-path="url(#p9e84886b51)" style="fill: #5e3c99; opacity: 0.4"/>
   </g>
   <g id="patch_48">
    <path d="M 147.8175 152.318906 
C 147.8175 152.318906 147.8175 152.318906 147.8175 152.318906 
C 147.8175 152.318906 147.8175 152.318906 147.8175 152.318906 
L 152.072717 153.411493 
C 152.061275 153.456054 152.049134 153.500432 152.036299 153.544611 
C 152.023463 153.588791 152.009934 153.632766 151.995717 153.67652 
z
" clip-path="url(#p9e84886b51)" style="fill: #5e3c99; opacity: 0.4"/>
   </g>
   <g id="patch_49">
    <path d="M 147.8175 152.318906 
C 147.8175 152.318906 147.8175 152.318906 147.8175 152.318906 
C 147.8175 152.318906 147.8175 152.318906 147.8175 152.318906 
L 153.953492 153.489462 
C 153.941234 153.553718 153.927968 153.617778 153.913697 153.681618 
C 153.899427 153.745457 153.884155 153.809069 153.867886 153.872428 
z
" clip-path="url(#p9e84886b51)" style="fill: #5e3c99; opacity: 0.4"/>
   </g>
   <g id="patch_50">
    <path d="M 147.8175 152.318906 
C 147.8175 152.318906 147.8175 152.318906 147.8175 152.318906 
C 147.8175 152.318906 147.8175 152.318906 147.8175 152.318906 
L 156.739008 153.446039 
C 156.727205 153.539466 156.713934 153.632701 156.699202 153.72571 
C 156.68447 153.818719 156.668278 153.911492 156.650632 154.003992 
z
" clip-path="url(#p9e84886b51)" style="fill: #5e3c99; opacity: 0.4"/>
   </g>
   <g id="patch_51">
    <path d="M 147.8175 152.318906 
C 147.8175 152.318906 147.8175 152.318906 147.8175 152.318906 
C 147.8175 152.318906 147.8175 152.318906 147.8175 152.318906 
L 155.147961 152.780176 
C 155.14313 152.856941 155.137094 152.933625 155.129855 153.0102 
C 155.122616 153.086775 155.114174 153.163232 155.104533 153.239542 
z
" clip-path="url(#p9e84886b51)" style="fill: #5e3c99; opacity: 0.4"/>
   </g>
   <g id="patch_52">
    <path d="M 147.8175 152.318906 
C 147.8175 152.318906 147.8175 152.318906 147.8175 152.318906 
C 147.8175 152.318906 147.8175 152.318906 147.8175 152.318906 
L 153.858214 152.318975 
C 153.858213 152.382233 153.857219 152.445488 153.855231 152.508715 
C 153.853243 152.571942 153.850263 152.635135 153.84629 152.698268 
z
" clip-path="url(#p9e84886b51)" style="fill: #5e3c99; opacity: 0.4"/>
   </g>
   <g id="patch_53">
    <path d="M 147.8175 152.318906 
C 147.8175 152.318906 147.8175 152.318906 147.8175 152.318906 
C 147.8175 152.318906 147.8175 152.318906 147.8175 152.318906 
L 153.709281 151.9483 
C 153.713162 152.009999 153.716073 152.071755 153.718014 152.133545 
C 153.719955 152.195336 153.720926 152.257153 153.720925 152.318973 
z
" clip-path="url(#p9e84886b51)" style="fill: #5e3c99; opacity: 0.4"/>
   </g>
   <g id="patch_54">
    <path d="M 147.8175 152.318906 
C 147.8175 152.318906 147.8175 152.318906 147.8175 152.318906 
C 147.8175 152.318906 147.8175 152.318906 147.8175 152.318906 
L 153.810591 151.561884 
C 153.818519 151.624644 153.82546 151.687525 153.831412 151.750503 
C 153.837365 151.81348 153.842327 151.876548 153.846299 151.939681 
z
" clip-path="url(#p9e84886b51)" style="fill: #5e3c99; opacity: 0.4"/>
   </g>
   <g id="patch_55">
    <path d="M 147.8175 152.318906 
C 147.8175 152.318906 147.8175 152.318906 147.8175 152.318906 
C 147.8175 152.318906 147.8175 152.318906 147.8175 152.318906 
L 153.953519 151.14849 
C 153.965776 151.212746 153.977022 151.277192 153.987254 151.341801 
C 153.997487 151.406411 154.006703 151.471178 154.014901 151.536077 
z
" clip-path="url(#p9e84886b51)" style="fill: #5e3c99; opacity: 0.4"/>
   </g>
   <g id="patch_56">
    <path d="M 147.8175 152.318906 
C 147.8175 152.318906 147.8175 152.318906 147.8175 152.318906 
C 147.8175 152.318906 147.8175 152.318906 147.8175 152.318906 
L 154.865244 150.509469 
C 154.884192 150.583274 154.90198 150.657371 154.918601 150.731734 
C 154.935222 150.806097 154.950674 150.880716 154.964951 150.955564 
z
" clip-path="url(#p9e84886b51)" style="fill: #5e3c99; opacity: 0.4"/>
   </g>
   <g id="patch_57">
    <path d="M 147.8175 152.318906 
C 147.8175 152.318906 147.8175 152.318906 147.8175 152.318906 
C 147.8175 152.318906 147.8175 152.318906 147.8175 152.318906 
L 152.191604 150.897754 
C 152.206486 150.943559 152.220648 150.989596 152.234084 151.035847 
C 152.24752 151.082097 152.260229 151.128556 152.272206 151.175206 
z
" clip-path="url(#p9e84886b51)" style="fill: #5e3c99; opacity: 0.4"/>
   </g>
   <g id="patch_58">
    <path d="M 147.8175 152.318906 
C 147.8175 152.318906 147.8175 152.318906 147.8175 152.318906 
C 147.8175 152.318906 147.8175 152.318906 147.8175 152.318906 
L 152.987282 150.27215 
C 153.008715 150.326288 153.029297 150.380759 153.04902 150.435544 
C 153.068742 150.490328 153.087603 150.545419 153.105595 150.600796 
z
" clip-path="url(#p9e84886b51)" style="fill: #5e3c99; opacity: 0.4"/>
   </g>
   <g id="patch_59">
    <path d="M 147.8175 152.318906 
C 147.8175 152.318906 147.8175 152.318906 147.8175 152.318906 
C 147.8175 152.318906 147.8175 152.318906 147.8175 152.318906 
L 157.010064 147.993422 
C 157.055361 148.089687 157.099143 148.186657 157.141393 148.284297 
C 157.183644 148.381937 157.224358 148.480235 157.263521 148.579154 
z
" clip-path="url(#p9e84886b51)" style="fill: #5e3c99; opacity: 0.4"/>
   </g>
   <g id="patch_60">
    <path d="M 147.8175 152.318906 
C 147.8175 152.318906 147.8175 152.318906 147.8175 152.318906 
C 147.8175 152.318906 147.8175 152.318906 147.8175 152.318906 
L 158.40465 146.498841 
C 158.465598 146.60971 158.5248 146.721529 158.582236 146.834258 
C 158.639671 146.946986 158.695332 147.06061 158.749198 147.175087 
z
" clip-path="url(#p9e84886b51)" style="fill: #5e3c99; opacity: 0.4"/>
   </g>
   <g id="patch_61">
    <path d="M 147.8175 152.318906 
C 147.8175 152.318906 147.8175 152.318906 147.8175 152.318906 
C 147.8175 152.318906 147.8175 152.318906 147.8175 152.318906 
L 154.888523 147.831703 
C 154.935513 147.905751 154.981337 147.980532 155.025978 148.056019 
C 155.070619 148.131507 155.114072 148.207691 155.15632 148.284543 
z
" clip-path="url(#p9e84886b51)" style="fill: #5e3c99; opacity: 0.4"/>
   </g>
   <g id="patch_62">
    <path d="M 147.8175 152.318906 
C 147.8175 152.318906 147.8175 152.318906 147.8175 152.318906 
C 147.8175 152.318906 147.8175 152.318906 147.8175 152.318906 
L 154.703892 147.315877 
C 154.756284 147.387991 154.80754 147.460924 154.857641 147.534649 
C 154.907741 147.608373 154.956681 147.68288 155.004442 147.758142 
z
" clip-path="url(#p9e84886b51)" style="fill: #5e3c99; opacity: 0.4"/>
   </g>
   <g id="patch_63">
    <path d="M 147.8175 152.318906 
C 147.8175 152.318906 147.8175 152.318906 147.8175 152.318906 
C 147.8175 152.318906 147.8175 152.318906 147.8175 152.318906 
L 154.852198 146.499566 
C 154.913139 146.573233 154.972918 146.647854 155.031514 146.723399 
C 155.090111 146.798944 155.147517 146.875405 155.203711 146.952754 
z
" clip-path="url(#p9e84886b51)" style="fill: #5e3c99; opacity: 0.4"/>
   </g>
   <g id="patch_64">
    <path d="M 147.8175 152.318906 
C 147.8175 152.318906 147.8175 152.318906 147.8175 152.318906 
C 147.8175 152.318906 147.8175 152.318906 147.8175 152.318906 
L 154.82321 145.740419 
C 154.8921 145.813783 154.959833 145.888225 155.026385 145.963716 
C 155.092936 146.039208 155.158298 146.11574 155.222446 146.193285 
z
" clip-path="url(#p9e84886b51)" style="fill: #5e3c99; opacity: 0.4"/>
   </g>
   <g id="patch_65">
    <path d="M 147.8175 152.318906 
C 147.8175 152.318906 147.8175 152.318906 147.8175 152.318906 
C 147.8175 152.318906 147.8175 152.318906 147.8175 152.318906 
L 155.289167 144.362783 
C 155.372483 144.441027 155.454566 144.520574 155.535384 144.601396 
C 155.616202 144.682218 155.695745 144.764304 155.773984 144.847625 
z
" clip-path="url(#p9e84886b51)" style="fill: #5e3c99; opacity: 0.4"/>
   </g>
   <g id="patch_66">
    <path d="M 147.8175 152.318906 
C 147.8175 152.318906 147.8175 152.318906 147.8175 152.318906 
C 147.8175 152.318906 147.8175 152.318906 147.8175 152.318906 
L 158.056637 139.942564 
C 158.186243 140.049788 158.314156 140.159042 158.440329 140.270284 
C 158.566502 140.381527 158.690921 140.494744 158.813538 140.609895 
z
" clip-path="url(#p9e84886b51)" style="fill: #5e3c99; opacity: 0.4"/>
   </g>
   <g id="patch_67">
    <path d="M 147.8175 152.318906 
C 147.8175 152.318906 147.8175 152.318906 147.8175 152.318906 
C 147.8175 152.318906 147.8175 152.318906 147.8175 152.318906 
L 157.057581 139.601742 
C 157.190755 139.698504 157.322401 139.797352 157.452471 139.89825 
C 157.58254 139.999148 157.711016 140.102082 157.837852 140.207015 
z
" clip-path="url(#p9e84886b51)" style="fill: #5e3c99; opacity: 0.4"/>
   </g>
   <g id="patch_68">
    <path d="M 147.8175 152.318906 
C 147.8175 152.318906 147.8175 152.318906 147.8175 152.318906 
C 147.8175 152.318906 147.8175 152.318906 147.8175 152.318906 
L 155.836229 139.684187 
C 155.96854 139.768159 156.099524 139.854205 156.229132 139.942292 
C 156.35874 140.030378 156.486957 140.120496 156.613734 140.21261 
z
" clip-path="url(#p9e84886b51)" style="fill: #5e3c99; opacity: 0.4"/>
   </g>
   <g id="patch_69">
    <path d="M 147.8175 152.318906 
C 147.8175 152.318906 147.8175 152.318906 147.8175 152.318906 
C 147.8175 152.318906 147.8175 152.318906 147.8175 152.318906 
L 156.515294 136.498756 
C 156.680963 136.58984 156.845191 136.68352 157.007917 136.779762 
C 157.170644 136.876005 157.331848 136.974797 157.491471 137.076103 
z
" clip-path="url(#p9e84886b51)" style="fill: #5e3c99; opacity: 0.4"/>
   </g>
   <g id="patch_70">
    <path d="M 147.8175 152.318906 
C 147.8175 152.318906 147.8175 152.318906 147.8175 152.318906 
C 147.8175 152.318906 147.8175 152.318906 147.8175 152.318906 
L 156.440129 133.996306 
C 156.632003 134.086603 156.822448 134.179908 157.011391 134.276186 
C 157.200335 134.372465 157.387755 134.471705 157.573581 134.573871 
z
" clip-path="url(#p9e84886b51)" style="fill: #5e3c99; opacity: 0.4"/>
   </g>
   <g id="patch_71">
    <path d="M 147.8175 152.318906 
C 147.8175 152.318906 147.8175 152.318906 147.8175 152.318906 
C 147.8175 152.318906 147.8175 152.318906 147.8175 152.318906 
L 153.983791 136.746036 
C 154.146871 136.810609 154.308926 136.87774 154.469897 136.947404 
C 154.630867 137.017068 154.790734 137.089257 154.949437 137.163942 
z
" clip-path="url(#p9e84886b51)" style="fill: #5e3c99; opacity: 0.4"/>
   </g>
   <g id="patch_72">
    <path d="M 147.8175 152.318906 
C 147.8175 152.318906 147.8175 152.318906 147.8175 152.318906 
C 147.8175 152.318906 147.8175 152.318906 147.8175 152.318906 
L 153.948459 133.451801 
C 154.146036 133.516005 154.342592 133.583308 154.538054 133.653686 
C 154.733517 133.724063 154.927862 133.797507 155.121017 133.87399 
z
" clip-path="url(#p9e84886b51)" style="fill: #5e3c99; opacity: 0.4"/>
   </g>
   <g id="patch_73">
    <path d="M 147.8175 152.318906 
C 147.8175 152.318906 147.8175 152.318906 147.8175 152.318906 
C 147.8175 152.318906 147.8175 152.318906 147.8175 152.318906 
L 154.322456 126.987236 
C 154.58773 127.055356 154.851917 127.127639 155.11492 127.204058 
C 155.377923 127.280477 155.63971 127.361022 155.900183 127.445664 
z
" clip-path="url(#p9e84886b51)" style="fill: #5e3c99; opacity: 0.4"/>
   </g>
   <g id="patch_74">
    <path d="M 147.8175 152.318906 
C 147.8175 152.318906 147.8175 152.318906 147.8175 152.318906 
C 147.8175 152.318906 147.8175 152.318906 147.8175 152.318906 
L 152.410298 128.247054 
C 152.662379 128.29515 152.913689 128.347202 153.164134 128.403192 
C 153.41458 128.459182 153.664131 128.519103 153.912695 128.582932 
z
" clip-path="url(#p9e84886b51)" style="fill: #5e3c99; opacity: 0.4"/>
   </g>
   <g id="patch_75">
    <path d="M 147.8175 152.318906 
C 147.8175 152.318906 147.8175 152.318906 147.8175 152.318906 
C 147.8175 152.318906 147.8175 152.318906 147.8175 152.318906 
L 151.879445 120.17434 
C 152.216063 120.216877 152.551993 120.264699 152.887109 120.317788 
C 153.222225 120.370877 153.556487 120.429227 153.889771 120.492816 
z
" clip-path="url(#p9e84886b51)" style="fill: #5e3c99; opacity: 0.4"/>
   </g>
   <g id="patch_76">
    <path d="M 147.8175 152.318906 
C 147.8175 152.318906 147.8175 152.318906 147.8175 152.318906 
C 147.8175 152.318906 147.8175 152.318906 147.8175 152.318906 
L 150.055785 116.762804 
C 150.428129 116.786243 150.800082 116.81553 151.171506 116.850653 
C 151.54293 116.885777 151.91378 116.926732 152.283918 116.973504 
z
" clip-path="url(#p9e84886b51)" style="fill: #5e3c99; opacity: 0.4"/>
   </g>
   <g id="patch_77">
    <path d="M 147.8175 152.318906 
C 147.8175 152.318906 147.8175 152.318906 147.8175 152.318906 
C 147.8175 152.318906 147.8175 152.318906 147.8175 152.318906 
L 147.818963 112.779688 
C 148.233019 112.779703 148.647048 112.786222 149.060899 112.799243 
C 149.47475 112.812264 149.88837 112.831785 150.301608 112.857799 
z
" clip-path="url(#p9e84886b51)" style="fill: #5e3c99; opacity: 0.4"/>
   </g>
   <g id="patch_78">
    <path d="M 147.8175 152.318906 
C 147.8175 152.318906 147.8175 152.318906 147.8175 152.318906 
C 147.8175 152.318906 147.8175 152.318906 147.8175 152.318906 
L 145.538771 116.077547 
C 145.918291 116.053684 146.298162 116.035784 146.678245 116.023854 
C 147.058328 116.011923 147.438574 116.005964 147.818844 116.005978 
z
" clip-path="url(#p9e84886b51)" style="fill: #5e3c99; opacity: 0.4"/>
   </g>
   <g id="patch_79">
    <path d="M 147.8175 152.318906 
C 147.8175 152.318906 147.8175 152.318906 147.8175 152.318906 
C 147.8175 152.318906 147.8175 152.318906 147.8175 152.318906 
L 142.915059 113.499894 
C 143.321572 113.448555 143.728867 113.403606 144.136792 113.365061 
C 144.544718 113.326517 144.953223 113.294382 145.362158 113.26867 
z
" clip-path="url(#p9e84886b51)" style="fill: #5e3c99; opacity: 0.4"/>
   </g>
   <g id="patch_80">
    <path d="M 147.8175 152.318906 
C 147.8175 152.318906 147.8175 152.318906 147.8175 152.318906 
C 147.8175 152.318906 147.8175 152.318906 147.8175 152.318906 
L 139.008407 106.129966 
C 139.492098 106.037717 139.977209 105.953072 140.46356 105.876061 
C 140.94991 105.79905 141.43744 105.729684 141.925969 105.667988 
z
" clip-path="url(#p9e84886b51)" style="fill: #5e3c99; opacity: 0.4"/>
   </g>
   <g id="patch_81">
    <path d="M 147.8175 152.318906 
C 147.8175 152.318906 147.8175 152.318906 147.8175 152.318906 
C 147.8175 152.318906 147.8175 152.318906 147.8175 152.318906 
L 134.060326 98.729106 
C 134.621519 98.585041 135.184941 98.449799 135.750383 98.323432 
C 136.315825 98.197065 136.883216 98.079588 137.452348 97.971044 
z
" clip-path="url(#p9e84886b51)" style="fill: #5e3c99; opacity: 0.4"/>
   </g>
   <g id="patch_82">
    <path d="M 147.8175 152.318906 
C 147.8175 152.318906 147.8175 152.318906 147.8175 152.318906 
C 147.8175 152.318906 147.8175 152.318906 147.8175 152.318906 
L 131.570977 102.310083 
C 132.094671 102.139949 132.621004 101.978051 133.149783 101.824451 
C 133.678562 101.67085 134.209721 101.525565 134.743064 101.388649 
z
" clip-path="url(#p9e84886b51)" style="fill: #5e3c99; opacity: 0.4"/>
   </g>
   <g id="patch_83">
    <path d="M 147.8175 152.318906 
C 147.8175 152.318906 147.8175 152.318906 147.8175 152.318906 
C 147.8175 152.318906 147.8175 152.318906 147.8175 152.318906 
L 125.809975 96.727235 
C 126.392132 96.496771 126.977874 96.275467 127.566982 96.063403 
C 128.156091 95.851339 128.748495 95.648542 129.343974 95.455087 
z
" clip-path="url(#p9e84886b51)" style="fill: #5e3c99; opacity: 0.4"/>
   </g>
   <g id="patch_84">
    <path d="M 147.8175 152.318906 
C 147.8175 152.318906 147.8175 152.318906 147.8175 152.318906 
C 147.8175 152.318906 147.8175 152.318906 147.8175 152.318906 
L 118.592847 90.206235 
C 119.243293 89.900194 119.898505 89.604389 120.558242 89.31893 
C 121.217979 89.03347 121.882159 88.758392 122.550537 88.493795 
z
" clip-path="url(#p9e84886b51)" style="fill: #5e3c99; opacity: 0.4"/>
   </g>
   <g id="patch_85">
    <path d="M 147.8175 152.318906 
C 147.8175 152.318906 147.8175 152.318906 147.8175 152.318906 
C 147.8175 152.318906 147.8175 152.318906 147.8175 152.318906 
L 111.675258 86.569373 
C 112.363789 86.190891 113.058222 85.823247 113.758301 85.466578 
C 114.45838 85.10991 115.164018 84.76426 115.874955 84.429757 
z
" clip-path="url(#p9e84886b51)" style="fill: #5e3c99; opacity: 0.4"/>
   </g>
   <g id="patch_86">
    <path d="M 147.8175 152.318906 
C 147.8175 152.318906 147.8175 152.318906 147.8175 152.318906 
C 147.8175 152.318906 147.8175 152.318906 147.8175 152.318906 
L 105.632136 85.838615 
C 106.328318 85.396849 107.031398 84.966046 107.741113 84.546366 
C 108.450829 84.126685 109.167092 83.718178 109.88964 83.320997 
z
" clip-path="url(#p9e84886b51)" style="fill: #5e3c99; opacity: 0.4"/>
   </g>
   <g id="patch_87">
    <path d="M 147.8175 152.318906 
C 147.8175 152.318906 147.8175 152.318906 147.8175 152.318906 
C 147.8175 152.318906 147.8175 152.318906 147.8175 152.318906 
L 100.532472 87.230181 
C 101.214083 86.735011 101.903429 86.250579 102.600257 85.777063 
C 103.297084 85.303547 104.001307 84.841006 104.712664 84.389612 
z
" clip-path="url(#p9e84886b51)" style="fill: #5e3c99; opacity: 0.4"/>
   </g>
   <g id="patch_88">
    <path d="M 147.8175 152.318906 
C 147.8175 152.318906 147.8175 152.318906 147.8175 152.318906 
C 147.8175 152.318906 147.8175 152.318906 147.8175 152.318906 
L 97.195183 91.121022 
C 97.836049 90.590904 98.485202 90.070885 99.142402 89.561159 
C 99.799603 89.051432 100.464769 88.55206 101.137656 88.063228 
z
" clip-path="url(#p9e84886b51)" style="fill: #5e3c99; opacity: 0.4"/>
   </g>
   <g id="patch_89">
    <path d="M 147.8175 152.318906 
C 147.8175 152.318906 147.8175 152.318906 147.8175 152.318906 
C 147.8175 152.318906 147.8175 152.318906 147.8175 152.318906 
L 99.936819 101.326122 
C 100.470817 100.824714 101.012657 100.331726 101.56214 99.847339 
C 102.111624 99.362952 102.668682 98.887226 103.233109 98.420337 
z
" clip-path="url(#p9e84886b51)" style="fill: #5e3c99; opacity: 0.4"/>
   </g>
   <g id="patch_90">
    <path d="M 147.8175 152.318906 
C 147.8175 152.318906 147.8175 152.318906 147.8175 152.318906 
C 147.8175 152.318906 147.8175 152.318906 147.8175 152.318906 
L 90.574823 98.559033 
C 91.137798 97.959586 91.710154 97.36902 92.291679 96.787553 
C 92.873204 96.206085 93.463828 95.633788 94.06333 95.070873 
z
" clip-path="url(#p9e84886b51)" style="fill: #5e3c99; opacity: 0.4"/>
   </g>
   <g id="patch_91">
    <path d="M 147.8175 152.318906 
C 147.8175 152.318906 147.8175 152.318906 147.8175 152.318906 
C 147.8175 152.318906 147.8175 152.318906 147.8175 152.318906 
L 74.777472 91.888621 
C 75.410299 91.123745 76.055102 90.368856 76.711642 89.624234 
C 77.368181 88.879612 78.036377 88.145349 78.715982 87.421716 
z
" clip-path="url(#p9e84886b51)" style="fill: #5e3c99; opacity: 0.4"/>
   </g>
   <g id="patch_92">
    <path d="M 147.8175 152.318906 
C 147.8175 152.318906 147.8175 152.318906 147.8175 152.318906 
C 147.8175 152.318906 147.8175 152.318906 147.8175 152.318906 
L 71.293805 96.715063 
C 71.87609 95.913705 72.470926 95.121544 73.078094 94.338871 
C 73.685262 93.556198 74.304687 92.783112 74.936139 92.019897 
z
" clip-path="url(#p9e84886b51)" style="fill: #5e3c99; opacity: 0.4"/>
   </g>
   <g id="patch_93">
    <path d="M 147.8175 152.318906 
C 147.8175 152.318906 147.8175 152.318906 147.8175 152.318906 
C 147.8175 152.318906 147.8175 152.318906 147.8175 152.318906 
L 64.534032 99.459371 
C 65.087578 98.587225 65.65479 97.723828 66.235457 96.869499 
C 66.816125 96.01517 67.410176 95.170015 68.017391 94.334347 
z
" clip-path="url(#p9e84886b51)" style="fill: #5e3c99; opacity: 0.4"/>
   </g>
   <g id="patch_94">
    <path d="M 147.8175 152.318906 
C 147.8175 152.318906 147.8175 152.318906 147.8175 152.318906 
C 147.8175 152.318906 147.8175 152.318906 147.8175 152.318906 
L 75.394717 112.499011 
C 75.811711 111.740598 76.240594 110.988782 76.681205 110.243841 
C 77.121815 109.4989 77.574101 108.760927 78.037893 108.030193 
z
" clip-path="url(#p9e84886b51)" style="fill: #5e3c99; opacity: 0.4"/>
   </g>
   <g id="patch_95">
    <path d="M 147.8175 152.318906 
C 147.8175 152.318906 147.8175 152.318906 147.8175 152.318906 
C 147.8175 152.318906 147.8175 152.318906 147.8175 152.318906 
L 76.267058 118.644977 
C 76.619692 117.8957 76.984074 117.152007 77.360069 116.414176 
C 77.736064 115.676344 78.123626 114.944464 78.522611 114.218807 
z
" clip-path="url(#p9e84886b51)" style="fill: #5e3c99; opacity: 0.4"/>
   </g>
   <g id="patch_96">
    <path d="M 147.8175 152.318906 
C 147.8175 152.318906 147.8175 152.318906 147.8175 152.318906 
C 147.8175 152.318906 147.8175 152.318906 147.8175 152.318906 
L 68.486017 120.904167 
C 68.814993 120.073406 69.156998 119.247864 69.511906 118.427846 
C 69.866814 117.607828 70.23458 116.793436 70.61507 115.984971 
z
" clip-path="url(#p9e84886b51)" style="fill: #5e3c99; opacity: 0.4"/>
   </g>
   <g id="patch_97">
    <path d="M 147.8175 152.318906 
C 147.8175 152.318906 147.8175 152.318906 147.8175 152.318906 
C 147.8175 152.318906 147.8175 152.318906 147.8175 152.318906 
L 89.192866 133.266881 
C 89.392379 132.652962 89.601523 132.042216 89.820221 131.434867 
C 90.03892 130.827518 90.267144 130.223643 90.504811 129.623463 
z
" clip-path="url(#p9e84886b51)" style="fill: #5e3c99; opacity: 0.4"/>
   </g>
   <g id="patch_98">
    <path d="M 147.8175 152.318906 
C 147.8175 152.318906 147.8175 152.318906 147.8175 152.318906 
C 147.8175 152.318906 147.8175 152.318906 147.8175 152.318906 
L 89.176067 137.258687 
C 89.333778 136.644592 89.501126 136.033013 89.678048 135.424176 
C 89.85497 134.815338 90.041444 134.209318 90.237403 133.606338 
z
" clip-path="url(#p9e84886b51)" style="fill: #5e3c99; opacity: 0.4"/>
   </g>
   <g id="patch_99">
    <path d="M 147.8175 152.318906 
C 147.8175 152.318906 147.8175 152.318906 147.8175 152.318906 
C 147.8175 152.318906 147.8175 152.318906 147.8175 152.318906 
L 81.873084 139.735266 
C 82.00486 139.044694 82.147476 138.356236 82.300878 137.670144 
C 82.45428 136.984053 82.61845 136.300414 82.793327 135.619479 
z
" clip-path="url(#p9e84886b51)" style="fill: #5e3c99; opacity: 0.4"/>
   </g>
   <g id="patch_100">
    <path d="M 147.8175 152.318906 
C 147.8175 152.318906 147.8175 152.318906 147.8175 152.318906 
C 147.8175 152.318906 147.8175 152.318906 147.8175 152.318906 
L 77.603644 143.444512 
C 77.696577 142.709231 77.801054 141.975455 77.917036 141.243456 
C 78.033018 140.511457 78.160492 139.781325 78.299409 139.05333 
z
" clip-path="url(#p9e84886b51)" style="fill: #5e3c99; opacity: 0.4"/>
   </g>
   <g id="patch_101">
    <path d="M 147.8175 152.318906 
C 147.8175 152.318906 147.8175 152.318906 147.8175 152.318906 
C 147.8175 152.318906 147.8175 152.318906 147.8175 152.318906 
L 83.145233 148.246072 
C 83.187884 147.568823 83.241171 146.892285 83.305073 146.21671 
C 83.368975 145.541134 83.443486 144.866604 83.528576 144.19337 
z
" clip-path="url(#p9e84886b51)" style="fill: #5e3c99; opacity: 0.4"/>
   </g>
   <g id="patch_102">
    <path d="M 147.8175 152.318906 
C 147.8175 152.318906 147.8175 152.318906 147.8175 152.318906 
C 147.8175 152.318906 147.8175 152.318906 147.8175 152.318906 
L 89.675628 152.315265 
C 89.675666 151.706402 89.685269 151.097577 89.704431 150.489016 
C 89.723594 149.880455 89.752315 149.272232 89.790583 148.664573 
z
" clip-path="url(#p9e84886b51)" style="fill: #5e3c99; opacity: 0.4"/>
   </g>
   <g id="matplotlib.axis_1">
    <g id="xtick_1">
     <g id="line2d_1">
      <path d="M 147.8175 152.318906 
L 251.391719 152.318906 
" clip-path="url(#p9e84886b51)" style="fill: none; stroke: #b0b0b0; stroke-opacity: 0.6; stroke-width: 0.8; stroke-linecap: square"/>
     </g>
     <g id="text_1">
      <!-- 0° -->
      <g transform="translate(260.074219 155.630156) scale(0.12 -0.12)">
       <defs>
        <path id="DejaVuSans-30" d="M 2034 4250 
Q 1547 4250 1301 3770 
Q 1056 3291 1056 2328 
Q 1056 1369 1301 889 
Q 1547 409 2034 409 
Q 2525 409 2770 889 
Q 3016 1369 3016 2328 
Q 3016 3291 2770 3770 
Q 2525 4250 2034 4250 
z
M 2034 4750 
Q 2819 4750 3233 4129 
Q 3647 3509 3647 2328 
Q 3647 1150 3233 529 
Q 2819 -91 2034 -91 
Q 1250 -91 836 529 
Q 422 1150 422 2328 
Q 422 3509 836 4129 
Q 1250 4750 2034 4750 
z
" transform="scale(0.015625)"/>
        <path id="DejaVuSans-b0" d="M 1600 4347 
Q 1350 4347 1178 4173 
Q 1006 4000 1006 3750 
Q 1006 3503 1178 3333 
Q 1350 3163 1600 3163 
Q 1850 3163 2022 3333 
Q 2194 3503 2194 3750 
Q 2194 3997 2020 4172 
Q 1847 4347 1600 4347 
z
M 1600 4750 
Q 1800 4750 1984 4673 
Q 2169 4597 2303 4453 
Q 2447 4313 2519 4134 
Q 2591 3956 2591 3750 
Q 2591 3338 2302 3052 
Q 2013 2766 1594 2766 
Q 1172 2766 890 3047 
Q 609 3328 609 3750 
Q 609 4169 896 4459 
Q 1184 4750 1600 4750 
z
" transform="scale(0.015625)"/>
       </defs>
       <use xlink:href="#DejaVuSans-30"/>
       <use xlink:href="#DejaVuSans-b0" transform="translate(63.623047 0)"/>
      </g>
     </g>
    </g>
    <g id="xtick_2">
     <g id="line2d_2">
      <path d="M 147.8175 152.318906 
L 221.055532 79.080874 
" clip-path="url(#p9e84886b51)" style="fill: none; stroke: #b0b0b0; stroke-opacity: 0.6; stroke-width: 0.8; stroke-linecap: square"/>
     </g>
     <g id="text_2">
      <!-- 45° -->
      <g transform="translate(221.380688 71.431969) scale(0.12 -0.12)">
       <defs>
        <path id="DejaVuSans-34" d="M 2419 4116 
L 825 1625 
L 2419 1625 
L 2419 4116 
z
M 2253 4666 
L 3047 4666 
L 3047 1625 
L 3713 1625 
L 3713 1100 
L 3047 1100 
L 3047 0 
L 2419 0 
L 2419 1100 
L 313 1100 
L 313 1709 
L 2253 4666 
z
" transform="scale(0.015625)"/>
        <path id="DejaVuSans-35" d="M 691 4666 
L 3169 4666 
L 3169 4134 
L 1269 4134 
L 1269 2991 
Q 1406 3038 1543 3061 
Q 1681 3084 1819 3084 
Q 2600 3084 3056 2656 
Q 3513 2228 3513 1497 
Q 3513 744 3044 326 
Q 2575 -91 1722 -91 
Q 1428 -91 1123 -41 
Q 819 9 494 109 
L 494 744 
Q 775 591 1075 516 
Q 1375 441 1709 441 
Q 2250 441 2565 725 
Q 2881 1009 2881 1497 
Q 2881 1984 2565 2268 
Q 2250 2553 1709 2553 
Q 1456 2553 1204 2497 
Q 953 2441 691 2322 
L 691 4666 
z
" transform="scale(0.015625)"/>
       </defs>
       <use xlink:href="#DejaVuSans-34"/>
       <use xlink:href="#DejaVuSans-35" transform="translate(63.623047 0)"/>
       <use xlink:href="#DejaVuSans-b0" transform="translate(127.246094 0)"/>
      </g>
     </g>
    </g>
    <g id="xtick_3">
     <g id="line2d_3">
      <path d="M 147.8175 152.318906 
L 147.8175 48.744687 
" clip-path="url(#p9e84886b51)" style="fill: none; stroke: #b0b0b0; stroke-opacity: 0.6; stroke-width: 0.8; stroke-linecap: square"/>
     </g>
     <g id="text_3">
      <!-- 90° -->
      <g transform="translate(137.1825 36.555937) scale(0.12 -0.12)">
       <defs>
        <path id="DejaVuSans-39" d="M 703 97 
L 703 672 
Q 941 559 1184 500 
Q 1428 441 1663 441 
Q 2288 441 2617 861 
Q 2947 1281 2994 2138 
Q 2813 1869 2534 1725 
Q 2256 1581 1919 1581 
Q 1219 1581 811 2004 
Q 403 2428 403 3163 
Q 403 3881 828 4315 
Q 1253 4750 1959 4750 
Q 2769 4750 3195 4129 
Q 3622 3509 3622 2328 
Q 3622 1225 3098 567 
Q 2575 -91 1691 -91 
Q 1453 -91 1209 -44 
Q 966 3 703 97 
z
M 1959 2075 
Q 2384 2075 2632 2365 
Q 2881 2656 2881 3163 
Q 2881 3666 2632 3958 
Q 2384 4250 1959 4250 
Q 1534 4250 1286 3958 
Q 1038 3666 1038 3163 
Q 1038 2656 1286 2365 
Q 1534 2075 1959 2075 
z
" transform="scale(0.015625)"/>
       </defs>
       <use xlink:href="#DejaVuSans-39"/>
       <use xlink:href="#DejaVuSans-30" transform="translate(63.623047 0)"/>
       <use xlink:href="#DejaVuSans-b0" transform="translate(127.246094 0)"/>
      </g>
     </g>
    </g>
    <g id="xtick_4">
     <g id="line2d_4">
      <path d="M 147.8175 152.318906 
L 74.579468 79.080874 
" clip-path="url(#p9e84886b51)" style="fill: none; stroke: #b0b0b0; stroke-opacity: 0.6; stroke-width: 0.8; stroke-linecap: square"/>
     </g>
     <g id="text_4">
      <!-- 135° -->
      <g transform="translate(49.166812 71.431969) scale(0.12 -0.12)">
       <defs>
        <path id="DejaVuSans-31" d="M 794 531 
L 1825 531 
L 1825 4091 
L 703 3866 
L 703 4441 
L 1819 4666 
L 2450 4666 
L 2450 531 
L 3481 531 
L 3481 0 
L 794 0 
L 794 531 
z
" transform="scale(0.015625)"/>
        <path id="DejaVuSans-33" d="M 2597 2516 
Q 3050 2419 3304 2112 
Q 3559 1806 3559 1356 
Q 3559 666 3084 287 
Q 2609 -91 1734 -91 
Q 1441 -91 1130 -33 
Q 819 25 488 141 
L 488 750 
Q 750 597 1062 519 
Q 1375 441 1716 441 
Q 2309 441 2620 675 
Q 2931 909 2931 1356 
Q 2931 1769 2642 2001 
Q 2353 2234 1838 2234 
L 1294 2234 
L 1294 2753 
L 1863 2753 
Q 2328 2753 2575 2939 
Q 2822 3125 2822 3475 
Q 2822 3834 2567 4026 
Q 2313 4219 1838 4219 
Q 1578 4219 1281 4162 
Q 984 4106 628 3988 
L 628 4550 
Q 988 4650 1302 4700 
Q 1616 4750 1894 4750 
Q 2613 4750 3031 4423 
Q 3450 4097 3450 3541 
Q 3450 3153 3228 2886 
Q 3006 2619 2597 2516 
z
" transform="scale(0.015625)"/>
       </defs>
       <use xlink:href="#DejaVuSans-31"/>
       <use xlink:href="#DejaVuSans-33" transform="translate(63.623047 0)"/>
       <use xlink:href="#DejaVuSans-35" transform="translate(127.246094 0)"/>
       <use xlink:href="#DejaVuSans-b0" transform="translate(190.869141 0)"/>
      </g>
     </g>
    </g>
    <g id="xtick_5">
     <g id="line2d_5">
      <path d="M 147.8175 152.318906 
L 44.243281 152.318906 
" clip-path="url(#p9e84886b51)" style="fill: none; stroke: #b0b0b0; stroke-opacity: 0.6; stroke-width: 0.8; stroke-linecap: square"/>
     </g>
     <g id="text_5">
      <!-- 180° -->
      <g transform="translate(14.290781 155.630156) scale(0.12 -0.12)">
       <defs>
        <path id="DejaVuSans-38" d="M 2034 2216 
Q 1584 2216 1326 1975 
Q 1069 1734 1069 1313 
Q 1069 891 1326 650 
Q 1584 409 2034 409 
Q 2484 409 2743 651 
Q 3003 894 3003 1313 
Q 3003 1734 2745 1975 
Q 2488 2216 2034 2216 
z
M 1403 2484 
Q 997 2584 770 2862 
Q 544 3141 544 3541 
Q 544 4100 942 4425 
Q 1341 4750 2034 4750 
Q 2731 4750 3128 4425 
Q 3525 4100 3525 3541 
Q 3525 3141 3298 2862 
Q 3072 2584 2669 2484 
Q 3125 2378 3379 2068 
Q 3634 1759 3634 1313 
Q 3634 634 3220 271 
Q 2806 -91 2034 -91 
Q 1263 -91 848 271 
Q 434 634 434 1313 
Q 434 1759 690 2068 
Q 947 2378 1403 2484 
z
M 1172 3481 
Q 1172 3119 1398 2916 
Q 1625 2713 2034 2713 
Q 2441 2713 2670 2916 
Q 2900 3119 2900 3481 
Q 2900 3844 2670 4047 
Q 2441 4250 2034 4250 
Q 1625 4250 1398 4047 
Q 1172 3844 1172 3481 
z
" transform="scale(0.015625)"/>
       </defs>
       <use xlink:href="#DejaVuSans-31"/>
       <use xlink:href="#DejaVuSans-38" transform="translate(63.623047 0)"/>
       <use xlink:href="#DejaVuSans-30" transform="translate(127.246094 0)"/>
       <use xlink:href="#DejaVuSans-b0" transform="translate(190.869141 0)"/>
      </g>
     </g>
    </g>
    <g id="xtick_6">
     <g id="line2d_6">
      <path d="M 147.8175 152.318906 
L 74.579468 225.556939 
" clip-path="url(#p9e84886b51)" style="fill: none; stroke: #b0b0b0; stroke-opacity: 0.6; stroke-width: 0.8; stroke-linecap: square"/>
     </g>
     <g id="text_6">
      <!-- 225° -->
      <g transform="translate(49.166812 239.828344) scale(0.12 -0.12)">
       <defs>
        <path id="DejaVuSans-32" d="M 1228 531 
L 3431 531 
L 3431 0 
L 469 0 
L 469 531 
Q 828 903 1448 1529 
Q 2069 2156 2228 2338 
Q 2531 2678 2651 2914 
Q 2772 3150 2772 3378 
Q 2772 3750 2511 3984 
Q 2250 4219 1831 4219 
Q 1534 4219 1204 4116 
Q 875 4013 500 3803 
L 500 4441 
Q 881 4594 1212 4672 
Q 1544 4750 1819 4750 
Q 2544 4750 2975 4387 
Q 3406 4025 3406 3419 
Q 3406 3131 3298 2873 
Q 3191 2616 2906 2266 
Q 2828 2175 2409 1742 
Q 1991 1309 1228 531 
z
" transform="scale(0.015625)"/>
       </defs>
       <use xlink:href="#DejaVuSans-32"/>
       <use xlink:href="#DejaVuSans-32" transform="translate(63.623047 0)"/>
       <use xlink:href="#DejaVuSans-35" transform="translate(127.246094 0)"/>
       <use xlink:href="#DejaVuSans-b0" transform="translate(190.869141 0)"/>
      </g>
     </g>
    </g>
    <g id="xtick_7">
     <g id="line2d_7">
      <path d="M 147.8175 152.318906 
L 147.8175 255.893125 
" clip-path="url(#p9e84886b51)" style="fill: none; stroke: #b0b0b0; stroke-opacity: 0.6; stroke-width: 0.8; stroke-linecap: square"/>
     </g>
     <g id="text_7">
      <!-- 270° -->
      <g transform="translate(133.365 274.704375) scale(0.12 -0.12)">
       <defs>
        <path id="DejaVuSans-37" d="M 525 4666 
L 3525 4666 
L 3525 4397 
L 1831 0 
L 1172 0 
L 2766 4134 
L 525 4134 
L 525 4666 
z
" transform="scale(0.015625)"/>
       </defs>
       <use xlink:href="#DejaVuSans-32"/>
       <use xlink:href="#DejaVuSans-37" transform="translate(63.623047 0)"/>
       <use xlink:href="#DejaVuSans-30" transform="translate(127.246094 0)"/>
       <use xlink:href="#DejaVuSans-b0" transform="translate(190.869141 0)"/>
      </g>
     </g>
    </g>
    <g id="xtick_8">
     <g id="line2d_8">
      <path d="M 147.8175 152.318906 
L 221.055532 225.556939 
" clip-path="url(#p9e84886b51)" style="fill: none; stroke: #b0b0b0; stroke-opacity: 0.6; stroke-width: 0.8; stroke-linecap: square"/>
     </g>
     <g id="text_8">
      <!-- 315° -->
      <g transform="translate(217.563188 239.828344) scale(0.12 -0.12)">
       <use xlink:href="#DejaVuSans-33"/>
       <use xlink:href="#DejaVuSans-31" transform="translate(63.623047 0)"/>
       <use xlink:href="#DejaVuSans-35" transform="translate(127.246094 0)"/>
       <use xlink:href="#DejaVuSans-b0" transform="translate(190.869141 0)"/>
      </g>
     </g>
    </g>
   </g>
   <g id="matplotlib.axis_2">
    <g id="ytick_1">
     <g id="line2d_9">
      <path d="M 165.069457 152.318906 
C 165.069457 150.0534 164.623202 147.809923 163.75623 145.716868 
C 162.889258 143.623813 161.618431 141.721885 160.016476 140.11993 
C 158.414521 138.517975 156.512593 137.247148 154.419538 136.380176 
C 152.326483 135.513204 150.083006 135.066949 147.8175 135.066949 
C 145.551994 135.066949 143.308517 135.513204 141.215462 136.380176 
C 139.122407 137.247148 137.220479 138.517975 135.618524 140.11993 
C 134.016569 141.721885 132.745742 143.623813 131.87877 145.716868 
C 131.011798 147.809923 130.565543 150.0534 130.565543 152.318906 
C 130.565543 154.584413 131.011798 156.82789 131.87877 158.920944 
C 132.745742 161.013999 134.016569 162.915927 135.618524 164.517882 
C 137.220479 166.119837 139.122407 167.390665 141.215462 168.257636 
C 143.308517 169.124608 145.551994 169.570863 147.8175 169.570863 
C 150.083006 169.570863 152.326483 169.124608 154.419538 168.257636 
C 156.512593 167.390665 158.414521 166.119837 160.016476 164.517882 
C 161.618431 162.915927 162.889258 161.013999 163.75623 158.920944 
C 164.623202 156.82789 165.069457 154.584413 165.069457 152.318906 
" clip-path="url(#p9e84886b51)" style="fill: none; stroke: #b0b0b0; stroke-opacity: 0.6; stroke-width: 0.8; stroke-linecap: square"/>
     </g>
    </g>
    <g id="ytick_2">
     <g id="line2d_10">
      <path d="M 182.321414 152.318906 
C 182.321414 147.787894 181.428904 143.30094 179.69496 139.11483 
C 177.961017 134.92872 175.419362 131.124864 172.215452 127.920954 
C 169.011542 124.717045 165.207686 122.175389 161.021576 120.441446 
C 156.835467 118.707502 152.348513 117.814992 147.8175 117.814992 
C 143.286487 117.814992 138.799533 118.707502 134.613424 120.441446 
C 130.427314 122.175389 126.623458 124.717045 123.419548 127.920954 
C 120.215638 131.124864 117.673983 134.92872 115.94004 139.11483 
C 114.206096 143.30094 113.313586 147.787894 113.313586 152.318906 
C 113.313586 156.849919 114.206096 161.336873 115.94004 165.522983 
C 117.673983 169.709092 120.215638 173.512948 123.419548 176.716858 
C 126.623458 179.920768 130.427314 182.462423 134.613424 184.196367 
C 138.799533 185.93031 143.286487 186.822821 147.8175 186.822821 
C 152.348513 186.822821 156.835467 185.93031 161.021576 184.196367 
C 165.207686 182.462423 169.011542 179.920768 172.215452 176.716858 
C 175.419362 173.512948 177.961017 169.709092 179.69496 165.522983 
C 181.428904 161.336873 182.321414 156.849919 182.321414 152.318906 
" clip-path="url(#p9e84886b51)" style="fill: none; stroke: #b0b0b0; stroke-opacity: 0.6; stroke-width: 0.8; stroke-linecap: square"/>
     </g>
    </g>
    <g id="ytick_3">
     <g id="line2d_11">
      <path d="M 199.573372 152.318906 
C 199.573372 145.522387 198.234606 138.791956 195.633691 132.512792 
C 193.032775 126.233627 189.220292 120.527843 184.414428 115.721978 
C 179.608563 110.916114 173.902779 107.103631 167.623615 104.502716 
C 161.34445 101.901801 154.614019 100.563035 147.8175 100.563035 
C 141.020981 100.563035 134.29055 101.901801 128.011385 104.502716 
C 121.732221 107.103631 116.026437 110.916114 111.220572 115.721978 
C 106.414708 120.527843 102.602225 126.233627 100.001309 132.512792 
C 97.400394 138.791956 96.061628 145.522387 96.061628 152.318906 
C 96.061628 159.115425 97.400394 165.845856 100.001309 172.125021 
C 102.602225 178.404185 106.414708 184.10997 111.220572 188.915834 
C 116.026437 193.721699 121.732221 197.534182 128.011385 200.135097 
C 134.29055 202.736012 141.020981 204.074778 147.8175 204.074778 
C 154.614019 204.074778 161.34445 202.736012 167.623615 200.135097 
C 173.902779 197.534182 179.608563 193.721699 184.414428 188.915834 
C 189.220292 184.10997 193.032775 178.404185 195.633691 172.125021 
C 198.234606 165.845856 199.573372 159.115425 199.573372 152.318906 
" clip-path="url(#p9e84886b51)" style="fill: none; stroke: #b0b0b0; stroke-opacity: 0.6; stroke-width: 0.8; stroke-linecap: square"/>
     </g>
    </g>
    <g id="ytick_4">
     <g id="line2d_12">
      <path d="M 216.825329 152.318906 
C 216.825329 143.256881 215.040308 134.282973 211.572421 125.910753 
C 208.104534 117.538534 203.021223 109.930822 196.613404 103.523002 
C 190.205584 97.115183 182.597872 92.031872 174.225653 88.563986 
C 165.853433 85.096099 156.879525 83.311077 147.8175 83.311077 
C 138.755475 83.311077 129.781567 85.096099 121.409347 88.563986 
C 113.037128 92.031872 105.429416 97.115183 99.021596 103.523002 
C 92.613777 109.930822 87.530466 117.538534 84.062579 125.910753 
C 80.594692 134.282973 78.809671 143.256881 78.809671 152.318906 
C 78.809671 161.380931 80.594692 170.35484 84.062579 178.727059 
C 87.530466 187.099279 92.613777 194.706991 99.021596 201.11481 
C 105.429416 207.522629 113.037128 212.60594 121.409347 216.073827 
C 129.781567 219.541714 138.755475 221.326735 147.8175 221.326735 
C 156.879525 221.326735 165.853433 219.541714 174.225653 216.073827 
C 182.597872 212.60594 190.205584 207.522629 196.613404 201.11481 
C 203.021223 194.706991 208.104534 187.099279 211.572421 178.727059 
C 215.040308 170.35484 216.825329 161.380931 216.825329 152.318906 
" clip-path="url(#p9e84886b51)" style="fill: none; stroke: #b0b0b0; stroke-opacity: 0.6; stroke-width: 0.8; stroke-linecap: square"/>
     </g>
    </g>
    <g id="ytick_5">
     <g id="line2d_13">
      <path d="M 234.077286 152.318906 
C 234.077286 140.991375 231.846009 129.77399 227.511151 119.308715 
C 223.176292 108.843441 216.822154 99.333801 208.81238 91.324027 
C 200.802605 83.314252 191.292965 76.960114 180.827691 72.625255 
C 170.362417 68.290397 159.145031 66.05912 147.8175 66.05912 
C 136.489969 66.05912 125.272583 68.290397 114.807309 72.625255 
C 104.342035 76.960114 94.832395 83.314252 86.82262 91.324027 
C 78.812846 99.333801 72.458708 108.843441 68.123849 119.308715 
C 63.788991 129.77399 61.557714 140.991375 61.557714 152.318906 
C 61.557714 163.646438 63.788991 174.863823 68.123849 185.329097 
C 72.458708 195.794372 78.812846 205.304012 86.82262 213.313786 
C 94.832395 221.32356 104.342035 227.677699 114.807309 232.012557 
C 125.272583 236.347416 136.489969 238.578692 147.8175 238.578692 
C 159.145031 238.578692 170.362417 236.347416 180.827691 232.012557 
C 191.292965 227.677699 200.802605 221.32356 208.81238 213.313786 
C 216.822154 205.304012 223.176292 195.794372 227.511151 185.329097 
C 231.846009 174.863823 234.077286 163.646438 234.077286 152.318906 
" clip-path="url(#p9e84886b51)" style="fill: none; stroke: #b0b0b0; stroke-opacity: 0.6; stroke-width: 0.8; stroke-linecap: square"/>
     </g>
    </g>
    <g id="ytick_6">
     <g id="line2d_14">
      <path d="M 251.329243 152.318906 
C 251.329243 138.725869 248.651711 125.265006 243.449881 112.706677 
C 238.248051 100.148348 230.623085 88.73678 221.011356 79.125051 
C 211.399627 69.513322 199.988058 61.888355 187.429729 56.686525 
C 174.8714 51.484695 161.410538 48.807163 147.8175 48.807163 
C 134.224462 48.807163 120.7636 51.484695 108.205271 56.686525 
C 95.646942 61.888355 84.235373 69.513322 74.623644 79.125051 
C 65.011915 88.73678 57.386949 100.148348 52.185119 112.706677 
C 46.983289 125.265006 44.305757 138.725869 44.305757 152.318906 
C 44.305757 165.911944 46.983289 179.372806 52.185119 191.931135 
C 57.386949 204.489465 65.011915 215.901033 74.623644 225.512762 
C 84.235373 235.124491 95.646942 242.749457 108.205271 247.951287 
C 120.7636 253.153118 134.224462 255.83065 147.8175 255.83065 
C 161.410538 255.83065 174.8714 253.153118 187.429729 247.951287 
C 199.988058 242.749457 211.399627 235.124491 221.011356 225.512762 
C 230.623085 215.901033 238.248051 204.489465 243.449881 191.931135 
C 248.651711 179.372806 251.329243 165.911944 251.329243 152.318906 
" clip-path="url(#p9e84886b51)" style="fill: none; stroke: #b0b0b0; stroke-opacity: 0.6; stroke-width: 0.8; stroke-linecap: square"/>
     </g>
    </g>
   </g>
   <g id="line2d_15">
    <path d="M 108.575251 153.552144 
L 110.639881 155.833226 
L 113.78049 157.709839 
L 116.621711 159.291991 
L 118.259575 160.906277 
L 118.80436 162.764279 
L 119.213104 164.697134 
L 120.544285 166.215303 
L 123.217997 166.867011 
L 126.851267 166.567544 
L 130.69421 165.601091 
L 134.147933 164.370251 
L 136.946469 163.189937 
L 139.067624 162.243692 
L 140.604281 161.618132 
L 141.690268 161.334854 
L 142.475251 161.352156 
L 143.112791 161.552417 
L 143.726598 161.772424 
L 144.370989 161.89196 
L 145.033136 161.902751 
L 145.680209 161.880595 
L 146.303177 161.879968 
L 146.91564 161.859585 
L 147.52189 161.725378 
L 148.103839 161.430374 
L 148.636059 160.978357 
L 149.08822 160.341915 
L 149.415742 159.469031 
L 149.58222 158.393112 
L 149.59811 157.264742 
L 149.518915 156.250644 
L 149.408324 155.441075 
L 149.313855 154.849105 
L 149.264725 154.448434 
L 149.273205 154.19559 
L 149.336 154.041306 
L 149.444471 153.945878 
L 149.602084 153.892229 
L 149.832592 153.881972 
L 150.164657 153.914033 
L 150.607238 153.968753 
L 151.144067 154.013877 
L 151.753444 154.022141 
L 152.425695 153.977958 
L 153.140009 153.865238 
L 153.810628 153.658529 
L 154.289914 153.344036 
L 154.475129 152.948238 
L 154.40888 152.526049 
L 154.240769 152.117047 
L 154.101614 151.724883 
L 154.051959 151.331465 
L 154.140875 150.905464 
L 154.436482 150.395914 
L 154.931606 149.757671 
L 155.454081 149.014263 
L 155.772029 148.265871 
L 155.816604 147.588249 
L 155.750292 146.927787 
L 155.805669 146.122647 
L 156.08716 145.028221 
L 156.50975 143.626656 
L 156.884948 142.033905 
L 157.059076 140.404738 
L 156.98695 138.82647 
L 156.709141 137.283962 
L 156.301359 135.668395 
L 155.835698 133.789944 
L 155.331845 131.447009 
L 154.721273 128.555962 
L 153.871509 125.234828 
L 152.655722 121.771575 
L 151.016739 118.474492 
L 148.976235 115.447358 
L 146.565578 112.482097 
L 143.746962 109.257112 
L 140.427034 105.657343 
L 136.53106 101.826277 
L 132.024921 97.960494 
L 126.909508 94.244723 
L 121.290766 91.019241 
L 115.462931 88.819488 
L 109.829289 88.08435 
L 104.630798 88.771604 
L 99.69567 90.280616 
L 94.526985 91.872683 
L 88.824309 93.325716 
L 83.015174 95.187971 
L 78.167417 98.292764 
L 75.272597 103.017441 
L 74.621615 109.030981 
L 75.795428 115.621827 
L 77.998294 122.105438 
L 80.313434 128.015947 
L 81.996592 133.196165 
L 82.88252 137.804219 
L 83.392791 142.115035 
L 83.926468 146.279426 
L 84.369027 150.324958 
L 108.575251 153.552144 
" clip-path="url(#p9e84886b51)" style="fill: none; stroke: #5e3c99; stroke-width: 1.5; stroke-linecap: square"/>
   </g>
   <g id="patch_103">
    <path d="M 251.391719 152.318906 
C 251.391719 138.717664 248.712571 125.248678 243.507601 112.682769 
C 238.302631 100.11686 230.673063 88.698404 221.055532 79.080874 
C 211.438002 69.463344 200.019546 61.833775 187.453638 56.628805 
C 174.887729 51.423836 161.418742 48.744687 147.8175 48.744687 
C 134.216258 48.744687 120.747271 51.423836 108.181362 56.628805 
C 95.615454 61.833775 84.196998 69.463344 74.579468 79.080874 
C 64.961937 88.698404 57.332369 100.11686 52.127399 112.682769 
C 46.922429 125.248678 44.243281 138.717664 44.243281 152.318906 
C 44.243281 165.920148 46.922429 179.389135 52.127399 191.955044 
C 57.332369 204.520953 64.961937 215.939408 74.579468 225.556939 
C 84.196998 235.174469 95.615454 242.804037 108.181362 248.009007 
C 120.747271 253.213977 134.216258 255.893125 147.8175 255.893125 
C 161.418742 255.893125 174.887729 253.213977 187.453638 248.009007 
C 200.019546 242.804037 211.438002 235.174469 221.055532 225.556939 
C 230.673063 215.939408 238.302631 204.520953 243.507601 191.955044 
C 248.712571 179.389135 251.391719 165.920148 251.391719 152.318906 
" style="fill: none; stroke: #000000; stroke-width: 0.8; stroke-linejoin: miter; stroke-linecap: square"/>
   </g>
   <g id="text_9">
    <!-- STN–GPe within-burst phase difference -->
    <g transform="translate(11.716719 21.437813) scale(0.14 -0.14)">
     <defs>
      <path id="DejaVuSans-53" d="M 3425 4513 
L 3425 3897 
Q 3066 4069 2747 4153 
Q 2428 4238 2131 4238 
Q 1616 4238 1336 4038 
Q 1056 3838 1056 3469 
Q 1056 3159 1242 3001 
Q 1428 2844 1947 2747 
L 2328 2669 
Q 3034 2534 3370 2195 
Q 3706 1856 3706 1288 
Q 3706 609 3251 259 
Q 2797 -91 1919 -91 
Q 1588 -91 1214 -16 
Q 841 59 441 206 
L 441 856 
Q 825 641 1194 531 
Q 1563 422 1919 422 
Q 2459 422 2753 634 
Q 3047 847 3047 1241 
Q 3047 1584 2836 1778 
Q 2625 1972 2144 2069 
L 1759 2144 
Q 1053 2284 737 2584 
Q 422 2884 422 3419 
Q 422 4038 858 4394 
Q 1294 4750 2059 4750 
Q 2388 4750 2728 4690 
Q 3069 4631 3425 4513 
z
" transform="scale(0.015625)"/>
      <path id="DejaVuSans-54" d="M -19 4666 
L 3928 4666 
L 3928 4134 
L 2272 4134 
L 2272 0 
L 1638 0 
L 1638 4134 
L -19 4134 
L -19 4666 
z
" transform="scale(0.015625)"/>
      <path id="DejaVuSans-4e" d="M 628 4666 
L 1478 4666 
L 3547 763 
L 3547 4666 
L 4159 4666 
L 4159 0 
L 3309 0 
L 1241 3903 
L 1241 0 
L 628 0 
L 628 4666 
z
" transform="scale(0.015625)"/>
      <path id="DejaVuSans-2013" d="M 313 1978 
L 2888 1978 
L 2888 1528 
L 313 1528 
L 313 1978 
z
" transform="scale(0.015625)"/>
      <path id="DejaVuSans-47" d="M 3809 666 
L 3809 1919 
L 2778 1919 
L 2778 2438 
L 4434 2438 
L 4434 434 
Q 4069 175 3628 42 
Q 3188 -91 2688 -91 
Q 1594 -91 976 548 
Q 359 1188 359 2328 
Q 359 3472 976 4111 
Q 1594 4750 2688 4750 
Q 3144 4750 3555 4637 
Q 3966 4525 4313 4306 
L 4313 3634 
Q 3963 3931 3569 4081 
Q 3175 4231 2741 4231 
Q 1884 4231 1454 3753 
Q 1025 3275 1025 2328 
Q 1025 1384 1454 906 
Q 1884 428 2741 428 
Q 3075 428 3337 486 
Q 3600 544 3809 666 
z
" transform="scale(0.015625)"/>
      <path id="DejaVuSans-50" d="M 1259 4147 
L 1259 2394 
L 2053 2394 
Q 2494 2394 2734 2622 
Q 2975 2850 2975 3272 
Q 2975 3691 2734 3919 
Q 2494 4147 2053 4147 
L 1259 4147 
z
M 628 4666 
L 2053 4666 
Q 2838 4666 3239 4311 
Q 3641 3956 3641 3272 
Q 3641 2581 3239 2228 
Q 2838 1875 2053 1875 
L 1259 1875 
L 1259 0 
L 628 0 
L 628 4666 
z
" transform="scale(0.015625)"/>
      <path id="DejaVuSans-65" d="M 3597 1894 
L 3597 1613 
L 953 1613 
Q 991 1019 1311 708 
Q 1631 397 2203 397 
Q 2534 397 2845 478 
Q 3156 559 3463 722 
L 3463 178 
Q 3153 47 2828 -22 
Q 2503 -91 2169 -91 
Q 1331 -91 842 396 
Q 353 884 353 1716 
Q 353 2575 817 3079 
Q 1281 3584 2069 3584 
Q 2775 3584 3186 3129 
Q 3597 2675 3597 1894 
z
M 3022 2063 
Q 3016 2534 2758 2815 
Q 2500 3097 2075 3097 
Q 1594 3097 1305 2825 
Q 1016 2553 972 2059 
L 3022 2063 
z
" transform="scale(0.015625)"/>
      <path id="DejaVuSans-20" transform="scale(0.015625)"/>
      <path id="DejaVuSans-77" d="M 269 3500 
L 844 3500 
L 1563 769 
L 2278 3500 
L 2956 3500 
L 3675 769 
L 4391 3500 
L 4966 3500 
L 4050 0 
L 3372 0 
L 2619 2869 
L 1863 0 
L 1184 0 
L 269 3500 
z
" transform="scale(0.015625)"/>
      <path id="DejaVuSans-69" d="M 603 3500 
L 1178 3500 
L 1178 0 
L 603 0 
L 603 3500 
z
M 603 4863 
L 1178 4863 
L 1178 4134 
L 603 4134 
L 603 4863 
z
" transform="scale(0.015625)"/>
      <path id="DejaVuSans-74" d="M 1172 4494 
L 1172 3500 
L 2356 3500 
L 2356 3053 
L 1172 3053 
L 1172 1153 
Q 1172 725 1289 603 
Q 1406 481 1766 481 
L 2356 481 
L 2356 0 
L 1766 0 
Q 1100 0 847 248 
Q 594 497 594 1153 
L 594 3053 
L 172 3053 
L 172 3500 
L 594 3500 
L 594 4494 
L 1172 4494 
z
" transform="scale(0.015625)"/>
      <path id="DejaVuSans-68" d="M 3513 2113 
L 3513 0 
L 2938 0 
L 2938 2094 
Q 2938 2591 2744 2837 
Q 2550 3084 2163 3084 
Q 1697 3084 1428 2787 
Q 1159 2491 1159 1978 
L 1159 0 
L 581 0 
L 581 4863 
L 1159 4863 
L 1159 2956 
Q 1366 3272 1645 3428 
Q 1925 3584 2291 3584 
Q 2894 3584 3203 3211 
Q 3513 2838 3513 2113 
z
" transform="scale(0.015625)"/>
      <path id="DejaVuSans-6e" d="M 3513 2113 
L 3513 0 
L 2938 0 
L 2938 2094 
Q 2938 2591 2744 2837 
Q 2550 3084 2163 3084 
Q 1697 3084 1428 2787 
Q 1159 2491 1159 1978 
L 1159 0 
L 581 0 
L 581 3500 
L 1159 3500 
L 1159 2956 
Q 1366 3272 1645 3428 
Q 1925 3584 2291 3584 
Q 2894 3584 3203 3211 
Q 3513 2838 3513 2113 
z
" transform="scale(0.015625)"/>
      <path id="DejaVuSans-2d" d="M 313 2009 
L 1997 2009 
L 1997 1497 
L 313 1497 
L 313 2009 
z
" transform="scale(0.015625)"/>
      <path id="DejaVuSans-62" d="M 3116 1747 
Q 3116 2381 2855 2742 
Q 2594 3103 2138 3103 
Q 1681 3103 1420 2742 
Q 1159 2381 1159 1747 
Q 1159 1113 1420 752 
Q 1681 391 2138 391 
Q 2594 391 2855 752 
Q 3116 1113 3116 1747 
z
M 1159 2969 
Q 1341 3281 1617 3432 
Q 1894 3584 2278 3584 
Q 2916 3584 3314 3078 
Q 3713 2572 3713 1747 
Q 3713 922 3314 415 
Q 2916 -91 2278 -91 
Q 1894 -91 1617 61 
Q 1341 213 1159 525 
L 1159 0 
L 581 0 
L 581 4863 
L 1159 4863 
L 1159 2969 
z
" transform="scale(0.015625)"/>
      <path id="DejaVuSans-75" d="M 544 1381 
L 544 3500 
L 1119 3500 
L 1119 1403 
Q 1119 906 1312 657 
Q 1506 409 1894 409 
Q 2359 409 2629 706 
Q 2900 1003 2900 1516 
L 2900 3500 
L 3475 3500 
L 3475 0 
L 2900 0 
L 2900 538 
Q 2691 219 2414 64 
Q 2138 -91 1772 -91 
Q 1169 -91 856 284 
Q 544 659 544 1381 
z
M 1991 3584 
L 1991 3584 
z
" transform="scale(0.015625)"/>
      <path id="DejaVuSans-72" d="M 2631 2963 
Q 2534 3019 2420 3045 
Q 2306 3072 2169 3072 
Q 1681 3072 1420 2755 
Q 1159 2438 1159 1844 
L 1159 0 
L 581 0 
L 581 3500 
L 1159 3500 
L 1159 2956 
Q 1341 3275 1631 3429 
Q 1922 3584 2338 3584 
Q 2397 3584 2469 3576 
Q 2541 3569 2628 3553 
L 2631 2963 
z
" transform="scale(0.015625)"/>
      <path id="DejaVuSans-73" d="M 2834 3397 
L 2834 2853 
Q 2591 2978 2328 3040 
Q 2066 3103 1784 3103 
Q 1356 3103 1142 2972 
Q 928 2841 928 2578 
Q 928 2378 1081 2264 
Q 1234 2150 1697 2047 
L 1894 2003 
Q 2506 1872 2764 1633 
Q 3022 1394 3022 966 
Q 3022 478 2636 193 
Q 2250 -91 1575 -91 
Q 1294 -91 989 -36 
Q 684 19 347 128 
L 347 722 
Q 666 556 975 473 
Q 1284 391 1588 391 
Q 1994 391 2212 530 
Q 2431 669 2431 922 
Q 2431 1156 2273 1281 
Q 2116 1406 1581 1522 
L 1381 1569 
Q 847 1681 609 1914 
Q 372 2147 372 2553 
Q 372 3047 722 3315 
Q 1072 3584 1716 3584 
Q 2034 3584 2315 3537 
Q 2597 3491 2834 3397 
z
" transform="scale(0.015625)"/>
      <path id="DejaVuSans-70" d="M 1159 525 
L 1159 -1331 
L 581 -1331 
L 581 3500 
L 1159 3500 
L 1159 2969 
Q 1341 3281 1617 3432 
Q 1894 3584 2278 3584 
Q 2916 3584 3314 3078 
Q 3713 2572 3713 1747 
Q 3713 922 3314 415 
Q 2916 -91 2278 -91 
Q 1894 -91 1617 61 
Q 1341 213 1159 525 
z
M 3116 1747 
Q 3116 2381 2855 2742 
Q 2594 3103 2138 3103 
Q 1681 3103 1420 2742 
Q 1159 2381 1159 1747 
Q 1159 1113 1420 752 
Q 1681 391 2138 391 
Q 2594 391 2855 752 
Q 3116 1113 3116 1747 
z
" transform="scale(0.015625)"/>
      <path id="DejaVuSans-61" d="M 2194 1759 
Q 1497 1759 1228 1600 
Q 959 1441 959 1056 
Q 959 750 1161 570 
Q 1363 391 1709 391 
Q 2188 391 2477 730 
Q 2766 1069 2766 1631 
L 2766 1759 
L 2194 1759 
z
M 3341 1997 
L 3341 0 
L 2766 0 
L 2766 531 
Q 2569 213 2275 61 
Q 1981 -91 1556 -91 
Q 1019 -91 701 211 
Q 384 513 384 1019 
Q 384 1609 779 1909 
Q 1175 2209 1959 2209 
L 2766 2209 
L 2766 2266 
Q 2766 2663 2505 2880 
Q 2244 3097 1772 3097 
Q 1472 3097 1187 3025 
Q 903 2953 641 2809 
L 641 3341 
Q 956 3463 1253 3523 
Q 1550 3584 1831 3584 
Q 2591 3584 2966 3190 
Q 3341 2797 3341 1997 
z
" transform="scale(0.015625)"/>
      <path id="DejaVuSans-64" d="M 2906 2969 
L 2906 4863 
L 3481 4863 
L 3481 0 
L 2906 0 
L 2906 525 
Q 2725 213 2448 61 
Q 2172 -91 1784 -91 
Q 1150 -91 751 415 
Q 353 922 353 1747 
Q 353 2572 751 3078 
Q 1150 3584 1784 3584 
Q 2172 3584 2448 3432 
Q 2725 3281 2906 2969 
z
M 947 1747 
Q 947 1113 1208 752 
Q 1469 391 1925 391 
Q 2381 391 2643 752 
Q 2906 1113 2906 1747 
Q 2906 2381 2643 2742 
Q 2381 3103 1925 3103 
Q 1469 3103 1208 2742 
Q 947 2381 947 1747 
z
" transform="scale(0.015625)"/>
      <path id="DejaVuSans-66" d="M 2375 4863 
L 2375 4384 
L 1825 4384 
Q 1516 4384 1395 4259 
Q 1275 4134 1275 3809 
L 1275 3500 
L 2222 3500 
L 2222 3053 
L 1275 3053 
L 1275 0 
L 697 0 
L 697 3053 
L 147 3053 
L 147 3500 
L 697 3500 
L 697 3744 
Q 697 4328 969 4595 
Q 1241 4863 1831 4863 
L 2375 4863 
z
" transform="scale(0.015625)"/>
      <path id="DejaVuSans-63" d="M 3122 3366 
L 3122 2828 
Q 2878 2963 2633 3030 
Q 2388 3097 2138 3097 
Q 1578 3097 1268 2742 
Q 959 2388 959 1747 
Q 959 1106 1268 751 
Q 1578 397 2138 397 
Q 2388 397 2633 464 
Q 2878 531 3122 666 
L 3122 134 
Q 2881 22 2623 -34 
Q 2366 -91 2075 -91 
Q 1284 -91 818 406 
Q 353 903 353 1747 
Q 353 2603 823 3093 
Q 1294 3584 2113 3584 
Q 2378 3584 2631 3529 
Q 2884 3475 3122 3366 
z
" transform="scale(0.015625)"/>
     </defs>
     <use xlink:href="#DejaVuSans-53"/>
     <use xlink:href="#DejaVuSans-54" transform="translate(63.476562 0)"/>
     <use xlink:href="#DejaVuSans-4e" transform="translate(124.560547 0)"/>
     <use xlink:href="#DejaVuSans-2013" transform="translate(199.365234 0)"/>
     <use xlink:href="#DejaVuSans-47" transform="translate(249.365234 0)"/>
     <use xlink:href="#DejaVuSans-50" transform="translate(326.855469 0)"/>
     <use xlink:href="#DejaVuSans-65" transform="translate(383.533203 0)"/>
     <use xlink:href="#DejaVuSans-20" transform="translate(445.056641 0)"/>
     <use xlink:href="#DejaVuSans-77" transform="translate(476.84375 0)"/>
     <use xlink:href="#DejaVuSans-69" transform="translate(558.630859 0)"/>
     <use xlink:href="#DejaVuSans-74" transform="translate(586.414062 0)"/>
     <use xlink:href="#DejaVuSans-68" transform="translate(625.623047 0)"/>
     <use xlink:href="#DejaVuSans-69" transform="translate(689.001953 0)"/>
     <use xlink:href="#DejaVuSans-6e" transform="translate(716.785156 0)"/>
     <use xlink:href="#DejaVuSans-2d" transform="translate(780.164062 0)"/>
     <use xlink:href="#DejaVuSans-62" transform="translate(816.248047 0)"/>
     <use xlink:href="#DejaVuSans-75" transform="translate(879.724609 0)"/>
     <use xlink:href="#DejaVuSans-72" transform="translate(943.103516 0)"/>
     <use xlink:href="#DejaVuSans-73" transform="translate(984.216797 0)"/>
     <use xlink:href="#DejaVuSans-74" transform="translate(1036.316406 0)"/>
     <use xlink:href="#DejaVuSans-20" transform="translate(1075.525391 0)"/>
     <use xlink:href="#DejaVuSans-70" transform="translate(1107.3125 0)"/>
     <use xlink:href="#DejaVuSans-68" transform="translate(1170.789062 0)"/>
     <use xlink:href="#DejaVuSans-61" transform="translate(1234.167969 0)"/>
     <use xlink:href="#DejaVuSans-73" transform="translate(1295.447266 0)"/>
     <use xlink:href="#DejaVuSans-65" transform="translate(1347.546875 0)"/>
     <use xlink:href="#DejaVuSans-20" transform="translate(1409.070312 0)"/>
     <use xlink:href="#DejaVuSans-64" transform="translate(1440.857422 0)"/>
     <use xlink:href="#DejaVuSans-69" transform="translate(1504.333984 0)"/>
     <use xlink:href="#DejaVuSans-66" transform="translate(1532.117188 0)"/>
     <use xlink:href="#DejaVuSans-66" transform="translate(1567.322266 0)"/>
     <use xlink:href="#DejaVuSans-65" transform="translate(1602.527344 0)"/>
     <use xlink:href="#DejaVuSans-72" transform="translate(1664.050781 0)"/>
     <use xlink:href="#DejaVuSans-65" transform="translate(1702.914062 0)"/>
     <use xlink:href="#DejaVuSans-6e" transform="translate(1764.4375 0)"/>
     <use xlink:href="#DejaVuSans-63" transform="translate(1827.816406 0)"/>
     <use xlink:href="#DejaVuSans-65" transform="translate(1882.796875 0)"/>
    </g>
   </g>
  </g>
 </g>
 <defs>
  <clipPath id="p9e84886b51">
   <path d="M 251.391719 152.318906 
C 251.391719 138.717664 248.712571 125.248678 243.507601 112.682769 
C 238.302631 100.11686 230.673063 88.698404 221.055532 79.080874 
C 211.438002 69.463344 200.019546 61.833775 187.453638 56.628805 
C 174.887729 51.423836 161.418742 48.744687 147.8175 48.744687 
C 134.216258 48.744687 120.747271 51.423836 108.181362 56.628805 
C 95.615454 61.833775 84.196998 69.463344 74.579468 79.080874 
C 64.961937 88.698404 57.332369 100.11686 52.127399 112.682769 
C 46.922429 125.248678 44.243281 138.717664 44.243281 152.318906 
C 44.243281 165.920148 46.922429 179.389135 52.127399 191.955044 
C 57.332369 204.520953 64.961937 215.939408 74.579468 225.556939 
C 84.196998 235.174469 95.615454 242.804037 108.181362 248.009007 
C 120.747271 253.213977 134.216258 255.893125 147.8175 255.893125 
C 161.418742 255.893125 174.887729 253.213977 187.453638 248.009007 
C 200.019546 242.804037 211.438002 235.174469 221.055532 225.556939 
C 230.673063 215.939408 238.302631 204.520953 243.507601 191.955044 
C 248.712571 179.389135 251.391719 165.920148 251.391719 152.318906 
M 147.8175 152.318906 
C 147.8175 152.318906 147.8175 152.318906 147.8175 152.318906 
C 147.8175 152.318906 147.8175 152.318906 147.8175 152.318906 
C 147.8175 152.318906 147.8175 152.318906 147.8175 152.318906 
C 147.8175 152.318906 147.8175 152.318906 147.8175 152.318906 
C 147.8175 152.318906 147.8175 152.318906 147.8175 152.318906 
C 147.8175 152.318906 147.8175 152.318906 147.8175 152.318906 
C 147.8175 152.318906 147.8175 152.318906 147.8175 152.318906 
C 147.8175 152.318906 147.8175 152.318906 147.8175 152.318906 
C 147.8175 152.318906 147.8175 152.318906 147.8175 152.318906 
C 147.8175 152.318906 147.8175 152.318906 147.8175 152.318906 
C 147.8175 152.318906 147.8175 152.318906 147.8175 152.318906 
C 147.8175 152.318906 147.8175 152.318906 147.8175 152.318906 
C 147.8175 152.318906 147.8175 152.318906 147.8175 152.318906 
C 147.8175 152.318906 147.8175 152.318906 147.8175 152.318906 
C 147.8175 152.318906 147.8175 152.318906 147.8175 152.318906 
C 147.8175 152.318906 147.8175 152.318906 147.8175 152.318906 
z
"/>
  </clipPath>
 </defs>
</svg>
