<?xml version="1.0" encoding="utf-8" standalone="no"?>
<!DOCTYPE svg PUBLIC "-//W3C//DTD SVG 1.1//EN"
  "http://www.w3.org/Graphics/SVG/1.1/DTD/svg11.dtd">
<svg xmlns:xlink="http://www.w3.org/1999/xlink" width="288pt" height="288pt" viewBox="0 0 288 288" xmlns="http://www.w3.org/2000/svg" version="1.1">
 <metadata>
  <rdf:RDF xmlns:dc="http://purl.org/dc/elements/1.1/" xmlns:cc="http://creativecommons.org/ns#" xmlns:rdf="http://www.w3.org/1999/02/22-rdf-syntax-ns#">
   <cc:Work>
    <dc:type rdf:resource="http://purl.org/dc/dcmitype/StillImage"/>
    <dc:date>1980-01-01T00:00:00+00:00</dc:date>
    <dc:format>image/svg+xml</dc:format>
    <dc:creator>
     <cc:Agent>
      <dc:title>Matplotlib v3.10.1, https://matplotlib.org/</dc:title>
     </cc:Agent>
    </dc:creator>
   </cc:Work>
  </rdf:RDF>
 </metadata>
 <defs>
  <style type="text/css">*{stroke-linejoin: round; stroke-linecap: butt}</style>
 </defs>
 <g id="figure_1">
  <g id="patch_1">
   <path d="M 0 288 
L 288 288 
L 288 0 
L 0 0 
L 0 288 
z
" style="fill: none"/>
  </g>
  <g id="axes_1">
   <g id="patch_2">
    <path d="M 251.391719 152.318906 
C 251.391719 138.717664 248.712571 125.248678 243.507601 112.682769 
C 238.302631 100.11686 230.673063 88.698404 221.055532 79.080874 
C 211.438002 69.463344 200.019546 61.833775 187.453638 56.628805 
C 174.887729 51.423836 161.418742 48.744687 147.8175 48.744687 
C 134.216258 48.744687 120.747271 51.423836 108.181362 56.628805 
C 95.615454 61.833775 84.196998 69.463344 74.579468 79.080874 
C 64.961937 88.698404 57.332369 100.11686 52.127399 112.682769 
C 46.922429 125.248678 44.243281 138.717664 44.243281 152.318906 
C 44.243281 165.920148 46.922429 179.389135 52.127399 191.955044 
C 57.332369 204.520953 64.961937 215.939408 74.579468 225.556939 
C 84.196998 235.174469 95.615454 242.804037 108.181362 248.009007 
C 120.747271 253.213977 134.216258 255.893125 147.8175 255.893125 
C 161.418742 255.893125 174.887729 253.213977 187.453638 248.009007 
C 200.019546 242.804037 211.438002 235.174469 221.055532 225.556939 
C 230.673063 215.939408 238.302631 204.520953 243.507601 191.955044 
C 248.712571 179.389135 251.391719 165.920148 251.391719 152.318906 
M 147.8175 152.318906 
C 147.8175 152.318906 147.8175 152.318906 147.8175 152.318906 
C 147.8175 152.318906 147.8175 152.318906 147.8175 152.318906 
C 147.8175 152.318906 147.8175 152.318906 147.8175 152.318906 
C 147.8175 152.318906 147.8175 152.318906 147.8175 152.318906 
C 147.8175 152.318906 147.8175 152.318906 147.8175 152.318906 
C 147.8175 152.318906 147.8175 152.318906 147.8175 152.318906 
C 147.8175 152.318906 147.8175 152.318906 147.8175 152.318906 
C 147.8175 152.318906 147.8175 152.318906 147.8175 152.318906 
C 147.8175 152.318906 147.8175 152.318906 147.8175 152.318906 
C 147.8175 152.318906 147.8175 152.318906 147.8175 152.318906 
C 147.8175 152.318906 147.8175 152.318906 147.8175 152.318906 
C 147.8175 152.318906 147.8175 152.318906 147.8175 152.318906 
C 147.8175 152.318906 147.8175 152.318906 147.8175 152.318906 
C 147.8175 152.318906 147.8175 152.318906 147.8175 152.318906 
C 147.8175 152.318906 147.8175 152.318906 147.8175 152.318906 
C 147.8175 152.318906 147.8175 152.318906 147.8175 152.318906 
L 147.8175 152.318906 
z
" style="fill: none"/>
   </g>
   <g id="patch_3">
    <path d="M 147.8175 152.318906 
C 147.8175 152.318906 147.8175 152.318906 147.8175 152.318906 
C 147.8175 152.318906 147.8175 152.318906 147.8175 152.318906 
L 106.213207 154.947452 
C 106.185682 154.511783 106.165001 154.075708 106.151173 153.639389 
C 106.137346 153.203071 106.130372 152.766562 106.130256 152.330024 
z
" clip-path="url(#pd158169b9b)" style="fill: #3d9970; opacity: 0.4"/>
   </g>
   <g id="patch_4">
    <path d="M 147.8175 152.318906 
C 147.8175 152.318906 147.8175 152.318906 147.8175 152.318906 
C 147.8175 152.318906 147.8175 152.318906 147.8175 152.318906 
L 101.850462 158.138093 
C 101.789525 157.656738 101.736153 157.174456 101.690365 156.691425 
C 101.644577 156.208394 101.606379 155.724673 101.575786 155.240443 
z
" clip-path="url(#pd158169b9b)" style="fill: #3d9970; opacity: 0.4"/>
   </g>
   <g id="patch_5">
    <path d="M 147.8175 152.318906 
C 147.8175 152.318906 147.8175 152.318906 147.8175 152.318906 
C 147.8175 152.318906 147.8175 152.318906 147.8175 152.318906 
L 106.609863 160.190723 
C 106.527431 159.759207 106.451783 159.326424 106.382945 158.892532 
C 106.314108 158.45864 106.252091 158.023694 106.196916 157.587855 
z
" clip-path="url(#pd158169b9b)" style="fill: #3d9970; opacity: 0.4"/>
   </g>
   <g id="patch_6">
    <path d="M 147.8175 152.318906 
C 147.8175 152.318906 147.8175 152.318906 147.8175 152.318906 
C 147.8175 152.318906 147.8175 152.318906 147.8175 152.318906 
L 102.170705 164.051455 
C 102.047845 163.573454 101.932501 163.093553 101.824715 162.611928 
C 101.716929 162.130304 101.616715 161.647017 101.52411 161.162244 
z
" clip-path="url(#pd158169b9b)" style="fill: #3d9970; opacity: 0.4"/>
   </g>
   <g id="patch_7">
    <path d="M 147.8175 152.318906 
C 147.8175 152.318906 147.8175 152.318906 147.8175 152.318906 
C 147.8175 152.318906 147.8175 152.318906 147.8175 152.318906 
L 104.259969 166.48379 
C 104.111638 166.027668 103.970481 165.569243 103.836549 165.108686 
C 103.702618 164.648129 103.57593 164.185497 103.45653 163.720961 
z
" clip-path="url(#pd158169b9b)" style="fill: #3d9970; opacity: 0.4"/>
   </g>
   <g id="patch_8">
    <path d="M 147.8175 152.318906 
C 147.8175 152.318906 147.8175 152.318906 147.8175 152.318906 
C 147.8175 152.318906 147.8175 152.318906 147.8175 152.318906 
L 109.802081 167.381281 
C 109.644352 166.983194 109.492885 166.582654 109.347738 166.179809 
C 109.20259 165.776964 109.063779 165.371863 108.931356 164.964658 
z
" clip-path="url(#pd158169b9b)" style="fill: #3d9970; opacity: 0.4"/>
   </g>
   <g id="patch_9">
    <path d="M 147.8175 152.318906 
C 147.8175 152.318906 147.8175 152.318906 147.8175 152.318906 
C 147.8175 152.318906 147.8175 152.318906 147.8175 152.318906 
L 106.738994 171.661404 
C 106.536445 171.231241 106.340665 170.797923 106.151726 170.36161 
C 105.962788 169.925297 105.780715 169.486043 105.605574 169.044011 
z
" clip-path="url(#pd158169b9b)" style="fill: #3d9970; opacity: 0.4"/>
   </g>
   <g id="patch_10">
    <path d="M 147.8175 152.318906 
C 147.8175 152.318906 147.8175 152.318906 147.8175 152.318906 
C 147.8175 152.318906 147.8175 152.318906 147.8175 152.318906 
L 115.013989 170.363247 
C 114.825034 170.019737 114.641486 169.673281 114.463413 169.324005 
C 114.28534 168.97473 114.112764 168.62268 113.94575 168.267984 
z
" clip-path="url(#pd158169b9b)" style="fill: #3d9970; opacity: 0.4"/>
   </g>
   <g id="patch_11">
    <path d="M 147.8175 152.318906 
C 147.8175 152.318906 147.8175 152.318906 147.8175 152.318906 
C 147.8175 152.318906 147.8175 152.318906 147.8175 152.318906 
L 118.004916 171.248671 
C 117.806689 170.936481 117.613377 170.621197 117.425053 170.302936 
C 117.236729 169.984674 117.053416 169.663474 116.875181 169.339454 
z
" clip-path="url(#pd158169b9b)" style="fill: #3d9970; opacity: 0.4"/>
   </g>
   <g id="patch_12">
    <path d="M 147.8175 152.318906 
C 147.8175 152.318906 147.8175 152.318906 147.8175 152.318906 
C 147.8175 152.318906 147.8175 152.318906 147.8175 152.318906 
L 106.36574 182.450531 
C 106.05021 182.016459 105.741517 181.577458 105.439776 181.13369 
C 105.138035 180.689921 104.843284 180.241441 104.55563 179.788414 
z
" clip-path="url(#pd158169b9b)" style="fill: #3d9970; opacity: 0.4"/>
   </g>
   <g id="patch_13">
    <path d="M 147.8175 152.318906 
C 147.8175 152.318906 147.8175 152.318906 147.8175 152.318906 
C 147.8175 152.318906 147.8175 152.318906 147.8175 152.318906 
L 108.339426 184.993743 
C 107.997264 184.580339 107.661617 184.161586 107.332608 183.737639 
C 107.003599 183.313692 106.68127 182.884603 106.36574 182.450531 
z
" clip-path="url(#pd158169b9b)" style="fill: #3d9970; opacity: 0.4"/>
   </g>
   <g id="patch_14">
    <path d="M 147.8175 152.318906 
C 147.8175 152.318906 147.8175 152.318906 147.8175 152.318906 
C 147.8175 152.318906 147.8175 152.318906 147.8175 152.318906 
L 113.081368 184.953593 
C 112.739626 184.589846 112.403619 184.220753 112.073471 183.846451 
C 111.743323 183.472149 111.419075 183.092684 111.100846 182.708197 
z
" clip-path="url(#pd158169b9b)" style="fill: #3d9970; opacity: 0.4"/>
   </g>
   <g id="patch_15">
    <path d="M 147.8175 152.318906 
C 147.8175 152.318906 147.8175 152.318906 147.8175 152.318906 
C 147.8175 152.318906 147.8175 152.318906 147.8175 152.318906 
L 120.741391 181.16539 
C 120.439318 180.881856 120.141717 180.593595 119.848699 180.300713 
C 119.555681 180.007831 119.267282 179.710364 118.983608 179.408424 
z
" clip-path="url(#pd158169b9b)" style="fill: #3d9970; opacity: 0.4"/>
   </g>
   <g id="patch_16">
    <path d="M 147.8175 152.318906 
C 147.8175 152.318906 147.8175 152.318906 147.8175 152.318906 
C 147.8175 152.318906 147.8175 152.318906 147.8175 152.318906 
L 114.568805 192.528365 
C 114.147742 192.180194 113.732174 191.82543 113.322255 191.464205 
C 112.912336 191.10298 112.508116 190.735338 112.109745 190.361416 
z
" clip-path="url(#pd158169b9b)" style="fill: #3d9970; opacity: 0.4"/>
   </g>
   <g id="patch_17">
    <path d="M 147.8175 152.318906 
C 147.8175 152.318906 147.8175 152.318906 147.8175 152.318906 
C 147.8175 152.318906 147.8175 152.318906 147.8175 152.318906 
L 120.357533 190.132245 
C 119.961562 189.844692 119.570131 189.550936 119.183388 189.251088 
C 118.796644 188.951239 118.414633 188.645334 118.037498 188.333485 
z
" clip-path="url(#pd158169b9b)" style="fill: #3d9970; opacity: 0.4"/>
   </g>
   <g id="patch_18">
    <path d="M 147.8175 152.318906 
C 147.8175 152.318906 147.8175 152.318906 147.8175 152.318906 
C 147.8175 152.318906 147.8175 152.318906 147.8175 152.318906 
L 125.345977 187.74581 
C 124.974996 187.510494 124.607734 187.269366 124.244327 187.022514 
C 123.88092 186.775662 123.521413 186.523117 123.165939 186.264972 
z
" clip-path="url(#pd158169b9b)" style="fill: #3d9970; opacity: 0.4"/>
   </g>
   <g id="patch_19">
    <path d="M 147.8175 152.318906 
C 147.8175 152.318906 147.8175 152.318906 147.8175 152.318906 
C 147.8175 152.318906 147.8175 152.318906 147.8175 152.318906 
L 127.35896 189.552263 
C 126.969063 189.338027 126.582554 189.117679 126.199578 188.891302 
C 125.816601 188.664925 125.437204 188.432546 125.061527 188.194252 
z
" clip-path="url(#pd158169b9b)" style="fill: #3d9970; opacity: 0.4"/>
   </g>
   <g id="patch_20">
    <path d="M 147.8175 152.318906 
C 147.8175 152.318906 147.8175 152.318906 147.8175 152.318906 
C 147.8175 152.318906 147.8175 152.318906 147.8175 152.318906 
L 127.025071 196.53001 
C 126.562104 196.312278 126.102586 196.087286 125.646686 195.855119 
C 125.190787 195.622952 124.738562 195.383639 124.29018 195.137267 
z
" clip-path="url(#pd158169b9b)" style="fill: #3d9970; opacity: 0.4"/>
   </g>
   <g id="patch_21">
    <path d="M 147.8175 152.318906 
C 147.8175 152.318906 147.8175 152.318906 147.8175 152.318906 
C 147.8175 152.318906 147.8175 152.318906 147.8175 152.318906 
L 131.942411 192.439964 
C 131.522274 192.273724 131.104774 192.100895 130.690065 191.921541 
C 130.275357 191.742187 129.863492 191.55633 129.454621 191.364039 
z
" clip-path="url(#pd158169b9b)" style="fill: #3d9970; opacity: 0.4"/>
   </g>
   <g id="patch_22">
    <path d="M 147.8175 152.318906 
C 147.8175 152.318906 147.8175 152.318906 147.8175 152.318906 
C 147.8175 152.318906 147.8175 152.318906 147.8175 152.318906 
L 134.164855 194.367745 
C 133.72453 194.224778 133.286479 194.074903 132.850862 193.918177 
C 132.415246 193.76145 131.982118 193.597891 131.551639 193.427559 
z
" clip-path="url(#pd158169b9b)" style="fill: #3d9970; opacity: 0.4"/>
   </g>
   <g id="patch_23">
    <path d="M 147.8175 152.318906 
C 147.8175 152.318906 147.8175 152.318906 147.8175 152.318906 
C 147.8175 152.318906 147.8175 152.318906 147.8175 152.318906 
L 135.743288 199.385727 
C 135.250416 199.259289 134.759562 199.125117 134.270905 198.983261 
C 133.782248 198.841405 133.29585 198.691882 132.81189 198.534747 
z
" clip-path="url(#pd158169b9b)" style="fill: #3d9970; opacity: 0.4"/>
   </g>
   <g id="patch_24">
    <path d="M 147.8175 152.318906 
C 147.8175 152.318906 147.8175 152.318906 147.8175 152.318906 
C 147.8175 152.318906 147.8175 152.318906 147.8175 152.318906 
L 138.548381 200.963881 
C 138.038984 200.866818 137.531143 200.761758 137.025046 200.648743 
C 136.518949 200.535727 136.014658 200.414769 135.51236 200.285912 
z
" clip-path="url(#pd158169b9b)" style="fill: #3d9970; opacity: 0.4"/>
   </g>
   <g id="patch_25">
    <path d="M 147.8175 152.318906 
C 147.8175 152.318906 147.8175 152.318906 147.8175 152.318906 
C 147.8175 152.318906 147.8175 152.318906 147.8175 152.318906 
L 141.321953 203.820819 
C 140.782638 203.7528 140.244426 203.676313 139.707514 203.591387 
C 139.170602 203.506462 138.635057 203.413108 138.101078 203.31136 
z
" clip-path="url(#pd158169b9b)" style="fill: #3d9970; opacity: 0.4"/>
   </g>
   <g id="patch_26">
    <path d="M 147.8175 152.318906 
C 147.8175 152.318906 147.8175 152.318906 147.8175 152.318906 
C 147.8175 152.318906 147.8175 152.318906 147.8175 152.318906 
L 145.374488 191.274384 
C 144.966557 191.248802 144.559052 191.216813 144.152126 191.17843 
C 143.745199 191.140047 143.3389 191.095275 142.93338 191.04413 
z
" clip-path="url(#pd158169b9b)" style="fill: #3d9970; opacity: 0.4"/>
   </g>
   <g id="patch_27">
    <path d="M 147.8175 152.318906 
C 147.8175 152.318906 147.8175 152.318906 147.8175 152.318906 
C 147.8175 152.318906 147.8175 152.318906 147.8175 152.318906 
L 147.826473 197.590723 
C 147.352399 197.590817 146.878352 197.583464 146.404509 197.568668 
C 145.930665 197.553871 145.457083 197.531633 144.983938 197.501961 
z
" clip-path="url(#pd158169b9b)" style="fill: #3d9970; opacity: 0.4"/>
   </g>
   <g id="patch_28">
    <path d="M 147.8175 152.318906 
C 147.8175 152.318906 147.8175 152.318906 147.8175 152.318906 
C 147.8175 152.318906 147.8175 152.318906 147.8175 152.318906 
L 150.493369 194.718369 
C 150.049373 194.74639 149.604964 194.767435 149.160307 194.781497 
C 148.71565 194.795558 148.2708 194.802634 147.825921 194.802723 
z
" clip-path="url(#pd158169b9b)" style="fill: #3d9970; opacity: 0.4"/>
   </g>
   <g id="patch_29">
    <path d="M 147.8175 152.318906 
C 147.8175 152.318906 147.8175 152.318906 147.8175 152.318906 
C 147.8175 152.318906 147.8175 152.318906 147.8175 152.318906 
L 154.400122 204.345088 
C 153.855318 204.414019 153.309465 204.474389 152.762764 204.526174 
C 152.216063 204.57796 151.668583 204.621155 151.120526 204.655743 
z
" clip-path="url(#pd158169b9b)" style="fill: #3d9970; opacity: 0.4"/>
   </g>
   <g id="patch_30">
    <path d="M 147.8175 152.318906 
C 147.8175 152.318906 147.8175 152.318906 147.8175 152.318906 
C 147.8175 152.318906 147.8175 152.318906 147.8175 152.318906 
L 157.803154 204.61156 
C 157.25556 204.716127 156.706356 204.812087 156.155747 204.899403 
C 155.605138 204.986719 155.053192 205.06538 154.500112 205.135359 
z
" clip-path="url(#pd158169b9b)" style="fill: #3d9970; opacity: 0.4"/>
   </g>
   <g id="patch_31">
    <path d="M 147.8175 152.318906 
C 147.8175 152.318906 147.8175 152.318906 147.8175 152.318906 
C 147.8175 152.318906 147.8175 152.318906 147.8175 152.318906 
L 159.91037 199.380937 
C 159.417549 199.507571 158.922769 199.626455 158.426213 199.737547 
C 157.929658 199.848638 157.431388 199.951923 156.931588 200.047364 
z
" clip-path="url(#pd158169b9b)" style="fill: #3d9970; opacity: 0.4"/>
   </g>
   <g id="patch_32">
    <path d="M 147.8175 152.318906 
C 147.8175 152.318906 147.8175 152.318906 147.8175 152.318906 
C 147.8175 152.318906 147.8175 152.318906 147.8175 152.318906 
L 160.173246 190.32212 
C 159.775286 190.451507 159.375319 190.574634 158.973492 190.691456 
C 158.571664 190.808279 158.168027 190.918782 157.762729 191.022926 
z
" clip-path="url(#pd158169b9b)" style="fill: #3d9970; opacity: 0.4"/>
   </g>
   <g id="patch_33">
    <path d="M 147.8175 152.318906 
C 147.8175 152.318906 147.8175 152.318906 147.8175 152.318906 
C 147.8175 152.318906 147.8175 152.318906 147.8175 152.318906 
L 162.486109 189.347916 
C 162.098351 189.501522 161.708204 189.649028 161.315813 189.790378 
C 160.923421 189.931729 160.528834 190.066908 160.132197 190.195864 
z
" clip-path="url(#pd158169b9b)" style="fill: #3d9970; opacity: 0.4"/>
   </g>
   <g id="patch_34">
    <path d="M 147.8175 152.318906 
C 147.8175 152.318906 147.8175 152.318906 147.8175 152.318906 
C 147.8175 152.318906 147.8175 152.318906 147.8175 152.318906 
L 162.746379 184.029652 
C 162.414313 184.185984 162.079811 184.337089 161.742998 184.482913 
C 161.406185 184.628737 161.067103 184.769262 160.725876 184.904435 
z
" clip-path="url(#pd158169b9b)" style="fill: #3d9970; opacity: 0.4"/>
   </g>
   <g id="patch_35">
    <path d="M 147.8175 152.318906 
C 147.8175 152.318906 147.8175 152.318906 147.8175 152.318906 
C 147.8175 152.318906 147.8175 152.318906 147.8175 152.318906 
L 163.748285 181.284799 
C 163.444962 181.451622 163.139037 181.61367 162.830624 181.770884 
C 162.52221 181.928097 162.211347 182.080457 161.898148 182.227905 
z
" clip-path="url(#pd158169b9b)" style="fill: #3d9970; opacity: 0.4"/>
   </g>
   <g id="patch_36">
    <path d="M 147.8175 152.318906 
C 147.8175 152.318906 147.8175 152.318906 147.8175 152.318906 
C 147.8175 152.318906 147.8175 152.318906 147.8175 152.318906 
L 167.954889 184.038185 
C 167.622733 184.249058 167.287286 184.454701 166.94867 184.655038 
C 166.610055 184.855374 166.268314 185.050379 165.923573 185.239981 
z
" clip-path="url(#pd158169b9b)" style="fill: #3d9970; opacity: 0.4"/>
   </g>
   <g id="patch_37">
    <path d="M 147.8175 152.318906 
C 147.8175 152.318906 147.8175 152.318906 147.8175 152.318906 
C 147.8175 152.318906 147.8175 152.318906 147.8175 152.318906 
L 168.657878 180.992924 
C 168.357611 181.211159 168.053935 181.424664 167.746962 181.63336 
C 167.439989 181.842056 167.129756 182.045917 166.81638 182.244869 
z
" clip-path="url(#pd158169b9b)" style="fill: #3d9970; opacity: 0.4"/>
   </g>
   <g id="patch_38">
    <path d="M 147.8175 152.318906 
C 147.8175 152.318906 147.8175 152.318906 147.8175 152.318906 
C 147.8175 152.318906 147.8175 152.318906 147.8175 152.318906 
L 172.956421 182.696244 
C 172.638317 182.959492 172.316098 183.217728 171.989884 183.470854 
C 171.663669 183.723981 171.333498 183.971968 170.999493 184.214724 
z
" clip-path="url(#pd158169b9b)" style="fill: #3d9970; opacity: 0.4"/>
   </g>
   <g id="patch_39">
    <path d="M 147.8175 152.318906 
C 147.8175 152.318906 147.8175 152.318906 147.8175 152.318906 
C 147.8175 152.318906 147.8175 152.318906 147.8175 152.318906 
L 175.723123 182.025532 
C 175.412043 182.317752 175.096392 182.605068 174.776287 182.887374 
C 174.456182 183.169679 174.131663 183.446939 173.802849 183.71905 
z
" clip-path="url(#pd158169b9b)" style="fill: #3d9970; opacity: 0.4"/>
   </g>
   <g id="patch_40">
    <path d="M 147.8175 152.318906 
C 147.8175 152.318906 147.8175 152.318906 147.8175 152.318906 
C 147.8175 152.318906 147.8175 152.318906 147.8175 152.318906 
L 175.210218 178.034 
C 174.940936 178.32085 174.667166 178.603451 174.389007 178.881701 
C 174.110849 179.159951 173.828337 179.433814 173.541576 179.70319 
z
" clip-path="url(#pd158169b9b)" style="fill: #3d9970; opacity: 0.4"/>
   </g>
   <g id="patch_41">
    <path d="M 147.8175 152.318906 
C 147.8175 152.318906 147.8175 152.318906 147.8175 152.318906 
C 147.8175 152.318906 147.8175 152.318906 147.8175 152.318906 
L 180.760789 179.563096 
C 180.475495 179.908069 180.1848 180.24854 179.888812 180.584382 
C 179.592823 180.920225 179.291577 181.251397 178.985186 181.577777 
z
" clip-path="url(#pd158169b9b)" style="fill: #3d9970; opacity: 0.4"/>
   </g>
   <g id="patch_42">
    <path d="M 147.8175 152.318906 
C 147.8175 152.318906 147.8175 152.318906 147.8175 152.318906 
C 147.8175 152.318906 147.8175 152.318906 147.8175 152.318906 
L 187.669918 181.263817 
C 187.366814 181.681141 187.057175 182.093678 186.741113 182.501276 
C 186.425051 182.908874 186.102606 183.311482 185.773898 183.708951 
z
" clip-path="url(#pd158169b9b)" style="fill: #3d9970; opacity: 0.4"/>
   </g>
   <g id="patch_43">
    <path d="M 147.8175 152.318906 
C 147.8175 152.318906 147.8175 152.318906 147.8175 152.318906 
C 147.8175 152.318906 147.8175 152.318906 147.8175 152.318906 
L 184.700237 175.717417 
C 184.455214 176.103643 184.20414 176.485997 183.947107 176.864336 
C 183.690073 177.242676 183.427113 177.616955 183.158323 177.987035 
z
" clip-path="url(#pd158169b9b)" style="fill: #3d9970; opacity: 0.4"/>
   </g>
   <g id="patch_44">
    <path d="M 147.8175 152.318906 
C 147.8175 152.318906 147.8175 152.318906 147.8175 152.318906 
C 147.8175 152.318906 147.8175 152.318906 147.8175 152.318906 
L 189.470751 175.20975 
C 189.231044 175.645932 188.9845 176.078321 188.731212 176.506759 
C 188.477923 176.935197 188.21792 177.359629 187.951299 177.7799 
z
" clip-path="url(#pd158169b9b)" style="fill: #3d9970; opacity: 0.4"/>
   </g>
   <g id="patch_45">
    <path d="M 147.8175 152.318906 
C 147.8175 152.318906 147.8175 152.318906 147.8175 152.318906 
C 147.8175 152.318906 147.8175 152.318906 147.8175 152.318906 
L 192.387585 173.283891 
C 192.168045 173.750617 191.941188 174.213866 191.707097 174.673466 
C 191.473006 175.133066 191.23171 175.588961 190.983299 176.040982 
z
" clip-path="url(#pd158169b9b)" style="fill: #3d9970; opacity: 0.4"/>
   </g>
   <g id="patch_46">
    <path d="M 147.8175 152.318906 
C 147.8175 152.318906 147.8175 152.318906 147.8175 152.318906 
C 147.8175 152.318906 147.8175 152.318906 147.8175 152.318906 
L 194.603557 170.834907 
C 194.409663 171.324838 194.208084 171.811693 193.998897 172.295293 
C 193.78971 172.778892 193.572939 173.259176 193.348665 173.735966 
z
" clip-path="url(#pd158169b9b)" style="fill: #3d9970; opacity: 0.4"/>
   </g>
   <g id="patch_47">
    <path d="M 147.8175 152.318906 
C 147.8175 152.318906 147.8175 152.318906 147.8175 152.318906 
C 147.8175 152.318906 147.8175 152.318906 147.8175 152.318906 
L 193.779773 167.245666 
C 193.623464 167.726971 193.459604 168.205791 193.288255 168.681949 
C 193.116905 169.158106 192.938087 169.631543 192.751866 170.102084 
z
" clip-path="url(#pd158169b9b)" style="fill: #3d9970; opacity: 0.4"/>
   </g>
   <g id="patch_48">
    <path d="M 147.8175 152.318906 
C 147.8175 152.318906 147.8175 152.318906 147.8175 152.318906 
C 147.8175 152.318906 147.8175 152.318906 147.8175 152.318906 
L 189.611074 163.043405 
C 189.49877 163.481056 189.379598 163.916917 189.253603 164.350824 
C 189.127608 164.784732 188.994805 165.216634 188.855244 165.646371 
z
" clip-path="url(#pd158169b9b)" style="fill: #3d9970; opacity: 0.4"/>
   </g>
   <g id="patch_49">
    <path d="M 147.8175 152.318906 
C 147.8175 152.318906 147.8175 152.318906 147.8175 152.318906 
C 147.8175 152.318906 147.8175 152.318906 147.8175 152.318906 
L 199.330943 162.138257 
C 199.228118 162.677692 199.116825 163.215479 198.997107 163.751418 
C 198.877389 164.287357 198.74926 164.821383 198.612767 165.353297 
z
" clip-path="url(#pd158169b9b)" style="fill: #3d9970; opacity: 0.4"/>
   </g>
   <g id="patch_50">
    <path d="M 147.8175 152.318906 
C 147.8175 152.318906 147.8175 152.318906 147.8175 152.318906 
C 147.8175 152.318906 147.8175 152.318906 147.8175 152.318906 
L 195.762601 158.369195 
C 195.699244 158.871264 195.628004 159.372306 195.548909 159.872137 
C 195.469814 160.371967 195.382872 160.870525 195.288116 161.367624 
z
" clip-path="url(#pd158169b9b)" style="fill: #3d9970; opacity: 0.4"/>
   </g>
   <g id="patch_51">
    <path d="M 147.8175 152.318906 
C 147.8175 152.318906 147.8175 152.318906 147.8175 152.318906 
C 147.8175 152.318906 147.8175 152.318906 147.8175 152.318906 
L 196.71039 155.388484 
C 196.678246 155.900477 196.638062 156.411934 196.589853 156.922665 
C 196.541643 157.433396 196.485415 157.943339 196.421187 158.452304 
z
" clip-path="url(#pd158169b9b)" style="fill: #3d9970; opacity: 0.4"/>
   </g>
   <g id="patch_52">
    <path d="M 147.8175 152.318906 
C 147.8175 152.318906 147.8175 152.318906 147.8175 152.318906 
C 147.8175 152.318906 147.8175 152.318906 147.8175 152.318906 
L 207.162082 152.311208 
C 207.162162 152.932649 207.152482 153.554052 207.133043 154.175189 
C 207.113605 154.796325 207.084411 155.417118 207.045472 156.037338 
z
" clip-path="url(#pd158169b9b)" style="fill: #3d9970; opacity: 0.4"/>
   </g>
   <g id="patch_53">
    <path d="M 147.8175 152.318906 
C 147.8175 152.318906 147.8175 152.318906 147.8175 152.318906 
C 147.8175 152.318906 147.8175 152.318906 147.8175 152.318906 
L 192.734625 149.487234 
C 192.764278 149.957594 192.78654 150.428391 192.801404 150.89945 
C 192.816268 151.37051 192.823732 151.841774 192.823793 152.313068 
z
" clip-path="url(#pd158169b9b)" style="fill: #3d9970; opacity: 0.4"/>
   </g>
   <g id="patch_54">
    <path d="M 147.8175 152.318906 
C 147.8175 152.318906 147.8175 152.318906 147.8175 152.318906 
C 147.8175 152.318906 147.8175 152.318906 147.8175 152.318906 
L 196.287881 146.189555 
C 196.352066 146.697124 196.408275 147.205669 196.456485 147.715004 
C 196.504696 148.224339 196.544904 148.734399 196.577093 149.244996 
z
" clip-path="url(#pd158169b9b)" style="fill: #3d9970; opacity: 0.4"/>
   </g>
   <g id="patch_55">
    <path d="M 147.8175 152.318906 
C 147.8175 152.318906 147.8175 152.318906 147.8175 152.318906 
C 147.8175 152.318906 147.8175 152.318906 147.8175 152.318906 
L 192.155991 143.855303 
C 192.24462 144.319604 192.32595 144.785268 192.399951 145.252124 
C 192.473953 145.71898 192.540616 146.186969 192.599918 146.655918 
z
" clip-path="url(#pd158169b9b)" style="fill: #3d9970; opacity: 0.4"/>
   </g>
   <g id="patch_56">
    <path d="M 147.8175 152.318906 
C 147.8175 152.318906 147.8175 152.318906 147.8175 152.318906 
C 147.8175 152.318906 147.8175 152.318906 147.8175 152.318906 
L 191.151335 141.187183 
C 191.267903 141.640963 191.377337 142.096546 191.479595 142.553764 
C 191.581853 143.010982 191.676922 143.469778 191.764769 143.929982 
z
" clip-path="url(#pd158169b9b)" style="fill: #3d9970; opacity: 0.4"/>
   </g>
   <g id="patch_57">
    <path d="M 147.8175 152.318906 
C 147.8175 152.318906 147.8175 152.318906 147.8175 152.318906 
C 147.8175 152.318906 147.8175 152.318906 147.8175 152.318906 
L 187.967969 139.268077 
C 188.104634 139.688523 188.234686 140.111088 188.358077 140.535618 
C 188.481469 140.960149 188.598184 141.386591 188.708181 141.814787 
z
" clip-path="url(#pd158169b9b)" style="fill: #3d9970; opacity: 0.4"/>
   </g>
   <g id="patch_58">
    <path d="M 147.8175 152.318906 
C 147.8175 152.318906 147.8175 152.318906 147.8175 152.318906 
C 147.8175 152.318906 147.8175 152.318906 147.8175 152.318906 
L 197.067419 132.813029 
C 197.27168 133.328761 197.467827 133.84767 197.655787 134.369563 
C 197.843748 134.891457 198.0235 135.41627 198.194975 135.94381 
z
" clip-path="url(#pd158169b9b)" style="fill: #3d9970; opacity: 0.4"/>
   </g>
   <g id="patch_59">
    <path d="M 147.8175 152.318906 
C 147.8175 152.318906 147.8175 152.318906 147.8175 152.318906 
C 147.8175 152.318906 147.8175 152.318906 147.8175 152.318906 
L 193.943709 130.607331 
C 194.171066 131.090353 194.390823 131.576916 194.602897 132.06684 
C 194.814972 132.556764 195.019337 133.049989 195.215919 133.546333 
z
" clip-path="url(#pd158169b9b)" style="fill: #3d9970; opacity: 0.4"/>
   </g>
   <g id="patch_60">
    <path d="M 147.8175 152.318906 
C 147.8175 152.318906 147.8175 152.318906 147.8175 152.318906 
C 147.8175 152.318906 147.8175 152.318906 147.8175 152.318906 
L 199.702138 123.787801 
C 200.000908 124.331123 200.291126 124.879104 200.572683 125.431542 
C 200.85424 125.983981 201.127103 126.540808 201.391169 127.101817 
z
" clip-path="url(#pd158169b9b)" style="fill: #3d9970; opacity: 0.4"/>
   </g>
   <g id="patch_61">
    <path d="M 147.8175 152.318906 
C 147.8175 152.318906 147.8175 152.318906 147.8175 152.318906 
C 147.8175 152.318906 147.8175 152.318906 147.8175 152.318906 
L 196.799575 121.226716 
C 197.125164 121.739644 197.442677 122.257653 197.751994 122.780554 
C 198.061312 123.303455 198.362397 123.831182 198.655139 124.36354 
z
" clip-path="url(#pd158169b9b)" style="fill: #3d9970; opacity: 0.4"/>
   </g>
   <g id="patch_62">
    <path d="M 147.8175 152.318906 
C 147.8175 152.318906 147.8175 152.318906 147.8175 152.318906 
C 147.8175 152.318906 147.8175 152.318906 147.8175 152.318906 
L 206.349776 109.783567 
C 206.795194 110.396501 207.230958 111.016394 207.656905 111.643017 
C 208.082852 112.269639 208.49893 112.902913 208.904985 113.542605 
z
" clip-path="url(#pd158169b9b)" style="fill: #3d9970; opacity: 0.4"/>
   </g>
   <g id="patch_63">
    <path d="M 147.8175 152.318906 
C 147.8175 152.318906 147.8175 152.318906 147.8175 152.318906 
C 147.8175 152.318906 147.8175 152.318906 147.8175 152.318906 
L 194.255524 113.894241 
C 194.657897 114.380528 195.052606 114.873105 195.439507 115.37179 
C 195.826407 115.870475 196.20545 116.375207 196.576496 116.885798 
z
" clip-path="url(#pd158169b9b)" style="fill: #3d9970; opacity: 0.4"/>
   </g>
   <g id="patch_64">
    <path d="M 147.8175 152.318906 
C 147.8175 152.318906 147.8175 152.318906 147.8175 152.318906 
C 147.8175 152.318906 147.8175 152.318906 147.8175 152.318906 
L 185.848298 116.598678 
C 186.222351 116.996926 186.590125 117.401025 186.951484 117.810826 
C 187.312844 118.220627 187.667744 118.636078 188.016054 119.057027 
z
" clip-path="url(#pd158169b9b)" style="fill: #3d9970; opacity: 0.4"/>
   </g>
   <g id="patch_65">
    <path d="M 147.8175 152.318906 
C 147.8175 152.318906 147.8175 152.318906 147.8175 152.318906 
C 147.8175 152.318906 147.8175 152.318906 147.8175 152.318906 
L 183.893956 113.894136 
C 184.29633 114.271919 184.692745 114.655999 185.083055 115.046234 
C 185.473364 115.436469 185.85752 115.832811 186.23538 116.235113 
z
" clip-path="url(#pd158169b9b)" style="fill: #3d9970; opacity: 0.4"/>
   </g>
   <g id="patch_66">
    <path d="M 147.8175 152.318906 
C 147.8175 152.318906 147.8175 152.318906 147.8175 152.318906 
C 147.8175 152.318906 147.8175 152.318906 147.8175 152.318906 
L 190.548727 100.656115 
C 191.089726 101.103585 191.623663 101.559526 192.15034 102.023767 
C 192.677018 102.488009 193.19637 102.960495 193.708206 103.44105 
z
" clip-path="url(#pd158169b9b)" style="fill: #3d9970; opacity: 0.4"/>
   </g>
   <g id="patch_67">
    <path d="M 147.8175 152.318906 
C 147.8175 152.318906 147.8175 152.318906 147.8175 152.318906 
C 147.8175 152.318906 147.8175 152.318906 147.8175 152.318906 
L 187.220622 98.075052 
C 187.788649 98.487671 188.35016 98.909187 188.904947 99.339444 
C 189.459734 99.769701 190.007728 100.208645 190.548727 100.656115 
z
" clip-path="url(#pd158169b9b)" style="fill: #3d9970; opacity: 0.4"/>
   </g>
   <g id="patch_68">
    <path d="M 147.8175 152.318906 
C 147.8175 152.318906 147.8175 152.318906 147.8175 152.318906 
C 147.8175 152.318906 147.8175 152.318906 147.8175 152.318906 
L 177.406652 105.685009 
C 177.89499 105.994859 178.378431 106.31236 178.856796 106.637396 
C 179.33516 106.962431 179.80839 107.29496 180.276309 107.63486 
z
" clip-path="url(#pd158169b9b)" style="fill: #3d9970; opacity: 0.4"/>
   </g>
   <g id="patch_69">
    <path d="M 147.8175 152.318906 
C 147.8175 152.318906 147.8175 152.318906 147.8175 152.318906 
C 147.8175 152.318906 147.8175 152.318906 147.8175 152.318906 
L 176.082902 100.894203 
C 176.621408 101.19019 177.155231 101.494619 177.684174 101.807375 
C 178.213118 102.12013 178.737116 102.441175 179.255974 102.770391 
z
" clip-path="url(#pd158169b9b)" style="fill: #3d9970; opacity: 0.4"/>
   </g>
   <g id="patch_70">
    <path d="M 147.8175 152.318906 
C 147.8175 152.318906 147.8175 152.318906 147.8175 152.318906 
C 147.8175 152.318906 147.8175 152.318906 147.8175 152.318906 
L 177.884874 88.409145 
C 178.55412 88.724003 179.218379 89.049353 179.877405 89.385076 
C 180.536432 89.720799 181.190144 90.066852 181.8383 90.423109 
z
" clip-path="url(#pd158169b9b)" style="fill: #3d9970; opacity: 0.4"/>
   </g>
   <g id="patch_71">
    <path d="M 147.8175 152.318906 
C 147.8175 152.318906 147.8175 152.318906 147.8175 152.318906 
C 147.8175 152.318906 147.8175 152.318906 147.8175 152.318906 
L 174.838926 84.055085 
C 175.553766 84.338046 176.264118 84.632218 176.969718 84.937492 
C 177.675319 85.242767 178.37608 85.559105 179.071744 85.886391 
z
" clip-path="url(#pd158169b9b)" style="fill: #3d9970; opacity: 0.4"/>
   </g>
   <g id="patch_72">
    <path d="M 147.8175 152.318906 
C 147.8175 152.318906 147.8175 152.318906 147.8175 152.318906 
C 147.8175 152.318906 147.8175 152.318906 147.8175 152.318906 
L 168.899842 87.41758 
C 169.579472 87.638349 170.255592 87.869779 170.927952 88.111786 
C 171.600311 88.353792 172.268828 88.606345 172.933255 88.86935 
z
" clip-path="url(#pd158169b9b)" style="fill: #3d9970; opacity: 0.4"/>
   </g>
   <g id="patch_73">
    <path d="M 147.8175 152.318906 
C 147.8175 152.318906 147.8175 152.318906 147.8175 152.318906 
C 147.8175 152.318906 147.8175 152.318906 147.8175 152.318906 
L 168.513055 71.690875 
C 169.357371 71.907593 170.19823 72.13756 171.035321 72.380691 
C 171.872413 72.623822 172.705634 72.880086 173.534676 73.14939 
z
" clip-path="url(#pd158169b9b)" style="fill: #3d9970; opacity: 0.4"/>
   </g>
   <g id="patch_74">
    <path d="M 147.8175 152.318906 
C 147.8175 152.318906 147.8175 152.318906 147.8175 152.318906 
C 147.8175 152.318906 147.8175 152.318906 147.8175 152.318906 
L 159.207065 92.590175 
C 159.832529 92.709443 160.45608 92.838529 161.077489 92.977384 
C 161.698898 93.116239 162.318087 93.264846 162.934827 93.423151 
z
" clip-path="url(#pd158169b9b)" style="fill: #3d9970; opacity: 0.4"/>
   </g>
   <g id="patch_75">
    <path d="M 147.8175 152.318906 
C 147.8175 152.318906 147.8175 152.318906 147.8175 152.318906 
C 147.8175 152.318906 147.8175 152.318906 147.8175 152.318906 
L 155.00196 95.41752 
C 155.597816 95.492754 156.192454 95.577343 156.785653 95.671255 
C 157.378852 95.765167 157.970539 95.868391 158.560496 95.980889 
z
" clip-path="url(#pd158169b9b)" style="fill: #3d9970; opacity: 0.4"/>
   </g>
   <g id="patch_76">
    <path d="M 147.8175 152.318906 
C 147.8175 152.318906 147.8175 152.318906 147.8175 152.318906 
C 147.8175 152.318906 147.8175 152.318906 147.8175 152.318906 
L 151.440055 94.681195 
C 152.043622 94.719129 152.646556 94.766542 153.248633 94.823415 
C 153.850711 94.880289 154.451858 94.946616 155.051852 95.022372 
z
" clip-path="url(#pd158169b9b)" style="fill: #3d9970; opacity: 0.4"/>
   </g>
   <g id="patch_77">
    <path d="M 147.8175 152.318906 
C 147.8175 152.318906 147.8175 152.318906 147.8175 152.318906 
C 147.8175 152.318906 147.8175 152.318906 147.8175 152.318906 
L 147.814264 99.479659 
C 148.367583 99.479625 148.920868 99.488282 149.473914 99.505628 
C 150.026961 99.522973 150.579701 99.549005 151.13193 99.583713 
z
" clip-path="url(#pd158169b9b)" style="fill: #3d9970; opacity: 0.4"/>
   </g>
   <g id="patch_78">
    <path d="M 147.8175 152.318906 
C 147.8175 152.318906 147.8175 152.318906 147.8175 152.318906 
C 147.8175 152.318906 147.8175 152.318906 147.8175 152.318906 
L 143.829096 88.984162 
C 144.49232 88.942396 145.15616 88.911051 145.820369 88.890138 
C 146.484579 88.869224 147.149075 88.858745 147.813614 88.858704 
z
" clip-path="url(#pd158169b9b)" style="fill: #3d9970; opacity: 0.4"/>
   </g>
   <g id="patch_79">
    <path d="M 147.8175 152.318906 
C 147.8175 152.318906 147.8175 152.318906 147.8175 152.318906 
C 147.8175 152.318906 147.8175 152.318906 147.8175 152.318906 
L 139.16115 83.827557 
C 139.878374 83.73691 140.596976 83.657534 141.316693 83.58946 
C 142.036409 83.521385 142.757151 83.464619 143.47865 83.419184 
z
" clip-path="url(#pd158169b9b)" style="fill: #3d9970; opacity: 0.4"/>
   </g>
   <g id="patch_80">
    <path d="M 147.8175 152.318906 
C 147.8175 152.318906 147.8175 152.318906 147.8175 152.318906 
C 147.8175 152.318906 147.8175 152.318906 147.8175 152.318906 
L 136.893416 95.069342 
C 137.492918 94.954948 138.09418 94.849977 138.696979 94.75447 
C 139.299779 94.658962 139.904041 94.572929 140.509543 94.496402 
z
" clip-path="url(#pd158169b9b)" style="fill: #3d9970; opacity: 0.4"/>
   </g>
   <g id="patch_81">
    <path d="M 147.8175 152.318906 
C 147.8175 152.318906 147.8175 152.318906 147.8175 152.318906 
C 147.8175 152.318906 147.8175 152.318906 147.8175 152.318906 
L 134.278064 99.59729 
C 134.830151 99.455508 135.38443 99.322408 135.940698 99.198037 
C 136.496966 99.073666 137.055153 98.958041 137.615052 98.851204 
z
" clip-path="url(#pd158169b9b)" style="fill: #3d9970; opacity: 0.4"/>
   </g>
   <g id="patch_82">
    <path d="M 147.8175 152.318906 
C 147.8175 152.318906 147.8175 152.318906 147.8175 152.318906 
C 147.8175 152.318906 147.8175 152.318906 147.8175 152.318906 
L 128.819825 93.859532 
C 129.431996 93.660594 130.047254 93.471283 130.665372 93.291671 
C 131.283489 93.112058 131.90439 92.942166 132.527844 92.782056 
z
" clip-path="url(#pd158169b9b)" style="fill: #3d9970; opacity: 0.4"/>
   </g>
   <g id="patch_83">
    <path d="M 147.8175 152.318906 
C 147.8175 152.318906 147.8175 152.318906 147.8175 152.318906 
C 147.8175 152.318906 147.8175 152.318906 147.8175 152.318906 
L 128.754902 104.178582 
C 129.259015 103.978963 129.766232 103.787275 130.276366 103.603589 
C 130.7865 103.419903 131.299487 103.244241 131.815139 103.076669 
z
" clip-path="url(#pd158169b9b)" style="fill: #3d9970; opacity: 0.4"/>
   </g>
   <g id="patch_84">
    <path d="M 147.8175 152.318906 
C 147.8175 152.318906 147.8175 152.318906 147.8175 152.318906 
C 147.8175 152.318906 147.8175 152.318906 147.8175 152.318906 
L 123.225935 100.064876 
C 123.773126 99.80736 124.324327 99.558455 124.879336 99.318252 
C 125.434345 99.07805 125.993092 98.84658 126.555372 98.623929 
z
" clip-path="url(#pd158169b9b)" style="fill: #3d9970; opacity: 0.4"/>
   </g>
   <g id="patch_85">
    <path d="M 147.8175 152.318906 
C 147.8175 152.318906 147.8175 152.318906 147.8175 152.318906 
C 147.8175 152.318906 147.8175 152.318906 147.8175 152.318906 
L 100.2929 65.880032 
C 101.198065 65.382367 102.110992 64.898951 103.031341 64.429962 
C 103.951691 63.960974 104.87935 63.50647 105.813977 63.066621 
z
" clip-path="url(#pd158169b9b)" style="fill: #3d9970; opacity: 0.4"/>
   </g>
   <g id="patch_86">
    <path d="M 147.8175 152.318906 
C 147.8175 152.318906 147.8175 152.318906 147.8175 152.318906 
C 147.8175 152.318906 147.8175 152.318906 147.8175 152.318906 
L 109.40109 91.789226 
C 110.034941 91.386939 110.675071 90.994634 111.321245 90.612455 
C 111.967419 90.230276 112.619555 89.85827 113.277414 89.496575 
z
" clip-path="url(#pd158169b9b)" style="fill: #3d9970; opacity: 0.4"/>
   </g>
   <g id="patch_87">
    <path d="M 147.8175 152.318906 
C 147.8175 152.318906 147.8175 152.318906 147.8175 152.318906 
C 147.8175 152.318906 147.8175 152.318906 147.8175 152.318906 
L 107.471265 96.79103 
C 108.052738 96.368535 108.640812 95.9552 109.235269 95.551177 
C 109.829725 95.147154 110.430491 94.752494 111.037345 94.367342 
z
" clip-path="url(#pd158169b9b)" style="fill: #3d9970; opacity: 0.4"/>
   </g>
   <g id="patch_88">
    <path d="M 147.8175 152.318906 
C 147.8175 152.318906 147.8175 152.318906 147.8175 152.318906 
C 147.8175 152.318906 147.8175 152.318906 147.8175 152.318906 
L 104.487544 99.945304 
C 105.035986 99.491564 105.591522 99.046467 106.153946 98.610177 
C 106.716369 98.173888 107.285611 97.746459 107.861461 97.32805 
z
" clip-path="url(#pd158169b9b)" style="fill: #3d9970; opacity: 0.4"/>
   </g>
   <g id="patch_89">
    <path d="M 147.8175 152.318906 
C 147.8175 152.318906 147.8175 152.318906 147.8175 152.318906 
C 147.8175 152.318906 147.8175 152.318906 147.8175 152.318906 
L 108.010072 109.93071 
C 108.45395 109.513858 108.904348 109.104003 109.3611 108.701297 
C 109.817852 108.298592 110.280901 107.903086 110.750077 107.514926 
z
" clip-path="url(#pd158169b9b)" style="fill: #3d9970; opacity: 0.4"/>
   </g>
   <g id="patch_90">
    <path d="M 147.8175 152.318906 
C 147.8175 152.318906 147.8175 152.318906 147.8175 152.318906 
C 147.8175 152.318906 147.8175 152.318906 147.8175 152.318906 
L 103.201178 110.423543 
C 103.639895 109.956332 104.085924 109.496042 104.539099 109.042842 
C 104.992275 108.589642 105.452541 108.143589 105.919727 107.704846 
z
" clip-path="url(#pd158169b9b)" style="fill: #3d9970; opacity: 0.4"/>
   </g>
   <g id="patch_91">
    <path d="M 147.8175 152.318906 
C 147.8175 152.318906 147.8175 152.318906 147.8175 152.318906 
C 147.8175 152.318906 147.8175 152.318906 147.8175 152.318906 
L 88.383082 103.152771 
C 88.897936 102.530389 89.422536 101.916133 89.956685 101.31023 
C 90.490834 100.704327 91.034468 100.106852 91.587385 99.518025 
z
" clip-path="url(#pd158169b9b)" style="fill: #3d9970; opacity: 0.4"/>
   </g>
   <g id="patch_92">
    <path d="M 147.8175 152.318906 
C 147.8175 152.318906 147.8175 152.318906 147.8175 152.318906 
C 147.8175 152.318906 147.8175 152.318906 147.8175 152.318906 
L 92.502262 112.131736 
C 92.923092 111.55249 93.352993 110.979889 93.791809 110.414147 
C 94.230624 109.848404 94.678299 109.289589 95.134668 108.737908 
z
" clip-path="url(#pd158169b9b)" style="fill: #3d9970; opacity: 0.4"/>
   </g>
   <g id="patch_93">
    <path d="M 147.8175 152.318906 
C 147.8175 152.318906 147.8175 152.318906 147.8175 152.318906 
C 147.8175 152.318906 147.8175 152.318906 147.8175 152.318906 
L 90.312333 115.826422 
C 90.694472 115.224243 91.086047 114.628104 91.486912 114.038225 
C 91.887778 113.448346 92.297884 112.8648 92.717079 112.287803 
z
" clip-path="url(#pd158169b9b)" style="fill: #3d9970; opacity: 0.4"/>
   </g>
   <g id="patch_94">
    <path d="M 147.8175 152.318906 
C 147.8175 152.318906 147.8175 152.318906 147.8175 152.318906 
C 147.8175 152.318906 147.8175 152.318906 147.8175 152.318906 
L 77.431133 113.625018 
C 77.836325 112.887951 78.253069 112.157293 78.681212 111.433316 
C 79.109355 110.70934 79.548844 109.992133 79.999515 109.281961 
z
" clip-path="url(#pd158169b9b)" style="fill: #3d9970; opacity: 0.4"/>
   </g>
   <g id="patch_95">
    <path d="M 147.8175 152.318906 
C 147.8175 152.318906 147.8175 152.318906 147.8175 152.318906 
C 147.8175 152.318906 147.8175 152.318906 147.8175 152.318906 
L 86.792852 123.603776 
C 87.09355 122.964742 87.404266 122.330471 87.724886 121.701197 
C 88.045507 121.071923 88.375992 120.447724 88.71622 119.828831 
z
" clip-path="url(#pd158169b9b)" style="fill: #3d9970; opacity: 0.4"/>
   </g>
   <g id="patch_96">
    <path d="M 147.8175 152.318906 
C 147.8175 152.318906 147.8175 152.318906 147.8175 152.318906 
C 147.8175 152.318906 147.8175 152.318906 147.8175 152.318906 
L 91.529148 130.033369 
C 91.762516 129.443933 92.005129 128.858198 92.256895 128.276382 
C 92.508662 127.694566 92.769553 127.116741 93.03947 126.54312 
z
" clip-path="url(#pd158169b9b)" style="fill: #3d9970; opacity: 0.4"/>
   </g>
   <g id="patch_97">
    <path d="M 147.8175 152.318906 
C 147.8175 152.318906 147.8175 152.318906 147.8175 152.318906 
C 147.8175 152.318906 147.8175 152.318906 147.8175 152.318906 
L 90.367215 133.652587 
C 90.562684 133.050983 90.76759 132.452486 90.981859 131.857318 
C 91.196127 131.262151 91.419731 130.670385 91.652587 130.082241 
z
" clip-path="url(#pd158169b9b)" style="fill: #3d9970; opacity: 0.4"/>
   </g>
   <g id="patch_98">
    <path d="M 147.8175 152.318906 
C 147.8175 152.318906 147.8175 152.318906 147.8175 152.318906 
C 147.8175 152.318906 147.8175 152.318906 147.8175 152.318906 
L 89.051371 137.230561 
C 89.209372 136.615178 89.37703 136.002315 89.554282 135.392198 
C 89.731534 134.782081 89.918359 134.174786 90.114686 133.570537 
z
" clip-path="url(#pd158169b9b)" style="fill: #3d9970; opacity: 0.4"/>
   </g>
   <g id="patch_99">
    <path d="M 147.8175 152.318906 
C 147.8175 152.318906 147.8175 152.318906 147.8175 152.318906 
C 147.8175 152.318906 147.8175 152.318906 147.8175 152.318906 
L 92.393091 141.746191 
C 92.503806 141.165801 92.62363 140.587186 92.75252 140.01056 
C 92.881409 139.433934 93.019349 138.859369 93.166286 138.287076 
z
" clip-path="url(#pd158169b9b)" style="fill: #3d9970; opacity: 0.4"/>
   </g>
   <g id="patch_100">
    <path d="M 147.8175 152.318906 
C 147.8175 152.318906 147.8175 152.318906 147.8175 152.318906 
C 147.8175 152.318906 147.8175 152.318906 147.8175 152.318906 
L 88.018876 144.764476 
C 88.097983 144.138281 88.186923 143.513366 88.28566 142.889965 
C 88.384397 142.266563 88.492921 141.644751 88.61119 141.024758 
z
" clip-path="url(#pd158169b9b)" style="fill: #3d9970; opacity: 0.4"/>
   </g>
   <g id="patch_101">
    <path d="M 147.8175 152.318906 
C 147.8175 152.318906 147.8175 152.318906 147.8175 152.318906 
C 147.8175 152.318906 147.8175 152.318906 147.8175 152.318906 
L 93.625034 148.90916 
C 93.66074 148.341671 93.705358 147.774778 93.758871 147.20869 
C 93.812384 146.642603 93.874785 146.07739 93.946052 145.513263 
z
" clip-path="url(#pd158169b9b)" style="fill: #3d9970; opacity: 0.4"/>
   </g>
   <g id="patch_102">
    <path d="M 147.8175 152.318906 
C 147.8175 152.318906 147.8175 152.318906 147.8175 152.318906 
C 147.8175 152.318906 147.8175 152.318906 147.8175 152.318906 
L 95.111014 152.318524 
C 95.111018 151.766596 95.119692 151.214702 95.137031 150.663046 
C 95.154371 150.11139 95.180375 149.560041 95.215033 149.009202 
z
" clip-path="url(#pd158169b9b)" style="fill: #3d9970; opacity: 0.4"/>
   </g>
   <g id="matplotlib.axis_1">
    <g id="xtick_1">
     <g id="line2d_1">
      <path d="M 147.8175 152.318906 
L 251.391719 152.318906 
" clip-path="url(#pd158169b9b)" style="fill: none; stroke: #b0b0b0; stroke-opacity: 0.6; stroke-width: 0.8; stroke-linecap: square"/>
     </g>
     <g id="text_1">
      <!-- 0째 -->
      <g transform="translate(260.074219 155.630156) scale(0.12 -0.12)">
       <defs>
        <path id="DejaVuSans-30" d="M 2034 4250 
Q 1547 4250 1301 3770 
Q 1056 3291 1056 2328 
Q 1056 1369 1301 889 
Q 1547 409 2034 409 
Q 2525 409 2770 889 
Q 3016 1369 3016 2328 
Q 3016 3291 2770 3770 
Q 2525 4250 2034 4250 
z
M 2034 4750 
Q 2819 4750 3233 4129 
Q 3647 3509 3647 2328 
Q 3647 1150 3233 529 
Q 2819 -91 2034 -91 
Q 1250 -91 836 529 
Q 422 1150 422 2328 
Q 422 3509 836 4129 
Q 1250 4750 2034 4750 
z
" transform="scale(0.015625)"/>
        <path id="DejaVuSans-b0" d="M 1600 4347 
Q 1350 4347 1178 4173 
Q 1006 4000 1006 3750 
Q 1006 3503 1178 3333 
Q 1350 3163 1600 3163 
Q 1850 3163 2022 3333 
Q 2194 3503 2194 3750 
Q 2194 3997 2020 4172 
Q 1847 4347 1600 4347 
z
M 1600 4750 
Q 1800 4750 1984 4673 
Q 2169 4597 2303 4453 
Q 2447 4313 2519 4134 
Q 2591 3956 2591 3750 
Q 2591 3338 2302 3052 
Q 2013 2766 1594 2766 
Q 1172 2766 890 3047 
Q 609 3328 609 3750 
Q 609 4169 896 4459 
Q 1184 4750 1600 4750 
z
" transform="scale(0.015625)"/>
       </defs>
       <use xlink:href="#DejaVuSans-30"/>
       <use xlink:href="#DejaVuSans-b0" transform="translate(63.623047 0)"/>
      </g>
     </g>
    </g>
    <g id="xtick_2">
     <g id="line2d_2">
      <path d="M 147.8175 152.318906 
L 221.055532 79.080874 
" clip-path="url(#pd158169b9b)" style="fill: none; stroke: #b0b0b0; stroke-opacity: 0.6; stroke-width: 0.8; stroke-linecap: square"/>
     </g>
     <g id="text_2">
      <!-- 45째 -->
      <g transform="translate(221.380688 71.431969) scale(0.12 -0.12)">
       <defs>
        <path id="DejaVuSans-34" d="M 2419 4116 
L 825 1625 
L 2419 1625 
L 2419 4116 
z
M 2253 4666 
L 3047 4666 
L 3047 1625 
L 3713 1625 
L 3713 1100 
L 3047 1100 
L 3047 0 
L 2419 0 
L 2419 1100 
L 313 1100 
L 313 1709 
L 2253 4666 
z
" transform="scale(0.015625)"/>
        <path id="DejaVuSans-35" d="M 691 4666 
L 3169 4666 
L 3169 4134 
L 1269 4134 
L 1269 2991 
Q 1406 3038 1543 3061 
Q 1681 3084 1819 3084 
Q 2600 3084 3056 2656 
Q 3513 2228 3513 1497 
Q 3513 744 3044 326 
Q 2575 -91 1722 -91 
Q 1428 -91 1123 -41 
Q 819 9 494 109 
L 494 744 
Q 775 591 1075 516 
Q 1375 441 1709 441 
Q 2250 441 2565 725 
Q 2881 1009 2881 1497 
Q 2881 1984 2565 2268 
Q 2250 2553 1709 2553 
Q 1456 2553 1204 2497 
Q 953 2441 691 2322 
L 691 4666 
z
" transform="scale(0.015625)"/>
       </defs>
       <use xlink:href="#DejaVuSans-34"/>
       <use xlink:href="#DejaVuSans-35" transform="translate(63.623047 0)"/>
       <use xlink:href="#DejaVuSans-b0" transform="translate(127.246094 0)"/>
      </g>
     </g>
    </g>
    <g id="xtick_3">
     <g id="line2d_3">
      <path d="M 147.8175 152.318906 
L 147.8175 48.744687 
" clip-path="url(#pd158169b9b)" style="fill: none; stroke: #b0b0b0; stroke-opacity: 0.6; stroke-width: 0.8; stroke-linecap: square"/>
     </g>
     <g id="text_3">
      <!-- 90째 -->
      <g transform="translate(137.1825 36.555937) scale(0.12 -0.12)">
       <defs>
        <path id="DejaVuSans-39" d="M 703 97 
L 703 672 
Q 941 559 1184 500 
Q 1428 441 1663 441 
Q 2288 441 2617 861 
Q 2947 1281 2994 2138 
Q 2813 1869 2534 1725 
Q 2256 1581 1919 1581 
Q 1219 1581 811 2004 
Q 403 2428 403 3163 
Q 403 3881 828 4315 
Q 1253 4750 1959 4750 
Q 2769 4750 3195 4129 
Q 3622 3509 3622 2328 
Q 3622 1225 3098 567 
Q 2575 -91 1691 -91 
Q 1453 -91 1209 -44 
Q 966 3 703 97 
z
M 1959 2075 
Q 2384 2075 2632 2365 
Q 2881 2656 2881 3163 
Q 2881 3666 2632 3958 
Q 2384 4250 1959 4250 
Q 1534 4250 1286 3958 
Q 1038 3666 1038 3163 
Q 1038 2656 1286 2365 
Q 1534 2075 1959 2075 
z
" transform="scale(0.015625)"/>
       </defs>
       <use xlink:href="#DejaVuSans-39"/>
       <use xlink:href="#DejaVuSans-30" transform="translate(63.623047 0)"/>
       <use xlink:href="#DejaVuSans-b0" transform="translate(127.246094 0)"/>
      </g>
     </g>
    </g>
    <g id="xtick_4">
     <g id="line2d_4">
      <path d="M 147.8175 152.318906 
L 74.579468 79.080874 
" clip-path="url(#pd158169b9b)" style="fill: none; stroke: #b0b0b0; stroke-opacity: 0.6; stroke-width: 0.8; stroke-linecap: square"/>
     </g>
     <g id="text_4">
      <!-- 135째 -->
      <g transform="translate(49.166812 71.431969) scale(0.12 -0.12)">
       <defs>
        <path id="DejaVuSans-31" d="M 794 531 
L 1825 531 
L 1825 4091 
L 703 3866 
L 703 4441 
L 1819 4666 
L 2450 4666 
L 2450 531 
L 3481 531 
L 3481 0 
L 794 0 
L 794 531 
z
" transform="scale(0.015625)"/>
        <path id="DejaVuSans-33" d="M 2597 2516 
Q 3050 2419 3304 2112 
Q 3559 1806 3559 1356 
Q 3559 666 3084 287 
Q 2609 -91 1734 -91 
Q 1441 -91 1130 -33 
Q 819 25 488 141 
L 488 750 
Q 750 597 1062 519 
Q 1375 441 1716 441 
Q 2309 441 2620 675 
Q 2931 909 2931 1356 
Q 2931 1769 2642 2001 
Q 2353 2234 1838 2234 
L 1294 2234 
L 1294 2753 
L 1863 2753 
Q 2328 2753 2575 2939 
Q 2822 3125 2822 3475 
Q 2822 3834 2567 4026 
Q 2313 4219 1838 4219 
Q 1578 4219 1281 4162 
Q 984 4106 628 3988 
L 628 4550 
Q 988 4650 1302 4700 
Q 1616 4750 1894 4750 
Q 2613 4750 3031 4423 
Q 3450 4097 3450 3541 
Q 3450 3153 3228 2886 
Q 3006 2619 2597 2516 
z
" transform="scale(0.015625)"/>
       </defs>
       <use xlink:href="#DejaVuSans-31"/>
       <use xlink:href="#DejaVuSans-33" transform="translate(63.623047 0)"/>
       <use xlink:href="#DejaVuSans-35" transform="translate(127.246094 0)"/>
       <use xlink:href="#DejaVuSans-b0" transform="translate(190.869141 0)"/>
      </g>
     </g>
    </g>
    <g id="xtick_5">
     <g id="line2d_5">
      <path d="M 147.8175 152.318906 
L 44.243281 152.318906 
" clip-path="url(#pd158169b9b)" style="fill: none; stroke: #b0b0b0; stroke-opacity: 0.6; stroke-width: 0.8; stroke-linecap: square"/>
     </g>
     <g id="text_5">
      <!-- 180째 -->
      <g transform="translate(14.290781 155.630156) scale(0.12 -0.12)">
       <defs>
        <path id="DejaVuSans-38" d="M 2034 2216 
Q 1584 2216 1326 1975 
Q 1069 1734 1069 1313 
Q 1069 891 1326 650 
Q 1584 409 2034 409 
Q 2484 409 2743 651 
Q 3003 894 3003 1313 
Q 3003 1734 2745 1975 
Q 2488 2216 2034 2216 
z
M 1403 2484 
Q 997 2584 770 2862 
Q 544 3141 544 3541 
Q 544 4100 942 4425 
Q 1341 4750 2034 4750 
Q 2731 4750 3128 4425 
Q 3525 4100 3525 3541 
Q 3525 3141 3298 2862 
Q 3072 2584 2669 2484 
Q 3125 2378 3379 2068 
Q 3634 1759 3634 1313 
Q 3634 634 3220 271 
Q 2806 -91 2034 -91 
Q 1263 -91 848 271 
Q 434 634 434 1313 
Q 434 1759 690 2068 
Q 947 2378 1403 2484 
z
M 1172 3481 
Q 1172 3119 1398 2916 
Q 1625 2713 2034 2713 
Q 2441 2713 2670 2916 
Q 2900 3119 2900 3481 
Q 2900 3844 2670 4047 
Q 2441 4250 2034 4250 
Q 1625 4250 1398 4047 
Q 1172 3844 1172 3481 
z
" transform="scale(0.015625)"/>
       </defs>
       <use xlink:href="#DejaVuSans-31"/>
       <use xlink:href="#DejaVuSans-38" transform="translate(63.623047 0)"/>
       <use xlink:href="#DejaVuSans-30" transform="translate(127.246094 0)"/>
       <use xlink:href="#DejaVuSans-b0" transform="translate(190.869141 0)"/>
      </g>
     </g>
    </g>
    <g id="xtick_6">
     <g id="line2d_6">
      <path d="M 147.8175 152.318906 
L 74.579468 225.556939 
" clip-path="url(#pd158169b9b)" style="fill: none; stroke: #b0b0b0; stroke-opacity: 0.6; stroke-width: 0.8; stroke-linecap: square"/>
     </g>
     <g id="text_6">
      <!-- 225째 -->
      <g transform="translate(49.166812 239.828344) scale(0.12 -0.12)">
       <defs>
        <path id="DejaVuSans-32" d="M 1228 531 
L 3431 531 
L 3431 0 
L 469 0 
L 469 531 
Q 828 903 1448 1529 
Q 2069 2156 2228 2338 
Q 2531 2678 2651 2914 
Q 2772 3150 2772 3378 
Q 2772 3750 2511 3984 
Q 2250 4219 1831 4219 
Q 1534 4219 1204 4116 
Q 875 4013 500 3803 
L 500 4441 
Q 881 4594 1212 4672 
Q 1544 4750 1819 4750 
Q 2544 4750 2975 4387 
Q 3406 4025 3406 3419 
Q 3406 3131 3298 2873 
Q 3191 2616 2906 2266 
Q 2828 2175 2409 1742 
Q 1991 1309 1228 531 
z
" transform="scale(0.015625)"/>
       </defs>
       <use xlink:href="#DejaVuSans-32"/>
       <use xlink:href="#DejaVuSans-32" transform="translate(63.623047 0)"/>
       <use xlink:href="#DejaVuSans-35" transform="translate(127.246094 0)"/>
       <use xlink:href="#DejaVuSans-b0" transform="translate(190.869141 0)"/>
      </g>
     </g>
    </g>
    <g id="xtick_7">
     <g id="line2d_7">
      <path d="M 147.8175 152.318906 
L 147.8175 255.893125 
" clip-path="url(#pd158169b9b)" style="fill: none; stroke: #b0b0b0; stroke-opacity: 0.6; stroke-width: 0.8; stroke-linecap: square"/>
     </g>
     <g id="text_7">
      <!-- 270째 -->
      <g transform="translate(133.365 274.704375) scale(0.12 -0.12)">
       <defs>
        <path id="DejaVuSans-37" d="M 525 4666 
L 3525 4666 
L 3525 4397 
L 1831 0 
L 1172 0 
L 2766 4134 
L 525 4134 
L 525 4666 
z
" transform="scale(0.015625)"/>
       </defs>
       <use xlink:href="#DejaVuSans-32"/>
       <use xlink:href="#DejaVuSans-37" transform="translate(63.623047 0)"/>
       <use xlink:href="#DejaVuSans-30" transform="translate(127.246094 0)"/>
       <use xlink:href="#DejaVuSans-b0" transform="translate(190.869141 0)"/>
      </g>
     </g>
    </g>
    <g id="xtick_8">
     <g id="line2d_8">
      <path d="M 147.8175 152.318906 
L 221.055532 225.556939 
" clip-path="url(#pd158169b9b)" style="fill: none; stroke: #b0b0b0; stroke-opacity: 0.6; stroke-width: 0.8; stroke-linecap: square"/>
     </g>
     <g id="text_8">
      <!-- 315째 -->
      <g transform="translate(217.563188 239.828344) scale(0.12 -0.12)">
       <use xlink:href="#DejaVuSans-33"/>
       <use xlink:href="#DejaVuSans-31" transform="translate(63.623047 0)"/>
       <use xlink:href="#DejaVuSans-35" transform="translate(127.246094 0)"/>
       <use xlink:href="#DejaVuSans-b0" transform="translate(190.869141 0)"/>
      </g>
     </g>
    </g>
   </g>
   <g id="matplotlib.axis_2">
    <g id="ytick_1">
     <g id="line2d_9">
      <path d="M 164.500129 152.318906 
C 164.500129 150.128164 164.0686 147.958723 163.230239 145.934741 
C 162.391878 143.910758 161.162989 142.071595 159.6139 140.522506 
C 158.064811 138.973417 156.225648 137.744528 154.201666 136.906167 
C 152.177683 136.067806 150.008243 135.636278 147.8175 135.636278 
C 145.626757 135.636278 143.457317 136.067806 141.433334 136.906167 
C 139.409352 137.744528 137.570189 138.973417 136.0211 140.522506 
C 134.472011 142.071595 133.243122 143.910758 132.404761 145.934741 
C 131.5664 147.958723 131.134871 150.128164 131.134871 152.318906 
C 131.134871 154.509649 131.5664 156.679089 132.404761 158.703072 
C 133.243122 160.727054 134.472011 162.566217 136.0211 164.115306 
C 137.570189 165.664395 139.409352 166.893284 141.433334 167.731645 
C 143.457317 168.570006 145.626757 169.001535 147.8175 169.001535 
C 150.008243 169.001535 152.177683 168.570006 154.201666 167.731645 
C 156.225648 166.893284 158.064811 165.664395 159.6139 164.115306 
C 161.162989 162.566217 162.391878 160.727054 163.230239 158.703072 
C 164.0686 156.679089 164.500129 154.509649 164.500129 152.318906 
" clip-path="url(#pd158169b9b)" style="fill: none; stroke: #b0b0b0; stroke-opacity: 0.6; stroke-width: 0.8; stroke-linecap: square"/>
     </g>
    </g>
    <g id="ytick_2">
     <g id="line2d_10">
      <path d="M 181.182757 152.318906 
C 181.182757 147.937421 180.3197 143.59854 178.642978 139.550575 
C 176.966256 135.50261 174.508478 131.824285 171.4103 128.726107 
C 168.312122 125.627929 164.633796 123.17015 160.585831 121.493428 
C 156.537866 119.816706 152.198985 118.953649 147.8175 118.953649 
C 143.436015 118.953649 139.097134 119.816706 135.049169 121.493428 
C 131.001204 123.17015 127.322878 125.627929 124.2247 128.726107 
C 121.126522 131.824285 118.668744 135.50261 116.992022 139.550575 
C 115.3153 143.59854 114.452243 147.937421 114.452243 152.318906 
C 114.452243 156.700392 115.3153 161.039273 116.992022 165.087237 
C 118.668744 169.135202 121.126522 172.813528 124.2247 175.911706 
C 127.322878 179.009884 131.001204 181.467663 135.049169 183.144385 
C 139.097134 184.821106 143.436015 185.684164 147.8175 185.684164 
C 152.198985 185.684164 156.537866 184.821106 160.585831 183.144385 
C 164.633796 181.467663 168.312122 179.009884 171.4103 175.911706 
C 174.508478 172.813528 176.966256 169.135202 178.642978 165.087237 
C 180.3197 161.039273 181.182757 156.700392 181.182757 152.318906 
" clip-path="url(#pd158169b9b)" style="fill: none; stroke: #b0b0b0; stroke-opacity: 0.6; stroke-width: 0.8; stroke-linecap: square"/>
     </g>
    </g>
    <g id="ytick_3">
     <g id="line2d_11">
      <path d="M 197.865386 152.318906 
C 197.865386 145.746678 196.5708 139.238357 194.055717 133.166409 
C 191.540635 127.094462 187.853967 121.576974 183.206699 116.929707 
C 178.559432 112.28244 173.041944 108.595772 166.969997 106.080689 
C 160.89805 103.565606 154.389728 102.27102 147.8175 102.27102 
C 141.245272 102.27102 134.73695 103.565606 128.665003 106.080689 
C 122.593056 108.595772 117.075568 112.28244 112.428301 116.929707 
C 107.781033 121.576974 104.094365 127.094462 101.579283 133.166409 
C 99.0642 139.238357 97.769614 145.746678 97.769614 152.318906 
C 97.769614 158.891134 99.0642 165.399456 101.579283 171.471403 
C 104.094365 177.54335 107.781033 183.060839 112.428301 187.708106 
C 117.075568 192.355373 122.593056 196.042041 128.665003 198.557124 
C 134.73695 201.072207 141.245272 202.366792 147.8175 202.366792 
C 154.389728 202.366792 160.89805 201.072207 166.969997 198.557124 
C 173.041944 196.042041 178.559432 192.355373 183.206699 187.708106 
C 187.853967 183.060839 191.540635 177.54335 194.055717 171.471403 
C 196.5708 165.399456 197.865386 158.891134 197.865386 152.318906 
" clip-path="url(#pd158169b9b)" style="fill: none; stroke: #b0b0b0; stroke-opacity: 0.6; stroke-width: 0.8; stroke-linecap: square"/>
     </g>
    </g>
    <g id="ytick_4">
     <g id="line2d_12">
      <path d="M 214.548015 152.318906 
C 214.548015 143.555935 212.8219 134.878173 209.468457 126.782244 
C 206.115013 118.686314 201.199455 111.329663 195.003099 105.133307 
C 188.806743 98.936951 181.450092 94.021393 173.354162 90.66795 
C 165.258233 87.314506 156.580471 85.588392 147.8175 85.588392 
C 139.054529 85.588392 130.376767 87.314506 122.280838 90.66795 
C 114.184908 94.021393 106.828257 98.936951 100.631901 105.133307 
C 94.435545 111.329663 89.519987 118.686314 86.166543 126.782244 
C 82.8131 134.878173 81.086985 143.555935 81.086985 152.318906 
C 81.086985 161.081877 82.8131 169.759639 86.166543 177.855569 
C 89.519987 185.951498 94.435545 193.308149 100.631901 199.504506 
C 106.828257 205.700862 114.184908 210.616419 122.280838 213.969863 
C 130.376767 217.323307 139.054529 219.049421 147.8175 219.049421 
C 156.580471 219.049421 165.258233 217.323307 173.354162 213.969863 
C 181.450092 210.616419 188.806743 205.700862 195.003099 199.504506 
C 201.199455 193.308149 206.115013 185.951498 209.468457 177.855569 
C 212.8219 169.759639 214.548015 161.081877 214.548015 152.318906 
" clip-path="url(#pd158169b9b)" style="fill: none; stroke: #b0b0b0; stroke-opacity: 0.6; stroke-width: 0.8; stroke-linecap: square"/>
     </g>
    </g>
    <g id="ytick_5">
     <g id="line2d_13">
      <path d="M 231.230643 152.318906 
C 231.230643 141.365193 229.073 130.51799 224.881196 120.398078 
C 220.689391 110.278167 214.544944 101.082352 206.799499 93.336907 
C 199.054054 85.591462 189.85824 79.447015 179.738328 75.255211 
C 169.618416 71.063406 158.771214 68.905763 147.8175 68.905763 
C 136.863786 68.905763 126.016584 71.063406 115.896672 75.255211 
C 105.77676 79.447015 96.580946 85.591462 88.835501 93.336907 
C 81.090056 101.082352 74.945609 110.278167 70.753804 120.398078 
C 66.562 130.51799 64.404357 141.365193 64.404357 152.318906 
C 64.404357 163.27262 66.562 174.119822 70.753804 184.239734 
C 74.945609 194.359646 81.090056 203.55546 88.835501 211.300905 
C 96.580946 219.046351 105.77676 225.190797 115.896672 229.382602 
C 126.016584 233.574407 136.863786 235.732049 147.8175 235.732049 
C 158.771214 235.732049 169.618416 233.574407 179.738328 229.382602 
C 189.85824 225.190797 199.054054 219.046351 206.799499 211.300905 
C 214.544944 203.55546 220.689391 194.359646 224.881196 184.239734 
C 229.073 174.119822 231.230643 163.27262 231.230643 152.318906 
" clip-path="url(#pd158169b9b)" style="fill: none; stroke: #b0b0b0; stroke-opacity: 0.6; stroke-width: 0.8; stroke-linecap: square"/>
     </g>
    </g>
    <g id="ytick_6">
     <g id="line2d_14">
      <path d="M 247.913272 152.318906 
C 247.913272 139.17445 245.324101 126.157807 240.293935 114.013913 
C 235.263769 101.870019 227.890433 90.835041 218.595899 81.540507 
C 209.301365 72.245973 198.266388 64.872637 186.122494 59.842471 
C 173.978599 54.812306 160.961956 52.223134 147.8175 52.223134 
C 134.673044 52.223134 121.656401 54.812306 109.512506 59.842471 
C 97.368612 64.872637 86.333635 72.245973 77.039101 81.540507 
C 67.744567 90.835041 60.371231 101.870019 55.341065 114.013913 
C 50.310899 126.157807 47.721728 139.17445 47.721728 152.318906 
C 47.721728 165.463363 50.310899 178.480006 55.341065 190.6239 
C 60.371231 202.767794 67.744567 213.802771 77.039101 223.097305 
C 86.333635 232.391839 97.368612 239.765175 109.512506 244.795341 
C 121.656401 249.825507 134.673044 252.414678 147.8175 252.414678 
C 160.961956 252.414678 173.978599 249.825507 186.122494 244.795341 
C 198.266388 239.765175 209.301365 232.391839 218.595899 223.097305 
C 227.890433 213.802771 235.263769 202.767794 240.293935 190.6239 
C 245.324101 178.480006 247.913272 165.463363 247.913272 152.318906 
" clip-path="url(#pd158169b9b)" style="fill: none; stroke: #b0b0b0; stroke-opacity: 0.6; stroke-width: 0.8; stroke-linecap: square"/>
     </g>
    </g>
   </g>
   <g id="line2d_15">
    <path d="M 104.116497 153.692266 
L 104.093914 156.452002 
L 104.225981 159.223125 
L 104.748883 161.945883 
L 105.791759 164.528513 
L 107.242055 166.926965 
L 108.73088 169.233197 
L 109.823466 171.677833 
L 110.378711 174.460144 
L 110.751186 177.509147 
L 111.512385 180.48004 
L 112.952899 183.056187 
L 114.96068 185.175726 
L 117.301781 186.932195 
L 119.815468 188.418908 
L 122.376981 189.753493 
L 124.881112 191.10222 
L 127.304157 192.578609 
L 129.702386 194.180466 
L 132.163887 195.798489 
L 134.779139 197.19724 
L 137.588408 198.081235 
L 140.524599 198.364471 
L 143.464536 198.368451 
L 146.363838 198.575169 
L 149.287124 199.083101 
L 152.264341 199.361565 
L 155.15368 198.637721 
L 157.705916 196.557137 
L 159.774483 193.47511 
L 161.445199 190.171297 
L 162.978066 187.352908 
L 164.649203 185.352984 
L 166.619612 184.111541 
L 168.899587 183.340255 
L 171.415906 182.741788 
L 174.116353 182.1491 
L 176.99648 181.497886 
L 180.015524 180.705283 
L 183.027007 179.6302 
L 185.840452 178.159278 
L 188.3147 176.268884 
L 190.36531 173.998098 
L 191.975148 171.427627 
L 193.263124 168.680338 
L 194.4591 165.869544 
L 195.707806 163.023658 
L 196.893295 160.091749 
L 197.66939 157.031297 
L 197.691733 153.886267 
L 196.90033 150.776416 
L 195.634394 147.798879 
L 194.473102 144.929385 
L 193.95283 142.006438 
L 194.337474 138.803604 
L 195.514281 135.147008 
L 197.033969 131.021038 
L 198.246303 126.624148 
L 198.49068 122.350871 
L 197.398923 118.623406 
L 195.19374 115.570128 
L 192.571891 112.862603 
L 190.107538 110.028869 
L 187.840957 106.921205 
L 185.53919 103.688397 
L 183.137859 100.346576 
L 180.704081 96.710735 
L 178.115238 92.856248 
L 175.032651 89.428402 
L 171.210674 87.341866 
L 166.752297 87.144909 
L 162.071722 88.549181 
L 157.607395 90.507941 
L 153.529723 91.889895 
L 149.704892 92.261116 
L 145.924956 92.097192 
L 142.13619 92.216922 
L 138.414275 92.949278 
L 134.734505 93.788952 
L 130.825698 93.83274 
L 126.332912 92.643166 
L 121.231817 90.883017 
L 116.089213 90.048636 
L 111.731708 91.301165 
L 108.523971 94.500234 
L 106.037352 98.456265 
L 103.45813 102.003077 
L 100.267508 104.768915 
L 96.578258 107.145438 
L 92.964009 109.770177 
L 90.084032 113.083282 
L 88.402126 117.180752 
L 87.995637 121.838145 
L 88.490446 126.645798 
L 89.301825 131.251967 
L 90.04683 135.534975 
L 90.699357 139.551489 
L 91.378889 143.379908 
L 92.062574 147.048514 
L 92.521352 150.581155 
L 104.116497 153.692266 
" clip-path="url(#pd158169b9b)" style="fill: none; stroke: #3d9970; stroke-width: 1.5; stroke-linecap: square"/>
   </g>
   <g id="patch_103">
    <path d="M 251.391719 152.318906 
C 251.391719 138.717664 248.712571 125.248678 243.507601 112.682769 
C 238.302631 100.11686 230.673063 88.698404 221.055532 79.080874 
C 211.438002 69.463344 200.019546 61.833775 187.453638 56.628805 
C 174.887729 51.423836 161.418742 48.744687 147.8175 48.744687 
C 134.216258 48.744687 120.747271 51.423836 108.181362 56.628805 
C 95.615454 61.833775 84.196998 69.463344 74.579468 79.080874 
C 64.961937 88.698404 57.332369 100.11686 52.127399 112.682769 
C 46.922429 125.248678 44.243281 138.717664 44.243281 152.318906 
C 44.243281 165.920148 46.922429 179.389135 52.127399 191.955044 
C 57.332369 204.520953 64.961937 215.939408 74.579468 225.556939 
C 84.196998 235.174469 95.615454 242.804037 108.181362 248.009007 
C 120.747271 253.213977 134.216258 255.893125 147.8175 255.893125 
C 161.418742 255.893125 174.887729 253.213977 187.453638 248.009007 
C 200.019546 242.804037 211.438002 235.174469 221.055532 225.556939 
C 230.673063 215.939408 238.302631 204.520953 243.507601 191.955044 
C 248.712571 179.389135 251.391719 165.920148 251.391719 152.318906 
" style="fill: none; stroke: #000000; stroke-width: 0.8; stroke-linejoin: miter; stroke-linecap: square"/>
   </g>
   <g id="text_9">
    <!-- STNGPe within-burst phase difference -->
    <g transform="translate(11.716719 21.437813) scale(0.14 -0.14)">
     <defs>
      <path id="DejaVuSans-53" d="M 3425 4513 
L 3425 3897 
Q 3066 4069 2747 4153 
Q 2428 4238 2131 4238 
Q 1616 4238 1336 4038 
Q 1056 3838 1056 3469 
Q 1056 3159 1242 3001 
Q 1428 2844 1947 2747 
L 2328 2669 
Q 3034 2534 3370 2195 
Q 3706 1856 3706 1288 
Q 3706 609 3251 259 
Q 2797 -91 1919 -91 
Q 1588 -91 1214 -16 
Q 841 59 441 206 
L 441 856 
Q 825 641 1194 531 
Q 1563 422 1919 422 
Q 2459 422 2753 634 
Q 3047 847 3047 1241 
Q 3047 1584 2836 1778 
Q 2625 1972 2144 2069 
L 1759 2144 
Q 1053 2284 737 2584 
Q 422 2884 422 3419 
Q 422 4038 858 4394 
Q 1294 4750 2059 4750 
Q 2388 4750 2728 4690 
Q 3069 4631 3425 4513 
z
" transform="scale(0.015625)"/>
      <path id="DejaVuSans-54" d="M -19 4666 
L 3928 4666 
L 3928 4134 
L 2272 4134 
L 2272 0 
L 1638 0 
L 1638 4134 
L -19 4134 
L -19 4666 
z
" transform="scale(0.015625)"/>
      <path id="DejaVuSans-4e" d="M 628 4666 
L 1478 4666 
L 3547 763 
L 3547 4666 
L 4159 4666 
L 4159 0 
L 3309 0 
L 1241 3903 
L 1241 0 
L 628 0 
L 628 4666 
z
" transform="scale(0.015625)"/>
      <path id="DejaVuSans-2013" d="M 313 1978 
L 2888 1978 
L 2888 1528 
L 313 1528 
L 313 1978 
z
" transform="scale(0.015625)"/>
      <path id="DejaVuSans-47" d="M 3809 666 
L 3809 1919 
L 2778 1919 
L 2778 2438 
L 4434 2438 
L 4434 434 
Q 4069 175 3628 42 
Q 3188 -91 2688 -91 
Q 1594 -91 976 548 
Q 359 1188 359 2328 
Q 359 3472 976 4111 
Q 1594 4750 2688 4750 
Q 3144 4750 3555 4637 
Q 3966 4525 4313 4306 
L 4313 3634 
Q 3963 3931 3569 4081 
Q 3175 4231 2741 4231 
Q 1884 4231 1454 3753 
Q 1025 3275 1025 2328 
Q 1025 1384 1454 906 
Q 1884 428 2741 428 
Q 3075 428 3337 486 
Q 3600 544 3809 666 
z
" transform="scale(0.015625)"/>
      <path id="DejaVuSans-50" d="M 1259 4147 
L 1259 2394 
L 2053 2394 
Q 2494 2394 2734 2622 
Q 2975 2850 2975 3272 
Q 2975 3691 2734 3919 
Q 2494 4147 2053 4147 
L 1259 4147 
z
M 628 4666 
L 2053 4666 
Q 2838 4666 3239 4311 
Q 3641 3956 3641 3272 
Q 3641 2581 3239 2228 
Q 2838 1875 2053 1875 
L 1259 1875 
L 1259 0 
L 628 0 
L 628 4666 
z
" transform="scale(0.015625)"/>
      <path id="DejaVuSans-65" d="M 3597 1894 
L 3597 1613 
L 953 1613 
Q 991 1019 1311 708 
Q 1631 397 2203 397 
Q 2534 397 2845 478 
Q 3156 559 3463 722 
L 3463 178 
Q 3153 47 2828 -22 
Q 2503 -91 2169 -91 
Q 1331 -91 842 396 
Q 353 884 353 1716 
Q 353 2575 817 3079 
Q 1281 3584 2069 3584 
Q 2775 3584 3186 3129 
Q 3597 2675 3597 1894 
z
M 3022 2063 
Q 3016 2534 2758 2815 
Q 2500 3097 2075 3097 
Q 1594 3097 1305 2825 
Q 1016 2553 972 2059 
L 3022 2063 
z
" transform="scale(0.015625)"/>
      <path id="DejaVuSans-20" transform="scale(0.015625)"/>
      <path id="DejaVuSans-77" d="M 269 3500 
L 844 3500 
L 1563 769 
L 2278 3500 
L 2956 3500 
L 3675 769 
L 4391 3500 
L 4966 3500 
L 4050 0 
L 3372 0 
L 2619 2869 
L 1863 0 
L 1184 0 
L 269 3500 
z
" transform="scale(0.015625)"/>
      <path id="DejaVuSans-69" d="M 603 3500 
L 1178 3500 
L 1178 0 
L 603 0 
L 603 3500 
z
M 603 4863 
L 1178 4863 
L 1178 4134 
L 603 4134 
L 603 4863 
z
" transform="scale(0.015625)"/>
      <path id="DejaVuSans-74" d="M 1172 4494 
L 1172 3500 
L 2356 3500 
L 2356 3053 
L 1172 3053 
L 1172 1153 
Q 1172 725 1289 603 
Q 1406 481 1766 481 
L 2356 481 
L 2356 0 
L 1766 0 
Q 1100 0 847 248 
Q 594 497 594 1153 
L 594 3053 
L 172 3053 
L 172 3500 
L 594 3500 
L 594 4494 
L 1172 4494 
z
" transform="scale(0.015625)"/>
      <path id="DejaVuSans-68" d="M 3513 2113 
L 3513 0 
L 2938 0 
L 2938 2094 
Q 2938 2591 2744 2837 
Q 2550 3084 2163 3084 
Q 1697 3084 1428 2787 
Q 1159 2491 1159 1978 
L 1159 0 
L 581 0 
L 581 4863 
L 1159 4863 
L 1159 2956 
Q 1366 3272 1645 3428 
Q 1925 3584 2291 3584 
Q 2894 3584 3203 3211 
Q 3513 2838 3513 2113 
z
" transform="scale(0.015625)"/>
      <path id="DejaVuSans-6e" d="M 3513 2113 
L 3513 0 
L 2938 0 
L 2938 2094 
Q 2938 2591 2744 2837 
Q 2550 3084 2163 3084 
Q 1697 3084 1428 2787 
Q 1159 2491 1159 1978 
L 1159 0 
L 581 0 
L 581 3500 
L 1159 3500 
L 1159 2956 
Q 1366 3272 1645 3428 
Q 1925 3584 2291 3584 
Q 2894 3584 3203 3211 
Q 3513 2838 3513 2113 
z
" transform="scale(0.015625)"/>
      <path id="DejaVuSans-2d" d="M 313 2009 
L 1997 2009 
L 1997 1497 
L 313 1497 
L 313 2009 
z
" transform="scale(0.015625)"/>
      <path id="DejaVuSans-62" d="M 3116 1747 
Q 3116 2381 2855 2742 
Q 2594 3103 2138 3103 
Q 1681 3103 1420 2742 
Q 1159 2381 1159 1747 
Q 1159 1113 1420 752 
Q 1681 391 2138 391 
Q 2594 391 2855 752 
Q 3116 1113 3116 1747 
z
M 1159 2969 
Q 1341 3281 1617 3432 
Q 1894 3584 2278 3584 
Q 2916 3584 3314 3078 
Q 3713 2572 3713 1747 
Q 3713 922 3314 415 
Q 2916 -91 2278 -91 
Q 1894 -91 1617 61 
Q 1341 213 1159 525 
L 1159 0 
L 581 0 
L 581 4863 
L 1159 4863 
L 1159 2969 
z
" transform="scale(0.015625)"/>
      <path id="DejaVuSans-75" d="M 544 1381 
L 544 3500 
L 1119 3500 
L 1119 1403 
Q 1119 906 1312 657 
Q 1506 409 1894 409 
Q 2359 409 2629 706 
Q 2900 1003 2900 1516 
L 2900 3500 
L 3475 3500 
L 3475 0 
L 2900 0 
L 2900 538 
Q 2691 219 2414 64 
Q 2138 -91 1772 -91 
Q 1169 -91 856 284 
Q 544 659 544 1381 
z
M 1991 3584 
L 1991 3584 
z
" transform="scale(0.015625)"/>
      <path id="DejaVuSans-72" d="M 2631 2963 
Q 2534 3019 2420 3045 
Q 2306 3072 2169 3072 
Q 1681 3072 1420 2755 
Q 1159 2438 1159 1844 
L 1159 0 
L 581 0 
L 581 3500 
L 1159 3500 
L 1159 2956 
Q 1341 3275 1631 3429 
Q 1922 3584 2338 3584 
Q 2397 3584 2469 3576 
Q 2541 3569 2628 3553 
L 2631 2963 
z
" transform="scale(0.015625)"/>
      <path id="DejaVuSans-73" d="M 2834 3397 
L 2834 2853 
Q 2591 2978 2328 3040 
Q 2066 3103 1784 3103 
Q 1356 3103 1142 2972 
Q 928 2841 928 2578 
Q 928 2378 1081 2264 
Q 1234 2150 1697 2047 
L 1894 2003 
Q 2506 1872 2764 1633 
Q 3022 1394 3022 966 
Q 3022 478 2636 193 
Q 2250 -91 1575 -91 
Q 1294 -91 989 -36 
Q 684 19 347 128 
L 347 722 
Q 666 556 975 473 
Q 1284 391 1588 391 
Q 1994 391 2212 530 
Q 2431 669 2431 922 
Q 2431 1156 2273 1281 
Q 2116 1406 1581 1522 
L 1381 1569 
Q 847 1681 609 1914 
Q 372 2147 372 2553 
Q 372 3047 722 3315 
Q 1072 3584 1716 3584 
Q 2034 3584 2315 3537 
Q 2597 3491 2834 3397 
z
" transform="scale(0.015625)"/>
      <path id="DejaVuSans-70" d="M 1159 525 
L 1159 -1331 
L 581 -1331 
L 581 3500 
L 1159 3500 
L 1159 2969 
Q 1341 3281 1617 3432 
Q 1894 3584 2278 3584 
Q 2916 3584 3314 3078 
Q 3713 2572 3713 1747 
Q 3713 922 3314 415 
Q 2916 -91 2278 -91 
Q 1894 -91 1617 61 
Q 1341 213 1159 525 
z
M 3116 1747 
Q 3116 2381 2855 2742 
Q 2594 3103 2138 3103 
Q 1681 3103 1420 2742 
Q 1159 2381 1159 1747 
Q 1159 1113 1420 752 
Q 1681 391 2138 391 
Q 2594 391 2855 752 
Q 3116 1113 3116 1747 
z
" transform="scale(0.015625)"/>
      <path id="DejaVuSans-61" d="M 2194 1759 
Q 1497 1759 1228 1600 
Q 959 1441 959 1056 
Q 959 750 1161 570 
Q 1363 391 1709 391 
Q 2188 391 2477 730 
Q 2766 1069 2766 1631 
L 2766 1759 
L 2194 1759 
z
M 3341 1997 
L 3341 0 
L 2766 0 
L 2766 531 
Q 2569 213 2275 61 
Q 1981 -91 1556 -91 
Q 1019 -91 701 211 
Q 384 513 384 1019 
Q 384 1609 779 1909 
Q 1175 2209 1959 2209 
L 2766 2209 
L 2766 2266 
Q 2766 2663 2505 2880 
Q 2244 3097 1772 3097 
Q 1472 3097 1187 3025 
Q 903 2953 641 2809 
L 641 3341 
Q 956 3463 1253 3523 
Q 1550 3584 1831 3584 
Q 2591 3584 2966 3190 
Q 3341 2797 3341 1997 
z
" transform="scale(0.015625)"/>
      <path id="DejaVuSans-64" d="M 2906 2969 
L 2906 4863 
L 3481 4863 
L 3481 0 
L 2906 0 
L 2906 525 
Q 2725 213 2448 61 
Q 2172 -91 1784 -91 
Q 1150 -91 751 415 
Q 353 922 353 1747 
Q 353 2572 751 3078 
Q 1150 3584 1784 3584 
Q 2172 3584 2448 3432 
Q 2725 3281 2906 2969 
z
M 947 1747 
Q 947 1113 1208 752 
Q 1469 391 1925 391 
Q 2381 391 2643 752 
Q 2906 1113 2906 1747 
Q 2906 2381 2643 2742 
Q 2381 3103 1925 3103 
Q 1469 3103 1208 2742 
Q 947 2381 947 1747 
z
" transform="scale(0.015625)"/>
      <path id="DejaVuSans-66" d="M 2375 4863 
L 2375 4384 
L 1825 4384 
Q 1516 4384 1395 4259 
Q 1275 4134 1275 3809 
L 1275 3500 
L 2222 3500 
L 2222 3053 
L 1275 3053 
L 1275 0 
L 697 0 
L 697 3053 
L 147 3053 
L 147 3500 
L 697 3500 
L 697 3744 
Q 697 4328 969 4595 
Q 1241 4863 1831 4863 
L 2375 4863 
z
" transform="scale(0.015625)"/>
      <path id="DejaVuSans-63" d="M 3122 3366 
L 3122 2828 
Q 2878 2963 2633 3030 
Q 2388 3097 2138 3097 
Q 1578 3097 1268 2742 
Q 959 2388 959 1747 
Q 959 1106 1268 751 
Q 1578 397 2138 397 
Q 2388 397 2633 464 
Q 2878 531 3122 666 
L 3122 134 
Q 2881 22 2623 -34 
Q 2366 -91 2075 -91 
Q 1284 -91 818 406 
Q 353 903 353 1747 
Q 353 2603 823 3093 
Q 1294 3584 2113 3584 
Q 2378 3584 2631 3529 
Q 2884 3475 3122 3366 
z
" transform="scale(0.015625)"/>
     </defs>
     <use xlink:href="#DejaVuSans-53"/>
     <use xlink:href="#DejaVuSans-54" transform="translate(63.476562 0)"/>
     <use xlink:href="#DejaVuSans-4e" transform="translate(124.560547 0)"/>
     <use xlink:href="#DejaVuSans-2013" transform="translate(199.365234 0)"/>
     <use xlink:href="#DejaVuSans-47" transform="translate(249.365234 0)"/>
     <use xlink:href="#DejaVuSans-50" transform="translate(326.855469 0)"/>
     <use xlink:href="#DejaVuSans-65" transform="translate(383.533203 0)"/>
     <use xlink:href="#DejaVuSans-20" transform="translate(445.056641 0)"/>
     <use xlink:href="#DejaVuSans-77" transform="translate(476.84375 0)"/>
     <use xlink:href="#DejaVuSans-69" transform="translate(558.630859 0)"/>
     <use xlink:href="#DejaVuSans-74" transform="translate(586.414062 0)"/>
     <use xlink:href="#DejaVuSans-68" transform="translate(625.623047 0)"/>
     <use xlink:href="#DejaVuSans-69" transform="translate(689.001953 0)"/>
     <use xlink:href="#DejaVuSans-6e" transform="translate(716.785156 0)"/>
     <use xlink:href="#DejaVuSans-2d" transform="translate(780.164062 0)"/>
     <use xlink:href="#DejaVuSans-62" transform="translate(816.248047 0)"/>
     <use xlink:href="#DejaVuSans-75" transform="translate(879.724609 0)"/>
     <use xlink:href="#DejaVuSans-72" transform="translate(943.103516 0)"/>
     <use xlink:href="#DejaVuSans-73" transform="translate(984.216797 0)"/>
     <use xlink:href="#DejaVuSans-74" transform="translate(1036.316406 0)"/>
     <use xlink:href="#DejaVuSans-20" transform="translate(1075.525391 0)"/>
     <use xlink:href="#DejaVuSans-70" transform="translate(1107.3125 0)"/>
     <use xlink:href="#DejaVuSans-68" transform="translate(1170.789062 0)"/>
     <use xlink:href="#DejaVuSans-61" transform="translate(1234.167969 0)"/>
     <use xlink:href="#DejaVuSans-73" transform="translate(1295.447266 0)"/>
     <use xlink:href="#DejaVuSans-65" transform="translate(1347.546875 0)"/>
     <use xlink:href="#DejaVuSans-20" transform="translate(1409.070312 0)"/>
     <use xlink:href="#DejaVuSans-64" transform="translate(1440.857422 0)"/>
     <use xlink:href="#DejaVuSans-69" transform="translate(1504.333984 0)"/>
     <use xlink:href="#DejaVuSans-66" transform="translate(1532.117188 0)"/>
     <use xlink:href="#DejaVuSans-66" transform="translate(1567.322266 0)"/>
     <use xlink:href="#DejaVuSans-65" transform="translate(1602.527344 0)"/>
     <use xlink:href="#DejaVuSans-72" transform="translate(1664.050781 0)"/>
     <use xlink:href="#DejaVuSans-65" transform="translate(1702.914062 0)"/>
     <use xlink:href="#DejaVuSans-6e" transform="translate(1764.4375 0)"/>
     <use xlink:href="#DejaVuSans-63" transform="translate(1827.816406 0)"/>
     <use xlink:href="#DejaVuSans-65" transform="translate(1882.796875 0)"/>
    </g>
   </g>
  </g>
 </g>
 <defs>
  <clipPath id="pd158169b9b">
   <path d="M 251.391719 152.318906 
C 251.391719 138.717664 248.712571 125.248678 243.507601 112.682769 
C 238.302631 100.11686 230.673063 88.698404 221.055532 79.080874 
C 211.438002 69.463344 200.019546 61.833775 187.453638 56.628805 
C 174.887729 51.423836 161.418742 48.744687 147.8175 48.744687 
C 134.216258 48.744687 120.747271 51.423836 108.181362 56.628805 
C 95.615454 61.833775 84.196998 69.463344 74.579468 79.080874 
C 64.961937 88.698404 57.332369 100.11686 52.127399 112.682769 
C 46.922429 125.248678 44.243281 138.717664 44.243281 152.318906 
C 44.243281 165.920148 46.922429 179.389135 52.127399 191.955044 
C 57.332369 204.520953 64.961937 215.939408 74.579468 225.556939 
C 84.196998 235.174469 95.615454 242.804037 108.181362 248.009007 
C 120.747271 253.213977 134.216258 255.893125 147.8175 255.893125 
C 161.418742 255.893125 174.887729 253.213977 187.453638 248.009007 
C 200.019546 242.804037 211.438002 235.174469 221.055532 225.556939 
C 230.673063 215.939408 238.302631 204.520953 243.507601 191.955044 
C 248.712571 179.389135 251.391719 165.920148 251.391719 152.318906 
M 147.8175 152.318906 
C 147.8175 152.318906 147.8175 152.318906 147.8175 152.318906 
C 147.8175 152.318906 147.8175 152.318906 147.8175 152.318906 
C 147.8175 152.318906 147.8175 152.318906 147.8175 152.318906 
C 147.8175 152.318906 147.8175 152.318906 147.8175 152.318906 
C 147.8175 152.318906 147.8175 152.318906 147.8175 152.318906 
C 147.8175 152.318906 147.8175 152.318906 147.8175 152.318906 
C 147.8175 152.318906 147.8175 152.318906 147.8175 152.318906 
C 147.8175 152.318906 147.8175 152.318906 147.8175 152.318906 
C 147.8175 152.318906 147.8175 152.318906 147.8175 152.318906 
C 147.8175 152.318906 147.8175 152.318906 147.8175 152.318906 
C 147.8175 152.318906 147.8175 152.318906 147.8175 152.318906 
C 147.8175 152.318906 147.8175 152.318906 147.8175 152.318906 
C 147.8175 152.318906 147.8175 152.318906 147.8175 152.318906 
C 147.8175 152.318906 147.8175 152.318906 147.8175 152.318906 
C 147.8175 152.318906 147.8175 152.318906 147.8175 152.318906 
C 147.8175 152.318906 147.8175 152.318906 147.8175 152.318906 
z
"/>
  </clipPath>
 </defs>
</svg>
