<?xml version="1.0" encoding="utf-8" standalone="no"?>
<!DOCTYPE svg PUBLIC "-//W3C//DTD SVG 1.1//EN"
  "http://www.w3.org/Graphics/SVG/1.1/DTD/svg11.dtd">
<svg xmlns:xlink="http://www.w3.org/1999/xlink" width="288pt" height="144pt" viewBox="0 0 288 144" xmlns="http://www.w3.org/2000/svg" version="1.1">
 <metadata>
  <rdf:RDF xmlns:dc="http://purl.org/dc/elements/1.1/" xmlns:cc="http://creativecommons.org/ns#" xmlns:rdf="http://www.w3.org/1999/02/22-rdf-syntax-ns#">
   <cc:Work>
    <dc:type rdf:resource="http://purl.org/dc/dcmitype/StillImage"/>
    <dc:date>1980-01-01T00:00:00+00:00</dc:date>
    <dc:format>image/svg+xml</dc:format>
    <dc:creator>
     <cc:Agent>
      <dc:title>Matplotlib v3.10.1, https://matplotlib.org/</dc:title>
     </cc:Agent>
    </dc:creator>
   </cc:Work>
  </rdf:RDF>
 </metadata>
 <defs>
  <style type="text/css">*{stroke-linejoin: round; stroke-linecap: butt}</style>
 </defs>
 <g id="figure_1">
  <g id="patch_1">
   <path d="M 0 144 
L 288 144 
L 288 0 
L 0 0 
L 0 144 
z
" style="fill: none"/>
  </g>
  <g id="axes_1">
   <g id="line2d_1">
    <path d="M 46.145455 22.32 
L 55.547954 22.32 
L 55.547954 68.138182 
L 55.638146 68.138182 
L 64.950453 68.138182 
L 64.950453 22.32 
L 65.040645 22.32 
L 74.330404 22.32 
L 74.330404 68.138182 
L 74.420596 68.138182 
L 83.732904 68.138182 
L 83.732904 22.32 
L 83.823095 22.32 
L 93.135403 22.32 
L 93.135403 68.138182 
L 93.225595 68.138182 
L 102.515354 68.138182 
L 102.515354 22.32 
L 102.605546 22.32 
L 111.917853 22.32 
L 111.917853 68.138182 
L 112.008045 68.138182 
L 121.297805 68.138182 
L 121.297805 22.32 
L 121.387997 22.32 
L 130.700304 22.32 
L 130.700304 68.138182 
L 130.790496 68.138182 
L 140.102803 68.138182 
L 140.102803 22.32 
L 140.192995 22.32 
L 149.482755 22.32 
L 149.482755 68.138182 
L 149.572946 68.138182 
L 158.885254 68.138182 
L 158.885254 22.32 
L 158.975446 22.32 
L 168.287753 22.32 
L 168.287753 68.138182 
L 168.377945 68.138182 
L 177.667704 68.138182 
L 177.667704 22.32 
L 177.757896 22.32 
L 187.070204 22.32 
L 187.070204 68.138182 
L 187.160396 68.138182 
L 196.450155 68.138182 
L 196.450155 22.32 
L 196.540347 22.32 
L 205.852654 22.32 
L 205.852654 68.138182 
L 205.942846 68.138182 
L 215.255154 68.138182 
L 215.255154 22.32 
L 215.345345 22.32 
L 224.635105 22.32 
L 224.635105 68.138182 
L 224.725297 68.138182 
L 234.037604 68.138182 
L 234.037604 22.32 
L 234.127796 22.32 
L 243.440103 22.32 
L 243.440103 68.138182 
L 243.530295 68.138182 
L 249.054545 68.138182 
L 249.054545 68.138182 
" clip-path="url(#p298200aa99)" style="fill: none; stroke: #000000; stroke-width: 2.5; stroke-linecap: square"/>
   </g>
   <g id="line2d_2">
    <path d="M 46.145455 123.12 
L 55.547954 123.12 
L 55.547954 77.301818 
L 55.638146 77.301818 
L 64.950453 77.301818 
L 64.950453 123.12 
L 65.040645 123.12 
L 74.330404 123.12 
L 74.330404 77.301818 
L 74.420596 77.301818 
L 83.732904 77.301818 
L 83.732904 123.12 
L 83.823095 123.12 
L 93.135403 123.12 
L 93.135403 77.301818 
L 93.225595 77.301818 
L 102.515354 77.301818 
L 102.515354 123.12 
L 102.605546 123.12 
L 111.917853 123.12 
L 111.917853 77.301818 
L 112.008045 77.301818 
L 121.297805 77.301818 
L 121.297805 123.12 
L 121.387997 123.12 
L 130.700304 123.12 
L 130.700304 77.301818 
L 130.790496 77.301818 
L 140.102803 77.301818 
L 140.102803 123.12 
L 140.192995 123.12 
L 149.482755 123.12 
L 149.482755 77.301818 
L 149.572946 77.301818 
L 158.885254 77.301818 
L 158.885254 123.12 
L 158.975446 123.12 
L 168.287753 123.12 
L 168.287753 77.301818 
L 168.377945 77.301818 
L 177.667704 77.301818 
L 177.667704 123.12 
L 177.757896 123.12 
L 187.070204 123.12 
L 187.070204 77.301818 
L 187.160396 77.301818 
L 196.450155 77.301818 
L 196.450155 123.12 
L 196.540347 123.12 
L 205.852654 123.12 
L 205.852654 77.301818 
L 205.942846 77.301818 
L 215.255154 77.301818 
L 215.255154 123.12 
L 215.345345 123.12 
L 224.635105 123.12 
L 224.635105 77.301818 
L 224.725297 77.301818 
L 234.037604 77.301818 
L 234.037604 123.12 
L 234.127796 123.12 
L 243.440103 123.12 
L 243.440103 77.301818 
L 243.530295 77.301818 
L 249.054545 77.301818 
L 249.054545 77.301818 
" clip-path="url(#p298200aa99)" style="fill: none; stroke: #000000; stroke-width: 2.5; stroke-linecap: square"/>
   </g>
  </g>
 </g>
 <defs>
  <clipPath id="p298200aa99">
   <rect x="36" y="17.28" width="223.2" height="110.88"/>
  </clipPath>
 </defs>
</svg>
