<?xml version="1.0" encoding="utf-8" standalone="no"?>
<!DOCTYPE svg PUBLIC "-//W3C//DTD SVG 1.1//EN"
  "http://www.w3.org/Graphics/SVG/1.1/DTD/svg11.dtd">
<svg xmlns:xlink="http://www.w3.org/1999/xlink" width="432pt" height="144pt" viewBox="0 0 432 144" xmlns="http://www.w3.org/2000/svg" version="1.1">
 <metadata>
  <rdf:RDF xmlns:dc="http://purl.org/dc/elements/1.1/" xmlns:cc="http://creativecommons.org/ns#" xmlns:rdf="http://www.w3.org/1999/02/22-rdf-syntax-ns#">
   <cc:Work>
    <dc:type rdf:resource="http://purl.org/dc/dcmitype/StillImage"/>
    <dc:date>1980-01-01T00:00:00+00:00</dc:date>
    <dc:format>image/svg+xml</dc:format>
    <dc:creator>
     <cc:Agent>
      <dc:title>Matplotlib v3.10.1, https://matplotlib.org/</dc:title>
     </cc:Agent>
    </dc:creator>
   </cc:Work>
  </rdf:RDF>
 </metadata>
 <defs>
  <style type="text/css">*{stroke-linejoin: round; stroke-linecap: butt}</style>
 </defs>
 <g id="figure_1">
  <g id="patch_1">
   <path d="M 0 144 
L 432 144 
L 432 0 
L 0 0 
L 0 144 
z
" style="fill: none"/>
  </g>
  <g id="axes_1">
   <g id="patch_2">
    <path d="M 54 67.68 
L 388.8 67.68 
L 388.8 17.28 
L 54 17.28 
L 54 67.68 
z
" style="fill: none"/>
   </g>
   <g id="matplotlib.axis_1"/>
   <g id="matplotlib.axis_2">
    <g id="text_1">
     <!-- STN -->
     <g transform="translate(20.04375 39.568437) scale(0.14 -0.14)">
      <defs>
       <path id="DejaVuSans-53" d="M 3425 4513 
L 3425 3897 
Q 3066 4069 2747 4153 
Q 2428 4238 2131 4238 
Q 1616 4238 1336 4038 
Q 1056 3838 1056 3469 
Q 1056 3159 1242 3001 
Q 1428 2844 1947 2747 
L 2328 2669 
Q 3034 2534 3370 2195 
Q 3706 1856 3706 1288 
Q 3706 609 3251 259 
Q 2797 -91 1919 -91 
Q 1588 -91 1214 -16 
Q 841 59 441 206 
L 441 856 
Q 825 641 1194 531 
Q 1563 422 1919 422 
Q 2459 422 2753 634 
Q 3047 847 3047 1241 
Q 3047 1584 2836 1778 
Q 2625 1972 2144 2069 
L 1759 2144 
Q 1053 2284 737 2584 
Q 422 2884 422 3419 
Q 422 4038 858 4394 
Q 1294 4750 2059 4750 
Q 2388 4750 2728 4690 
Q 3069 4631 3425 4513 
z
" transform="scale(0.015625)"/>
       <path id="DejaVuSans-54" d="M -19 4666 
L 3928 4666 
L 3928 4134 
L 2272 4134 
L 2272 0 
L 1638 0 
L 1638 4134 
L -19 4134 
L -19 4666 
z
" transform="scale(0.015625)"/>
       <path id="DejaVuSans-4e" d="M 628 4666 
L 1478 4666 
L 3547 763 
L 3547 4666 
L 4159 4666 
L 4159 0 
L 3309 0 
L 1241 3903 
L 1241 0 
L 628 0 
L 628 4666 
z
" transform="scale(0.015625)"/>
      </defs>
      <use xlink:href="#DejaVuSans-53"/>
      <use xlink:href="#DejaVuSans-54" transform="translate(63.476562 0)"/>
      <use xlink:href="#DejaVuSans-4e" transform="translate(124.560547 0)"/>
     </g>
    </g>
   </g>
   <g id="line2d_1">
    <path d="M 54 21.040859 
L 54.10881 21.018987 
L 54.364095 21.100652 
L 54.39339 21.124134 
L 54.439425 21.028439 
L 54.832815 20.489737 
L 55.134135 20.40354 
L 55.393605 20.343598 
L 55.820475 19.710476 
L 56.146905 19.571012 
L 56.431485 19.687848 
L 56.7621 20.094229 
L 57.176415 20.995879 
L 57.703725 22.727392 
L 57.87531 22.954851 
L 58.289625 23.629543 
L 58.80438 24.934462 
L 59.44887 27.231853 
L 60.281685 31.10106 
L 60.599745 32.155755 
L 61.060095 32.994674 
L 61.545555 33.02961 
L 62.005905 33.290538 
L 62.265375 33.54441 
L 62.332335 33.4218 
L 62.909865 32.614567 
L 63.345105 32.343953 
L 63.705015 32.36536 
L 64.064925 32.61999 
L 64.35369 32.995243 
L 64.449945 32.86484 
L 64.885185 32.492223 
L 65.236725 32.459799 
L 65.57571 32.659759 
L 65.973285 33.17975 
L 66.46293 34.223392 
L 67.1409 35.656749 
L 67.56777 36.041347 
L 67.60962 36.092796 
L 67.66821 35.992853 
L 68.21226 35.300893 
L 68.6475 35.072319 
L 69.019965 35.117238 
L 69.262695 35.104142 
L 69.8193 34.153057 
L 70.250355 33.80588 
L 70.601895 33.787452 
L 71.03295 33.803637 
L 71.51841 33.127548 
L 71.89506 32.937256 
L 72.22149 33.012126 
L 72.577215 33.343872 
L 73.00827 34.08145 
L 73.782495 35.470442 
L 74.175885 35.749546 
L 74.24703 35.825151 
L 74.301435 35.724617 
L 74.845485 34.971805 
L 75.272355 34.718487 
L 75.63645 34.745797 
L 76.0131 35.011316 
L 76.14702 35.16325 
L 76.209795 35.056128 
L 76.70781 34.446256 
L 77.1012 34.278612 
L 77.448555 34.367645 
L 77.69547 34.56609 
L 77.766615 34.430164 
L 78.26463 33.745047 
L 78.653835 33.546013 
L 78.75846 33.430688 
L 79.331805 32.09986 
L 79.77123 31.56928 
L 80.1144 31.460911 
L 80.27343 31.363512 
L 80.784 30.357197 
L 80.97651 29.912814 
L 81.566595 28.054395 
L 82.02276 27.257051 
L 82.370115 27.035339 
L 82.65888 27.103409 
L 82.972755 27.430844 
L 83.05227 27.554502 
L 83.123415 27.465023 
L 83.491695 27.207032 
L 83.793015 27.249676 
L 84.11526 27.541605 
L 84.378915 27.962677 
L 84.49191 27.851987 
L 84.85182 27.690524 
L 84.948075 27.583308 
L 85.48794 26.387846 
L 85.902255 25.941008 
L 86.2245 25.882819 
L 86.530005 26.060817 
L 86.747625 26.323719 
L 86.831325 26.202974 
L 87.2289 25.855579 
L 87.54696 25.849254 
L 87.785505 25.826539 
L 88.245855 25.125487 
L 88.597395 24.942505 
L 88.89453 25.028246 
L 89.225145 25.379502 
L 89.635275 26.177269 
L 90.179325 27.207372 
L 90.53505 27.536936 
L 90.966105 28.271448 
L 90.974475 28.289218 
L 91.06236 28.219644 
L 91.42227 27.835155 
L 92.00817 26.411817 
L 92.455965 25.83292 
L 92.799135 25.706133 
L 93.10464 25.829 
L 93.44781 26.230525 
L 93.61521 26.525685 
L 93.70728 26.438607 
L 94.063005 26.284599 
L 94.372695 26.388077 
L 94.56939 26.568043 
L 94.640535 26.441026 
L 95.075775 25.918579 
L 95.41476 25.820981 
L 95.720265 25.966626 
L 96.07599 26.411057 
L 96.5196 27.363008 
L 97.268715 29.021969 
L 97.695585 29.629868 
L 97.737435 29.706486 
L 97.81695 29.621364 
L 97.93413 29.352239 
L 98.607915 27.223375 
L 99.118485 26.256596 
L 99.50769 25.932479 
L 99.81738 25.939208 
L 100.131255 26.186613 
L 100.231695 26.316465 
L 100.298655 26.215368 
L 100.69623 25.840665 
L 101.010105 25.821104 
L 101.26539 25.796361 
L 101.713185 25.130409 
L 102.056355 24.966069 
L 102.35349 25.067392 
L 102.684105 25.441386 
L 103.09842 26.28316 
L 103.62573 27.907891 
L 104.15304 29.405643 
L 104.29533 29.643907 
L 104.374845 29.552649 
L 104.46273 29.300479 
L 105.161625 26.998297 
L 105.688935 25.93559 
L 106.090695 25.559626 
L 106.40457 25.538272 
L 106.71426 25.753679 
L 107.028135 26.209052 
L 107.15787 26.075882 
L 107.50941 25.9169 
L 107.814915 26.019738 
L 108.06183 26.265394 
L 108.149715 26.123377 
L 108.559845 25.703391 
L 108.88209 25.657623 
L 109.19178 25.849072 
L 109.56006 26.370535 
L 110.02041 27.449158 
L 110.60631 29.441492 
L 110.96622 30.635455 
L 111.00807 30.5738 
L 111.447495 29.750884 
L 112.133835 27.608177 
L 112.64859 26.64176 
L 113.04198 26.315425 
L 113.355855 26.322124 
L 113.66973 26.56796 
L 113.849685 26.815785 
L 113.933385 26.705778 
L 114.31422 26.417432 
L 114.62391 26.442279 
L 114.812235 26.407533 
L 115.2684 25.708429 
L 115.615755 25.52611 
L 115.91289 25.611889 
L 116.243505 25.965224 
L 116.653635 26.766613 
L 117.17676 28.327959 
L 117.41112 28.751766 
L 117.82125 29.296087 
L 117.875655 29.390806 
L 117.950985 29.304135 
L 118.10583 28.981232 
L 118.77543 26.863599 
L 119.286 25.900613 
L 119.67102 25.583442 
L 119.98071 25.592438 
L 120.294585 25.842919 
L 120.579165 26.277027 
L 120.70053 26.156179 
L 121.047885 26.004589 
L 121.35339 26.110357 
L 121.51242 26.253358 
L 121.575195 26.13761 
L 122.010435 25.594348 
L 122.345235 25.490035 
L 122.646555 25.630011 
L 122.99391 26.061376 
L 123.42915 26.992846 
L 124.09875 28.442924 
L 124.504695 28.9719 
L 124.65117 29.235436 
L 124.73487 29.151379 
L 124.864605 28.881951 
L 125.525835 26.856664 
L 126.028035 25.948309 
L 126.40887 25.656657 
L 126.714375 25.678841 
L 127.02825 25.940153 
L 127.41327 26.584956 
L 127.50534 26.790593 
L 127.60578 26.735236 
L 127.93221 26.714619 
L 128.254455 26.932601 
L 128.271195 26.95033 
L 128.3256 26.848833 
L 128.773395 26.270332 
L 129.12075 26.143579 
L 129.43044 26.269486 
L 129.78198 26.681253 
L 130.21722 27.571659 
L 130.539465 28.083066 
L 130.87845 28.247744 
L 131.26347 28.70561 
L 131.418315 28.968815 
L 131.502015 28.878052 
L 131.5899 28.633286 
L 132.246945 26.546143 
L 132.74496 25.611772 
L 133.125795 25.307662 
L 133.427115 25.326602 
L 133.736805 25.58522 
L 134.11764 26.228704 
L 134.456625 26.700725 
L 134.7705 26.789146 
L 135.11367 27.13876 
L 135.28107 27.402867 
L 135.36477 27.305926 
L 135.753975 27.053063 
L 136.07622 27.092108 
L 136.415205 27.374559 
L 136.825335 28.038159 
L 137.15595 28.465469 
L 137.503305 28.467407 
L 137.854845 28.706006 
L 137.93436 28.79274 
L 137.99295 28.688299 
L 138.7044 27.246038 
L 139.277745 25.741757 
L 139.712985 25.140421 
L 140.0436 25.011987 
L 140.33655 25.137835 
L 140.67135 25.554216 
L 141.08985 26.468825 
L 141.24051 26.560646 
L 141.5502 26.681036 
L 141.90174 27.080774 
L 142.064955 27.358649 
L 142.15284 27.26781 
L 142.52949 27.065766 
L 142.851735 27.134732 
L 143.19909 27.456062 
L 143.755695 27.995 
L 144.115605 27.905873 
L 144.450405 28.054812 
L 144.77265 28.407914 
L 144.877275 28.251876 
L 145.312515 27.83769 
L 145.463175 27.646513 
L 146.040705 26.169483 
L 146.48013 25.575264 
L 146.81493 25.446991 
L 147.112065 25.571431 
L 147.45105 25.984324 
L 148.074615 26.798586 
L 148.38849 26.937924 
L 148.7484 27.368135 
L 148.878135 27.592068 
L 148.961835 27.503954 
L 149.34267 27.2909 
L 149.6691 27.354737 
L 150.016455 27.670296 
L 150.17967 27.90494 
L 150.259185 27.799973 
L 150.6735 27.463692 
L 151.0083 27.454609 
L 151.3431 27.681589 
L 151.564905 27.960521 
L 151.648605 27.840549 
L 152.07129 27.458228 
L 152.510715 27.139275 
L 153.021285 26.156598 
L 153.41049 25.824775 
L 153.72018 25.826636 
L 154.034055 26.069194 
L 154.410705 26.673409 
L 154.829205 27.286488 
L 155.147265 27.388173 
L 155.50299 27.759865 
L 155.733165 28.141486 
L 155.833605 28.040006 
L 156.21444 27.842177 
L 156.545055 27.912329 
L 156.687345 28.011578 
L 156.74175 27.896986 
L 157.231395 27.145459 
L 157.608045 26.922709 
L 157.926105 26.981302 
L 158.33205 27.081858 
L 158.75892 26.619971 
L 159.09372 26.551363 
L 159.382485 26.500247 
L 159.851205 25.754717 
L 160.211115 25.547287 
L 160.512435 25.621117 
L 160.838865 25.953261 
L 161.24481 26.720573 
L 161.567055 27.204497 
L 161.8893 27.333428 
L 162.253395 27.742593 
L 162.33291 27.868247 
L 162.404055 27.777744 
L 162.814185 27.457757 
L 163.148985 27.455089 
L 163.483785 27.685415 
L 163.48797 27.689757 
L 163.53819 27.593784 
L 164.00691 26.95433 
L 164.371005 26.787587 
L 164.68488 26.880487 
L 164.93598 27.112382 
L 165.01968 26.969068 
L 165.450735 26.480317 
L 165.785535 26.395821 
L 166.095225 26.549963 
L 166.195665 26.64763 
L 166.25007 26.546756 
L 166.689495 25.986062 
L 167.02848 25.869163 
L 167.333985 26.001374 
L 167.68134 26.421566 
L 168.11658 27.337893 
L 168.30072 27.509798 
L 168.62715 27.610157 
L 168.98706 27.9762 
L 169.01217 28.011548 
L 169.074945 27.916842 
L 169.510185 27.481441 
L 169.85754 27.417249 
L 170.18397 27.588402 
L 170.28441 27.685931 
L 170.338815 27.584056 
L 170.80335 26.971154 
L 171.16326 26.822518 
L 171.477135 26.930045 
L 171.82449 27.305429 
L 171.837045 27.323974 
L 171.904005 27.227521 
L 172.314135 26.853998 
L 172.640565 26.828432 
L 172.958625 27.03642 
L 172.97118 27.049313 
L 173.0214 26.953538 
L 173.47338 26.351746 
L 173.820735 26.215128 
L 174.12624 26.331651 
L 174.46941 26.723564 
L 174.89628 27.582804 
L 175.23945 28.13957 
L 175.57425 28.310669 
L 175.82535 28.584892 
L 175.90905 28.452151 
L 176.356845 27.97836 
L 176.71257 27.893317 
L 177.034815 27.828432 
L 177.53283 26.995637 
L 177.913665 26.733316 
L 178.22754 26.768364 
L 178.55397 27.045997 
L 178.742295 27.316461 
L 178.825995 27.210673 
L 179.2152 26.926751 
L 179.53326 26.951989 
L 179.897355 27.000222 
L 180.33678 26.460853 
L 180.675765 26.354782 
L 180.98127 26.492017 
L 181.33281 26.918892 
L 181.772235 27.84108 
L 182.316285 28.942455 
L 182.651085 29.257314 
L 182.751525 29.090364 
L 183.21606 28.566189 
L 183.58434 28.450095 
L 183.797775 28.355696 
L 184.333455 27.304523 
L 184.743585 26.929105 
L 185.06583 26.906521 
L 185.38389 27.121271 
L 185.639175 27.462121 
L 185.739615 27.334906 
L 186.124635 27.060729 
L 186.43851 27.090658 
L 186.794235 27.134786 
L 187.229475 26.601201 
L 187.56846 26.495794 
L 187.873965 26.634577 
L 188.225505 27.06389 
L 188.66493 27.98935 
L 188.878365 28.233753 
L 189.20898 28.346454 
L 189.464265 28.58312 
L 189.54378 28.444177 
L 190.00413 27.889817 
L 190.368225 27.762034 
L 190.594215 27.659601 
L 191.113155 26.660974 
L 191.51073 26.314721 
L 191.82879 26.308259 
L 192.142665 26.538447 
L 192.519315 27.119195 
L 192.64068 27.375044 
L 192.736935 27.31195 
L 193.07592 27.253237 
L 193.398165 27.433378 
L 193.62834 27.700952 
L 193.71204 27.574998 
L 194.13054 27.173688 
L 194.46534 27.131269 
L 194.787585 27.325052 
L 195.164235 27.837895 
L 195.57018 28.332126 
L 195.917535 28.308384 
L 196.25652 28.519235 
L 196.38207 28.655446 
L 196.444845 28.546609 
L 196.905195 27.991981 
L 197.265105 27.866185 
L 197.357175 27.765055 
L 197.89704 26.59232 
L 198.311355 26.156544 
L 198.6336 26.107465 
L 198.939105 26.296461 
L 199.299015 26.808392 
L 199.642185 27.212452 
L 199.968615 27.208905 
L 200.295045 27.443212 
L 200.31597 27.466239 
L 200.370375 27.367127 
L 200.81817 26.801413 
L 201.165525 26.675794 
L 201.4794 26.799318 
L 201.83094 27.201013 
L 202.26618 28.069329 
L 202.59261 28.583927 
L 202.931595 28.72313 
L 203.19525 28.983492 
L 203.27895 28.842141 
L 203.743485 28.304392 
L 204.10758 28.185231 
L 204.145245 28.087794 
L 204.706035 26.812011 
L 205.132905 26.324711 
L 205.46352 26.248777 
L 205.769025 26.415063 
L 206.12475 26.891306 
L 206.71902 27.718041 
L 207.07056 27.639404 
L 207.560205 26.843867 
L 207.936855 26.604876 
L 208.25073 26.657631 
L 208.581345 26.958894 
L 208.98729 27.663374 
L 209.46438 28.444113 
L 209.803365 28.603581 
L 210.0168 28.819078 
L 210.087945 28.69666 
L 210.55248 28.142703 
L 211.01283 27.675812 
L 211.55688 26.496624 
L 211.96701 26.066013 
L 212.289255 26.015506 
L 212.59476 26.203104 
L 212.95467 26.713683 
L 213.40665 27.77976 
L 213.553125 27.869111 
L 213.871185 27.814392 
L 214.365015 27.007518 
L 214.74585 26.757411 
L 215.059725 26.799589 
L 215.39034 27.085264 
L 215.7921 27.756573 
L 216.2106 28.386533 
L 216.5454 28.477538 
L 217.00575 28.634934 
L 217.453545 28.160193 
L 217.838565 27.803039 
L 218.3868 26.594336 
L 218.801115 26.146607 
L 219.12336 26.087492 
L 219.428865 26.266827 
L 219.788775 26.767704 
L 220.240755 27.821876 
L 220.483485 28.181498 
L 220.709475 28.146592 
L 221.211675 27.308207 
L 221.60088 27.038743 
L 221.91894 27.070469 
L 222.249555 27.342627 
L 222.651315 27.993177 
L 222.97356 28.404991 
L 223.312545 28.414518 
L 223.655715 28.657902 
L 223.714305 28.72273 
L 223.76871 28.6255 
L 224.23743 28.034743 
L 224.601525 27.891205 
L 224.668485 27.782279 
L 225.21672 26.545341 
L 225.63522 26.078161 
L 225.957465 26.011809 
L 226.258785 26.182282 
L 226.61451 26.668376 
L 227.32596 27.722556 
L 227.58543 27.701197 
L 228.07089 26.947213 
L 228.443355 26.727109 
L 228.75723 26.787046 
L 229.09203 27.096401 
L 229.50216 27.810448 
L 230.04621 28.737491 
L 230.393565 28.937688 
L 230.64048 29.218706 
L 230.719995 29.094468 
L 231.17616 28.614544 
L 231.53607 28.524778 
L 231.582105 28.418877 
L 232.13871 27.189354 
L 232.561395 26.721814 
L 232.89201 26.650506 
L 233.197515 26.816959 
L 233.557425 27.296001 
L 234.13914 28.097583 
L 234.50742 27.99773 
L 235.00125 27.179727 
L 235.382085 26.926611 
L 235.69596 26.969893 
L 236.026575 27.259962 
L 236.428335 27.940455 
L 236.863575 28.60838 
L 237.198375 28.722128 
L 237.54573 29.073114 
L 237.65454 28.904104 
L 238.09815 28.456389 
L 238.44969 28.38444 
L 238.596165 28.303627 
L 239.12766 27.25395 
L 239.533605 26.881597 
L 239.85585 26.860946 
L 240.169725 27.07604 
L 240.546375 27.63535 
L 240.91047 28.098778 
L 241.27038 27.876775 
L 241.78932 26.862378 
L 242.186895 26.508644 
L 242.504955 26.497095 
L 242.81883 26.72167 
L 243.19548 27.293378 
L 243.643275 27.927977 
L 243.969705 28.005883 
L 244.321245 28.336611 
L 244.60164 28.779086 
L 244.71045 28.665373 
L 245.10384 28.448914 
L 245.426085 28.288046 
L 245.95758 27.248685 
L 246.36771 26.874146 
L 246.689955 26.851384 
L 247.008015 27.064795 
L 247.384665 27.615882 
L 247.836645 28.233535 
L 248.11704 28.082049 
L 248.648535 27.020763 
L 249.05448 26.644326 
L 249.376725 26.621685 
L 249.6906 26.834822 
L 250.06725 27.390624 
L 250.623855 28.213455 
L 250.95447 28.348536 
L 251.326935 28.765714 
L 251.54874 29.143749 
L 251.644995 29.047864 
L 252.038385 28.841376 
L 252.322965 28.691571 
L 252.867015 27.589644 
L 253.285515 27.181315 
L 253.61613 27.140776 
L 253.93419 27.338898 
L 254.306655 27.862478 
L 254.499165 28.252909 
L 254.607975 28.181743 
L 254.951145 28.123229 
L 255.11436 28.045738 
L 255.629115 27.07555 
L 256.022505 26.746065 
L 256.33638 26.745922 
L 256.65444 26.983141 
L 257.035275 27.574114 
L 257.37426 28.004363 
L 257.704875 28.021111 
L 258.04386 28.276819 
L 258.391215 28.783366 
L 258.52095 28.64442 
L 258.910155 28.42956 
L 259.21566 28.274579 
L 259.747155 27.224783 
L 260.1531 26.848118 
L 260.475345 26.821108 
L 260.78922 27.027523 
L 261.161685 27.565635 
L 261.546705 28.053492 
L 261.87732 28.065657 
L 261.889875 28.070695 
L 261.92754 27.974655 
L 262.450665 26.962897 
L 262.84824 26.612843 
L 263.1663 26.600759 
L 263.48436 26.82672 
L 263.865195 27.403571 
L 264.28788 27.98863 
L 264.61431 28.046403 
L 264.961665 28.350271 
L 265.19184 28.686298 
L 265.28391 28.573458 
L 265.69404 28.276802 
L 266.033025 28.289756 
L 266.091615 28.202658 
L 266.618925 27.181118 
L 267.02487 26.817549 
L 267.347115 26.800548 
L 267.665175 27.020709 
L 268.041825 27.580715 
L 268.4394 28.10714 
L 268.753275 27.919743 
L 269.280585 26.861848 
L 269.68653 26.483351 
L 270.00459 26.459886 
L 270.318465 26.672047 
L 270.69093 27.220815 
L 271.105245 27.777888 
L 271.431675 27.820172 
L 271.774845 28.106161 
L 272.06361 28.534171 
L 272.17242 28.41179 
L 272.569995 28.167241 
L 272.904795 28.211403 
L 273.00105 28.26654 
L 273.047085 28.161284 
L 273.55347 27.298825 
L 273.942675 27.019708 
L 274.260735 27.046874 
L 274.587165 27.313929 
L 274.98474 27.959779 
L 275.62086 29.153663 
L 275.64597 29.087107 
L 276.202575 27.938379 
L 276.629445 27.504548 
L 276.964245 27.44769 
L 277.282305 27.626339 
L 277.65477 28.119607 
L 277.92261 28.657721 
L 278.04816 28.583733 
L 278.39133 28.546916 
L 278.72613 28.744605 
L 278.864235 28.892703 
L 278.92701 28.784123 
L 279.383175 28.238951 
L 279.7389 28.119474 
L 279.877005 28.020644 
L 280.4085 26.923718 
L 280.814445 26.532314 
L 281.132505 26.504729 
L 281.442195 26.713847 
L 281.810475 27.259543 
L 282.27501 28.385788 
L 282.44241 28.539286 
L 282.655845 28.4906 
L 283.1706 27.580074 
L 283.568175 27.270999 
L 283.89042 27.279045 
L 284.21685 27.522867 
L 284.61024 28.12478 
L 284.773455 28.469961 
L 284.87808 28.405392 
L 285.22962 28.351685 
L 285.56442 28.534925 
L 285.836445 28.850301 
L 285.928515 28.713695 
L 286.35957 28.301947 
L 286.732035 27.992127 
L 287.2719 26.83967 
L 287.68203 26.419153 
L 288.004275 26.374986 
L 288.30978 26.566833 
L 288.673875 27.087478 
L 289.35603 28.127508 
L 289.48158 28.060771 
L 289.996335 27.111527 
L 290.39391 26.78579 
L 290.71197 26.787109 
L 291.034215 27.025197 
L 291.419235 27.614782 
L 291.78333 28.086908 
L 292.11813 28.102959 
L 292.4613 28.357477 
L 292.867245 28.962756 
L 292.934205 29.093338 
L 293.017905 29.017057 
L 293.4657 28.510981 
L 294.039045 27.155981 
L 294.47847 26.616352 
L 294.817455 26.511802 
L 295.12296 26.653326 
L 295.4745 27.089944 
L 295.90974 28.022044 
L 296.190135 28.44907 
L 296.257095 28.353809 
L 296.801145 27.21956 
L 297.219645 26.798453 
L 297.546075 26.751686 
L 297.85995 26.940031 
L 298.22823 27.447138 
L 298.634175 27.946598 
L 298.968975 27.94509 
L 299.303775 28.177639 
L 299.70135 28.751138 
L 299.89386 29.140805 
L 299.998485 29.067873 
L 300.3291 28.748682 
L 300.910815 27.372681 
L 301.354425 26.824074 
L 301.697595 26.713405 
L 302.0031 26.848482 
L 302.35464 27.273693 
L 302.78988 28.18649 
L 302.953095 28.306832 
L 303.061905 28.195845 
L 303.61851 26.936866 
L 304.04538 26.453455 
L 304.375995 26.377597 
L 304.6815 26.540086 
L 305.04141 27.013126 
L 305.489205 28.008569 
L 305.71101 28.29401 
L 306.04581 28.457743 
L 306.43083 28.921053 
L 306.99162 29.606748 
L 307.280385 29.378371 
L 307.87047 28.019411 
L 308.318265 27.474759 
L 308.66562 27.359686 
L 308.979495 27.491217 
L 309.33522 27.909155 
L 309.774645 28.807766 
L 309.883455 28.791102 
L 310.009005 28.647416 
L 310.578165 27.282186 
L 311.013405 26.740745 
L 311.348205 26.633787 
L 311.65371 26.772656 
L 312.001065 27.200457 
L 312.436305 28.12549 
L 312.578595 28.19003 
L 312.905025 28.268013 
L 313.256565 28.599192 
L 313.68762 29.342952 
L 313.691805 29.351929 
L 313.77969 29.284017 
L 314.15634 29.15907 
L 314.319555 29.063425 
L 314.880345 27.887042 
L 315.307215 27.441488 
L 315.642015 27.377343 
L 315.960075 27.551499 
L 316.328355 28.036189 
L 316.604565 28.593221 
L 316.66734 28.402741 
L 317.274165 26.646319 
L 317.7387 25.895373 
L 318.094425 25.688495 
L 318.39156 25.763542 
L 318.713805 26.097073 
L 319.115565 26.868019 
L 319.492215 27.487345 
L 319.818645 27.673802 
L 320.19948 28.174987 
L 320.823045 29.024382 
L 321.1704 29.098078 
L 321.22899 29.132507 
L 321.27084 29.035243 
L 321.80652 28.087602 
L 322.21665 27.755088 
L 322.55145 27.747456 
L 322.882065 27.975262 
L 323.27127 28.53976 
L 323.300565 28.594957 
L 323.38008 28.514719 
L 323.54748 28.212367 
L 324.154305 26.448881 
L 324.61884 25.698241 
L 324.97038 25.497127 
L 325.26333 25.574562 
L 325.585575 25.914458 
L 325.987335 26.699696 
L 326.63601 27.993263 
L 327.01266 28.455563 
L 327.48138 29.41851 
L 327.678075 29.615452 
L 328.037985 29.668721 
L 328.31001 29.683591 
L 328.83732 28.848359 
L 329.24745 28.567911 
L 329.586435 28.591179 
L 329.929605 28.853046 
L 330.138855 29.129721 
L 330.222555 29.013465 
L 330.34392 28.681457 
L 330.98841 26.527854 
L 331.478055 25.572136 
L 331.846335 25.27102 
L 332.139285 25.29303 
L 332.44479 25.561255 
L 332.82144 26.226896 
L 333.29853 27.568542 
L 333.46593 27.746346 
L 333.82584 28.141428 
L 334.273635 29.000505 
L 334.5624 29.40357 
L 334.918125 29.470428 
L 335.344995 29.569581 
L 335.84301 28.923194 
L 336.22803 28.745143 
L 336.56283 28.826481 
L 336.92274 29.160956 
L 337.01481 29.287355 
L 337.077585 29.181822 
L 337.763925 26.650228 
L 338.282865 25.488084 
L 338.67207 25.084321 
L 338.97339 25.05561 
L 339.26634 25.264947 
L 339.622065 25.826489 
L 340.074045 27.000955 
L 340.55532 28.149288 
L 340.969635 28.80602 
L 341.43417 29.489406 
L 341.789895 29.540335 
L 342.166545 29.835728 
L 342.241875 29.92416 
L 342.300465 29.8236 
L 342.794295 29.216546 
L 343.179315 29.055118 
L 343.5183 29.147643 
L 343.86147 29.467345 
L 343.94517 29.277936 
L 344.63988 26.610022 
L 345.16719 25.366155 
L 345.564765 24.922095 
L 345.866085 24.877723 
L 346.15485 25.071559 
L 346.502205 25.604574 
L 346.945815 26.73756 
L 347.69493 28.70143 
L 348.377085 29.630873 
L 348.736995 29.707359 
L 349.03413 29.938208 
L 349.113645 29.786504 
L 349.624215 29.077815 
L 350.02179 28.860722 
L 350.360775 28.917067 
L 350.745795 28.990246 
L 351.02619 28.277356 
L 351.67068 26.060782 
L 352.160325 25.078527 
L 352.52442 24.772588 
L 352.813185 24.792913 
L 353.11032 25.055133 
L 353.4786 25.710374 
L 353.951505 27.055393 
L 354.537405 28.661855 
L 355.014495 29.644839 
L 355.02705 29.676233 
L 355.12749 29.635397 
L 355.49577 29.634467 
L 355.96449 29.667541 
L 356.479245 28.929733 
L 356.881005 28.697717 
L 357.21999 28.746864 
L 357.558975 28.797086 
L 358.04862 27.660583 
L 358.655445 25.778769 
L 359.115795 24.983925 
L 359.458965 24.769093 
L 359.743545 24.839077 
L 360.053235 25.168126 
L 360.44244 25.942973 
L 360.940455 27.48008 
L 361.333845 28.501409 
L 361.953225 29.211976 
L 362.31732 29.185099 
L 362.67723 29.391501 
L 362.915775 29.654059 
L 362.991105 29.531152 
L 363.47238 28.985182 
L 363.84903 28.858782 
L 364.23405 28.760529 
L 364.748805 27.884929 
L 365.075235 27.349683 
L 365.64858 25.780832 
L 366.08382 25.155294 
L 366.41025 25.022388 
L 366.69483 25.143579 
L 367.02126 25.550476 
L 367.435575 26.462854 
L 367.96707 28.22867 
L 368.13447 28.444408 
L 368.56134 29.146835 
L 368.732925 29.525084 
L 368.83755 29.467087 
L 369.210015 29.417871 
L 369.569925 29.603261 
L 369.91728 29.996132 
L 370.021905 29.84055 
L 370.48644 29.382239 
L 370.85472 29.299756 
L 370.93005 29.201166 
L 371.495025 27.975384 
L 371.92608 27.504023 
L 372.022335 27.318302 
L 372.58731 25.797315 
L 373.01418 25.199121 
L 373.336425 25.076154 
L 373.621005 25.204054 
L 373.95162 25.626599 
L 374.37012 26.566153 
L 374.93928 27.815158 
L 375.33267 28.379082 
L 375.847425 29.097977 
L 376.198965 29.139428 
L 376.567245 29.42271 
L 377.002485 30.065354 
L 377.538165 31.288805 
L 378.207765 33.418926 
L 379.086615 37.026626 
L 380.492775 43.893293 
L 382.476465 53.3728 
L 383.57712 57.554681 
L 384.52293 60.322484 
L 385.389225 62.20761 
L 386.217855 63.503741 
L 387.0423 64.394593 
L 387.90441 65.003827 
L 388.795815 65.389091 
L 388.795815 65.389091 
" clip-path="url(#pe931dad899)" style="fill: none; stroke: #000000; stroke-width: 2; stroke-linecap: square"/>
   </g>
  </g>
  <g id="axes_2">
   <g id="patch_3">
    <path d="M 54 128.16 
L 388.8 128.16 
L 388.8 77.76 
L 54 77.76 
L 54 128.16 
z
" style="fill: none"/>
   </g>
   <g id="matplotlib.axis_3"/>
   <g id="matplotlib.axis_4">
    <g id="text_2">
     <!-- GPe -->
     <g transform="translate(20.301875 100.048437) scale(0.14 -0.14)">
      <defs>
       <path id="DejaVuSans-47" d="M 3809 666 
L 3809 1919 
L 2778 1919 
L 2778 2438 
L 4434 2438 
L 4434 434 
Q 4069 175 3628 42 
Q 3188 -91 2688 -91 
Q 1594 -91 976 548 
Q 359 1188 359 2328 
Q 359 3472 976 4111 
Q 1594 4750 2688 4750 
Q 3144 4750 3555 4637 
Q 3966 4525 4313 4306 
L 4313 3634 
Q 3963 3931 3569 4081 
Q 3175 4231 2741 4231 
Q 1884 4231 1454 3753 
Q 1025 3275 1025 2328 
Q 1025 1384 1454 906 
Q 1884 428 2741 428 
Q 3075 428 3337 486 
Q 3600 544 3809 666 
z
" transform="scale(0.015625)"/>
       <path id="DejaVuSans-50" d="M 1259 4147 
L 1259 2394 
L 2053 2394 
Q 2494 2394 2734 2622 
Q 2975 2850 2975 3272 
Q 2975 3691 2734 3919 
Q 2494 4147 2053 4147 
L 1259 4147 
z
M 628 4666 
L 2053 4666 
Q 2838 4666 3239 4311 
Q 3641 3956 3641 3272 
Q 3641 2581 3239 2228 
Q 2838 1875 2053 1875 
L 1259 1875 
L 1259 0 
L 628 0 
L 628 4666 
z
" transform="scale(0.015625)"/>
       <path id="DejaVuSans-65" d="M 3597 1894 
L 3597 1613 
L 953 1613 
Q 991 1019 1311 708 
Q 1631 397 2203 397 
Q 2534 397 2845 478 
Q 3156 559 3463 722 
L 3463 178 
Q 3153 47 2828 -22 
Q 2503 -91 2169 -91 
Q 1331 -91 842 396 
Q 353 884 353 1716 
Q 353 2575 817 3079 
Q 1281 3584 2069 3584 
Q 2775 3584 3186 3129 
Q 3597 2675 3597 1894 
z
M 3022 2063 
Q 3016 2534 2758 2815 
Q 2500 3097 2075 3097 
Q 1594 3097 1305 2825 
Q 1016 2553 972 2059 
L 3022 2063 
z
" transform="scale(0.015625)"/>
      </defs>
      <use xlink:href="#DejaVuSans-47"/>
      <use xlink:href="#DejaVuSans-50" transform="translate(77.490234 0)"/>
      <use xlink:href="#DejaVuSans-65" transform="translate(134.167969 0)"/>
     </g>
    </g>
   </g>
   <g id="line2d_2">
    <path d="M 54 95.505971 
L 54.280395 96.092421 
L 54.581715 96.245095 
L 54.606825 96.192469 
L 55.201095 95.21419 
L 55.619595 94.551495 
L 56.30175 92.42255 
L 56.82069 91.447303 
L 57.218265 91.114647 
L 57.536325 91.115799 
L 57.854385 91.354348 
L 57.879495 91.37415 
L 57.929715 91.278322 
L 58.38588 90.636972 
L 58.73742 90.480313 
L 59.042925 90.582975 
L 59.386095 90.957128 
L 60.41142 92.673893 
L 60.658335 92.992133 
L 61.02243 92.997719 
L 61.118685 92.920384 
L 61.71714 91.609034 
L 62.17749 91.071024 
L 62.52903 90.698437 
L 63.110745 89.206587 
L 63.554355 88.604127 
L 63.89334 88.471186 
L 64.190475 88.589892 
L 64.525275 88.91996 
L 64.61316 88.783723 
L 65.01492 88.398199 
L 65.33298 88.370976 
L 65.64267 88.578349 
L 66.015135 89.124255 
L 66.48804 90.255927 
L 67.392 92.524882 
L 67.806315 93.013175 
L 67.86909 92.927678 
L 68.358735 92.466896 
L 68.75631 92.373324 
L 69.12459 92.519392 
L 69.396615 92.736532 
L 69.455205 92.617852 
L 69.982515 91.821731 
L 70.38846 91.564514 
L 70.727445 91.599408 
L 71.19198 91.687933 
L 71.664885 91.041837 
L 72.033165 90.871133 
L 72.351225 90.962654 
L 72.702765 91.319277 
L 73.13382 92.109799 
L 73.707165 93.187633 
L 73.71972 93.175464 
L 74.13822 92.929081 
L 74.477205 92.746172 
L 75.071475 91.391703 
L 75.52764 90.836834 
L 75.883365 90.712234 
L 76.20561 90.835508 
L 76.32279 90.917646 
L 76.36464 90.825253 
L 76.854285 90.029329 
L 77.230935 89.785889 
L 77.54481 89.832372 
L 77.9382 89.918964 
L 78.39018 89.322117 
L 78.737535 89.185459 
L 78.863085 89.079018 
L 79.398765 87.855463 
L 79.808895 87.401486 
L 80.126955 87.343814 
L 80.54127 87.330512 
L 80.98488 86.700635 
L 81.114615 86.453013 
L 81.683775 84.74565 
L 82.119015 84.048312 
L 82.44963 83.881174 
L 82.730025 83.983972 
L 83.048085 84.366386 
L 83.207115 84.651336 
L 83.295 84.558311 
L 83.633985 84.389093 
L 83.926935 84.483833 
L 84.253365 84.846745 
L 84.55887 85.355331 
L 84.65931 85.268252 
L 85.15314 84.768584 
L 85.67208 83.633235 
L 86.069655 83.226071 
L 86.379345 83.194076 
L 86.680665 83.402419 
L 86.96106 83.782315 
L 87.057315 83.654771 
L 87.42978 83.380908 
L 87.7311 83.416818 
L 87.90687 83.458143 
L 87.93198 83.401466 
L 88.39233 82.6494 
L 88.739685 82.45068 
L 89.02845 82.529808 
L 89.34651 82.871249 
L 89.744085 83.66171 
L 90.36765 84.918779 
L 90.71919 85.286422 
L 91.158615 86.040225 
L 91.30509 85.929105 
L 91.501785 85.690328 
L 92.104425 84.012604 
L 92.564775 83.308398 
L 92.91213 83.130776 
L 93.20508 83.222756 
L 93.53151 83.585343 
L 93.811905 84.093448 
L 93.929085 83.991946 
L 94.263885 83.888446 
L 94.565205 84.032401 
L 94.77027 84.13155 
L 94.79538 84.085019 
L 95.226435 83.529582 
L 95.55705 83.420901 
L 95.854185 83.559942 
L 96.197355 83.99558 
L 96.62841 84.945123 
L 97.461225 86.88036 
L 97.854615 87.475846 
L 97.980165 87.324962 
L 98.1099 87.024109 
L 98.7795 84.764293 
L 99.285885 83.746916 
L 99.66672 83.413367 
L 99.963855 83.419562 
L 100.265175 83.665546 
L 100.440945 83.910316 
L 100.516275 83.800149 
L 100.892925 83.472315 
L 101.19006 83.478563 
L 101.420235 83.463313 
L 101.86803 82.74058 
L 102.207015 82.556244 
L 102.491595 82.644198 
L 102.809655 83.000734 
L 103.211415 83.826702 
L 103.721985 85.438081 
L 104.32044 87.249164 
L 104.42925 87.394282 
L 104.48784 87.316064 
L 104.6385 86.953925 
L 105.329025 84.507309 
L 105.85215 83.375679 
L 106.24554 82.980036 
L 106.551045 82.953719 
L 106.84818 83.165918 
L 107.220645 83.732028 
L 107.371305 83.586172 
L 107.70192 83.470623 
L 107.99487 83.603857 
L 108.24597 83.824859 
L 108.30456 83.725689 
L 108.710505 83.278691 
L 109.02438 83.224268 
L 109.321515 83.40661 
L 109.67724 83.918072 
L 110.125035 84.99553 
L 110.694195 86.999951 
L 111.104325 88.415842 
L 111.137805 88.361002 
L 111.640005 87.346858 
L 112.920615 82.710008 
L 113.3433 82.108558 
L 113.657175 81.995124 
L 113.933385 82.132967 
L 114.05475 82.218414 
L 114.0966 82.137992 
L 114.49836 81.625614 
L 114.79968 81.553264 
L 114.971265 81.487149 
L 115.423245 80.649326 
L 115.758045 80.425425 
L 116.03007 80.492113 
L 116.33139 80.821274 
L 116.712225 81.606543 
L 117.20187 83.178432 
L 117.565965 84.13289 
L 117.992835 84.913462 
L 118.02213 84.962562 
L 118.101645 84.896316 
L 118.277415 84.632068 
L 118.90098 82.782099 
L 119.37807 81.979268 
L 119.73798 81.752552 
L 120.03093 81.815625 
L 120.34899 82.136682 
L 120.738195 82.881434 
L 120.75912 82.932187 
L 120.85119 82.870675 
L 121.173435 82.820267 
L 121.47894 83.010171 
L 121.7133 83.207685 
L 121.75515 83.140265 
L 122.161095 82.710768 
L 122.479155 82.663389 
L 122.780475 82.854141 
L 123.140385 83.377973 
L 123.592365 84.47377 
L 124.203375 85.933055 
L 124.60095 86.472105 
L 124.79346 86.832565 
L 124.881345 86.740088 
L 125.032005 86.44838 
L 125.68905 84.323577 
L 126.187065 83.37825 
L 126.55953 83.082514 
L 126.856665 83.107793 
L 127.16217 83.376759 
L 127.53882 84.041971 
L 127.676925 84.366541 
L 127.777365 84.3139 
L 128.09124 84.308789 
L 128.405115 84.544431 
L 128.47626 84.549775 
L 128.505555 84.494237 
L 128.94498 83.912623 
L 129.27978 83.791779 
L 129.576915 83.919563 
L 129.920085 84.338344 
L 130.346955 85.250062 
L 130.681755 85.826308 
L 131.008185 85.975574 
L 131.38065 86.417897 
L 131.619195 86.772791 
L 131.677785 86.68865 
L 132.89562 83.13714 
L 133.27227 82.798072 
L 133.56522 82.80155 
L 133.862355 83.044419 
L 134.22645 83.664674 
L 134.64495 84.319476 
L 134.94627 84.427516 
L 135.285255 84.810714 
L 135.486135 85.052393 
L 135.536355 84.993147 
L 135.91719 84.733395 
L 136.231065 84.772682 
L 136.557495 85.054964 
L 136.95507 85.722729 
L 137.18943 86.262814 
L 137.302425 86.20525 
L 137.64141 86.191167 
L 137.97621 86.41135 
L 138.12687 86.545212 
L 138.172905 86.458972 
L 138.83832 85.017093 
L 139.420035 83.334909 
L 139.85946 82.656476 
L 140.18589 82.500891 
L 140.466285 82.607518 
L 140.784345 82.994793 
L 141.186105 83.875864 
L 141.39954 84.143678 
L 141.70086 84.262719 
L 142.039845 84.661769 
L 142.257465 84.975725 
L 142.32024 84.908377 
L 142.68852 84.696334 
L 142.99821 84.760808 
L 143.33301 85.077453 
L 143.764065 85.779176 
L 143.906355 85.661959 
L 144.257895 85.557755 
L 144.58014 85.695841 
L 144.969345 86.118049 
L 145.08234 85.94698 
L 145.50084 85.552909 
L 145.613835 85.377385 
L 146.19555 83.765617 
L 146.634975 83.118425 
L 146.96559 82.973598 
L 147.25017 83.087624 
L 147.5766 83.488087 
L 147.98673 84.386905 
L 148.12902 84.459126 
L 148.434525 84.519841 
L 148.760955 84.83385 
L 149.06646 85.277819 
L 149.154345 85.182963 
L 149.522625 84.977137 
L 149.8365 85.047142 
L 150.175485 85.374215 
L 150.342885 85.60309 
L 150.409845 85.506191 
L 150.819975 85.129566 
L 151.146405 85.100989 
L 151.464465 85.305969 
L 151.75323 85.661925 
L 151.841115 85.531059 
L 152.251245 85.150075 
L 152.653005 84.845537 
L 153.16776 83.75083 
L 153.556965 83.37344 
L 153.858285 83.356271 
L 154.15542 83.574976 
L 154.51533 84.147671 
L 155.013345 84.924612 
L 155.323035 85.041954 
L 155.67039 85.437989 
L 155.925675 85.834513 
L 156.00519 85.751191 
L 156.377655 85.545627 
L 156.695715 85.61291 
L 156.871485 85.691738 
L 156.90915 85.607301 
L 157.39461 84.805852 
L 157.767075 84.564773 
L 158.07258 84.615453 
L 158.39901 84.917014 
L 158.42412 84.93266 
L 158.47434 84.842167 
L 158.905395 84.315167 
L 159.23601 84.220848 
L 159.524775 84.149076 
L 159.99768 83.306333 
L 160.353405 83.060375 
L 160.646355 83.112189 
L 160.956045 83.415062 
L 161.341065 84.137458 
L 161.73864 84.80009 
L 162.04833 84.932273 
L 162.39987 85.347466 
L 162.53379 85.492257 
L 162.579825 85.43172 
L 162.981585 85.101913 
L 163.308015 85.099574 
L 163.75581 85.145927 
L 164.20779 84.531953 
L 164.555145 84.386379 
L 164.86065 84.497106 
L 165.12849 84.745947 
L 165.20382 84.611902 
L 165.626505 84.113591 
L 165.952935 84.030362 
L 166.254255 84.189323 
L 166.354695 84.220203 
L 166.38399 84.160252 
L 166.8276 83.516651 
L 167.166585 83.366489 
L 167.459535 83.477729 
L 167.79015 83.868718 
L 168.204465 84.742835 
L 168.455565 85.0912 
L 168.76944 85.186934 
L 169.116795 85.550286 
L 169.217235 85.637121 
L 169.26327 85.566425 
L 169.685955 85.13541 
L 170.020755 85.078397 
L 170.338815 85.259067 
L 170.472735 85.326498 
L 170.50203 85.268666 
L 170.96238 84.617983 
L 171.31392 84.457633 
L 171.619425 84.55971 
L 171.95841 84.934812 
L 172.03374 85.018984 
L 172.088145 84.938228 
L 172.489905 84.559512 
L 172.807965 84.536143 
L 173.218095 84.552581 
L 173.65752 83.944364 
L 173.99232 83.808195 
L 174.289455 83.92692 
L 174.624255 84.327668 
L 175.042755 85.213026 
L 175.394295 85.830254 
L 175.71654 85.992222 
L 176.0346 86.302612 
L 176.105745 86.186357 
L 176.540985 85.711183 
L 176.884155 85.629464 
L 177.18966 85.569522 
L 177.69186 84.651215 
L 178.072695 84.35927 
L 178.3782 84.384917 
L 178.692075 84.652753 
L 178.943175 84.982083 
L 179.018505 84.884568 
L 179.395155 84.60362 
L 179.70066 84.631426 
L 180.01872 84.668801 
L 180.466515 84.026401 
L 180.8055 83.877975 
L 181.09845 83.986423 
L 181.429065 84.369271 
L 181.84338 85.22574 
L 182.525535 86.672521 
L 182.86452 86.95639 
L 182.927295 86.848726 
L 183.38346 86.307631 
L 183.74337 86.189071 
L 183.973545 86.096368 
L 184.50504 84.989669 
L 184.9068 84.597851 
L 185.220675 84.569357 
L 185.52618 84.777567 
L 185.81913 85.175452 
L 185.91957 85.041327 
L 186.29622 84.758129 
L 186.601725 84.78623 
L 186.911415 84.819961 
L 187.355025 84.178328 
L 187.69401 84.02612 
L 187.98696 84.132426 
L 188.317575 84.513808 
L 188.73189 85.369325 
L 189.045765 85.8754 
L 189.363825 85.992422 
L 189.673515 86.249195 
L 189.740475 86.129781 
L 190.18827 85.581509 
L 190.535625 85.463764 
L 190.753245 85.366607 
L 191.272185 84.290553 
L 191.665575 83.917103 
L 191.975265 83.900626 
L 192.28077 84.124931 
L 192.64905 84.707697 
L 192.81645 85.059656 
L 192.912705 84.994034 
L 193.239135 84.93543 
L 193.548825 85.11381 
L 193.808295 85.346155 
L 193.858515 85.264209 
L 194.277015 84.81082 
L 194.603445 84.746353 
L 194.913135 84.920612 
L 195.273045 85.406707 
L 195.60366 86.108179 
L 195.74595 86.025608 
L 196.08075 86.004633 
L 196.40718 86.218544 
L 196.59132 86.359086 
L 196.628985 86.291578 
L 197.080965 85.722501 
L 197.432505 85.596286 
L 197.516205 85.499558 
L 198.05607 84.229597 
L 198.4662 83.755562 
L 198.780075 83.690624 
L 199.073025 83.864581 
L 199.42038 84.360159 
L 199.83051 84.901461 
L 200.144385 84.907088 
L 200.55033 84.952376 
L 200.99394 84.357962 
L 201.332925 84.228939 
L 201.634245 84.352403 
L 201.977415 84.762319 
L 202.404285 85.658096 
L 202.76001 86.274407 
L 203.08644 86.419647 
L 203.4045 86.705408 
L 203.47146 86.589652 
L 203.92344 86.053059 
L 204.40053 85.58621 
L 204.93621 84.376549 
L 205.342155 83.93395 
L 205.65603 83.883767 
L 205.953165 84.072822 
L 206.304705 84.589678 
L 206.87805 85.452383 
L 207.21285 85.364077 
L 207.70668 84.466546 
L 208.079145 84.186711 
L 208.380465 84.214965 
L 208.69434 84.485268 
L 209.07936 85.144042 
L 209.661075 86.141814 
L 209.987505 86.324915 
L 210.230235 86.511859 
L 210.272085 86.437527 
L 210.72825 85.868916 
L 211.17186 85.406339 
L 211.711725 84.136991 
L 212.121855 83.661683 
L 212.43573 83.59512 
L 212.72868 83.76733 
L 213.076035 84.260895 
L 213.51546 85.317938 
L 213.71634 85.565593 
L 213.90885 85.485391 
L 213.988365 85.337398 
L 214.57008 83.69333 
L 215.01369 83.019923 
L 215.34849 82.859284 
L 215.637255 82.962796 
L 215.963685 83.346337 
L 216.231525 83.861908 
L 216.35289 83.764374 
L 216.67932 83.683808 
L 216.98064 83.844073 
L 217.102005 83.881356 
L 217.127115 83.831038 
L 217.570725 83.199403 
L 217.90971 83.051349 
L 217.95156 82.949664 
L 218.47887 81.666347 
L 218.876445 81.203875 
L 219.177765 81.150794 
L 219.462345 81.336094 
L 219.805515 81.858053 
L 220.240755 82.969317 
L 220.709475 84.066139 
L 220.818285 84.120918 
L 220.851765 84.0543 
L 221.312115 83.397409 
L 221.66784 83.228811 
L 221.973345 83.323415 
L 222.31233 83.685722 
L 222.73083 84.496568 
L 223.17444 85.284253 
L 223.505055 85.430725 
L 223.948665 85.830973 
L 224.032365 85.708816 
L 224.45505 85.315093 
L 224.78985 85.275755 
L 224.844255 85.175314 
L 225.38412 83.966573 
L 225.790065 83.527476 
L 226.10394 83.47753 
L 226.401075 83.665545 
L 226.752615 84.180348 
L 227.196225 85.265608 
L 227.33433 85.332596 
L 227.648205 85.462203 
L 227.65239 85.465442 
L 227.71098 85.379688 
L 228.200625 84.522407 
L 228.57309 84.255576 
L 228.878595 84.290432 
L 229.196655 84.568736 
L 229.58586 85.237157 
L 230.28057 86.484032 
L 230.62374 86.748971 
L 230.84973 86.97718 
L 230.89995 86.896462 
L 231.347745 86.404753 
L 231.82902 85.978763 
L 232.3647 84.794526 
L 232.770645 84.36173 
L 233.08452 84.313711 
L 233.38584 84.50492 
L 233.741565 85.026103 
L 234.285615 85.833616 
L 234.645525 85.708388 
L 235.14354 84.781177 
L 235.52019 84.483448 
L 235.825695 84.502583 
L 236.13957 84.764284 
L 236.520405 85.40315 
L 237.04353 86.263955 
L 237.365775 86.392857 
L 237.74661 86.73985 
L 237.83031 86.606022 
L 238.26555 86.150505 
L 238.604535 86.081887 
L 238.763565 86.006449 
L 239.290875 84.899764 
L 239.68845 84.510414 
L 240.002325 84.483473 
L 240.30783 84.696276 
L 240.671925 85.253139 
L 241.09461 85.850336 
L 241.400115 85.661119 
L 241.927425 84.513854 
L 242.325 84.106812 
L 242.63469 84.070481 
L 242.93601 84.27111 
L 243.29592 84.809775 
L 243.8316 85.611629 
L 244.145475 85.705416 
L 244.49283 86.065296 
L 244.789965 86.535767 
L 244.88622 86.431564 
L 245.267055 86.211776 
L 245.585115 86.054669 
L 246.11661 84.930633 
L 246.522555 84.524156 
L 246.83643 84.488922 
L 247.141935 84.690123 
L 247.50603 85.229262 
L 248.020785 85.987017 
L 248.25096 85.853029 
L 248.78664 84.663119 
L 249.192585 84.230305 
L 249.50646 84.182217 
L 249.80778 84.371834 
L 250.163505 84.887822 
L 250.824735 85.907198 
L 251.142795 86.071207 
L 251.511075 86.536358 
L 251.74125 86.891446 
L 251.80821 86.822376 
L 252.19323 86.605529 
L 252.481995 86.457569 
L 253.026045 85.271987 
L 253.44036 84.834076 
L 253.762605 84.783708 
L 254.06811 84.972768 
L 254.42802 85.487728 
L 254.674935 85.991649 
L 254.783745 85.918449 
L 255.11436 85.862855 
L 255.25665 85.781125 
L 255.771405 84.711606 
L 256.164795 84.337274 
L 256.474485 84.320169 
L 256.77999 84.54275 
L 257.14827 85.120598 
L 257.5584 85.702535 
L 257.87646 85.733144 
L 258.207075 86.00726 
L 258.57954 86.559418 
L 258.69672 86.429895 
L 259.077555 86.21239 
L 259.378875 86.055887 
L 259.91037 84.925242 
L 260.316315 84.517238 
L 260.63019 84.482521 
L 260.935695 84.685357 
L 261.29979 85.227551 
L 261.71829 85.801514 
L 262.140975 85.552288 
L 262.651545 84.535228 
L 263.036565 84.195195 
L 263.34207 84.193365 
L 263.647575 84.428322 
L 264.02004 85.028245 
L 264.44691 85.659755 
L 264.76497 85.713458 
L 265.09977 86.014649 
L 265.38435 86.395855 
L 265.45968 86.300145 
L 265.857255 85.997746 
L 266.183685 86.008096 
L 266.225535 85.994821 
L 266.250645 85.926485 
L 266.777955 84.824797 
L 267.179715 84.433253 
L 267.49359 84.406825 
L 267.799095 84.617886 
L 268.16319 85.169915 
L 268.61517 85.817845 
L 268.89138 85.64083 
L 269.422875 84.466096 
L 269.824635 84.04223 
L 270.13851 83.998117 
L 270.43983 84.193111 
L 270.79974 84.725195 
L 271.27683 85.404934 
L 271.590705 85.455257 
L 271.925505 85.75531 
L 272.24775 86.210865 
L 272.33982 86.103874 
L 272.72484 85.855705 
L 273.047085 85.898246 
L 273.16845 85.941967 
L 273.20193 85.860213 
L 273.70413 84.939421 
L 274.08915 84.637591 
L 274.39884 84.657139 
L 274.712715 84.916234 
L 275.097735 85.55704 
L 275.57901 86.834699 
L 275.7213 86.919995 
L 275.79663 86.831273 
L 276.34905 85.597394 
L 276.771735 85.126307 
L 277.098165 85.055402 
L 277.40367 85.222386 
L 277.759395 85.697641 
L 278.236485 86.313437 
L 278.5671 86.298802 
L 278.89353 86.521383 
L 279.065115 86.650566 
L 279.10278 86.583511 
L 279.550575 86.026263 
L 279.89793 85.906578 
L 280.036035 85.809744 
L 280.563345 84.635174 
L 280.965105 84.208256 
L 281.274795 84.164878 
L 281.57193 84.357811 
L 281.927655 84.885704 
L 282.37545 85.990303 
L 282.60144 86.321264 
L 282.79395 86.262452 
L 283.31289 85.24142 
L 283.710465 84.886671 
L 284.02434 84.875782 
L 284.338215 85.102414 
L 284.714865 85.681695 
L 284.94504 86.186054 
L 285.058035 86.115561 
L 285.392835 86.071395 
L 285.71508 86.261756 
L 286.04151 86.598798 
L 286.112655 86.491165 
L 286.53534 86.078309 
L 286.899435 85.774709 
L 287.435115 84.548915 
L 287.84106 84.097029 
L 288.154935 84.04057 
L 288.45207 84.223896 
L 288.80361 84.733714 
L 289.24722 85.81166 
L 289.385325 85.884851 
L 289.636425 85.784198 
L 290.15118 84.739794 
L 290.54457 84.374706 
L 290.85426 84.358056 
L 291.16395 84.579639 
L 291.536415 85.155123 
L 291.954915 85.748905 
L 292.27716 85.767621 
L 292.607775 86.025772 
L 293.00535 86.649712 
L 293.12253 86.829282 
L 293.185305 86.770387 
L 293.64147 86.231913 
L 294.21063 84.805384 
L 294.641685 84.24416 
L 294.9723 84.132802 
L 295.26525 84.268686 
L 295.604235 84.698545 
L 296.02692 85.63102 
L 296.365905 86.236747 
L 296.407755 86.140273 
L 296.951805 84.899598 
L 297.36612 84.432165 
L 297.688365 84.364124 
L 297.989685 84.53534 
L 298.34541 85.024827 
L 298.818315 85.654666 
L 299.14056 85.661138 
L 299.46699 85.905542 
L 299.856195 86.503116 
L 300.078 86.919748 
L 300.1617 86.858196 
L 300.500685 86.513021 
L 301.078215 85.047285 
L 301.51764 84.461098 
L 301.85244 84.338216 
L 302.149575 84.467129 
L 302.48856 84.885334 
L 302.911245 85.79897 
L 303.128865 86.070262 
L 303.21675 85.963356 
L 303.773355 84.591152 
L 304.19604 84.059668 
L 304.52247 83.962666 
L 304.819605 84.113105 
L 305.162775 84.565644 
L 305.59383 85.540942 
L 305.87841 86.00345 
L 306.200655 86.168801 
L 306.57312 86.63703 
L 307.15902 87.396521 
L 307.447785 87.161796 
L 308.033685 85.712729 
L 308.477295 85.130451 
L 308.81628 85.003192 
L 309.1176 85.125651 
L 309.46077 85.534081 
L 309.883455 86.420005 
L 310.05504 86.566061 
L 310.15548 86.428051 
L 310.72464 84.937757 
L 311.15988 84.338083 
L 311.490495 84.209607 
L 311.783445 84.333622 
L 312.118245 84.745362 
L 312.536745 85.650282 
L 312.74181 85.883135 
L 313.055685 85.961533 
L 313.398855 86.299266 
L 313.817355 87.055612 
L 313.901055 87.128783 
L 313.951275 87.09022 
L 314.31537 86.96454 
L 314.478585 86.87028 
L 315.03519 85.609111 
L 315.46206 85.122537 
L 315.792675 85.046434 
L 316.09818 85.212467 
L 316.453905 85.689204 
L 316.771965 86.348284 
L 316.830555 86.15084 
L 317.43738 84.259279 
L 317.901915 83.44948 
L 318.24927 83.2266 
L 318.53385 83.291196 
L 318.84354 83.611991 
L 319.232745 84.37408 
L 319.67217 85.163241 
L 319.986045 85.362525 
L 320.35851 85.888574 
L 320.990445 86.816587 
L 321.325245 86.890551 
L 321.40476 86.90031 
L 321.434055 86.827333 
L 321.96555 85.811631 
L 322.371495 85.450379 
L 322.697925 85.431767 
L 323.015985 85.649559 
L 323.392635 86.20579 
L 323.49726 86.375945 
L 323.568405 86.303008 
L 323.693955 86.043772 
L 324.304965 84.106815 
L 324.7695 83.278342 
L 325.116855 83.045814 
L 325.401435 83.10606 
L 325.711125 83.426197 
L 326.096145 84.183418 
L 326.82852 85.698616 
L 327.20517 86.215359 
L 327.67389 87.275007 
L 327.837105 87.398393 
L 328.00869 87.253373 
L 328.406265 87.031977 
L 328.4523 86.913672 
L 329.05494 85.303564 
L 329.51529 84.631068 
L 329.862645 84.465492 
L 330.15978 84.562654 
L 330.33555 84.692319 
L 330.38577 84.590159 
L 330.51969 84.087205 
L 331.151625 81.562846 
L 331.6329 80.438817 
L 331.99281 80.078582 
L 332.264835 80.08263 
L 332.541045 80.327572 
L 332.8884 80.970134 
L 333.336195 82.316575 
L 333.6417 83.014306 
L 334.01835 83.622592 
L 334.49544 84.858548 
L 334.725615 85.219681 
L 335.07297 85.451859 
L 335.445435 85.877389 
L 335.529135 85.756549 
L 335.96856 85.342673 
L 336.3201 85.28734 
L 336.6549 85.468651 
L 337.035735 85.953913 
L 337.19895 86.238389 
L 337.24917 86.097335 
L 337.91877 83.664044 
L 338.42097 82.570192 
L 338.79762 82.204208 
L 339.09057 82.198312 
L 339.379335 82.432034 
L 339.73506 83.041029 
L 340.18704 84.302187 
L 340.72272 85.720608 
L 341.14122 86.471325 
L 341.5932 87.211976 
L 341.940555 87.277086 
L 342.308835 87.591644 
L 342.41346 87.694918 
L 342.46368 87.604392 
L 342.94914 86.97424 
L 343.32579 86.805197 
L 343.656405 86.896093 
L 344.01213 87.23759 
L 344.11257 87.059243 
L 344.284155 86.267599 
L 344.937015 83.827853 
L 345.42666 82.748544 
L 345.79494 82.396789 
L 346.07952 82.401964 
L 346.368285 82.652992 
L 346.72401 83.294118 
L 347.180175 84.622846 
L 347.782815 86.334664 
L 348.23898 87.293045 
L 348.43149 87.481332 
L 348.78303 87.485249 
L 349.138755 87.723004 
L 349.2099 87.771391 
L 349.26012 87.694929 
L 349.774875 86.908858 
L 350.168265 86.663292 
L 350.49888 86.705386 
L 350.896455 86.781422 
L 351.22707 85.910638 
L 351.86319 83.604091 
L 352.344465 82.592158 
L 352.704375 82.279936 
L 352.98477 82.305626 
L 353.273535 82.576688 
L 353.63763 83.262672 
L 354.102165 84.662603 
L 354.69225 86.385694 
L 355.156785 87.392709 
L 355.207005 87.445555 
L 355.282335 87.41192 
L 355.63806 87.396394 
L 355.9896 87.612411 
L 356.03982 87.634801 
L 356.08167 87.553284 
L 356.604795 86.703067 
L 357.006555 86.422992 
L 357.33717 86.446817 
L 357.73056 86.495063 
L 358.24113 85.260133 
L 358.90236 82.454388 
L 359.40456 81.172083 
L 359.78121 80.731812 
L 360.061605 80.700571 
L 360.33363 80.910599 
L 360.66843 81.485825 
L 361.10367 82.728467 
L 361.47195 83.61183 
L 361.8486 84.225909 
L 361.95741 84.402306 
L 362.02437 84.346651 
L 362.37591 84.221044 
L 362.689785 84.343712 
L 363.04551 84.744747 
L 363.08736 84.791767 
L 363.14595 84.699699 
L 363.577005 84.249663 
L 363.91599 84.182825 
L 364.23405 84.352897 
L 364.30938 84.426134 
L 364.3596 84.319627 
L 364.832505 83.599559 
L 365.301225 82.997384 
L 365.82435 81.758281 
L 366.213555 81.32438 
L 366.51069 81.283669 
L 366.79527 81.481605 
L 367.13844 82.023767 
L 367.577865 83.182203 
L 368.657595 86.275886 
L 369.02169 86.837517 
L 369.377415 86.862538 
L 369.74151 87.127457 
L 370.105605 87.568559 
L 370.189305 87.447244 
L 370.641285 87.014512 
L 371.001195 86.950181 
L 371.08908 86.856172 
L 371.654055 85.569213 
L 372.07674 85.084625 
L 372.19392 84.882738 
L 372.75471 83.287525 
L 373.177395 82.663034 
L 373.495455 82.536105 
L 373.771665 82.666548 
L 374.09391 83.097308 
L 374.50404 84.062564 
L 375.135975 85.563082 
L 375.529365 86.197626 
L 375.98553 86.884571 
L 376.3287 86.90586 
L 376.68024 87.165719 
L 377.09874 87.78184 
L 377.613495 88.974497 
L 378.257985 91.08024 
L 379.0908 94.630402 
L 380.33793 101.051133 
L 382.71501 113.332285 
L 383.798925 117.703152 
L 384.736365 120.610215 
L 385.598475 122.595419 
L 386.418735 123.952589 
L 387.230625 124.882784 
L 388.075995 125.519862 
L 388.795815 125.869091 
L 388.795815 125.869091 
" clip-path="url(#pd760b382f4)" style="fill: none; stroke: #5e3c99; stroke-width: 2; stroke-linecap: square"/>
   </g>
  </g>
 </g>
 <defs>
  <clipPath id="pe931dad899">
   <rect x="54" y="17.28" width="334.8" height="50.4"/>
  </clipPath>
  <clipPath id="pd760b382f4">
   <rect x="54" y="77.76" width="334.8" height="50.4"/>
  </clipPath>
 </defs>
</svg>
